<?xml version="1.0" encoding="UTF-8"?>
<svg width="48px" height="43px" viewBox="0 0 48 43" version="1.1" xmlns="http://www.w3.org/2000/svg" xmlns:xlink="http://www.w3.org/1999/xlink">
    <title>人口icon</title>
    <g id="页面-1" stroke="none" stroke-width="1" fill="none" fill-rule="evenodd">
        <g id="行政村级" transform="translate(-40.000000, -261.000000)" fill-rule="nonzero">
            <g id="两侧数据" transform="translate(40.000000, 175.000000)">
                <g id="人口数量" transform="translate(0.000000, 80.000000)">
                    <g id="人口icon" transform="translate(0.000000, 6.000000)">
                        <path d="M21.5491553,27.2006 C20.3469672,26.7222371 20.1666411,26.0345885 20.3770224,23.7025707 L20.3770225,23.7025697 C20.5972462,22.1345371 21.1394555,20.6283559 21.9699181,19.2777099 L21.9699177,19.2777102 C23.1617194,18.2643644 24.1771889,17.0622637 24.9753828,15.7198844 C26.1475157,13.7765337 25.4262023,12.9692962 25.4262023,12.9692962 L25.4262022,12.969296 C25.2831913,12.6588322 25.1014324,12.3675257 24.8852186,12.1022619 C25.3961475,4.32886943 24.2540693,4.02988673 24.2540693,4.02988673 C23.2021573,1.69786898 18.9644753,0.800936649 18.9644753,0.800936649 L18.964474,0.800936243 C16.2792142,-0.0840241666 13.4049694,-0.238855056 10.6393492,0.352471129 L10.6393495,0.352474321 C10.68154,0.814705567 10.7517959,1.27397589 10.8497324,1.72776846 L10.8497315,1.72776914 C10.0333482,2.39703001 9.33280083,3.19491808 8.77596281,4.08968517 C7.45355903,6.12272548 8.14481351,12.2816745 8.14481351,12.2816745 L7.8142123,12.7002418 C6.97268166,13.2085025 8.0546494,15.690011 8.0546494,15.690011 L8.05464787,15.690009 C8.97589435,16.9222129 9.98001592,18.0908994 11.0601129,19.1880382 C11.661207,20.2942532 12.4726824,22.1778074 12.4726824,22.1778074 L12.4726829,22.177809 C12.703163,22.9783826 12.8541587,23.7995156 12.9235013,24.6294093 L12.9235014,24.62941 C12.9763029,25.2099115 12.7797794,25.7855413 12.3825178,26.2139868 L11.6612081,27.0511278 C5.04916272,27.3501047 0,29.0243768 0,36.0204511 L0,42 L33,42 L33,36.0204511 C32.6393441,29.6821651 27.8306005,27.6490932 21.5491627,27.2006454 L21.5491553,27.2006 Z" id="路径" fill="#00BAFF"></path>
                        <path d="M41.8282067,25.3459214 L39.1409571,25.3459214 C37.90069,24.6280393 38.6094133,22.6837693 38.9047154,22.0257067 L38.9047155,22.0257067 C39.2506789,21.8975791 39.6061664,21.7975569 39.9678031,21.7265884 C45.6671567,21.307823 45.3423128,19.1840806 45.3423128,19.1840806 L44.7812383,18.5559305 L44.7812376,18.5559292 C44.1574471,17.2584802 43.8150997,15.8408033 43.7772116,14.398188 L43.7772118,14.3981856 C43.9987701,11.7507189 43.4111329,9.09828871 42.0939881,6.80056958 L42.0939881,6.80056948 C41.3964251,5.39585337 39.7878563,4.72119677 38.31412,5.21524318 C37.6053967,3.98886058 35.5973396,4.04868014 35.5973396,4.04868014 C31.6107612,3.74956181 28.5691265,9.1336903 28.5691265,9.1336903 C27.2107363,10.0310469 27.4765082,17.0902132 27.4765082,17.0902132 C27.1221455,19.4831588 26,19.3036896 26,19.3036896 C26.1771811,21.3975164 31.4630658,21.9060169 31.4630658,21.9060169 L31.4630653,21.9060166 C31.7858468,22.0885817 32.1344456,22.2197352 32.4966221,22.2948706 C32.7919242,23.0426651 33.3529993,24.8074659 32.2013199,25.4655232 L30.5771578,25.4655232 L30.5771576,25.4655232 C29.2282719,25.4512645 27.9152134,25.9051631 26.8563512,26.7517306 L29.5731317,27.020937 C34.7409207,28.1276753 35.4791852,30.7898274 35.804029,36.742287 L35.804029,42.036663 L48,42.036663 L48,31.567529 L48,31.5675324 C47.9837478,28.1265692 45.2252896,25.3458138 41.8281746,25.3458664 L41.8282067,25.3459214 Z" id="路径" fill="#02D281"></path>
                    </g>
                </g>
            </g>
        </g>
    </g>
</svg>