<?xml version="1.0" encoding="UTF-8"?>
<svg width="42px" height="38px" viewBox="0 0 42 38" version="1.1" xmlns="http://www.w3.org/2000/svg" xmlns:xlink="http://www.w3.org/1999/xlink">
    <title>危房icon</title>
    <g id="页面-1" stroke="none" stroke-width="1" fill="none" fill-rule="evenodd">
        <g id="县级" transform="translate(-51.000000, -560.000000)" fill="#23FFFF" fill-rule="nonzero">
            <g id="左侧" transform="translate(40.000000, 175.000000)">
                <g id="危房数量" transform="translate(0.000000, 372.000000)">
                    <path d="M31.298206,13.2656365 C31.6961035,12.9114545 32.2952902,12.9114545 32.6885065,13.2656365 L32.6885065,13.2656365 L52.6582763,31.147167 C52.8736091,31.3428992 53,31.6225166 53,31.9161148 C53,32.4893304 52.5365665,32.950699 51.9607855,32.950699 L51.9607855,32.950699 L48.903997,32.950699 C48.3282161,32.950699 47.8647826,33.4120677 47.8647826,33.9852833 L47.8647826,33.9852833 L47.8647826,49.9654157 C47.8647826,50.5386313 47.4013491,51 46.8255681,51 L46.8255681,51 L37.570942,51 C36.995161,51 36.5317275,50.5386313 36.5317275,49.9654157 L36.5317275,49.9654157 L36.5317275,45.7198921 C36.5317275,45.1466765 36.0682941,44.6853078 35.4925131,44.6853078 L35.4925131,44.6853078 L28.5035617,44.6853078 C27.9277807,44.6853078 27.4643473,45.1513368 27.4643473,45.7152318 L27.4643473,45.7152318 L27.4643473,49.9607555 C27.4643473,50.5339711 27.0009138,50.9953397 26.4251328,50.9953397 L26.4251328,50.9953397 L17.1751878,50.9953397 C16.5994068,50.9953397 16.1359734,50.5339711 16.1359734,49.9607555 L16.1359734,49.9607555 L16.1359734,33.980623 C16.1359734,33.4074074 15.6725399,32.9460388 15.0967589,32.9460388 L15.0967589,32.9460388 L12.0399704,32.9460388 C11.7450582,32.9460388 11.4641894,32.8248712 11.2675813,32.6058376 C10.8837273,32.1817513 10.9164953,31.5293108 11.3424796,31.147167 L11.3424796,31.147167 Z M28.85,23.042 C27.374,25.256 25.646,26.966 23.648,28.172 L24.926,29.702 C25.268,29.468 25.61,29.216 25.97,28.946 L25.97,32.042 C25.898,34.85 25.16,37.046 23.738,38.612 L25.25,39.962 C26.906,37.982 27.788,35.336 27.86,32.042 L27.86,29.396 L39.812,29.396 L39.812,27.56 L35.06,27.56 C35.636,27.056 36.194,26.462 36.77,25.778 L36.77,24.446 L30.164,24.446 L30.794,23.474 L30.794,23.474 L28.85,23.042 Z M37.508,30.926 L29.534,30.926 L29.534,37.928 C29.534,39.062 30.164,39.638 31.442,39.638 L37.49,39.638 C38.498,39.638 39.182,39.476 39.542,39.17 C39.902,38.846 40.154,37.838 40.334,36.182 L38.552,35.606 C38.444,36.542 38.318,37.172 38.174,37.46 C38.03,37.748 37.598,37.91 36.914,37.91 L32.306,37.91 C31.73,37.91 31.442,37.676 31.442,37.226 L31.442,32.582 L35.6,32.582 L35.6,33.77 C35.6,34.238 35.384,34.49 34.988,34.49 C34.43,34.49 33.764,34.454 32.99,34.382 L33.44,36.128 C34.178,36.164 34.952,36.2 35.762,36.2 C36.914,36.128 37.49,35.534 37.508,34.418 L37.508,30.926 Z M34.322,26.03 C33.764,26.588 33.224,27.092 32.684,27.56 L27.572,27.56 C28.058,27.092 28.526,26.57 28.994,26.03 L34.322,26.03 Z" id="危房icon"></path>
                </g>
            </g>
        </g>
    </g>
</svg>