<?xml version="1.0" encoding="UTF-8"?>
<svg width="45px" height="48px" viewBox="0 0 45 48" version="1.1" xmlns="http://www.w3.org/2000/svg" xmlns:xlink="http://www.w3.org/1999/xlink">
    <title>小组icon</title>
    <g id="页面-1" stroke="none" stroke-width="1" fill="none" fill-rule="evenodd">
        <g id="行政村级" transform="translate(-41.000000, -336.000000)" fill-rule="nonzero">
            <g id="两侧数据" transform="translate(40.000000, 175.000000)">
                <g id="村民小组" transform="translate(1.000000, 158.000000)">
                    <g id="小组icon" transform="translate(0.000000, 3.000000)">
                        <path d="M13.2221238,32.1936105 L13.2221243,32.193611 C11.697633,30.6781629 10.8412852,28.6167778 10.8432449,26.4671892 L10.8432449,17.9183846 L10.8432449,17.918385 C10.8403643,16.3691336 11.2857943,14.85214 12.1258045,13.5503827 L12.1258048,13.5503828 C11.7545158,13.458644 11.3735383,13.4119083 10.9910846,13.4111824 L4.92580131,13.4111824 L4.92580128,13.4111824 C2.19117344,13.4391286 -0.00853012067,15.6684256 2.48692691e-05,18.4031851 L2.48692691e-05,26.2608118 L2.48692691e-05,26.2607725 C-0.00259375462,28.1179388 1.02381511,29.8237218 2.66593537,30.6911944 L2.66593537,46.0512064 L6.63937938,46.0512064 L8.10434204,36.3264049 L9.5693047,46.0464288 L13.226907,46.0464288 L13.226907,32.1936214 L13.2221238,32.1936105 Z M30.9187733,32.1936398 L30.9187733,46.056051 L34.5763757,46.056051 L36.0413383,36.336027 L37.506301,46.056051 L41.484542,46.056051 L41.484542,30.7056427 L41.484542,30.7056427 C43.1234984,29.8353719 44.1476438,28.1309198 44.1466469,26.2752403 L44.1466469,18.4128361 L44.1466469,18.4127968 C44.1546419,15.6763994 41.9523133,13.4466804 39.2159987,13.4208342 L33.1593442,13.4208342 L33.159344,13.4208342 C32.776801,13.4201003 32.3956456,13.4668578 32.0246237,13.5600427 L32.024624,13.5600432 C32.8670976,14.8607232 33.3130531,16.37837 33.308144,17.9280455 L33.308144,26.4768501 L33.3081442,26.4750905 C33.3081442,28.6232555 32.4484959,30.6820813 30.9209139,32.1923961 L30.9187733,32.1936398 Z M36.0557586,1.93922729 L36.0557585,1.93922729 C33.1516512,1.8978725 30.7638945,4.21859327 30.7225057,7.12272008 C30.6811509,10.0268274 33.0018717,12.4145842 35.9059985,12.4559729 C38.8101058,12.4973277 41.1978626,10.176607 41.2392513,7.27248016 C41.2396179,7.24673965 41.2398952,7.22099672 41.2397839,7.19525378 L41.239784,7.19524654 C41.2584028,4.31282812 38.9381734,1.96037123 36.0557549,1.93926247 L36.0557586,1.93922729 Z M8.09479107,1.93922729 L8.09479122,1.93922729 C10.9988985,1.89787259 13.3866553,4.21859326 13.4280441,7.12272007 C13.4693988,10.0268274 11.1486781,12.4145842 8.2445513,12.4559729 C5.34044399,12.4973276 2.95268721,10.176607 2.91129844,7.27248015 C2.91095467,7.24833953 2.91068917,7.22419681 2.91068917,7.2000537 L2.91068917,7.20005089 C2.89532279,4.31892921 5.21370736,1.96834433 8.09479491,1.94406681 L8.09479107,1.93922729 Z" id="形状" fill="#00BAFF"></path>
                        <path d="M25.344057,12.4800056 C28.3243655,12.5074519 30.7222964,14.9380014 30.709536,17.9184123 L30.709536,17.9184123 L30.709536,26.4672081 C30.7098018,28.4997088 29.5808292,30.3640658 27.7795644,31.3056091 L27.7795644,31.3056091 L27.7785694,31.3056023 L27.7785694,48 L23.8012888,48 L22.2078406,37.4255831 L20.6132808,48 L16.2807977,48 L16.2807977,31.2960473 C14.4937144,30.348376 13.3772164,28.490142 13.3794897,26.4673328 L13.3794897,26.4673328 L13.3794897,17.913586 C13.367784,14.9359052 15.763565,12.5079747 18.7411581,12.4800056 L18.7411581,12.4800056 Z M22.1971496,1.42108547e-14 C25.3374167,0.0205979586 27.8664364,2.58298601 27.8458152,5.72325307 C27.9033034,8.84607557 25.4209384,11.4216857 22.3012585,11.4792107 C19.1815981,11.5367202 16.6059879,9.05435518 16.5484629,5.93467525 L16.5475032,5.83053831 L16.5475032,5.83053831 L16.5484631,5.72639312 C16.5229688,2.58933869 19.0453858,0.0256138085 22.1824548,0.000117544796 L22.1971496,1.42108547e-14 Z" id="形状结合" fill="#02D281"></path>
                    </g>
                </g>
            </g>
        </g>
    </g>
</svg>