<?xml version="1.0" encoding="UTF-8"?>
<svg width="42px" height="32px" viewBox="0 0 42 32" version="1.1" xmlns="http://www.w3.org/2000/svg" xmlns:xlink="http://www.w3.org/1999/xlink">
    <title>帮扶icon</title>
    <g id="页面-1" stroke="none" stroke-width="1" fill="none" fill-rule="evenodd">
        <g id="县级" transform="translate(-51.000000, -315.000000)" fill="#23FFFF" fill-rule="nonzero">
            <g id="左侧" transform="translate(40.000000, 175.000000)">
                <g id="结对帮扶" transform="translate(0.000000, 124.000000)">
                    <path d="M19.6285344,29.9467715 C19.7926043,30.1055276 19.8752767,30.3348517 19.8562412,30.5661929 C19.521529,34.5352986 16.9765727,44.1357852 16.868933,44.4777728 L16.868933,44.4777728 C16.7698489,44.7916642 16.4867863,45.0042695 16.1674141,45.0042695 L11.738316,45.0042695 L11.7383159,45.0042695 C11.3305554,45.0042695 11.0000002,44.6625228 11.0000002,44.2409562 C11.0000002,44.2409562 11.0000002,44.2409562 11.0000002,44.2409562 L11.0000002,28.9752327 L11.0000002,28.9752208 C10.9998432,28.7647096 11.0836483,28.5634448 11.2316582,28.4188777 C11.3793213,28.2757256 11.5768837,28.2126104 11.7829264,28.2126104 C13.302844,28.3062335 18.3632445,28.7058414 19.6285465,29.9468213 L19.6285344,29.9467715 Z M42.0069647,38.1475207 C44.4056143,37.2878667 46.4367519,38.6000734 46.4373753,40.4374199 C46.4373753,42.6546913 37.5785556,46.5430241 37.5785556,46.5430241 C31.4260861,49.1504348 29.4344029,47.6876226 26.5048258,46.5430241 L19.268904,43.1587542 L19.268904,43.1587542 C18.9309466,43.0016068 18.7584191,42.6094503 18.8659375,42.2428203 C19.545196,39.9434529 20.6050394,36.1310759 21.0972113,33.1919362 C21.1622021,32.8045141 21.4942453,32.5338143 21.8735963,32.5630059 C22.77598,32.6335322 23.6323729,32.7204033 24.2886131,32.7814601 C26.3499616,32.9754998 28.757776,34.308046 30.1949852,34.308046 C31.6321911,34.308046 37.5779092,34.8426947 37.5779092,37.3612144 C37.5779092,39.8796934 32.0916091,39.1774806 28.7184004,38.8877596 C28.1343192,38.8375308 27.8127486,38.8470824 27.6880657,38.9013461 C27.0875781,39.1523666 30.9214813,40.4252147 31.6715306,40.4143862 C32.4334615,40.403517 35.4089308,40.4991989 36.8396102,40.4279315 L42.007657,38.1475445 L42.0069647,38.1475207 Z M44.3714855,34.0529302 L44.3714855,34.0529302 C44.2081405,33.8932147 44.1244837,33.6649925 44.1444157,33.4334681 C44.4790852,29.4643623 47.0234082,19.8638758 47.131048,19.5218881 L47.1310479,19.5218883 C47.2302094,19.2077516 47.5136245,18.9953915 47.8332427,18.9953915 L52.2616846,18.9953915 C52.6692319,18.9953915 53,19.3373588 53,19.7587048 L53,35.0251747 C53,35.2354769 52.916611,35.4377106 52.7689479,35.5808189 C52.6213246,35.7246709 52.4231252,35.7870862 52.2177192,35.7870862 C50.6971649,35.6941216 45.6367119,35.2938553 44.3714428,34.0529161 L44.3714855,34.0529302 Z M21.9930225,25.8527916 C19.5943728,26.7117468 17.5632353,25.3996215 17.562579,23.5629772 C17.562579,21.3443455 26.4220878,17.4566946 26.4220878,17.4566946 C32.5738683,14.849942 34.5662406,16.3120961 37.4951942,17.4566946 L44.731805,20.8416226 C45.0704188,20.99902 45.2430118,21.3911741 45.1353688,21.7575565 C44.4561496,24.0569646 43.3963063,27.8693009 42.9040949,30.8085085 C42.838467,31.1965887 42.507061,31.4666303 42.1270734,31.4374387 C41.2253657,31.3675713 40.3682968,31.2800413 39.7120172,31.2189846 C37.6507081,31.0256037 35.2428872,29.692358 33.8057108,29.692358 C32.3691414,29.692358 26.4227868,29.15775 26.4227868,26.6392302 C26.4227868,24.1207071 31.9090868,24.822964 35.2822956,25.1126443 C35.8663768,25.163532 36.1879474,25.1533626 36.3126302,25.0990578 C36.9137544,24.8480373 33.0792147,23.5758914 32.3291654,23.5860585 C31.5671951,23.5969276 28.5923886,23.5012458 27.161742,23.572472 L21.9936952,25.8535578 L21.9930225,25.8527916 Z" id="帮扶icon"></path>
                </g>
            </g>
        </g>
    </g>
</svg>