<?xml version="1.0" encoding="UTF-8"?>
<svg width="48px" height="42px" viewBox="0 0 48 42" version="1.1" xmlns="http://www.w3.org/2000/svg" xmlns:xlink="http://www.w3.org/1999/xlink">
    <title>收入icon</title>
    <g id="页面-1" stroke="none" stroke-width="1" fill="none" fill-rule="evenodd">
        <g id="行政村级" transform="translate(-269.000000, -339.000000)" fill-rule="nonzero">
            <g id="两侧数据" transform="translate(40.000000, 175.000000)">
                <g id="人均收入" transform="translate(229.000000, 158.000000)">
                    <g id="收入icon" transform="translate(0.000000, 6.000000)">
                        <path d="M23.4808576,17.9700441 L23.7204582,17.7304435 C23.8003406,17.650561 23.8801763,17.5707254 23.8801763,17.4908429 C24.1197769,17.2512423 24.4392599,16.9317593 24.758743,16.6921587 C24.8385787,16.612323 24.9184611,16.612323 24.9184611,16.5324406 L24.9983436,16.4525581 C25.0781792,16.3727224 25.1580617,16.3727224 25.1580617,16.29284 L25.2379442,16.29284 C25.4775448,16.1331218 25.6372629,15.9733569 25.8768635,15.8136388 C25.8768635,15.8136388 25.9567459,15.8136388 25.9567459,15.7337563 L26.1164641,15.5740382 L26.1963465,15.4941557 C26.2761822,15.4941557 26.2761822,15.4143201 26.3560646,15.4143201 L26.4359471,15.3344376 C26.5157828,15.3344376 26.5157828,15.2545552 26.5956652,15.2545552 L26.6755477,15.1747195 L27.1547489,14.9351189 L27.1547489,12.8585493 C27.1547489,11.4209457 26.0365816,10.3028253 24.5989781,10.3028253 L2.555724,10.3028253 C1.11812048,10.3028253 -2.84217094e-14,11.4209457 -2.84217094e-14,12.8585493 L-2.84217094e-14,15.4143201 C-2.84217094e-14,16.8519236 1.11812048,17.9700441 2.555724,17.9700441 L23.4808576,17.9700441 L23.4808576,17.9700441 Z M2.71548893,23.1613745 L2.71548893,25.7171453 C2.71548893,27.1547489 3.8336094,28.2728693 5.27121293,28.2728693 L19.4875301,28.2728693 L19.4875301,26.7553834 C19.4875301,26.5956652 19.4875301,26.5157828 19.5673657,26.3560646 C19.5673657,26.2761822 19.5673657,26.1164641 19.6472482,26.0365816 L19.6472482,25.9567459 C19.6472482,25.8768635 19.6472482,25.796981 19.7271307,25.7171453 L19.7271307,25.6372629 C19.7271307,25.5573804 19.7271307,25.3976623 19.8069663,25.3177798 L19.8069663,25.2379442 C19.8069663,25.1580617 19.8069663,25.0781792 19.8868488,24.9983436 L19.8868488,24.9184611 C19.8868488,24.8385787 19.9667312,24.758743 19.9667312,24.5989781 L19.9667312,24.5191424 C19.9667312,24.4392599 20.0465669,24.3593775 20.0465669,24.2795418 L20.0465669,24.1996594 C20.0465669,24.1197769 20.1264494,24.0399412 20.1264494,23.8801763 L20.1264494,23.8003406 C20.1264494,23.7204582 20.2063318,23.6405757 20.2063318,23.5607401 L20.2063318,23.4808576 C20.2063318,23.4009751 20.2861675,23.3211395 20.2861675,23.241257 C20.2861675,23.241257 20.2861675,23.1613745 20.36605,23.1613745 C20.36605,23.0815389 20.4459324,23.0016564 20.4459324,23.0016564 C20.4459324,23.0016564 20.4459324,22.921774 20.5257681,22.921774 C20.5257681,22.8419383 20.6056505,22.7620558 20.6056505,22.6821734 C20.6056505,22.6023377 20.6056505,22.6023377 20.685533,22.5224552 C20.685533,22.4425728 20.7653687,22.4425728 20.7653687,22.3627371 C20.7653687,22.2829015 20.7653687,22.2828547 20.8452511,22.2029722 C20.8452511,22.1231365 20.9251336,22.0432541 20.9251336,21.9633716 C20.9251336,21.8835359 21.0049693,21.8835359 21.0049693,21.8036535 C21.0049693,21.723771 21.0848517,21.723771 21.0848517,21.6439354 C21.0848517,21.5640997 21.1647342,21.5640529 21.1647342,21.4841704 C21.2445698,21.4043348 21.2445698,21.3244523 21.3244523,21.2445698 C21.3244523,21.1647342 21.4043348,21.1647342 21.4043348,21.0848517 C21.4043348,21.0049693 21.4841704,21.0049693 21.4841704,20.9251336 C21.4841704,20.8452979 21.5640529,20.8452511 21.5640529,20.7653687 L5.27121293,20.7653687 C3.8336094,20.6056505 2.71548893,21.723771 2.71548893,23.1613745 Z M5.27121293,7.66721881 L40.4126169,7.66721881 C41.8502204,7.66721881 42.9683877,6.54909833 42.9683877,5.1114948 L42.9683877,2.555724 C42.9683877,1.11812048 41.8502204,2.13162821e-14 40.4126169,2.13162821e-14 L5.27121293,2.13162821e-14 C3.8336094,2.13162821e-14 2.71548893,1.11812048 2.71548893,2.555724 L2.71548893,5.1114948 C2.71548893,6.46921587 3.8336094,7.66721881 5.27121293,7.66721881 Z M3.99332753,30.9883583 C2.555724,30.9883583 1.43760353,32.1064788 1.43760353,33.5440823 L1.43760353,36.0998063 C1.43760353,37.5374098 2.555724,38.6555771 3.99332753,38.6555771 L23.4808576,38.6555771 C21.5640529,36.4991718 20.2063318,33.8635653 19.7271307,30.9084758 L3.99332753,30.9883583 L3.99332753,30.9883583 Z" id="形状" fill="#00BAFF"></path>
                        <path d="M35.0615683,15.4143201 C42.1697034,15.4143201 48,21.2445698 48,28.3527518 C48,35.460887 42.1697034,41.2911835 35.0615683,41.2911835 C27.9533863,41.2911835 22.1231365,35.460887 22.1231365,28.3527518 C22.1231365,21.2445698 27.9533863,15.4143201 35.0615683,15.4143201 Z M40.9717005,20.36605 C40.4924993,19.8868488 39.6938151,19.8868488 39.2146139,20.36605 L39.2146139,20.36605 L35.460887,24.1197769 C35.460887,24.1996594 35.3810045,24.1996594 35.3810045,24.2795418 C35.3011689,24.1996594 35.2212396,24.1996594 35.1414039,24.1996594 C35.0615683,24.1996594 34.9816858,24.2795418 34.9018033,24.2795418 L34.9018033,24.2795418 L34.8219677,24.1996594 L31.0681939,20.4459324 C30.5889928,19.9667312 29.7903553,19.9667312 29.3111542,20.4459324 C28.831953,20.9251336 28.831953,21.723771 29.3111542,22.2029722 L29.3111542,22.2029722 L32.0265963,24.9184611 L30.189674,24.9184611 C29.5507547,24.9184611 28.9916711,25.3976623 28.9916711,26.1164641 C28.9916711,26.7553834 29.4708723,27.314467 30.189674,27.314467 L30.189674,27.314467 L33.8635653,27.314467 L33.8635653,28.7520705 L30.189674,28.7520705 C29.5507547,28.7520705 28.9916711,29.2312717 28.9916711,29.9500735 C28.9916711,30.5889928 29.4708723,31.1480764 30.189674,31.1480764 L30.189674,31.1480764 L33.8635653,31.1480764 L33.8635653,35.3011689 C33.8635653,35.9400882 34.3427665,36.4991718 35.0615683,36.4991718 C35.7004876,36.4991718 36.2595712,36.0199706 36.2595712,35.3011689 L36.2595712,35.3011689 L36.2595712,31.1480764 L39.9334157,31.1480764 C40.5723818,31.1480764 41.1314186,30.6688752 41.1314186,29.9500735 C41.1314186,29.3111542 40.6522174,28.7520705 39.9334157,28.7520705 L39.9334157,28.7520705 L36.2595712,28.7520705 L36.2595712,27.314467 L39.9334157,27.314467 C40.5723818,27.314467 41.1314186,26.8352658 41.1314186,26.1164641 C41.1314186,25.4775448 40.6522174,24.9184611 39.9334157,24.9184611 L39.9334157,24.9184611 L38.2562116,24.8385787 L40.9717005,22.1231365 C41.4509017,21.6439354 41.4509017,20.8452511 40.9717005,20.36605 Z" id="形状结合" fill="#02D281"></path>
                    </g>
                </g>
            </g>
        </g>
    </g>
</svg>