<?xml version="1.0" encoding="UTF-8"?>
<svg width="38px" height="34px" viewBox="0 0 38 34" version="1.1" xmlns="http://www.w3.org/2000/svg" xmlns:xlink="http://www.w3.org/1999/xlink">
    <title>灾害隐患点icon</title>
    <g id="页面-1" stroke="none" stroke-width="1" fill="none" fill-rule="evenodd">
        <g id="县级" transform="translate(-53.000000, -686.000000)" fill="#23FFFF" fill-rule="nonzero">
            <g id="左侧" transform="translate(40.000000, 175.000000)">
                <g id="灾害隐患点" transform="translate(0.000000, 496.000000)">
                    <path d="M50.0639496,42.0907637 L36.0077362,17.8330379 C33.8200932,14.0575558 30.2366312,14.0554757 28.0448281,17.8278727 L13.9397335,42.0964668 C11.7474572,45.8688652 13.5236965,48.9549192 17.8866795,48.9549192 L46.108829,48.9549192 C50.4717594,48.9549192 52.2516394,45.8662443 50.0639756,42.0907466 L50.0639496,42.0907637 Z M32.1550114,44.6831017 C30.8034922,44.6831017 29.728438,43.608583 29.728438,42.2565803 C29.728438,40.9050611 30.803487,39.8300589 32.1550114,39.8300589 C33.5060001,39.8300589 34.5815328,40.9050559 34.5815328,42.2565803 C34.5815328,43.608583 33.5060001,44.6831017 32.1550114,44.6831017 Z M33.8746478,38.2941691 L30.4348445,38.2941691 L29.2768846,24.289905 L35.0330133,24.289905 L33.874627,38.2941691 L33.8746478,38.2941691 Z" id="灾害隐患点icon"></path>
                </g>
            </g>
        </g>
    </g>
</svg>