<?xml version="1.0" encoding="UTF-8"?>
<svg width="48px" height="48px" viewBox="0 0 48 48" version="1.1" xmlns="http://www.w3.org/2000/svg" xmlns:xlink="http://www.w3.org/1999/xlink">
    <title>耕地面积</title>
    <g id="页面-1" stroke="none" stroke-width="1" fill="none" fill-rule="evenodd">
        <g id="行政村级" transform="translate(-40.000000, -414.000000)">
            <g id="两侧数据" transform="translate(40.000000, 175.000000)">
                <g id="耕地面积" transform="translate(0.000000, 236.000000)">
                    <g id="-图标库/双色48/面积" transform="translate(0.000000, 3.000000)">
                        <path d="M34.908697,5.45454545 L34.9090909,11.0909091 C34.9090909,12.1954786 35.8045214,13.0909091 36.9090909,13.0909091 L36.9090909,13.0909091 L41.453697,13.0905455 L41.453697,34.9085455 L36.9090909,34.9090909 C35.8547291,34.9090909 34.9909258,35.7249687 34.9145766,36.7598286 L34.9090909,36.9090909 L34.908697,42.5445455 L13.090697,42.5445455 L13.0909091,36.9090909 C13.0909091,35.8547291 12.2750313,34.9909258 11.2401714,34.9145766 L11.0909091,34.9090909 L5.45369697,34.9085455 L5.45369697,13.0905455 L11.0909091,13.0909091 C12.1452709,13.0909091 13.0090742,12.2750313 13.0854234,11.2401714 L13.0909091,11.0909091 L13.090697,5.45454545 L34.908697,5.45454545 Z M11.3705427,26.6493506 L9.81818182,28.2017115 L20.8891976,39.2727273 L22.4415585,37.7203664 L11.3705427,26.6493506 Z M13.2610001,20.1242236 L11.7086392,21.6765845 L27.0148098,36.9827551 L28.5671707,35.4303942 L13.2610001,20.1242236 Z M14.48065,12.9282891 L12.9282891,14.48065 L33.1910697,34.7434306 L34.7434306,33.1910697 L14.48065,12.9282891 Z M21.6765845,11.7086392 L20.1242236,13.2610001 L35.4303942,28.5671707 L36.9827551,27.0148098 L21.6765845,11.7086392 Z M28.2017115,9.81818182 L26.6493506,11.3705427 L37.7203664,22.4415585 L39.2727273,20.8891976 L28.2017115,9.81818182 Z" id="形状结合" fill="#00BAFF"></path>
                        <path d="M46,37.0909091 C47.1045695,37.0909091 48,37.9863396 48,39.0909091 L48,46 C48,47.1045695 47.1045695,48 46,48 L39.0909091,48 C37.9863396,48 37.0909091,47.1045695 37.0909091,46 L37.0909091,39.0909091 C37.0909091,37.9863396 37.9863396,37.0909091 39.0909091,37.0909091 L46,37.0909091 Z M8.90909091,37.0909091 C10.0136604,37.0909091 10.9090909,37.9863396 10.9090909,39.0909091 L10.9090909,46 C10.9090909,47.1045695 10.0136604,48 8.90909091,48 L2,48 C0.8954305,48 -8.67738547e-17,47.1045695 0,46 L0,39.0909091 C-1.3527075e-16,37.9863396 0.8954305,37.0909091 2,37.0909091 L8.90909091,37.0909091 Z M46,0 C47.1045695,-2.02906125e-16 48,0.8954305 48,2 L48,8.90909091 C48,10.0136604 47.1045695,10.9090909 46,10.9090909 L39.0909091,10.9090909 C37.9863396,10.9090909 37.0909091,10.0136604 37.0909091,8.90909091 L37.0909091,2 C37.0909091,0.8954305 37.9863396,-1.91384796e-17 39.0909091,0 L46,0 Z M8.90909091,0 C10.0136604,5.56104062e-16 10.9090909,0.8954305 10.9090909,2 L10.9090909,8.90909091 C10.9090909,10.0136604 10.0136604,10.9090909 8.90909091,10.9090909 L2,10.9090909 C0.8954305,10.9090909 6.72236333e-16,10.0136604 0,8.90909091 L0,2 C-3.57315355e-16,0.8954305 0.8954305,-2.41183085e-16 2,0 L8.90909091,0 Z" id="形状结合" fill="#02D281"></path>
                    </g>
                </g>
            </g>
        </g>
    </g>
</svg>