<?xml version="1.0" encoding="UTF-8"?>
<svg width="42px" height="40px" viewBox="0 0 42 40" version="1.1" xmlns="http://www.w3.org/2000/svg" xmlns:xlink="http://www.w3.org/1999/xlink">
    <title>行政村icon</title>
    <g id="页面-1" stroke="none" stroke-width="1" fill="none" fill-rule="evenodd">
        <g id="县级" transform="translate(-51.000000, -187.000000)" fill="#23FFFF" fill-rule="nonzero">
            <g id="行政村数量" transform="translate(40.000000, 175.000000)">
                <path d="M51.3045189,26.3788082 L53,26.3788082 L48.1721828,12.5379822 L43.3443655,26.3788082 L45.0464795,26.3788082 L43.3443655,31.2443091 L45.0464795,31.2443091 L43.3443655,36.1187182 L47.2172274,36.1187182 L47.2172274,47.899084 L12.0520121,47.899084 L12.0520121,52 L52.0450446,52 L52.0450446,47.899084 L49.1249233,47.899084 L49.1249233,36.1187182 L52.9977851,36.1187182 L51.3023041,31.2443091 L52.9977851,31.2443091 L51.3045189,26.3788082 Z M14.2006384,46.7699657 L40.9967823,46.7699657 L40.9967823,30.3219156 L43.3289004,30.3219156 L43.3289004,30.3219156 C43.8279711,30.3058562 44.2196015,29.886033 44.2036273,29.3842139 C44.1964825,29.1597259 44.1069431,28.9458426 43.9522703,28.7837985 L28.3304182,12.3179721 L28.3304182,12.3179722 C27.9544636,11.9134873 27.3235884,11.8920372 26.9213189,12.2700638 C26.9049046,12.2854888 26.8890135,12.3014674 26.8736729,12.3179722 L11.2518208,28.7837986 L11.2518208,28.7837985 C10.9060657,29.1460326 10.9178165,29.7215158 11.2780663,30.0691755 C11.4392236,30.2247001 11.6519339,30.3147327 11.8751932,30.3219167 L14.2073112,30.3219167 L14.2073112,46.7699657 L14.2006384,46.7699657 Z M28.4121672,30.3219156 L33.7903972,30.3219156 L33.7903972,35.8897999 L28.4121672,35.8897999 L28.4121672,30.3219156 Z M28.4121672,37.60573 L33.7903972,37.60573 L33.7903972,43.1736144 L28.4121672,43.1736144 L28.4121672,37.60573 Z M19.5191837,30.3219156 L24.8974137,30.3219156 L24.8974137,35.8897999 L19.5191837,35.8897999 L19.5191837,30.3219156 Z M19.5191837,37.60573 L24.8974137,37.60573 L24.8974137,43.1736144 L19.5191837,43.1736144 L19.5191837,37.60573 Z" id="行政村icon"></path>
            </g>
        </g>
    </g>
</svg>