<?xml version="1.0" encoding="UTF-8"?>
<svg width="38px" height="38px" viewBox="0 0 38 38" version="1.1" xmlns="http://www.w3.org/2000/svg" xmlns:xlink="http://www.w3.org/1999/xlink">
    <title>重点人员icon</title>
    <g id="页面-1" stroke="none" stroke-width="1" fill="none" fill-rule="evenodd">
        <g id="县级" transform="translate(-53.000000, -436.000000)" fill="#23FFFF" fill-rule="nonzero">
            <g id="左侧" transform="translate(40.000000, 175.000000)">
                <g id="重点人员" transform="translate(0.000000, 248.000000)">
                    <path d="M37.9901394,36.0985101 C35.5090969,34.8998276 34.5456287,35.0355269 34.5456287,34.0584892 C34.5456287,33.0724026 35.5385001,32.398427 36.2644936,31.3354475 C37.5762569,29.4198205 37.6441084,27.2101764 37.6441084,26.2421726 C37.6441084,20.7825122 33.2519519,20.1243853 32.299793,20.1243853 L31.7049743,20.1243853 C30.7528154,20.1243853 26.3584061,20.782531 26.3584061,26.2421726 C26.3584061,27.2101652 26.4262561,29.4198092 27.7380209,31.3354475 C28.4662747,32.3984307 29.4614064,33.0724064 29.4614064,34.0584892 C29.4614064,35.0355269 28.5024627,34.8998276 26.0168957,36.0985101 C23.5268043,37.2881437 20.1275079,39.2082952 20.1275079,41.1555896 L20.1252462,43.8718464 L43.8727111,43.8718464 L43.8704494,41.1578499 C43.8794961,39.2128196 40.4802169,37.2904153 37.9901104,36.0985176 L37.9901394,36.0985101 Z M49.9837225,50.7201705 L40.692823,50.7201705 C40.2337036,50.7201705 39.9080269,50.3718746 39.9080269,49.8878771 C39.9080269,49.4038827 40.2992948,49.0578479 40.692823,49.0578479 L49.1311011,49.0578479 L49.1311011,41.1646422 C49.1311011,40.6783837 49.5246294,40.3323489 49.9181614,40.3323489 C50.3750167,40.3323489 50.7029575,40.6783833 50.7029575,41.1646422 L50.7029575,49.8878659 C50.7685457,50.3718603 50.4406045,50.7178951 49.9837488,50.7178951 L49.9837225,50.7201705 Z M49.9497975,24.0099327 C49.4929422,24.0099327 49.1650014,23.6638982 49.1650014,23.1776393 L49.1650014,14.9383988 L40.6611659,14.9383988 C40.2020465,14.9383988 39.8741056,14.5923644 39.8741056,14.1083696 C39.8741056,13.6243752 40.2676339,13.2783404 40.6589018,13.2783404 L49.8864967,13.2783404 C50.343352,13.2783404 50.6690325,13.6243748 50.6690325,14.1083696 L50.6690325,23.1776281 C50.7368825,23.6638866 50.4089413,24.0099327 49.9498238,24.0099327 L49.9497975,24.0099327 Z M22.4886912,14.9406742 L14.8985663,14.9406742 L14.8985663,23.1776619 L14.8985664,23.1776643 C14.9063124,23.6221515 14.5579429,23.9916008 14.1137665,24.0099538 C13.6546471,24.0099538 13.3289704,23.6639194 13.3289704,23.1776605 L13.3289704,14.108402 C13.3289704,13.6244076 13.7202383,13.2761087 14.1137665,13.2761087 L22.5520446,13.2761087 C23.011164,13.2761087 23.3391049,13.6244046 23.3391049,14.108402 L23.3391049,14.1083893 C23.3379715,14.5680494 22.9644242,14.939759 22.5047615,14.938625 C22.4994173,14.9386119 22.4940734,14.9385472 22.4887305,14.9384311 L22.4886912,14.9406742 Z M14.0481603,40.2622671 C14.5050156,40.2622671 14.8329564,40.6083015 14.8329564,41.0922963 L14.8329564,48.985502 L22.4886762,48.985502 C22.9455315,48.985502 23.2735621,49.3315364 23.2735621,49.8177953 L23.2735621,49.8177972 C23.2799784,50.2614133 22.9319571,50.6294921 22.4886725,50.6478264 L14.0481415,50.6478264 C13.5890221,50.6478264 13.2633454,50.301792 13.2633454,49.8177972 L13.2633454,41.1624212 C13.2633454,40.6761627 13.5890247,40.2622671 14.0481415,40.2622671 L14.0481603,40.2622671 Z M49.9837026,50.9961543 L40.6928031,50.9961543 L40.6928032,50.9961543 C40.0977855,50.9788616 39.6291817,50.4829286 39.6456536,49.8878884 C39.6456536,49.2772398 40.1138181,48.7796721 40.6928032,48.7796721 L48.870992,48.7796721 L48.870992,41.1646535 C48.870992,40.5540049 49.3391565,40.0564372 49.9181415,40.0564372 C50.4948662,40.0564372 50.9630307,40.5540011 50.9630307,41.1646535 L50.9630307,49.8878771 L50.9630307,49.8878772 C51.0355126,50.4225903 50.6607996,50.9148188 50.1260853,50.9872999 C50.078911,50.9936945 50.0313324,50.9966327 49.9837297,50.9961543 L49.9837026,50.9961543 Z M50.5061454,41.1646384 L50.5061454,41.1646376 C50.5150132,40.8674884 50.2813151,40.6194112 49.9841645,40.6105326 C49.9840093,40.6105326 49.9838542,40.6105326 49.983699,40.6105326 L49.983699,40.6105326 C49.6865086,40.6178958 49.4515579,40.8647853 49.4589209,41.1619768 C49.4589429,41.1628651 49.4589671,41.1637533 49.4589935,41.1646414 L49.4589935,49.3337813 L40.6927783,49.3337813 L40.6927783,49.3337813 C40.3955879,49.3411445 40.1606371,49.5880339 40.1680001,49.8852255 C40.1680222,49.8861138 40.1680464,49.887002 40.1680728,49.8878901 C40.1680728,50.1932144 40.4032856,50.4419964 40.6927796,50.4419964 L49.9180842,50.4419964 L49.9180842,50.4419964 C50.2115803,50.4372675 50.4456709,50.1955085 50.4409437,49.9020116 C50.4408678,49.8973022 50.4407293,49.892594 50.4405283,49.8878882 L50.4405283,41.1646645 L50.5061164,41.1646645 L50.5061454,41.1646384 Z M49.949775,24.2858669 L49.949775,24.2858669 C49.3627624,24.2776575 48.893554,23.7951365 48.9017619,23.2081239 C48.901904,23.1979627 48.9021918,23.187804 48.9026252,23.1776511 L48.9026252,15.2165976 L40.6611318,15.2165976 L40.6611318,15.2165976 C40.0741192,15.2083882 39.6049108,14.7258672 39.6130126,14.1388546 C39.6132608,14.1286934 39.6135486,14.1185347 39.613982,14.1083817 L39.613982,14.1083818 C39.5913994,13.5192477 40.0506782,13.0233546 40.6398123,13.00077 C40.646916,13.0004977 40.6540223,13.0002964 40.6611301,13.000166 L49.888725,13.000166 C50.5400823,13.000166 50.9992017,13.4841604 50.9992017,14.1083823 L50.9992017,23.1776408 L50.9992017,23.1776409 C51.0217842,23.7667749 50.5625017,24.2626681 49.9733677,24.2852527 C49.9662639,24.285525 49.9591576,24.2857263 49.9520498,24.2858669 L49.949775,24.2858669 Z M50.4744818,14.1083658 L50.4744818,14.1083654 C50.4857621,13.813798 50.2561123,13.5658612 49.9615461,13.5545783 C49.9576242,13.5544281 49.9537008,13.5542575 49.9497766,13.5542575 L40.6611299,13.5542575 L40.6611299,13.5542575 C40.3676338,13.5589863 40.1335432,13.8007454 40.1382001,14.0942423 C40.1383463,14.0989517 40.1384848,14.1036599 40.1386858,14.1083657 L40.1386858,14.1083661 C40.1273826,14.4029327 40.3570129,14.650889 40.6515803,14.6621907 C40.654763,14.6623129 40.6579467,14.6624065 40.6611311,14.6624716 L49.3640042,14.6624716 L49.3640042,23.1776464 C49.3640042,23.4852325 49.5969556,23.7317527 49.886447,23.7317527 C50.1759398,23.7317527 50.4111538,23.4829696 50.4111538,23.1776464 L50.4111538,14.1083879 L50.4767419,14.1083879 L50.4744818,14.1083658 Z M22.4886537,15.2165821 L15.1608709,15.2165821 L15.1608709,23.1776356 L15.1608709,23.1776357 C15.1834535,23.7667697 14.724171,24.2626628 14.1350369,24.2852475 C14.1279332,24.2855198 14.1208269,24.2857211 14.1137191,24.2858514 L14.1137191,24.2858514 C13.5267065,24.277642 13.0575954,23.7951211 13.065706,23.2081084 C13.0658481,23.1979472 13.0661359,23.1877886 13.0665693,23.1776356 L13.0665693,14.1083771 L13.0665693,14.1083771 C12.9940721,13.5736677 13.36877,13.0814279 13.9034809,13.0089281 C13.951414,13.0024292 13.9997635,12.9994989 14.0481307,13.0000698 L22.4886617,13.0000698 L22.4886616,13.0000698 C23.0756555,13.009619 23.5438387,13.4931371 23.5343806,14.080131 C23.5342289,14.0895497 23.5339519,14.0989661 23.5335498,14.1083776 C23.6013998,14.7303353 23.0766945,15.2165938 22.4886606,15.2165938 L22.4886537,15.2165821 Z M22.4886537,13.5542379 L14.0481227,13.5542379 L14.0481227,13.5542379 C13.7545969,13.5564915 13.5184559,13.7962504 13.5206742,14.0897762 C13.5206742,14.0959754 13.5208927,14.1021733 13.5211567,14.108367 L13.5211567,23.1776255 L13.5211566,23.1776259 C13.5098764,23.4721933 13.7395262,23.7201301 14.0340924,23.731413 C14.0380143,23.7315632 14.0419376,23.7317338 14.0458619,23.7317338 L14.0458619,23.7317338 C14.339358,23.727005 14.5734486,23.4852459 14.5687214,23.191749 C14.5686455,23.1870396 14.568507,23.1823314 14.568306,23.1776256 L14.568306,14.6624509 L22.4841151,14.6624509 L22.4841151,14.6624509 C22.7776477,14.6614676 23.0148069,14.4227151 23.0138232,14.1291833 C23.0137999,14.1222344 23.0136404,14.1152868 23.0133446,14.1083442 C23.0789328,13.7623097 22.8165801,13.5542379 22.4909019,13.5542379 L22.4886537,13.5542379 Z M14.0481227,40.0564109 L14.0481228,40.0564109 C14.6351354,40.0646203 15.1043437,40.5471413 15.0961359,41.1341539 C15.0959938,41.1443151 15.095706,41.1544737 15.0952725,41.1646267 L15.0952725,48.7796454 L22.4886502,48.7796454 C23.0653749,48.7796454 23.5335394,49.2772094 23.5335394,49.8878617 C23.5335394,50.4985102 23.0653749,50.9960779 22.4886502,50.9960779 L14.0481192,50.9960779 L14.0481192,50.9960779 C13.4611066,50.9878686 12.9918982,50.5053476 13.0001061,49.918335 C13.0002482,49.9081737 13.000536,49.8980151 13.0009694,49.8878621 L13.0009694,41.1646384 L13.0009694,41.1646384 C12.9783868,40.5755044 13.4376656,40.0796112 14.0267997,40.0570266 C14.0339034,40.0567543 14.0410097,40.056553 14.0481175,40.0564109 L14.0481227,40.0564109 Z M13.5211556,49.8878771 L13.5211555,49.8878776 C13.5098753,50.182445 13.7395251,50.4303818 14.0340913,50.4416647 C14.0380132,50.4418149 14.0419365,50.4419854 14.0458607,50.4419854 L22.4863917,50.4419854 C22.7736228,50.4419854 23.0088344,50.1932027 23.0088344,49.8878792 L23.0088345,49.8878783 C23.0177023,49.5907292 22.7840042,49.342652 22.4868536,49.3337871 C22.4866984,49.3337824 22.4865432,49.3337779 22.4863881,49.3337734 L14.6361739,49.3337734 L14.6361739,41.1646334 L14.6361739,41.164633 C14.6474771,40.8700664 14.4178468,40.6221101 14.1232794,40.6108084 C14.1200967,40.6106863 14.116913,40.6105275 14.1137286,40.6105275 L14.1137286,40.6105275 C13.8202151,40.614008 13.5850981,40.8547693 13.5885787,41.148282 C13.5886433,41.1537346 13.5887919,41.159186 13.5890243,41.164634 L13.5890243,49.8878577 L13.5234366,49.8878577 L13.5211556,49.8878771 Z" id="重点人员icon"></path>
                </g>
            </g>
        </g>
    </g>
</svg>