<?xml version="1.0" encoding="UTF-8"?>
<svg width="566px" height="438px" viewBox="0 0 566 438" version="1.1" xmlns="http://www.w3.org/2000/svg" xmlns:xlink="http://www.w3.org/1999/xlink">
    <title>Online report</title>
    <g id="登录" stroke="none" stroke-width="1" fill="none" fill-rule="evenodd">
        <g id="登录-LOCATION" transform="translate(-307.000000, -321.000000)">
            <g id="左侧" transform="translate(200.000000, 100.000000)">
                <g id="Online-report" transform="translate(107.000000, 221.000000)">
                    <rect id="矩形" fill="#000000" fill-rule="nonzero" x="94.8485823" y="77.141481" width="440.75754" height="282.228245" rx="12.105"></rect>
                    <rect id="矩形" fill="#FFFFFF" fill-rule="nonzero" x="105" y="87.3697257" width="420" height="217" rx="12.105"></rect>
                    <path d="M95,314 L535.75754,314 L535.75754,346.895 C535.75754,353.580407 530.337947,359 523.65254,359 L107.105,359 C100.419593,359 95,353.580407 95,346.895 L95,314 L95,314 Z" id="矩形" fill="#005FE4" fill-rule="nonzero"></path>
                    <rect id="矩形" stroke="#FFFFFF" stroke-width="4" fill="#FFFFFF" opacity="0.595999581" x="305" y="327" width="20" height="20" rx="10"></rect>
                    <path d="M521.815827,360.354747 L108.638878,360.354747 C100.483195,360.343894 93.8744137,353.735113 93.8635612,345.57943 L93.8635612,90.9514768 C93.8743819,82.792587 100.480009,76.1781519 108.638878,76.1564599 L521.815827,76.1564599 C529.974695,76.1781519 536.580323,82.792587 536.591143,90.9514768 L536.591143,345.57943 C536.580291,353.735113 529.971509,360.343894 521.815827,360.354747 L521.815827,360.354747 Z M108.638878,78.1265021 C101.563534,78.1373705 95.8336034,83.8761252 95.8336034,90.9514768 L95.8336034,345.57943 C95.8444517,352.64709 101.571218,358.373856 108.638878,358.384705 L521.815827,358.384705 C528.883486,358.373856 534.610253,352.64709 534.621101,345.57943 L534.621101,90.9514768 C534.621101,83.8761252 528.89117,78.1373705 521.815827,78.1265021 L108.638878,78.1265021 Z" id="形状" fill="#231F20" fill-rule="nonzero"></path>
                    <path d="M535.606122,315.733291 L94.8485823,315.733291 C94.3089711,315.72281 93.874042,315.287881 93.8635612,314.74827 C93.8635612,314.204258 94.3045701,313.763249 94.8485823,313.763249 L535.606122,313.763249 C536.150134,313.763249 536.591143,314.204258 536.591143,314.74827 C536.591143,315.292282 536.150134,315.733291 535.606122,315.733291 Z" id="路径" fill="#231F20" fill-rule="nonzero"></path>
                    <polygon id="路径" fill="#005FE4" fill-rule="nonzero" points="371.560709 413.939895 258.893996 413.939895 279.677941 359.369726 350.796464 359.369726"></polygon>
                    <path d="M371.560709,414.924918 L258.893996,414.924918 C258.56896,414.925644 258.26538,414.762747 258.086278,414.491506 C257.900652,414.227095 257.856483,413.888466 257.968076,413.585287 L278.752021,359.034819 C278.893027,358.644802 279.263217,358.384705 279.677941,358.384705 L350.835865,358.384705 C351.24523,358.387332 351.60842,358.647881 351.742084,359.034819 L372.506329,413.585287 C372.613887,413.889278 372.569003,414.226421 372.38566,414.491684 C372.202316,414.756947 371.902795,414.918092 371.580409,414.924918 L371.560709,414.924918 Z M260.332127,412.954873 L370.142278,412.954873 L350.106949,360.354747 L280.347755,360.354747 L260.332127,412.954873 Z" id="形状" fill="#231F20" fill-rule="nonzero"></path>
                    <rect id="矩形" fill="#004EBC" fill-rule="nonzero" x="239.075371" y="410.728726" width="152.303962" height="14.7162152" rx="3.40025"></rect>
                    <path d="M384.779692,426.429962 L245.675013,426.429962 C241.486119,426.429962 238.09035,423.034193 238.09035,418.8453 L238.09035,417.348068 C238.09035,413.155975 241.482935,409.754565 245.675013,409.743705 L384.779692,409.743705 C388.97177,409.754565 392.364354,413.155975 392.364354,417.348068 L392.364354,418.8453 C392.364354,420.856877 391.565258,422.786066 390.142858,424.208466 C388.720458,425.630866 386.79127,426.429962 384.779692,426.429962 L384.779692,426.429962 Z M245.675013,411.713747 C242.57096,411.7246 240.060392,414.243995 240.060392,417.348068 L240.060392,418.8453 C240.0712,421.941681 242.578631,424.449112 245.675013,424.45992 L384.779692,424.45992 C387.876073,424.449112 390.383505,421.941681 390.394312,418.8453 L390.394312,417.348068 C390.394312,414.243995 387.883745,411.7246 384.779692,411.713747 L245.675013,411.713747 Z" id="形状" fill="#231F20" fill-rule="nonzero"></path>
                    <rect id="矩形" fill="#FF6734" x="123" y="102" width="10" height="10" rx="5"></rect>
                    <rect id="矩形备份-16" fill="#00D0B6" x="139" y="102" width="10" height="10" rx="5"></rect>
                    <rect id="矩形备份-17" fill="#FFB86A" x="155" y="102" width="10" height="10" rx="5"></rect>
                    <polygon id="路径" fill="#004EBC" fill-rule="nonzero" points="353.39692 368.983532 350.106949 360.354747 280.520011 359.611035 271.044108 384.532068"></polygon>
                    <path d="M464.428498,304.369726 L166.144409,304.369726 L166.144409,24.895962 L447.505835,24.895962 C456.851964,24.895962 464.428498,32.4724961 464.428498,41.8186245 L464.428498,304.369726 Z" id="路径" fill="#BBCFFC" fill-rule="nonzero"></path>
                    <path d="M464.428498,304.690881 L166.144409,304.690881 C165.604798,304.680401 165.169869,304.245471 165.159388,303.70586 L165.159388,24.895962 C165.159388,24.3519499 165.600397,23.9102775 166.144409,23.9102775 L447.505835,23.9102775 C452.260065,23.8951722 456.824122,25.776805 460.185888,29.1385715 C463.547655,32.5003379 465.429288,37.0643949 465.413905,41.8186245 L465.413905,303.70586 C465.413905,304.249872 464.97251,304.690881 464.428498,304.690881 Z M167.12943,296.485979 L463.443477,296.485979 L463.443477,41.8186245 C463.438261,37.5987282 461.755558,33.5540308 458.7661,30.5756593 C455.776643,27.5972877 451.725722,25.9296229 447.505835,25.9400355 L167.12943,25.9400355 L167.12943,296.485979 Z" id="形状" fill="#BBCFFC" fill-rule="nonzero"></path>
                    <path d="M190.868439,283.4837 C190.324427,283.4837 189.883418,283.042691 189.883418,282.498679 L189.883418,237.522616 C189.883418,236.978604 190.324427,236.537595 190.868439,236.537595 L444.47197,236.537595 C445.011582,236.548076 445.446511,236.983005 445.456992,237.522616 L445.456992,282.498679 C445.456992,283.042691 445.015983,283.4837 444.47197,283.4837 L190.868439,283.4837 Z M262.853418,254.464595 L191.853418,254.464595 L191.85346,281.513658 L262.853418,281.513595 L262.853418,254.464595 Z M381.371418,254.464595 L264.823418,254.464595 L264.823418,281.513595 L381.371418,281.513595 L381.371418,254.464595 Z M443.427418,254.464595 L383.341418,254.464595 L383.341418,281.513595 L443.427848,281.513658 L443.427418,254.464595 Z M262.853418,238.507595 L191.85346,238.507637 L191.853418,252.494595 L262.853418,252.494595 L262.853418,238.507595 Z M381.371418,238.507595 L264.823418,238.507595 L264.823418,252.494595 L381.371418,252.494595 L381.371418,238.507595 Z M443.427848,238.507637 L383.341418,238.507595 L383.341418,252.494595 L443.427418,252.494595 L443.427848,238.507637 Z" id="形状结合" fill="#FFFFFF" fill-rule="nonzero" opacity="0.49890718"></path>
                    <path d="M81.1764895,419.022603 L81.1764895,433.502414 C81.1764895,433.502414 114.568705,437.442498 113.820089,435.886165 C113.071473,434.329831 94.7303797,421.248751 94.7303797,421.248751 L81.1764895,419.022603 Z" id="路径" fill="#231F20" fill-rule="nonzero"></path>
                    <path d="M111.219633,437.166692 C107.417451,437.166692 99.2023755,436.59538 81.0779873,434.487435 C80.5727687,434.436665 80.1889238,434.01017 80.1914558,433.502414 L80.1914558,419.022603 C80.1914558,418.732453 80.321373,418.457552 80.5460759,418.273987 C80.7664048,418.078344 81.0627474,417.991609 81.3537932,418.037582 L94.7303797,420.28343 C94.8817481,420.304144 95.0246973,420.365408 95.1440886,420.460734 C100.739008,424.400819 113.859489,433.896422 114.647506,435.452755 C114.823043,435.799549 114.823043,436.209185 114.647506,436.555979 C114.430802,436.812084 114.194397,437.166692 111.219633,437.166692 Z M82.1615105,432.635595 C94.1984684,434.014624 107.240148,435.255751 111.712143,435.255751 C108.835882,432.8523 101.211819,427.217979 94.1590675,422.194371 L82.0827089,420.224329 L82.1615105,432.635595 Z" id="形状" fill="#231F20" fill-rule="nonzero"></path>
                    <polygon id="路径" fill="#FFE0E0" fill-rule="nonzero" points="81.1961899 406.25673 81.1961899 419.022603 94.6318776 421.248751 96.8580253 406.25673"></polygon>
                    <path d="M94.7303797,422.253473 L94.5727764,422.253473 L80.9400844,419.948523 C80.4657384,419.87165 80.1160886,419.463725 80.1126667,418.983203 L80.1126667,406.217329 C80.1126667,405.673317 80.5536756,405.23215 81.0976878,405.23215 L96.8580253,405.23215 C97.1449389,405.227124 97.4192855,405.349858 97.6066414,405.567215 C97.7990354,405.781478 97.8857261,406.070447 97.8430464,406.355232 L95.5971983,421.366954 C95.5581427,421.627649 95.4162249,421.861814 95.2031899,422.017068 C95.0695136,422.13666 94.9062595,422.218287 94.7303797,422.253473 Z M82.2600127,418.175485 L93.902962,420.145527 L95.8730042,407.261451 L82.1615105,407.261451 L82.2600127,418.175485 Z" id="形状" fill="#231F20" fill-rule="nonzero"></path>
                    <polygon id="路径" fill="#FFE0E0" fill-rule="nonzero" points="127.551283 410.058911 127.551283 423.731004 142.799409 424.834228 143.685928 410.058911"></polygon>
                    <path d="M142.799409,425.85865 L142.799409,425.85865 L127.570983,424.735726 C127.053298,424.714578 126.644632,424.288521 126.645063,423.770405 L126.645063,410.098312 C126.645063,409.5543 127.086072,409.113291 127.630084,409.113291 L143.76473,409.113291 C144.0402,409.116077 144.30294,409.229694 144.493646,409.428498 C144.674715,409.626455 144.767208,409.889704 144.749751,410.157414 L143.863232,424.93273 C143.847105,425.197796 143.726696,425.445697 143.528325,425.622245 C143.325085,425.792376 143.063815,425.877112 142.799409,425.85865 Z M128.536304,422.844485 L141.873489,423.829506 L142.641806,411.083333 L128.536304,411.083333 L128.536304,422.844485 Z" id="形状" fill="#231F20" fill-rule="nonzero"></path>
                    <polygon id="路径" fill="#231F20" fill-rule="nonzero" points="150.068865 271.663447 145.18316 412.895772 125.325135 412.895772 114.923312 307.73492 98.4340591 411.103034 79.3837511 410.058911 89.8446751 272.806072"></polygon>
                    <path d="M145.18316,413.880806 L125.325135,413.880806 C124.817378,413.883338 124.390884,413.499493 124.340114,412.994274 L114.706608,315.418084 L99.3993797,411.260637 C99.3282244,411.762695 98.880749,412.124118 98.3749578,412.088055 L79.3246498,411.043932 C79.0595628,411.028887 78.8117757,410.907463 78.6374596,410.707185 C78.4631434,410.506906 78.3770623,410.244738 78.39873,409.98011 L88.8202532,272.72727 C88.8515306,272.217348 89.2746947,271.820092 89.7855738,271.821051 L150.009764,270.678426 C150.281966,270.678426 150.543515,270.784182 150.738679,270.973932 C150.918264,271.166157 151.017019,271.420099 151.014533,271.683148 L146.128781,412.935173 C146.108614,413.448839 145.696827,413.860626 145.18316,413.880806 L145.18316,413.880806 Z M126.211654,411.910751 L144.23754,411.910751 L149.044443,272.668169 L90.7902954,273.771392 L80.4869747,409.132992 L97.6460422,410.078612 L113.997392,307.636418 C113.997392,307.092406 114.438401,306.651397 114.982414,306.651397 C115.526426,306.651397 115.967435,307.092406 115.967435,307.636418 L126.211654,411.910751 Z" id="形状" fill="#231F20" fill-rule="nonzero"></path>
                    <path d="M191.262447,231.710992 C195.082981,230.176131 199.129212,229.277708 203.240304,229.051435 C210.017249,228.696827 212.735907,224.480937 212.479802,221.486473 C212.223696,218.492008 205.88016,216.029456 201.565768,216.758371 C197.251376,217.487287 187.223861,224.264232 187.223861,224.264232 L191.262447,231.710992 Z" id="路径" fill="#FFE0E0" fill-rule="nonzero"></path>
                    <path d="M191.262447,232.794623 C190.900297,232.799914 190.565596,232.602137 190.395629,232.282304 L186.337342,224.835544 C186.099033,224.390958 186.2351,223.838186 186.652549,223.555017 C187.066257,223.259511 196.896768,216.659869 201.368764,215.891553 C204.905183,215.426318 208.487943,216.29742 211.415979,218.334405 C212.481716,219.074977 213.194523,220.222596 213.386021,221.506173 C213.487489,223.368929 212.834155,225.194004 211.573582,226.569181 C209.409885,228.872816 206.380883,230.165857 203.220603,230.134958 C199.231595,230.357195 195.305585,231.228902 191.597354,232.715713 C191.49108,232.761041 191.377783,232.787699 191.262447,232.794623 Z M188.504388,224.697641 L191.695857,230.607768 C195.382217,229.235538 199.253937,228.425332 203.181203,228.204316 C205.799652,228.260997 208.322019,227.217752 210.135451,225.328055 C211.054118,224.35878 211.537893,223.056855 211.47508,221.722878 C211.316133,220.978683 210.86087,220.331357 210.214253,219.930139 C207.709866,218.263812 204.685532,217.563735 201.703671,217.960097 C198.295498,218.314705 190.868439,223.042806 188.504388,224.599139 L188.504388,224.697641 Z" id="形状" fill="#231F20" fill-rule="nonzero"></path>
                    <path d="M147.113802,185.631705 C147.113802,185.631705 162.598333,224.14603 165.651899,224.914346 C168.705464,225.682662 191.932262,219.161823 191.932262,219.161823 L192.464173,233.464329 C192.464173,233.464329 167.621941,248.751857 158.047536,243.432743 C148.473131,238.113629 120.87284,210.395135 120.87284,210.395135 L147.113802,185.631705 Z" id="路径" fill="#FFB102" fill-rule="nonzero"></path>
                    <polygon id="路径" fill="#231F20" fill-rule="nonzero" points="206.057464 221.151565 218.508131 229.248439 234.82008 203.736392 222.369414 195.639519"></polygon>
                    <path d="M218.508131,230.23346 C218.318163,230.242118 218.130808,230.186605 217.976219,230.075857 L205.525553,221.978983 C205.307718,221.84138 205.153933,221.622402 205.098431,221.370794 C205.04293,221.119187 205.090318,220.855832 205.230046,220.639354 L221.541996,195.028806 C221.683476,194.80368 221.911549,194.646879 222.172409,194.595397 C222.42377,194.529819 222.691292,194.580431 222.901325,194.7333 L235.351992,202.830173 C235.569827,202.967776 235.723611,203.186754 235.779113,203.438362 C235.834615,203.68997 235.787227,203.953324 235.647498,204.169802 L219.335549,229.78035 C219.201767,230.012721 218.970003,230.172059 218.705135,230.213759 L218.508131,230.23346 Z M207.416793,220.974262 L218.212624,227.987612 L233.460751,204.1107 L222.66492,197.09735 L207.416793,220.974262 Z" id="形状" fill="#231F20" fill-rule="nonzero"></path>
                    <polyline id="路径" fill="#231F20" fill-rule="nonzero" points="219.059743 202.830173 277.904903 110.7307 287.439907 116.936333"></polyline>
                    <path d="M219.059743,203.815408 C218.871909,203.808825 218.688816,203.754575 218.527831,203.657591 C218.071537,203.363355 217.939368,202.755378 218.232325,202.298262 L277.077485,110.198789 C277.216058,109.979552 277.435507,109.823814 277.688198,109.76538 C277.946166,109.71138 278.215022,109.760906 278.436814,109.903283 L287.971819,116.108916 C288.396788,116.415058 288.507867,117.000232 288.224641,117.440805 C287.941416,117.881379 287.362939,118.023267 286.907996,117.763751 L278.200409,112.09003 L219.88716,203.362084 C219.711764,203.649733 219.396573,203.822338 219.059743,203.815408 Z" id="路径" fill="#231F20" fill-rule="nonzero"></path>
                    <ellipse id="椭圆形" fill="#009A87" fill-rule="nonzero" transform="translate(258.024642, 162.973767) rotate(-58.320000) translate(-258.024642, -162.973767) " cx="258.024642" cy="162.973767" rx="54.6489705" ry="44.1092447"></ellipse>
                    <path d="M249.102886,215.930954 C241.648774,215.996948 234.337114,213.888342 228.062835,209.863224 C207.219789,196.309333 203.713114,164.256747 220.182667,138.390093 L220.182667,138.390093 C229.264561,124.186089 242.857852,114.237376 257.475565,111.065608 C267.893427,108.595738 278.866751,110.412795 287.932418,116.108916 C308.775464,129.662806 312.30184,161.715392 295.812586,187.562346 C286.730692,201.786051 273.137401,211.734764 258.499987,214.906532 C255.41156,215.57258 252.262281,215.915898 249.102886,215.930954 L249.102886,215.930954 Z M221.876903,139.453916 C205.939262,164.39465 209.209532,195.245511 229.146359,208.208388 C237.748047,213.673626 248.206271,215.39532 258.105979,212.97589 C272.231181,209.922325 285.371363,200.269118 294.157751,186.498523 C310.095392,161.557789 306.844823,130.726629 286.907996,117.763751 C278.301062,112.293086 267.834563,110.571201 257.928675,112.996249 C243.803473,116.049814 230.682992,125.683321 221.876903,139.453916 L221.876903,139.453916 Z" id="形状" fill="#231F20" fill-rule="nonzero"></path>
                    <ellipse id="椭圆形" fill="#00D0B6" fill-rule="nonzero" transform="translate(248.441497, 157.284723) rotate(-58.055247) translate(-248.441497, -157.284723) " cx="248.441497" cy="157.284723" rx="54.7417949" ry="43.5"></ellipse>
                    <path d="M239.567882,209.725321 C232.11377,209.791315 224.80211,207.682709 218.527831,203.657591 C197.684785,190.1037 194.158409,158.031414 210.647662,132.18446 C219.729557,117.980456 233.322848,108.031743 247.960262,104.859975 C258.377732,102.378789 269.355465,104.196576 278.417114,109.903283 C299.26016,123.457173 302.766835,155.509759 286.297283,181.356713 C277.235089,195.560717 263.641797,205.529131 249.004384,208.700899 C245.903077,209.369666 242.740452,209.712999 239.567882,209.725321 Z M257.554367,105.785895 C254.476686,105.770468 251.406016,106.080837 248.393671,106.711814 C234.268468,109.76538 221.128287,119.398886 212.341899,133.169481 C196.404257,158.110215 199.654827,188.961076 219.591654,201.923954 C228.198587,207.394619 238.665086,209.116504 248.570975,206.691456 C262.696177,203.63789 275.836359,193.984684 284.622747,180.214089 C300.560388,155.273354 297.290118,124.442194 277.353291,111.479316 C271.456589,107.676999 264.570118,105.696711 257.554367,105.785895 L257.554367,105.785895 Z" id="形状" fill="#231F20" fill-rule="nonzero"></path>
                    <ellipse id="椭圆形" fill="#BBCFFC" fill-rule="nonzero" transform="translate(248.474411, 156.774090) rotate(-58.320000) translate(-248.474411, -156.774090) " cx="248.474411" cy="156.77409" rx="43.2424262" ry="34.9091477"></ellipse>
                    <path d="M241.419722,198.870388 C235.480903,198.926128 229.654723,197.248791 224.654662,194.043785 C208.086608,183.247954 205.269447,157.755608 218.389928,137.208068 C225.001986,126.374905 235.620915,118.587691 247.940561,115.537603 C256.225355,113.539561 264.96566,114.959594 272.191781,119.477688 C288.779536,130.253819 291.596696,155.746165 278.476215,176.293705 C271.860958,187.123927 261.243386,194.910146 248.925582,197.964169 C246.463492,198.535251 243.946982,198.839082 241.419722,198.870388 Z M255.663127,116.561483 C253.237738,116.573188 250.820513,116.84397 248.452772,117.369743 C236.597529,120.294536 226.383312,127.795823 220.044764,138.232489 C207.515295,157.932911 210.05665,182.14473 225.738186,192.349549 C232.502427,196.647816 240.727719,197.999724 248.511873,196.092629 C260.353723,193.161966 270.557545,185.670194 276.900181,175.249582 C289.44935,155.54916 286.907996,131.317641 271.22646,121.112823 C266.593864,118.109783 261.183818,116.527858 255.663127,116.561483 L255.663127,116.561483 Z" id="形状" fill="#231F20" fill-rule="nonzero"></path>
                    <path d="M219.217346,137.739979 C206.372671,157.87381 209.032228,182.716042 225.127473,193.216367 C226.175678,193.899007 227.268186,194.511075 228.397743,195.048506 C214.942354,183.54346 213.386021,160.612169 225.403278,141.857367 C237.420536,123.102565 258.756093,115.005692 274.654333,122.629755 C273.70323,121.820376 272.703182,121.07034 271.659869,120.383907 C255.604025,109.824481 232.081722,117.625848 219.217346,137.739979 Z" id="路径" fill="#231F20" fill-rule="nonzero"></path>
                    <path d="M228.456844,196.033527 C228.30705,196.031576 228.159357,195.998009 228.023435,195.935025 C226.85752,195.354786 225.732044,194.696613 224.654662,193.964983 C208.086608,183.188852 205.269447,157.696506 218.389928,137.129266 C225.001986,126.296104 235.620915,118.508889 247.940561,115.458802 C256.225778,113.472053 264.961683,114.891371 272.191781,119.398886 C273.27371,120.103565 274.30703,120.880201 275.284747,121.723536 C275.654786,122.046061 275.730888,122.591813 275.463196,123.003266 C275.195504,123.414718 274.665726,123.566284 274.220924,123.358671 C258.460586,115.85281 237.873646,123.969384 226.191295,142.231675 C214.508945,160.493966 215.730371,182.853945 228.988755,194.201388 C229.300868,194.468255 229.414676,194.900751 229.27434,195.286676 C229.134003,195.672601 228.768971,195.930974 228.358342,195.935025 L228.456844,196.033527 Z M255.663127,116.561939 C253.237799,116.57424 250.820686,116.84501 248.452772,117.369743 C236.601097,120.291286 226.391935,127.794063 220.064464,138.232489 C208.401814,156.47508 209.761143,178.736557 222.586118,189.965797 C213.681527,177.180224 214.174038,157.617705 224.55616,141.246654 C234.938283,124.875603 252.511059,116.30592 267.759186,119.241283 C263.97423,117.466674 259.84344,116.551711 255.663127,116.561939 Z" id="形状" fill="#231F20" fill-rule="nonzero"></path>
                    <path d="M159.741772,300.347262 L166.242911,304.582852 C167.776092,305.575597 169.642795,305.913495 171.426689,305.521187 C173.210583,305.128878 174.763292,304.038992 175.738515,302.494608 L220.182667,232.932418 C222.259957,229.73372 221.382315,225.459601 218.212624,223.338312 L211.731186,219.102722 C210.194929,218.109023 208.325208,217.770618 206.538116,218.162816 C204.751023,218.555015 203.194839,219.645274 202.215882,221.190966 L157.77173,290.753156 C155.694439,293.951854 156.572082,298.225972 159.741772,300.347262 Z" id="路径" fill="#00D0B6" fill-rule="nonzero"></path>
                    <path d="M169.887489,306.671097 C168.384267,306.663421 166.914603,306.225939 165.651899,305.41027 L159.150759,301.174679 L159.150759,301.174679 C157.378699,300.040347 156.133857,298.24446 155.693509,296.187034 C155.25316,294.129608 155.653879,291.981524 156.806409,290.221245 L201.250561,220.659055 C203.598005,217.001804 208.463146,215.935351 212.125194,218.275304 L218.606633,222.510895 C220.378693,223.645227 221.623535,225.441114 222.063884,227.49854 C222.504232,229.555966 222.103513,231.70405 220.950983,233.464329 L176.506831,303.026519 C175.064715,305.289034 172.570509,306.662331 169.887489,306.671097 L169.887489,306.671097 Z M160.214582,299.519844 L166.715722,303.755435 C168.023359,304.594191 169.608664,304.884358 171.128616,304.563152 C172.666549,304.226827 174.006745,303.290817 174.851996,301.962696 L219.296148,232.400506 C220.167318,231.079363 220.472265,229.464031 220.142705,227.916211 C219.813146,226.368391 218.876612,225.017393 217.54281,224.16573 L211.041671,219.930139 C209.738937,219.079024 208.14852,218.787921 206.628776,219.122422 C205.090843,219.458747 203.750647,220.394757 202.905397,221.722878 L158.480945,291.285068 C157.607957,292.603802 157.299919,294.217405 157.625727,295.76499 C157.951534,297.312575 158.884002,298.665019 160.214582,299.519844 L160.214582,299.519844 Z" id="形状" fill="#231F20" fill-rule="nonzero"></path>
                    <path d="M274.366966,160.280696 C274.691466,160.4788 274.872987,160.845968 274.833363,161.224089 C274.793738,161.602211 274.540043,161.923771 274.181523,162.0503 L227.767329,185.020992 C227.631406,185.083975 227.483714,185.117542 227.33392,185.119494 C226.959853,185.111315 226.619999,184.89985 226.447401,184.567882 C226.331967,184.33284 226.314872,184.061508 226.399893,183.813837 C226.484915,183.566165 226.665055,183.362541 226.900511,183.247954 L273.314705,160.296962 C273.632926,160.088922 274.042465,160.082591 274.366966,160.280696 Z M279.16098,145.881689 C279.379866,146.334384 279.230385,146.87918 278.811122,147.156781 L253.693084,159.174038 C253.560669,159.246757 253.410514,159.280883 253.259675,159.27254 C252.715663,159.392223 252.177632,159.048236 252.057949,158.504224 C251.938267,157.960211 252.282254,157.422181 252.826266,157.302498 L277.944304,145.364042 C278.422257,145.207824 278.942095,145.428994 279.16098,145.881689 Z M258.993798,140.834295 C259.238662,140.923336 259.437133,141.10758 259.54411,141.345156 C259.658216,141.582628 259.672434,141.855913 259.583587,142.103944 C259.49474,142.351974 259.310234,142.554075 259.0713,142.665084 L229.934376,156.238675 C229.816679,156.294121 229.68981,156.327508 229.560068,156.337177 C229.016055,156.45142 228.482435,156.103023 228.368192,155.559011 C228.25395,155.014998 228.602347,154.481378 229.146359,154.367135 L258.243882,140.872346 C258.478475,140.758977 258.748934,140.745254 258.993798,140.834295 Z" id="形状结合" fill="#FFFFFF" fill-rule="nonzero"></path>
                    <path d="M132.161181,171.132194 C130.565447,170.95489 128.969713,170.580582 127.098173,170.304776 C125.226633,170.02897 123.158089,169.240954 123.158089,167.487616 C123.158089,165.734278 125.128131,164.847759 124.773523,163.370228 C124.65533,162.969359 124.461393,162.594861 124.202211,162.267004 C121.958748,158.763007 121.101824,154.548629 121.798759,150.446751 C122.557708,146.339079 124.854534,142.675431 128.221097,140.202532 C127.728586,140.320734 127.236076,139.808523 127.216376,139.276612 C127.250027,138.755114 127.474427,138.264241 127.846789,137.897582 C129.233055,136.549611 130.976282,135.626726 132.870397,135.238025 C138.877561,133.787727 145.183297,134.192998 150.955384,136.40035 C155.387979,138.015785 160.608591,141.97557 159.702371,147.452287 C159.440046,149.478436 157.79836,151.046246 155.762287,151.215068 C154.422658,157.125194 151.132688,160.868274 147.035,164.88716 C144.304054,167.65828 140.915046,169.691686 137.184789,170.797287 C135.548487,171.237692 133.841464,171.351493 132.161181,171.132194 Z" id="路径" fill="#242434" fill-rule="nonzero"></path>
                    <path d="M133.697814,172.196017 C133.126859,172.224568 132.554833,172.224568 131.983878,172.196017 L131.983878,172.196017 C131.018557,172.077814 130.013835,171.900511 129.048515,171.723207 L126.881468,171.348899 C123.867304,170.895789 122.094266,169.378857 122.173068,167.527017 C122.268447,166.639605 122.617239,165.798401 123.177789,165.103865 C123.611198,164.434051 123.887004,164.020342 123.808203,163.646034 C123.726021,163.39551 123.599211,163.161912 123.433895,162.956519 C120.982244,159.205937 120.052306,154.661922 120.833439,150.249747 C121.552351,146.375238 123.566918,142.860167 126.546561,140.281333 C126.372041,139.987927 126.270686,139.656834 126.251055,139.316013 C126.257822,138.535642 126.577145,137.790555 127.137574,137.247468 C128.646462,135.753087 130.55525,134.726857 132.633992,134.292405 C138.835446,132.786777 145.347847,133.198954 151.309992,135.47443 C156.668506,137.444473 161.633013,141.936169 160.687392,147.60989 C160.35814,149.821043 158.722468,151.612493 156.550304,152.140987 C154.939141,157.365207 151.886887,162.028941 147.744215,165.596376 C144.883812,168.472349 141.348229,170.585571 137.460595,171.742907 C136.235035,172.07608 134.967433,172.228723 133.697814,172.196017 Z M132.200582,170.225975 C133.779248,170.419241 135.380681,170.29193 136.908983,169.851667 C140.476928,168.783778 143.720949,166.840074 146.345485,164.197646 C150.797781,159.824152 153.595241,156.317477 154.816667,150.998363 C154.936547,150.559207 155.327131,150.248334 155.781987,150.230046 C157.33388,150.043699 158.560096,148.825603 158.756751,147.274983 C159.62357,142.074072 154.04835,138.567397 150.640177,137.30657 C145.048044,135.179562 138.944484,134.78822 133.126502,136.183646 C131.418009,136.50877 129.846416,137.339175 128.615105,138.567397 C128.420012,138.738404 128.282421,138.965431 128.221097,139.217511 C128.609007,139.192947 128.970965,139.413269 129.127316,139.769122 C129.335043,140.194385 129.210958,140.707271 128.83181,140.990549 C125.652972,143.296717 123.486512,146.740471 122.783781,150.604354 C122.089237,154.490416 122.891629,158.495338 125.029629,161.813895 C125.3597,162.231051 125.594987,162.715071 125.719143,163.232325 C125.846623,164.301005 125.517601,165.373903 124.812924,166.187388 C124.482662,166.594406 124.253165,167.07365 124.14311,167.586118 C124.14311,168.59084 125.758544,169.181852 127.176975,169.398557 C127.964992,169.516759 128.693907,169.654662 129.422823,169.792565 C130.151738,169.930468 131.274662,170.127473 132.200582,170.225975 L132.200582,170.225975 Z" id="形状" fill="#231F20" fill-rule="nonzero"></path>
                    <path d="M156.84581,159.902954 C156.84581,159.902954 160.628291,167.073907 159.584169,168.393835 C158.540046,169.713764 155.644084,168.393835 155.644084,168.393835" id="路径" fill="#FFE0E0" fill-rule="nonzero"></path>
                    <path d="M156.747308,150.801359 C159.347764,153.401814 158.067236,158.208717 157.732329,161.380485 C157.279219,165.852481 156.707907,170.324477 156.057793,174.757072 C155.624384,177.574232 148.335228,176.904418 147.133502,175.919397 L147.133502,187.247139 L132.397586,179.760979 L133.894819,170.560882 C137.388013,170.616557 140.616393,168.705417 142.247797,165.616076 C145.63627,160.119658 146.424287,147.531089 146.424287,147.531089 C146.424287,147.531089 154.225654,148.260004 156.747308,150.801359 Z" id="路径" fill="#FFE0E0" fill-rule="nonzero"></path>
                    <path d="M148.059422,161.872996 C148.046834,160.741981 147.719385,159.63684 147.113802,158.681527 C146.756196,157.878058 146.277861,157.133981 145.695371,156.47508 C145.104768,155.82054 144.25125,155.466113 143.370722,155.509759 C142.568177,155.597936 141.846341,156.038255 141.400679,156.711485 C140.986114,157.36747 140.723594,158.10791 140.632363,158.878532 C140.181001,162.287444 141.540017,165.684985 144.21784,167.842224 L144.001135,167.546717" id="路径" fill="#FFE0E0" fill-rule="nonzero"></path>
                    <ellipse id="椭圆形" fill="#231F20" fill-rule="nonzero" transform="translate(155.489300, 157.064200) rotate(-87.710000) translate(-155.489300, -157.064200) " cx="155.4893" cy="157.0642" rx="2.5" ry="1"></ellipse>
                    <path d="M129.107616,182.203831 L130.880654,177.396928 L150.344671,180.529295 L151.782802,188.074557 C143.798218,188.519196 135.873227,186.467374 129.107616,182.203831 L129.107616,182.203831 Z" id="路径" fill="#231F20" fill-rule="nonzero"></path>
                    <path d="M149.596055,189.15808 C142.166687,189.078619 134.902001,186.959184 128.595405,183.031249 C128.201893,182.788845 128.029835,182.305444 128.181696,181.868924 L129.954734,177.062021 C130.123332,176.621848 130.570529,176.353529 131.038257,176.411907 L150.502274,179.563975 C150.917818,179.623502 151.249977,179.939844 151.329692,180.351992 L152.748122,187.897253 C152.801082,188.166921 152.736592,188.446379 152.570819,188.66557 C152.416132,188.888778 152.171253,189.032824 151.901004,189.059578 C151.135151,189.135719 150.365612,189.168606 149.596055,189.15808 Z M130.329042,181.770422 C136.455438,185.41368 143.473855,187.28253 150.600776,187.168338 L149.517253,181.396114 L131.530768,178.500152 L130.329042,181.770422 Z" id="形状" fill="#231F20" fill-rule="nonzero"></path>
                    <path d="M190.888139,244.614768 C193.755777,246.027768 196.695128,247.290309 199.694228,248.397249 C201.053557,248.594253 203.634312,245.225481 205.151245,246.190802 C206.668177,247.156122 211.94789,253.223852 211.94789,254.189173 C211.94789,255.154494 209.544439,262.542152 207.456194,262.069342 C205.229962,261.388334 203.07825,260.484088 201.033857,259.370384 L187.460266,257.400342" id="路径" fill="#FFE0E0" fill-rule="nonzero"></path>
                    <path d="M207.613797,263.192266 L207.27889,263.192266 C204.996209,262.494556 202.796451,261.549915 200.71865,260.375105 L187.322363,258.405063 C187.065175,258.370996 186.832525,258.234841 186.676864,258.027294 C186.521204,257.819746 186.455637,257.558279 186.494945,257.30184 C186.576207,256.760845 187.075358,256.384292 187.617869,256.454722 L201.171759,258.424764 L201.506667,258.424764 C203.448899,259.515689 205.503034,260.394145 207.633498,261.04492 C208.67762,260.867616 210.884068,255.390899 210.962869,254.03157 C209.160616,251.394035 207.036256,248.991721 204.639034,246.880316 C204.323827,246.683312 203.102401,247.550131 202.511388,247.96384 C201.719784,248.740495 200.66478,249.19063 199.556325,249.224667 C196.44077,248.108694 193.400573,246.792591 190.45473,245.284582 C190.220638,245.173967 190.040793,244.97395 189.955592,244.72946 C189.87039,244.484969 189.886975,244.2165 190.00162,243.984354 C190.232781,243.497675 190.81207,243.287024 191.301848,243.511544 C194.072413,244.916243 196.927959,246.146628 199.851831,247.195523 C200.401255,246.965106 200.91268,246.652938 201.368764,246.269603 C202.668992,245.363384 204.264726,244.299561 205.683156,245.146679 C207.101586,245.993797 212.932911,252.337333 212.932911,253.972468 C212.932911,254.937789 211.179574,260.611511 209.11103,262.325447 C208.742061,262.796254 208.205809,263.106715 207.613797,263.192266 L207.613797,263.192266 Z" id="路径" fill="#231F20" fill-rule="nonzero"></path>
                    <path d="M157.77173,191.069021 C157.77173,191.069021 163.090844,231.336684 165.986806,231.336684 C168.882768,231.336684 196.483059,244.614768 196.483059,244.614768 L191.774658,262.345148 C191.774658,262.345148 156.432101,257.223038 148.768637,253.499658 C144.71035,251.529616 137.697,208.188688 137.697,208.188688 L157.77173,191.069021 Z" id="路径" fill="#FFB102" fill-rule="nonzero"></path>
                    <path d="M156.688207,188.941376 C146.069679,183.208553 131.471667,173.456844 112.992671,187.75935 C94.5136751,202.061857 85.825789,282.498679 85.825789,282.498679 L155.033371,277.179565 C155.033371,277.179565 166.617219,194.28019 156.688207,188.941376 Z" id="路径" fill="#FFB102" fill-rule="nonzero"></path>
                    <path d="M144.887654,251.766162 C144.416726,251.774021 144.008775,251.441 143.922333,250.978004 C143.922333,250.721899 139.07603,225.662962 136.239169,207.873481 C136.156101,207.341291 136.515911,206.841067 137.046886,206.750557 C137.587249,206.678396 138.089469,207.042073 138.189511,207.577975 C141.006671,225.308354 145.793873,250.347591 145.852975,250.603696 C145.948834,251.136384 145.596942,251.646628 145.064958,251.746321 L144.887654,251.766162 Z" id="路径" fill="#231F20" fill-rule="nonzero"></path>
                    <path d="M188.464987,242.38862 C188.354138,242.407357 188.24093,242.407357 188.13008,242.38862 L161.96792,233.346127 C161.595937,233.210852 161.335167,232.873385 161.298105,232.479308 C161.298105,232.144401 158.993156,199.756907 156.471502,192.270747 C156.300181,191.754443 156.570888,191.195566 157.082215,191.00992 C157.603246,190.851533 158.157133,191.128476 158.343042,191.640333 C160.766194,198.850688 162.874139,226.904089 163.228747,231.691291 L188.839295,240.536781 C189.383307,240.623823 189.753755,241.135393 189.666713,241.679405 C189.579671,242.223417 189.068101,242.593865 188.524089,242.506823 L188.464987,242.38862 Z" id="路径" fill="#231F20" fill-rule="nonzero"></path>
                    <path d="M197.172574,219.004219 C197.172574,219.004219 203.949519,213.330498 206.155966,213.4487 C208.362414,213.566903 216.675992,214.551924 214.311941,216.344662 C211.94789,218.137401 205.939262,217.290283 205.939262,217.290283 C205.939262,217.290283 206.628776,218.019198 203.811616,220.008941" id="路径" fill="#FFE0E0" fill-rule="nonzero"></path>
                    <path d="M203.732814,220.974291 C203.301245,220.977576 202.917778,220.699563 202.786734,220.288357 C202.655691,219.877151 202.807592,219.428527 203.161502,219.181523 C203.85799,218.770585 204.456368,218.212548 204.91484,217.546388 C204.827275,217.311306 204.827275,217.052555 204.91484,216.817473 C205.109203,216.452942 205.51038,216.24842 205.919561,216.305262 C208.380349,216.714678 210.904098,216.511695 213.267819,215.714249 C210.89529,214.950276 208.429799,214.512851 205.939262,214.414021 C204.757236,214.295819 200.758051,217.132679 197.645384,219.752835 C197.21615,220.084391 196.602876,220.023928 196.246654,219.614932 C196.075968,219.41789 195.992233,219.16019 196.014496,218.900453 C196.036759,218.640715 196.163128,218.401024 196.364857,218.235903 C198.039392,216.837173 203.693414,212.325776 206.037764,212.443979 C206.392371,212.443979 214.765051,212.916789 215.493966,215.28084 C215.692391,215.980502 215.392644,216.725819 214.765051,217.093278 C212.676806,218.669312 208.579118,218.531409 206.648477,218.354105 C206.041386,219.345485 205.211757,220.181859 204.225325,220.796958 C204.079279,220.897713 203.909569,220.958809 203.732814,220.974291 Z" id="路径" fill="#231F20" fill-rule="nonzero"></path>
                    <path d="M127.551283,423.731004 L127.551283,436.260473 C127.551283,436.260473 159.367464,437.836506 158.914354,435.373954 C158.461245,432.911401 142.799409,424.834228 142.799409,424.834228 L127.551283,423.731004 Z" id="路径" fill="#231F20" fill-rule="nonzero"></path>
                    <path d="M145.518068,437.678903 C139.036629,437.678903 131.865675,437.383397 127.511882,437.166692 C126.983316,437.145533 126.565838,436.71066 126.566261,436.181671 L126.566261,423.652203 C126.566773,423.376254 126.680759,423.112663 126.881468,422.923287 C127.081583,422.732608 127.355108,422.639033 127.630084,422.667181 L142.858511,423.790105 C142.981559,423.760797 143.10977,423.760797 143.232819,423.790105 C148.079122,426.272359 159.406865,432.359789 159.899376,435.019346 C159.964677,435.409669 159.848657,435.808485 159.584169,436.102869 C158.579447,437.422797 152.452616,437.678903 145.518068,437.678903 Z M128.536304,435.255751 C141.164274,435.846764 154.678764,435.905865 157.673228,435.058747 C156.136595,433.32511 149.005042,429.14862 142.523603,425.740447 L128.536304,424.696325 L128.536304,435.255751 Z" id="形状" fill="#231F20" fill-rule="nonzero"></path>
                    <path d="M447.505835,23.895962 C438.159707,23.895962 430.583173,31.4724961 430.583173,40.8186245 L430.583173,57.7215865 L142.149295,57.7215865 L142.149295,40.8186245 C142.149295,31.4724961 149.725829,23.895962 159.071958,23.895962 L447.505835,23.895962 Z" id="路径" fill="#DBE6FF" fill-rule="nonzero"></path>
                    <rect id="矩形" fill="#FFFFFF" fill-rule="nonzero" x="314.567388" y="163.068042" width="21.8674684" height="57"></rect>
                    <rect id="矩形" fill="#00BAFF" fill-rule="nonzero" x="347.309489" y="175.068042" width="21.8674684" height="45"></rect>
                    <rect id="矩形" fill="#00D0B6" fill-rule="nonzero" x="380.03189" y="146.068042" width="21.8674684" height="74"></rect>
                    <rect id="矩形" fill="#FFB102" fill-rule="nonzero" x="412.754291" y="164.068042" width="21.8674684" height="56"></rect>
                    <path d="M449.456177,220.974262 L295.438278,220.974262 C294.894266,220.974262 294.453257,220.533253 294.453257,219.989241 C294.453257,219.445228 294.894266,219.004219 295.438278,219.004219 L449.456177,219.004219 C450.000189,219.004219 450.441198,219.445228 450.441198,219.989241 C450.441198,220.533253 450.000189,220.974262 449.456177,220.974262 Z" id="路径" fill="#DCE6FD" fill-rule="nonzero"></path>
                    <path d="M431.154485,104.268962 C431.698497,104.268962 432.139506,104.709971 432.139506,105.253983 C432.139506,105.797995 431.698497,106.239004 431.154485,106.239004 L360.42997,106.239004 C359.885958,106.239004 359.444949,105.797995 359.444949,105.253983 C359.444949,104.709971 359.885958,104.268962 360.42997,104.268962 L431.154485,104.268962 Z M431.115084,93.3155274 C431.659097,93.3155274 432.100106,93.7565364 432.100106,94.3005485 C432.100529,94.8295379 431.683051,95.2644102 431.154485,95.2855696 L398.116878,95.2855696 C397.572866,95.2855696 397.131857,94.8445607 397.131857,94.3005485 C397.131857,93.7565364 397.572866,93.3155274 398.116878,93.3155274 L431.115084,93.3155274 Z M384.326582,93.3155274 C384.866193,93.3260083 385.301123,93.7609373 385.311603,94.3005485 C385.311603,94.8445607 384.870594,95.2855696 384.326582,95.2855696 L307,95.2855696 C306.455988,95.2855696 306.014979,94.8445607 306.014979,94.3005485 C306.02546,93.7609373 306.460389,93.3260083 307,93.3155274 L384.326582,93.3155274 Z M431.154485,82.3817932 C431.698497,82.3817932 432.139506,82.8228022 432.139506,83.3668143 C432.139506,83.6280582 432.035728,83.8786022 431.851,84.0633294 C431.666273,84.2480567 431.415729,84.3518354 431.154485,84.3518354 L225.391409,84.3518354 C224.851798,84.3413546 224.416869,83.9064256 224.406388,83.3668143 C224.406388,82.8228022 224.847397,82.3817932 225.391409,82.3817932 L431.154485,82.3817932 Z" id="形状结合" fill="#DCE6FD" fill-rule="nonzero"></path>
                    <g id="编组-3" transform="translate(50.415230, 138.000000)" fill-rule="nonzero">
                        <rect id="矩形" fill="#00BAFF" transform="translate(23.238995, 18.885296) rotate(-14.100000) translate(-23.238995, -18.885296) " x="3.30439453" y="4.95949586" width="39.8692" height="27.8516"></rect>
                        <path d="M7.29121951,37.7412195 C7.20198945,37.7393712 7.11468526,37.7149261 7.03746951,37.6701695 C6.91905089,37.602575 6.83437718,37.4884496 6.80401951,37.3555195 L0.0136695126,10.3463695 C-0.0503537954,10.0721985 0.116490437,9.79713093 0.389219513,9.72721951 L39.0505695,0.0136695126 C39.3247406,-0.0503537954 39.5998081,0.116490437 39.6697195,0.389219513 L46.4600695,27.3983695 C46.4903446,27.5266767 46.46844,27.6617548 46.3991695,27.7739195 C46.331575,27.8923381 46.2174496,27.9770118 46.0845195,28.0073695 L7.42316951,37.7209195 L7.29121951,37.7412195 Z M1.13016951,10.5899695 L7.66676951,36.6145695 L45.3435695,27.1446195 L38.8272695,1.12001951 L1.13016951,10.5899695 Z" id="形状" fill="#F6F7F9"></path>
                        <path d="M7.29121951,37.7412195 C7.22774035,37.7555993 7.16184868,37.7555993 7.09836951,37.7412195 C6.84558744,37.6296817 6.72495969,37.3392816 6.82431951,37.0814695 L16.9235695,12.7214695 C16.983827,12.5769309 17.1074362,12.4683046 17.2585195,12.4271195 C17.4035437,12.3778237 17.5636223,12.4045035 17.6848195,12.4981695 L33.1940195,23.6631695 C33.3408825,23.7701438 33.4195193,23.9473425 33.4003084,24.1280167 C33.3810975,24.3086908 33.2669573,24.4653917 33.1008834,24.5390917 C32.9348095,24.6127916 32.7420325,24.5922938 32.5951695,24.4853195 L17.6137695,13.6248195 L7.76826951,37.4265695 C7.68679939,37.6176781 7.49896877,37.7415664 7.29121951,37.7412195 Z" id="路径" fill="#F6F7F9"></path>
                        <path d="M28.6772695,21.4504695 C28.6167539,21.460146 28.5550851,21.460146 28.4945695,21.4504695 C28.3674729,21.4027537 28.2647923,21.3061051 28.2094787,21.1821262 C28.154165,21.0581473 28.1508302,20.9171752 28.2002195,20.7907195 L32.1384195,10.3057695 C32.1875278,10.1612391 32.3055897,10.0507941 32.4530695,10.0114195 C32.595365,9.96144188 32.7527841,9.98018225 32.8793695,10.0621695 L43.6485195,16.8220695 C43.7653073,16.8913074 43.848713,17.0052802 43.879382,17.1375402 C43.9100509,17.2698001 43.8853169,17.4088488 43.8109195,17.5224195 C43.6593243,17.7575101 43.3460837,17.8256059 43.1105695,17.6746695 L32.8387695,11.2192695 L29.1137195,21.1155195 C29.0488555,21.3047967 28.8768833,21.4367753 28.6772695,21.4504695 Z" id="路径" fill="#F6F7F9"></path>
                        <path d="M26.4645695,12.4271195 C24.9666509,12.421726 23.7065307,11.3031099 23.52359,9.81639472 C23.3406493,8.32967958 24.2919929,6.93894223 25.7439195,6.57056951 C26.509705,6.37871837 27.3203484,6.49921943 27.9972195,6.90551951 C28.6735384,7.30935606 29.1597757,7.96742168 29.3471695,8.73251951 L29.3471695,8.73251951 C29.5407072,9.49573983 29.4225929,10.3046034 29.018892,10.980612 C28.6151911,11.6566207 27.9590878,12.1442063 27.1953695,12.3357695 C26.9563627,12.3956754 26.7109683,12.4263497 26.4645695,12.4271195 L26.4645695,12.4271195 Z M26.4645695,7.49421524 C26.3035928,7.4938751 26.143247,7.51434477 25.9875195,7.55511951 C25.4854987,7.68744639 25.0532564,8.00708776 24.7796695,8.44831951 C24.5130545,8.89381673 24.4362718,9.42763931 24.5665195,9.93021951 C24.8310083,10.972845 25.8867168,11.6071763 26.9314695,11.3512195 C27.4334903,11.2188926 27.8657326,10.8992513 28.1393195,10.4580195 C28.4059345,10.0125223 28.4827172,9.47869971 28.3524695,8.97611951 L28.3524695,8.97611951 C28.2332216,8.47052365 27.9098539,8.03691697 27.4592695,7.77841951 C27.1623156,7.59755225 26.8223795,7.49942636 26.4747195,7.49421524 L26.4645695,7.49421524 Z" id="形状" fill="#F6F7F9"></path>
                    </g>
                    <g id="编组-9" transform="translate(525.013277, 17.919199)" fill-rule="nonzero">
                        <circle id="椭圆形" fill="#00BAFF" cx="19.7089657" cy="19.6604627" r="18.853625"></circle>
                        <path d="M21.9039032,0.0836501604 L24.0988407,0.45158766 C24.1725245,0.490666461 24.248833,0.524581369 24.3272157,0.55308766 C27.6083653,1.29113868 30.6262293,2.90973145 33.0562157,5.23477516 C38.56867,10.1717394 40.754998,17.8362256 38.6767782,24.9384627 C37.6066976,29.1853019 35.0556632,32.9106219 31.4829657,35.4437127 C26.6319086,39.1519733 20.3090326,40.3383953 14.4436532,38.6409627 C11.3786976,37.8429084 8.57254127,36.2649918 6.29827822,34.0607752 C2.16821424,30.265818 -0.125186669,24.8744764 0.00527821939,19.2671502 C0.00527821939,18.6962127 0.00527821939,18.1252752 0.0687157194,17.5543377 L0.436653219,15.3594002 C0.436653219,15.2325252 0.538153219,15.0929627 0.576215719,14.9660877 C0.829965719,14.1540877 1.03296572,13.3294002 1.33746572,12.5554627 C2.9250921,8.43660315 5.86403492,4.97876023 9.67315322,2.74802516 C12.8204999,0.85580291 16.4440337,-0.095209623 20.1149657,0.00752516038 C20.7366532,0.0202126604 21.3202782,0.0582751604 21.9039032,0.0836501604 Z M32.1427157,32.8808377 C34.8283302,30.3531815 36.6747978,27.0631925 37.4334032,23.4540252 L29.7320907,22.1852752 C29.3768407,23.5428377 29.0723407,24.8877127 28.6663407,26.2072127 C28.2603407,27.5267127 27.7528407,28.7447127 27.3214657,30.0134627 L32.1427157,32.8808377 Z M1.75615322,17.5035877 C1.2980621,21.1669179 1.97564914,24.882575 3.69734072,28.1484002 L9.22909072,26.9938377 C9.01244115,24.2600188 9.10607943,21.5104583 9.50821572,18.7977127 L1.75615322,17.5035877 Z M37.6617782,21.9061502 C38.2961532,19.0641502 37.1669657,13.0249002 35.7205907,11.2867127 L30.2142157,12.4285877 C30.4354132,15.1576925 30.3460283,17.9030884 29.9477782,20.6120252 L37.6617782,21.9061502 Z M12.1725907,9.40896266 L7.32596572,6.52890016 C5.11834072,8.20365016 2.11140322,13.5324002 2.06065322,15.9430252 L9.77465322,17.2117752 C10.274812,14.5199598 11.0792871,11.8937104 12.1725907,9.38358766 L12.1725907,9.40896266 Z M19.2014657,27.5774627 C20.3433407,27.8565877 21.4344657,28.0976502 22.5129032,28.4148377 C23.5913407,28.7320252 24.6824657,29.0999627 25.7735907,29.4552127 L25.9258407,29.1634002 C26.8735258,26.9526511 27.5837786,24.6475194 28.0446532,22.2867752 C28.0446532,21.9695877 28.0446532,21.8680877 27.7274657,21.8173377 L20.7239657,20.6627752 C20.60565,20.6558616 20.4870315,20.6558616 20.3687157,20.6627752 L19.2014657,27.5774627 Z M11.0687782,19.0514627 C10.6696007,21.6411504 10.5844014,24.2695474 10.8150282,26.8796502 L17.6282157,27.2475877 L18.7827782,20.3455877 L11.0687782,19.0514627 Z M28.3745282,20.3202127 C28.7721931,17.7347582 28.861631,15.1112466 28.6409657,12.5047127 L21.7897157,12.1494627 L20.6478407,19.0260877 L28.3745282,20.3202127 Z M13.6316532,9.99258766 C12.5702789,12.3828415 11.7992982,14.8917232 11.3352157,17.4655252 L19.0619032,18.7342752 L20.2164657,11.8576502 L13.6316532,9.99258766 Z M28.4252782,10.8299627 C28.1927173,9.05050567 27.6877691,7.31742046 26.9281532,5.69152516 C26.4346998,4.56059843 25.6829318,3.56113804 24.7332157,2.77340016 C24.3245559,2.48886588 23.9010401,2.22628607 23.4644657,1.98677516 L22.0434657,10.4874002 C24.1555024,10.7993268 26.2919866,10.9140088 28.4252782,10.8299627 L28.4252782,10.8299627 Z M18.9477157,29.1507127 L17.5394032,37.5625252 C18.50245,37.5408774 19.4378558,37.2364292 20.2291532,36.6870877 C21.9203189,35.5135592 23.3253572,33.9740882 24.3399032,32.1830252 C24.5936532,31.7770252 24.8220282,31.3583377 25.0757782,30.9142752 C23.0934042,30.1341082 21.0415391,29.5436129 18.9477157,29.1507127 L18.9477157,29.1507127 Z M15.9534657,37.3214627 L17.3617782,28.8842752 C15.2624736,28.5730618 13.1382893,28.4626042 11.0180282,28.5544002 C11.2464032,29.5059627 11.4240282,30.4194627 11.6777782,31.3075877 C12.0770811,32.9160853 12.8217367,34.4183847 13.8600282,35.7101502 C14.4054899,36.4205188 15.1271523,36.9759801 15.9534657,37.3214627 L15.9534657,37.3214627 Z M14.2914032,8.44471266 C16.2966038,9.22480504 18.3691144,9.81937776 20.4829032,10.2209627 L21.9039032,1.78377516 C21.2381102,1.80520953 20.5847218,1.96963839 19.9880907,2.26590016 C18.569563,2.96985105 17.3453905,4.01105114 16.4229032,5.29821266 C15.6743407,6.28783766 15.0272782,7.35358766 14.2914032,8.44471266 L14.2914032,8.44471266 Z M30.7851532,33.9973377 C29.4617867,33.0148501 28.0317307,32.1849069 26.5221532,31.5232752 C25.3459186,33.9136943 23.661473,36.0181688 21.5867157,37.6894002 C24.9482467,37.3386198 28.1461085,36.0603536 30.8232157,33.9973377 L30.7851532,33.9973377 Z M17.7677782,1.74571266 C15.8139032,1.49196266 9.91421572,3.87721266 8.59471572,5.48852516 L12.7689032,7.89915016 C13.5428407,6.71921266 14.2279657,5.61540016 14.9765282,4.54965016 C15.7583421,3.47798635 16.699671,2.53237863 17.7677782,1.74571266 Z M4.54740322,29.6582127 C6.41360609,32.4871093 9.02642755,34.7442358 12.0964657,36.1795877 C10.6494885,33.9178476 9.73018343,31.3594044 9.40671572,28.6939627 C7.76647107,28.8179424 6.1451521,29.1243334 4.57277822,29.6074627 L4.54740322,29.6582127 Z M27.3849032,3.42046266 C28.0921298,4.5249696 28.6469365,5.71993777 29.0342782,6.97296266 C29.3895282,8.24171266 29.6940282,9.51046266 30.0239032,10.7792127 C31.6436251,10.62693 33.2426911,10.3037146 34.7944032,9.81496266 C33.0089006,7.01605606 30.4659969,4.78111652 27.4610282,3.36971266 L27.3849032,3.42046266 Z" id="形状" fill="#F6F7F9"></path>
                    </g>
                    <g id="编组-4" transform="translate(59.379993, 0.753389)" fill-rule="nonzero">
                        <rect id="矩形" fill="#FFB102" transform="translate(14.868791, 11.666899) rotate(-10.230000) translate(-14.868791, -11.666899) " x="2.2929407" y="3.02924892" width="25.1517" height="17.2753" rx="3.44085"></rect>
                        <path d="M6.79515652,22.3693807 C4.88553299,22.3661166 3.25045717,21 2.90770652,19.1213807 L1.06040652,8.90033072 C0.684030494,6.75343327 2.10506465,4.7033426 4.24750652,4.30238072 L22.2231565,1.06453072 C23.2545618,0.875510117 24.3187621,1.10562031 25.1799372,1.70387027 C26.0411123,2.30212022 26.6281465,3.21910661 26.8109565,4.25163072 L28.6582565,14.4726807 C29.0346325,16.6195782 27.6135984,18.6696689 25.4711565,19.0706307 L25.4711565,19.0706307 L7.49550652,22.3084807 C7.2642564,22.3489916 7.02992821,22.3693807 6.79515652,22.3693807 L6.79515652,22.3693807 Z M22.9235065,2.06938072 C22.7478797,2.05469407 22.5713333,2.05469407 22.3957065,2.06938072 L4.43020652,5.31738072 C3.66418768,5.45570634 2.98455933,5.892829 2.54098696,6.53248702 C2.09741458,7.17214505 1.92627518,7.96188058 2.06525652,8.72778072 L3.90240652,18.9386807 C4.03855446,19.7059533 4.4774682,20.3862696 5.12040652,20.8265807 C5.7558306,21.2773368 6.54753799,21.4496065 7.31280652,21.3036307 L25.2884565,18.0657807 C26.0544754,17.9274551 26.7341037,17.4903324 27.1776761,16.8506744 C27.6212485,16.2110164 27.7923879,15.4212809 27.6534065,14.6553807 L25.8162565,4.43433072 C25.668151,3.66907571 25.2322224,2.98975365 24.5982565,2.53628072 C24.1063941,2.19587623 23.5216634,2.01514127 22.9235065,2.01858113 L22.9235065,2.06938072 Z" id="形状" fill="#F6F7F9"></path>
                        <path d="M12.8123835,14.9880853 C12.7719711,14.9972399 12.7300228,14.9972399 12.6896103,14.9880853 C12.587218,14.9483362 12.5134842,14.8573979 12.4957579,14.7490007 L11.31972,8.1192485 C11.3003369,8.00894607 11.339458,7.89647296 11.423108,7.82200815 C11.5041992,7.74543426 11.6201595,7.7182946 11.7268101,7.75092893 L19.0738161,9.82514965 C19.1950131,9.85495584 19.2873929,9.95317883 19.3097193,10.0759739 C19.3320457,10.198769 19.2801526,10.3232234 19.1772041,10.3937834 L12.9739272,14.9170061 C12.9287437,14.9568633 12.8722949,14.9817007 12.8123835,14.9880853 L12.8123835,14.9880853 Z" id="形状" fill="#F6F7F9"></path>
                    </g>
                    <g id="编组-8" transform="translate(0.000000, 65.052303)" fill-rule="nonzero">
                        <rect id="矩形" fill="#00D0B6" x="0.51765" y="0.556666604" width="37.4332" height="20.6248"></rect>
                        <path d="M37.961,21.6889666 L0.5075,21.6889666 C0.229482921,21.6835667 0.00539990736,21.4594837 4.4408921e-13,21.1814666 L4.4408921e-13,0.556666604 C4.4408921e-13,0.276382093 0.227215489,0.0491666035 0.5075,0.0491666035 L37.961,0.0491666035 C38.2412845,0.0491666035 38.4685,0.276382093 38.4685,0.556666604 L38.4685,21.1814666 C38.4631001,21.4594837 38.2390171,21.6835667 37.961,21.6889666 Z M1.02515,20.6739666 L37.4535,20.6739666 L37.4535,1.1047666 L1.02515,1.1047666 L1.02515,20.6739666 Z" id="形状" fill="#F6F7F9"></path>
                        <path d="M19.2444,13.9242291 C19.1423335,13.9249543 19.0427213,13.8929361 18.9602,13.8328666 L0.23345,0.972816604 C0.0829607596,0.869468617 -0.000961527701,0.693686077 0.0132958591,0.51168458 C0.0275532459,0.329683084 0.13782427,0.169112996 0.302570894,0.0904595296 C0.467317518,0.0118060633 0.661510803,0.0270185545 0.812,0.130366604 L19.2444,12.8077166 L37.66665,0.0897666035 C37.8171392,-0.0135814455 38.0113325,-0.0287939367 38.1760791,0.0498595296 C38.3408257,0.128512996 38.4510968,0.289083084 38.4653541,0.47108458 C38.4796115,0.653086077 38.3956892,0.828868617 38.2452,0.932216604 L19.5286,13.7922666 C19.4514255,13.8669943 19.3512878,13.9134868 19.2444,13.9242291 L19.2444,13.9242291 Z" id="路径" fill="#F6F7F9"></path>
                        <path d="M0.5075,21.6890218 C0.341361943,21.6842087 0.187170062,21.6014716 0.09135,21.4656666 C-0.0646043718,21.2322352 -0.00606777346,20.9170382 0.2233,20.7551666 L15.225,10.4427666 C15.4584314,10.2868122 15.7736284,10.3453488 15.9355,10.5747166 C16.0859649,10.8092496 16.0281899,11.1203459 15.80355,11.2852166 L0.812,21.5976166 C0.722300518,21.6586374 0.615976164,21.6905347 0.5075,21.6890218 L0.5075,21.6890218 Z" id="路径" fill="#F6F7F9"></path>
                        <path d="M37.95085,21.6889666 C37.8492016,21.6870855 37.7503574,21.6553142 37.66665,21.5976166 L22.6751,11.2547666 C22.4424639,11.0950044 22.3833878,10.7769027 22.54315,10.5442666 C22.7029122,10.3116305 23.0210139,10.2525544 23.25365,10.4123166 L38.2452,20.7247166 C38.4745678,20.8865882 38.5331044,21.2017852 38.37715,21.4352166 C38.2861343,21.5854742 38.1263242,21.6805992 37.95085,21.6889666 Z" id="路径" fill="#F6F7F9"></path>
                    </g>
                    <g id="编组-7" transform="translate(491.965469, 158.982354) rotate(20.000000) translate(-491.965469, -158.982354) translate(476.465469, 140.982354)" fill-rule="nonzero">
                        <polygon id="路径" fill="#F76864" points="21.1758307 35.3565155 0.510430684 32.8088655 4.48923068 0.511565475 30.5848807 3.71896547 27.3876307 29.6522155"></polygon>
                        <line x1="8.39698068" y1="6.18541547" x2="25.9869307" y2="8.35751547" id="路径" fill="#FFFFFF"></line>
                        <path d="M25.9869307,8.84471547 L25.9260307,8.84471547 L8.33608068,6.68276547 C8.05882612,6.64593517 7.86363231,6.39172928 7.89963068,6.11436547 C7.91207878,5.98084843 7.97900793,5.85836516 8.08464977,5.77577245 C8.19029161,5.69317974 8.32530486,5.65778077 8.45788068,5.67791547 L26.0478307,7.82971547 C26.3281152,7.84653256 26.5416977,8.08738097 26.5248807,8.36766547 C26.5080636,8.64794997 26.2672152,8.86153253 25.9869307,8.84471547 Z" id="路径" fill="#FFFFFF"></path>
                        <line x1="7.75753068" y1="11.3923655" x2="25.3474807" y2="13.5543155" id="路径" fill="#FFFFFF"></line>
                        <path d="M25.3170307,14.0618155 L25.3170307,14.0618155 L7.69663068,11.8897155 C7.51531838,11.867958 7.35938638,11.7511243 7.28757275,11.5832245 C7.21575913,11.4153247 7.23897408,11.2218668 7.34847276,11.0757245 C7.45797144,10.9295822 7.63711839,10.852958 7.81843068,10.8747155 L25.4083807,13.0468155 C25.6886652,13.0636326 25.9022477,13.304481 25.8854307,13.5847655 C25.8686136,13.86505 25.6277652,14.0786325 25.3474807,14.0618155 L25.3170307,14.0618155 Z" id="路径" fill="#FFFFFF"></path>
                        <line x1="7.11808068" y1="16.5891655" x2="24.6978807" y2="18.7612655" id="路径" fill="#FFFFFF"></line>
                        <path d="M24.7080307,19.2687655 L24.6369807,19.2687655 L7.04703068,17.0966655 C6.86571838,17.074908 6.70978638,16.9580743 6.63797275,16.7901745 C6.56615913,16.6222747 6.58937408,16.4288168 6.69887276,16.2826745 C6.80837144,16.1365322 6.98751839,16.059908 7.16883068,16.0816655 L24.7587807,18.2436155 C25.0330961,18.2854754 25.2256112,18.5361927 25.1952307,18.8120155 C25.1699903,19.0647218 24.9618384,19.2598643 24.7080307,19.2687655 Z" id="路径" fill="#FFFFFF"></path>
                        <line x1="6.47863068" y1="21.7961155" x2="24.0584307" y2="23.9580655" id="路径" fill="#FFFFFF"></line>
                        <path d="M24.0584307,24.4655655 L23.9975307,24.4655655 L6.41773068,22.3036155 C6.13932043,22.2666715 5.94115583,22.014462 5.97113068,21.7352155 C5.98359964,21.5990251 6.05159879,21.4739787 6.15913566,21.3894854 C6.26667253,21.3049922 6.40425686,21.2685087 6.53953068,21.2886155 L24.1294807,23.4607155 C24.4097652,23.4803354 24.6210756,23.723456 24.6014557,24.0037405 C24.5818358,24.284025 24.3387152,24.4953354 24.0584307,24.4757155 L24.0584307,24.4655655 Z" id="路径" fill="#FFFFFF"></path>
                        <line x1="5.83918068" y1="27.0030655" x2="17.7451307" y2="28.4646655" id="路径" fill="#FFFFFF"></line>
                        <path d="M17.7451307,28.9721655 L17.6842307,28.9721655 L5.76813068,27.5004155 C5.63580252,27.4852181 5.51510013,27.4175764 5.43306057,27.3126421 C5.351021,27.2077078 5.3145009,27.0742509 5.33168068,26.9421655 C5.34414964,26.8059751 5.41214879,26.6809287 5.51968566,26.5964354 C5.62722253,26.5119422 5.76480686,26.4754587 5.90008068,26.4955655 L17.8060307,27.9673155 C17.987343,27.9781942 18.1490787,28.0849755 18.2303136,28.2474359 C18.3115485,28.4098964 18.299941,28.6033543 18.1998636,28.7549359 C18.0997862,28.9065176 17.926443,28.9931942 17.7451307,28.9823155 L17.7451307,28.9721655 Z" id="路径" fill="#FFFFFF"></path>
                        <polygon id="路径" fill="#F76864" points="21.1758307 35.3565155 21.9573807 28.9823155 27.3876307 29.6522155"></polygon>
                        <path d="M21.1758307,35.8640243 C21.0940225,35.8645185 21.0135181,35.8435173 20.9423807,35.8031155 C20.7506291,35.7060085 20.6408453,35.498639 20.6683307,35.2854655 L21.4498807,28.9214155 C21.4649244,28.7870618 21.5340142,28.6646216 21.6412428,28.5822853 C21.7484714,28.4999491 21.8845979,28.4648125 22.0182807,28.4849655 L27.4586807,29.1548655 C27.652223,29.1802914 27.814028,29.3144712 27.8748307,29.4999655 C27.9399109,29.6884018 27.8836219,29.8974753 27.7327307,30.0277655 L21.5107807,35.7219155 C21.4222876,35.8116718 21.301869,35.8627585 21.1758307,35.8640243 L21.1758307,35.8640243 Z M22.3938307,29.5507155 L21.8457307,34.0471655 L26.2406807,29.9871655 L22.3938307,29.5507155 Z" id="形状" fill="#FFFFFF"></path>
                    </g>
                </g>
            </g>
        </g>
    </g>
</svg>