<svg xmlns="http://www.w3.org/2000/svg" width="20.271" height="20.69" viewBox="0 0 20.271 20.69">
  <defs>
    <style>
      .cls-1 {
        fill: #fefefe;
      }
    </style>
  </defs>
  <g id="组_1180" data-name="组 1180" transform="translate(-2731.512 -160.594)">
    <path id="路径_1039" data-name="路径 1039" class="cls-1" d="M2735.743,178.865l-1.886-3.117.389-.236,1.886,3.117Zm1.881.112-3.8-7.327.406-.211,3.829,7.38Zm2.1,0-5.88-11.373.406-.211,5.919,11.453Zm2.141,0-8.021-15.9.452-.112,8,15.858Zm1.934-.112-8.064-15.62.406-.211,8.064,15.619Zm2.456,0-8.6-15.614.4-.224,8.6,15.619Zm2.664,0-8.72-15.614.4-.224,8.724,15.619Zm.126-4.17-6.561-11.441.4-.223,6.56,11.441Zm0-4.393-4.165-7.047.393-.232,4.166,7.045Zm-.023-4.1-1.917-2.94.382-.25,1.918,2.94Zm0,0"/>
    <path id="路径_1040" data-name="路径 1040" class="cls-1" d="M2749.471,178.975h-15.653V162.911h15.653Zm-14.538-1.116h13.423V164.026h-13.364Zm0,0"/>
    <path id="路径_1041" data-name="路径 1041" class="cls-1" d="M2748.57,178.071v3.213h3.213v-3.213Zm2.3,2.3h-1.392v-1.393h1.393Zm-2.3-19.78v3.213h3.213v-3.213Zm2.3,2.3h-1.392V161.5h1.393Zm-19.361,15.174v3.213h3.213v-3.213Zm2.3,2.3h-1.393v-1.393h1.393Zm-2.3-19.78v3.213h3.213v-3.213Zm2.3,2.3h-1.393V161.5h1.393Zm0,0"/>
  </g>
</svg>
