<svg xmlns="http://www.w3.org/2000/svg" width="21.383" height="21.377" viewBox="0 0 21.383 21.377">
  <defs>
    <style>
      .cls-1 {
        fill: #fff;
      }

      .cls-2 {
        fill: #fefefe;
      }
    </style>
  </defs>
  <g id="组_1187" data-name="组 1187" transform="translate(-2730.956 -116.674)">
    <g id="组_1186" data-name="组 1186">
      <path id="路径_1044" data-name="路径 1044" class="cls-1" d="M2752.21,132.306l-5.562-5.562,4.819-4.891a2.029,2.029,0,0,0,0-2.834l-1.4-1.425a1.969,1.969,0,0,0-2.813,0l-4.841,4.912-5.7-5.7a.444.444,0,0,0-.629,0l-4.993,4.99a.446.446,0,0,0,0,.629l5.745,5.745-2.471,2.509a.492.492,0,0,0-.112.112l-.268.273.121.123-1.308,4.1-.871.883a.443.443,0,0,0,0,.624l.541.548a.447.447,0,0,0,.636,0l.748-.759,4.207-1.384.13.133,2.882-2.925,5.52,5.519a.446.446,0,0,0,.631,0l4.99-4.99a.437.437,0,0,0,0-.624Zm-4.326-14.085a1.078,1.078,0,0,1,1.543,0l1.4,1.424a1.134,1.134,0,0,1,0,1.584l-4.812,4.886-2.977-2.977Zm-13.118,17.121a.46.46,0,0,0-.112-.2l-.541-.548a.438.438,0,0,0-.133-.091l.828-2.594,2.548,2.585Zm3.435-1.3-2.953-3,2.215-2.248,2.974,2.974Zm8.7,2.937-1.432-1.432,1.149-1.149a.445.445,0,1,0-.629-.629l-1.149,1.149-2.165-2.165,1.814-1.814a.445.445,0,0,0-.629-.629l-1.816,1.809-.665-.665-1.5-1.5,1.149-1.149a.445.445,0,1,0-.629-.629l-1.149,1.149-2.165-2.165,1.681-1.681a.445.445,0,1,0-.629-.629l-1.681,1.681-2.168-2.167,1.149-1.149a.445.445,0,1,0-.629-.629l-1.149,1.149-1.633-1.634,4.361-4.361,14.873,14.873Zm0,0"/>
    </g>
    <path id="路径_1045" data-name="路径 1045" class="cls-2" d="M2746.19,126.345l5.517-5.926-3.247-3.065-5.744,5.835Z"/>
    <path id="路径_1046" data-name="路径 1046" class="cls-2" d="M2738.448,134.564l-3.564-3.587,2.656-2.543,3.156,3.247Z"/>
  </g>
</svg>
