<svg xmlns="http://www.w3.org/2000/svg" width="55.037" height="55.037" viewBox="0 0 55.037 55.037">
  <defs>
    <style>
      .cls-1 {
        fill: #038689;
        opacity: 0.44;
      }

      .cls-2 {
        fill: none;
        stroke: #08bcc1;
        stroke-miterlimit: 10;
        stroke-width: 2px;
      }

      .cls-3 {
        fill: #1ec19c;
      }
    </style>
  </defs>
  <g id="更多" transform="translate(-2724.893 -39.028)">
    <g id="组_62" data-name="组 62">
      <circle id="椭圆_24" data-name="椭圆 24" class="cls-1" cx="26.518" cy="26.518" r="26.518" transform="translate(2725.893 40.028)"/>
      <circle id="椭圆_25" data-name="椭圆 25" class="cls-2" cx="26.518" cy="26.518" r="26.518" transform="translate(2725.893 40.028)"/>
    </g>
    <path id="路径_93" data-name="路径 93" class="cls-3" d="M2769.253,65.776a17.1,17.1,0,1,0-17.1,17.1,17.1,17.1,0,0,0,17.1-17.1Zm-7.775-3.11a3.11,3.11,0,1,1-3.11,3.11,3.111,3.111,0,0,1,3.11-3.11Zm-18.659,6.219a3.11,3.11,0,1,1,3.11-3.109,3.108,3.108,0,0,1-3.11,3.109Zm6.22-3.109a3.109,3.109,0,1,1,3.11,3.109,3.108,3.108,0,0,1-3.11-3.109Zm0,0"/>
  </g>
</svg>
