<svg id="组_1179" data-name="组 1179" xmlns="http://www.w3.org/2000/svg" width="33.72" height="33.708" viewBox="0 0 33.72 33.708">
  <defs>
    <style>
      .cls-1 {
        fill: #00c19c;
      }

      .cls-2 {
        fill: #fff;
      }
    </style>
  </defs>
  <g id="组_1178" data-name="组 1178">
    <path id="路径_1036" data-name="路径 1036" class="cls-1" d="M2530.274,51.273a11.7,11.7,0,1,1-8.29,3.427,11.672,11.672,0,0,1,8.29-3.427m0-2.148a13.865,13.865,0,1,0,9.8,4.062,13.834,13.834,0,0,0-9.8-4.062Zm0,0" transform="translate(-2516.407 -49.125)"/>
    <path id="路径_1037" data-name="路径 1037" class="cls-2" d="M2521.818,62.755a.939.939,0,0,1-.234-.029,1.065,1.065,0,0,1-.81-1.279,10.538,10.538,0,0,1,6.092-7.352,1.076,1.076,0,0,1,.86,1.972,8.425,8.425,0,0,0-4.843,5.858,1.1,1.1,0,0,1-1.065.83Zm0,0" transform="translate(-2516.407 -49.125)"/>
    <path id="路径_1038" data-name="路径 1038" class="cls-1" d="M2548.279,82.518l-9.608-9.618a1.077,1.077,0,0,1,1.524-1.523L2549.812,81a1.078,1.078,0,0,1,0,1.523,1.09,1.09,0,0,1-1.533,0Zm0,0" transform="translate(-2516.407 -49.125)"/>
  </g>
  <circle id="椭圆_403" data-name="椭圆 403" class="cls-1" cx="9.846" cy="9.846" r="9.846" transform="translate(4.311 4.219)"/>
</svg>
