<?xml version="1.0" encoding="UTF-8"?>
<svg width="16px" height="16px" viewBox="0 0 16 16" version="1.1" xmlns="http://www.w3.org/2000/svg" xmlns:xlink="http://www.w3.org/1999/xlink">
    <title>1</title>
    <g id="页面-1" stroke="none" stroke-width="1" fill="none" fill-rule="evenodd">
        <g id="2莲都区公安-重点警情" transform="translate(-782.000000, -442.000000)" fill="#797E88" fill-rule="nonzero">
            <g id="文本样式" transform="translate(750.000000, 380.000000)">
                <g id="编组" transform="translate(32.000000, 60.000000)">
                    <path d="M6.0790585,9.29484114 C6.75992003,9.29484114 7.29485729,8.75988774 7.29485729,8.07902621 L7.29485729,5.64742864 C7.29485729,3.62919168 5.66568175,2.00001615 3.64744479,2.00001615 C1.62920783,2.00001615 0,3.62917554 0,5.6474125 C0,7.66564946 1.62920783,9.29484114 3.64746094,9.29484114 L6.07907465,9.29484114 L6.0790585,9.29484114 Z M9.92100979,9.29484114 L12.3526235,9.29484114 C14.3708605,9.29484114 16.000036,7.66564946 16.000036,5.6474125 C16.000036,3.62917554 14.3708605,2 12.3526235,2 C10.3343865,2 8.70519486,3.62917554 8.70519486,5.6474125 L8.70519486,8.07902621 C8.70519486,8.75988774 9.26447974,9.29484114 9.92100979,9.29484114 Z M6.0790585,10.7051626 L3.64744479,10.7051626 C1.62920783,10.7051626 1.61456374e-05,12.3343542 1.61456374e-05,14.3525912 C1.61456374e-05,16.3708282 1.62920783,18.0000037 3.64746094,18.0000037 C5.66571404,18.0000037 7.29487343,16.3708282 7.29487343,14.3525912 L7.29487343,11.9209775 C7.29487343,11.2644474 6.75992003,10.7051626 6.07907465,10.7051626 L6.0790585,10.7051626 Z M9.92100979,10.7051626 C9.24014826,10.7051626 8.70519486,11.2401321 8.70519486,11.9209775 L8.70519486,14.3525912 C8.70519486,16.3708282 10.3343704,18.0000037 12.3526235,18.0000037 C14.3708766,18.0000037 16.000036,16.3708282 16.000036,14.3525912 C16.000036,12.3343542 14.3708605,10.7051626 12.3526235,10.7051626 L9.92100979,10.7051626 L9.92100979,10.7051626 Z M9.92100979,10.7051787 C9.24014826,10.7051787 8.70519486,11.2401321 8.70519486,11.9209775 L8.70519486,14.3525912 C8.70519486,16.3708282 10.3343704,18.0000037 12.3526235,18.0000037 C14.3708766,18.0000037 16.000036,16.3708282 16.000036,14.3525912 C16.000036,12.3343542 14.3708605,10.7051787 12.3526235,10.7051787 L9.92100979,10.7051787 Z" id="1"></path>
                </g>
            </g>
        </g>
    </g>
</svg>