<?xml version="1.0" encoding="UTF-8"?>
<svg width="16px" height="14px" viewBox="0 0 16 14" version="1.1" xmlns="http://www.w3.org/2000/svg" xmlns:xlink="http://www.w3.org/1999/xlink">
    <title>2</title>
    <g id="页面-1" stroke="none" stroke-width="1" fill="none" fill-rule="evenodd">
        <g id="2莲都区公安-重点警情" transform="translate(-782.000000, -477.000000)" fill="#797E88" fill-rule="nonzero">
            <g id="文本样式" transform="translate(750.000000, 380.000000)">
                <g id="编组" transform="translate(32.000000, 60.000000)">
                    <path d="M15.9901349,49.8206758 L15.9901349,40.0483941 C15.9901349,38.8757182 14.8766159,38.9625869 14.8766159,38.9625869 L8.59636988,38.9625869 C8.2400445,38.9625869 8.01734783,38.7888668 8.01734783,38.7888668 C8.01734783,38.7888668 7.7500904,38.3545405 7.26015417,37.6596253 C6.81474298,36.8778414 6.23572094,37.0081445 6.23572094,37.0081445 L1.38075861,37.0081445 C0,37.0081445 0,38.2676891 0,38.2676891 L0,49.7338419 C0,51.1671067 1.11351904,50.9933866 1.11351904,50.9933866 L15.0102624,50.9933866 C16.1683065,50.9933517 15.9901349,49.8206758 15.9901349,49.8206758 L15.9901349,49.8206758 Z M3.65335803,47.2249448 C3.21057332,47.2249448 2.85162146,46.8749435 2.85162146,46.4431609 C2.85162146,46.0113956 3.21055545,45.6613769 3.65335803,45.6613769 C4.09616062,45.6613769 4.4550946,46.0113782 4.4550946,46.4431609 C4.45507674,46.8749261 4.09614275,47.2249448 3.65335803,47.2249448 Z M3.65335803,44.1846778 C3.21057332,44.1846778 2.85162146,43.8346765 2.85162146,43.4028939 C2.85162146,42.9711286 3.21055545,42.6211099 3.65335803,42.6211099 C4.09616062,42.6211099 4.4550946,42.9711112 4.4550946,43.4028939 C4.45507674,43.8346591 4.09614275,44.1846778 3.65335803,44.1846778 Z M12.3377953,47.3015865 L6.99289674,47.3015865 C6.54748554,47.3015865 6.19116017,46.9541289 6.19116017,46.5198026 C6.19116017,46.0854762 6.54748554,45.7380186 6.99289674,45.7380186 L12.3377953,45.7380186 C12.7832065,45.7380186 13.1395319,46.0854762 13.1395319,46.5198026 C13.1395319,46.9541463 12.7831886,47.3015865 12.3377953,47.3015865 Z M12.3377953,44.2179026 L6.99289674,44.2179026 C6.54748554,44.2179026 6.19116017,43.870445 6.19116017,43.4361186 C6.19116017,43.0017923 6.54748554,42.6543347 6.99289674,42.6543347 L12.3377953,42.6543347 C12.7832065,42.6543347 13.1395319,43.0017923 13.1395319,43.4361186 C13.1395319,43.870445 12.7831886,44.2179026 12.3377953,44.2179026 Z" id="2"></path>
                </g>
            </g>
        </g>
    </g>
</svg>