<?xml version="1.0" encoding="UTF-8"?>
<svg width="16px" height="16px" viewBox="0 0 16 16" version="1.1" xmlns="http://www.w3.org/2000/svg" xmlns:xlink="http://www.w3.org/1999/xlink">
    <title>3</title>
    <g id="页面-1" stroke="none" stroke-width="1" fill="none" fill-rule="evenodd">
        <g id="2莲都区公安-重点警情" transform="translate(-782.000000, -510.000000)" fill="#797E88" fill-rule="nonzero">
            <g id="文本样式" transform="translate(750.000000, 380.000000)">
                <g id="编组" transform="translate(32.000000, 60.000000)">
                    <path d="M8,70.0000015 L8,70.0000015 C3.58443868,69.9972835 0.0027202662,73.5745965 0,77.9901586 C0,77.9934417 0,77.9967247 0,78.0000015 C0,82.4221636 3.57784493,86.0000015 8,86.0000015 C12.4221566,86.0000015 16,82.4221636 16,78.0000015 C16,73.5778519 12.4221566,70.0000015 8,70.0000015 L8,70.0000015 Z M12.0000007,78.8861585 L7.75753237,78.8861585 L7.75753235,78.8861585 C7.39730582,78.8828198 7.10610116,78.5916163 7.10276366,78.2313898 L7.10276366,73.9803121 C7.10276366,73.6209278 7.398148,73.3255434 7.75753235,73.3255434 C8.11568544,73.3255434 8.41107135,73.6209278 8.41107135,73.9803121 L8.41107135,77.5679993 L11.9999929,77.5679993 C12.3593772,77.5679993 12.6547616,77.8633836 12.6547616,78.2227679 C12.6547616,78.5919992 12.3692225,78.8873835 11.9999929,78.8873835 L12.0000007,78.8861585 Z" id="3"></path>
                </g>
            </g>
        </g>
    </g>
</svg>