<?xml version="1.0" encoding="UTF-8"?>
<svg width="16px" height="16px" viewBox="0 0 16 16" version="1.1" xmlns="http://www.w3.org/2000/svg" xmlns:xlink="http://www.w3.org/1999/xlink">
    <title>4</title>
    <g id="页面-1" stroke="none" stroke-width="1" fill="none" fill-rule="evenodd">
        <g id="2莲都区公安-重点警情" transform="translate(-782.000000, -544.000000)" fill="#797E88" fill-rule="nonzero">
            <g id="文本样式" transform="translate(750.000000, 380.000000)">
                <g id="编组" transform="translate(32.000000, 60.000000)">
                    <path d="M0,116.775311 C0,115.331584 1.86844444,114.358161 4.31822222,113.88421 C4.56888889,114.29436 4.84088889,114.724562 5.136,115.172992 C2.65422222,115.553976 1.38488889,116.368807 1.38488889,116.775311 C1.38488889,117.314886 3.63555556,118.581793 8,118.581793 C12.3644444,118.581793 14.6151111,117.314886 14.6151111,116.775311 C14.6151111,116.365161 13.3457778,115.555799 10.864,115.172992 C11.1591111,114.726385 11.4311111,114.296183 11.6817778,113.88421 C14.1315556,114.358161 16,115.331584 16,116.775311 C16,118.891684 11.9751111,120 8,120 C4.02488889,120 0,118.893507 0,116.775311 Z M7.088,116.168289 C5.72622222,114.265194 3.32088889,110.632178 3.32088889,108.72726 C3.35822222,106.078604 5.48444444,103.962231 8.06755556,104.000511 C10.5973333,104.038792 12.64,106.13329 12.6773333,108.72726 C12.6773333,110.626709 10.2702222,114.263371 8.91022222,116.168289 C8.54044444,116.684167 7.83466667,116.795363 7.33155556,116.416202 C7.23911111,116.346932 7.15733333,116.263079 7.088,116.168289 Z M6.05333333,108.63247 C6.05333333,109.735317 6.92266667,110.628532 7.99822222,110.628532 C9.07377778,110.628532 9.94488889,109.73714 9.94488889,108.634293 C9.94488889,107.531445 9.07555556,106.638228 8,106.638228 L7.99822222,106.638228 C6.92622222,106.636407 6.05333333,107.529623 6.05333333,108.63247 C6.05333333,108.630647 6.05333333,108.630647 6.05333333,108.63247 Z" id="4"></path>
                </g>
            </g>
        </g>
    </g>
</svg>