<?xml version="1.0" encoding="UTF-8"?>
<svg width="16px" height="14px" viewBox="0 0 16 14" version="1.1" xmlns="http://www.w3.org/2000/svg" xmlns:xlink="http://www.w3.org/1999/xlink">
    <title>5</title>
    <g id="页面-1" stroke="none" stroke-width="1" fill="none" fill-rule="evenodd">
        <g id="2莲都区公安-重点警情" transform="translate(-782.000000, -580.000000)" fill="#797E88" fill-rule="nonzero">
            <g id="文本样式" transform="translate(750.000000, 380.000000)">
                <g id="编组" transform="translate(32.000000, 60.000000)">
                    <path d="M10.5287026,140 L1.97702402,141.305463 L1.97702399,141.305463 C1.64203962,141.367721 1.39465496,141.6472 1.37932564,141.980703 L1.37932564,152.109306 L10.5287026,152.109306 L10.5287026,140 Z M5.19539978,150.128602 L3.6781627,150.128602 L3.6781627,143.421222 L5.19539978,143.421222 L5.19539978,150.128602 Z M8.22985997,147.427642 L6.71262289,147.427642 L6.71262289,143.421222 L8.22985997,143.421222 L8.22985997,147.427642 Z M14.3447767,145.266871 L14.3447767,145.26687 C14.3293785,145.000248 14.1723281,144.761054 13.9309855,144.636646 L11.3103109,143.421215 L11.3103109,152.154316 L14.3447767,152.154316 L14.3447767,145.266871 Z M15.6321256,152.649491 L0.367873846,152.649491 C0.18396666,152.649491 0.0460362709,152.784539 2.93827055e-05,153.009619 L2.93827055e-05,153.639843 L2.93827055e-05,153.639844 C-0.00249562239,153.836235 0.158037503,153.99747 0.358620109,153.999971 C0.361704755,154 0.364789778,154 0.367874423,153.999971 L15.6321262,153.999971 L15.6321262,153.999971 C15.8327088,154.002473 15.9973852,153.845295 15.9999706,153.648904 C15.9999706,153.645884 15.9999706,153.642863 15.9999706,153.639843 L15.9999706,153.009619 L15.9999706,153.009618 C16.0024956,152.813227 15.8419625,152.651994 15.6413799,152.649492 C15.6382952,152.649463 15.6352102,152.649463 15.6321256,152.649492 L15.6321256,152.649491 Z" id="5"></path>
                </g>
            </g>
        </g>
    </g>
</svg>