<?xml version="1.0" encoding="UTF-8"?>
<svg width="64px" height="64px" viewBox="0 0 64 64" version="1.1" xmlns="http://www.w3.org/2000/svg" xmlns:xlink="http://www.w3.org/1999/xlink">
    <title>人像点位icon</title>
    <g id="正式稿" stroke="none" stroke-width="1" fill="none" fill-rule="evenodd">
        <g id="2-1莲都区公安-多维管控" transform="translate(-40.000000, -281.000000)">
            <g id="左侧数据" transform="translate(40.000000, 157.000000)">
                <g id="人像点位icon" transform="translate(0.000000, 124.000000)">
                    <g id="图标斜线背景">
                        <rect id="矩形" fill-opacity="0.35" fill="#121212" x="0" y="0" width="64" height="64"></rect>
                        <path d="M64,0 L64,1.191 L1.194,63.998 L0.00130527678,63.9986947 L0.001,62.928 L62.929,0 L64,0 Z M64,3.077 L64,5.34 L5.342,63.998 L3.079,63.998 L64,3.077 Z M64,7.225 L64,9.488 L9.49,63.998 L7.228,63.998 L64,7.225 Z M64,11.374 L64,13.637 L13.638,63.998 L11.376,63.998 L64,11.374 Z M64,15.521 L64,17.784 L17.787,63.998 L15.524,63.998 L64,15.521 Z M64,19.67 L64,21.932 L21.935,63.998 L19.672,63.998 L64,19.67 Z M64,23.818 L64,26.08 L26.083,63.998 L23.821,63.998 L64,23.818 Z M64,27.966 L64,30.229 L30.232,63.998 L27.969,63.998 L64,27.966 Z M64,32.114 L64,34.377 L34.38,63.998 L32.117,63.998 L64,32.114 Z M64,36.263 L64,38.526 L38.528,63.998 L36.266,63.998 L64,36.263 Z M64,40.411 L64,42.674 L42.677,63.998 L40.414,63.998 L64,40.411 Z M64,44.559 L64,46.822 L46.824,63.998 L44.562,63.998 L64,44.559 Z M64,48.708 L64,50.97 L50.972,63.998 L48.71,63.998 L64,48.708 Z M64,52.856 L64,55.119 L55.121,63.998 L52.858,63.998 L64,52.856 Z M64,57.004 L64,59.267 L59.269,63.998 L57.006,63.998 L64,57.004 Z M64,61.152 L64,63.415 L63.417,63.998 L61.154,63.998 L64,61.152 Z M61.043,0 L0.001,61.042 L0.001,58.779 L58.781,0 L61.043,0 Z M56.895,0 L0.001,56.894 L0.001,54.631 L54.632,0 L56.895,0 Z M52.747,0 L0.001,52.745 L0.001,50.483 L50.484,0 L52.747,0 Z M48.598,0 L0.001,48.597 L0.001,46.335 L46.335,0 L48.598,0 Z M44.45,0 L0.001,44.449 L0.001,42.186 L42.187,0 L44.45,0 Z M40.301,0 L0.001,40.301 L0.001,38.038 L38.039,0 L40.301,0 Z M36.153,0 L0.001,36.152 L0.001,33.889 L33.891,0 L36.153,0 Z M32.005,0 L0.001,32.004 L0.001,29.741 L29.742,0 L32.005,0 Z M27.857,0 L0.001,27.856 L0.001,25.593 L25.594,0 L27.857,0 Z M23.708,0 L0.001,23.707 L0.001,21.445 L21.445,0 L23.708,0 Z M19.56,0 L0.001,19.559 L0.001,17.296 L17.297,0 L19.56,0 Z M15.412,0 L0.001,15.411 L0.001,13.148 L13.149,0 L15.412,0 Z M11.263,0 L0.001,11.262 L0.001,9 L9.001,0 L11.263,0 Z M7.115,0 L0.001,7.114 L0.001,4.851 L4.852,0 L7.115,0 Z M2.967,0 L0.001,2.966 L0.001,0.703 L0.704,0 L2.967,0 Z" id="形状结合" fill="#084752" opacity="0.8"></path>
                    </g>
                    <path d="M47.7560969,37.4497367 C48.37805,37.4497367 48.9271153,37.9501685 48.9933189,38.5488963 L49,38.6698333 L49,43.7128989 C49,46.5679303 46.7138549,48.8816882 43.8325363,48.9955917 L43.609751,48.9999866 L38.8829355,48.9999866 C38.2195189,48.9999866 37.6390324,48.4306064 37.6390324,47.77989 C37.6390324,47.1698402 38.1492287,46.6312832 38.7596388,46.5663466 L38.8829355,46.5597933 L43.609751,46.5597933 C45.1290856,46.5597933 46.4170961,45.34966 46.5071589,43.8775082 L46.5121938,43.7128989 L46.5121938,38.6698333 C46.5121938,38.0191135 47.0926837,37.4497367 47.7560969,37.4497367 Z M16.2439031,37.44975 C16.8658562,37.44975 17.4149215,37.9501819 17.4811251,38.5489096 L17.4878062,38.6698467 L17.4878062,43.7129123 C17.4878062,45.2031691 18.7215516,46.4665291 20.222428,46.5548682 L20.3902423,46.5598 L25.1170577,46.5598 C25.7804743,46.5598 26.3609608,47.1291802 26.3609608,47.7798967 C26.3609608,48.3899464 25.8507646,48.9285093 25.2403544,48.9934467 L25.1170577,49 L20.3902491,49 C17.4795105,49 15.1206066,46.7576083 15.0044807,43.9314338 L15,43.7129123 L15,38.6698467 C15,38.0191269 15.5804899,37.44975 16.2439031,37.44975 Z M32,22 C35.8659945,22 39,25.1339953 39,29 C39,31.20592 37.9796372,33.1735176 36.3851375,34.456563 C39.7365955,35.2659041 41.6082256,37.1597051 42,40.1365685 C42,41.4246597 38.6666667,42.0449592 32,41.9974668 C25.3333333,41.9499745 22,41.329675 22,40.1365685 C22.3917744,37.1597051 24.2634045,35.2659041 27.6148903,34.4551656 C26.020365,33.1735209 25,31.2059239 25,29 C25,25.1340054 28.1339953,22 32,22 Z M32,36 C31.4871639,36 31.0644928,36.3860399 31.0067277,36.8833788 L31.0067277,36.8833788 L31,37 L31.0067277,37.1166212 C31.0644928,37.6139601 31.4871639,38 32,38 C32.5128361,38 32.9355072,37.6139601 32.9932723,37.1166212 L32.9932723,37.1166212 L33,37 L32.9932723,36.8833788 C32.9355072,36.3860399 32.5128361,36 32,36 Z M32,27 C31.4666681,27 31,27.5090905 31,28.0909113 L31,28.0909113 L31,33.9090887 L31.0061037,34.0243533 C31.0625184,34.556523 31.502221,35 32,35 C32.5333319,35 33,34.4909095 33,33.9090887 L33,33.9090887 L33,28.0909113 L32.9938963,27.9756467 C32.9374816,27.443477 32.497779,27 32,27 Z M25.1170645,15.0000134 C25.7804811,15.0000134 26.3609676,15.5693936 26.3609676,16.22011 C26.3609676,16.8301598 25.8507714,17.3687168 25.2403612,17.4336534 L25.1170645,17.4402066 L20.3902491,17.4402066 C18.8709144,17.4402066 17.5829039,18.65034 17.4928411,20.1224918 L17.4878062,20.287101 L17.4878062,25.3301667 C17.4878062,25.9808864 16.9073163,26.5502633 16.2439031,26.5502633 C15.6219501,26.5502633 15.0728848,26.0498315 15.0066811,25.4511037 L15,25.3301667 L15,20.287101 C15,17.5113757 17.2861451,15.1222771 20.1674638,15.0045569 L20.3902491,15.0000134 L25.1170645,15.0000134 Z M43.609751,15 C46.5204895,15 48.8793934,17.3197151 48.9955194,20.0743654 L49,20.2870876 L49,25.3301533 C49,25.9808731 48.4195101,26.5502499 47.7560969,26.5502499 C47.1341439,26.5502499 46.5850786,26.0498181 46.5188749,25.4510903 L46.5121938,25.3301533 L46.5121938,20.2870876 C46.5121938,18.7968308 45.2784484,17.5334709 43.777572,17.4451318 L43.6097578,17.4401999 L38.8829423,17.4401999 C38.2195258,17.4401999 37.6390392,16.8708197 37.6390392,16.2201033 C37.6390392,15.6100535 38.1492355,15.0714907 38.7596456,15.0065533 L38.8829423,15 L43.609751,15 Z" id="形状结合" fill="#23FFFF" fill-rule="nonzero"></path>
                </g>
            </g>
        </g>
    </g>
</svg>