<?xml version="1.0" encoding="UTF-8"?>
<svg width="64px" height="64px" viewBox="0 0 64 64" version="1.1" xmlns="http://www.w3.org/2000/svg" xmlns:xlink="http://www.w3.org/1999/xlink">
    <title>伤害icon</title>
    <g id="正式稿" stroke="none" stroke-width="1" fill="none" fill-rule="evenodd">
        <g id="1-1莲都区公安-警情监控" transform="translate(-40.000000, -727.000000)">
            <g id="左侧数据" transform="translate(40.000000, 157.000000)">
                <g id="伤害icon" transform="translate(0.000000, 570.000000)">
                    <g id="图标斜线背景">
                        <rect id="矩形" fill-opacity="0.35" fill="#121212" x="0" y="0" width="64" height="64"></rect>
                        <path d="M64,0 L64,1.191 L1.194,63.998 L0.00130527678,63.9986947 L0.001,62.928 L62.929,0 L64,0 Z M64,3.077 L64,5.34 L5.342,63.998 L3.079,63.998 L64,3.077 Z M64,7.225 L64,9.488 L9.49,63.998 L7.228,63.998 L64,7.225 Z M64,11.374 L64,13.637 L13.638,63.998 L11.376,63.998 L64,11.374 Z M64,15.521 L64,17.784 L17.787,63.998 L15.524,63.998 L64,15.521 Z M64,19.67 L64,21.932 L21.935,63.998 L19.672,63.998 L64,19.67 Z M64,23.818 L64,26.08 L26.083,63.998 L23.821,63.998 L64,23.818 Z M64,27.966 L64,30.229 L30.232,63.998 L27.969,63.998 L64,27.966 Z M64,32.114 L64,34.377 L34.38,63.998 L32.117,63.998 L64,32.114 Z M64,36.263 L64,38.526 L38.528,63.998 L36.266,63.998 L64,36.263 Z M64,40.411 L64,42.674 L42.677,63.998 L40.414,63.998 L64,40.411 Z M64,44.559 L64,46.822 L46.824,63.998 L44.562,63.998 L64,44.559 Z M64,48.708 L64,50.97 L50.972,63.998 L48.71,63.998 L64,48.708 Z M64,52.856 L64,55.119 L55.121,63.998 L52.858,63.998 L64,52.856 Z M64,57.004 L64,59.267 L59.269,63.998 L57.006,63.998 L64,57.004 Z M64,61.152 L64,63.415 L63.417,63.998 L61.154,63.998 L64,61.152 Z M61.043,0 L0.001,61.042 L0.001,58.779 L58.781,0 L61.043,0 Z M56.895,0 L0.001,56.894 L0.001,54.631 L54.632,0 L56.895,0 Z M52.747,0 L0.001,52.745 L0.001,50.483 L50.484,0 L52.747,0 Z M48.598,0 L0.001,48.597 L0.001,46.335 L46.335,0 L48.598,0 Z M44.45,0 L0.001,44.449 L0.001,42.186 L42.187,0 L44.45,0 Z M40.301,0 L0.001,40.301 L0.001,38.038 L38.039,0 L40.301,0 Z M36.153,0 L0.001,36.152 L0.001,33.889 L33.891,0 L36.153,0 Z M32.005,0 L0.001,32.004 L0.001,29.741 L29.742,0 L32.005,0 Z M27.857,0 L0.001,27.856 L0.001,25.593 L25.594,0 L27.857,0 Z M23.708,0 L0.001,23.707 L0.001,21.445 L21.445,0 L23.708,0 Z M19.56,0 L0.001,19.559 L0.001,17.296 L17.297,0 L19.56,0 Z M15.412,0 L0.001,15.411 L0.001,13.148 L13.149,0 L15.412,0 Z M11.263,0 L0.001,11.262 L0.001,9 L9.001,0 L11.263,0 Z M7.115,0 L0.001,7.114 L0.001,4.851 L4.852,0 L7.115,0 Z M2.967,0 L0.001,2.966 L0.001,0.703 L0.704,0 L2.967,0 Z" id="形状结合" fill="#084752" opacity="0.8"></path>
                    </g>
                    <path d="M50.0000003,37.6857395 C50.0000003,39.0738333 49.0849615,39.9994606 47.531587,39.9994606 C46.4449526,39.9994606 45.0915289,39.9994606 44,39.9994606 C42.5488811,39.9994606 42.0069274,38.9026522 42,37.5 C41.990755,35.2190495 41.9943959,31.3857161 42.0109228,26 C42.0109228,25.3333333 41.674528,25 41.0017386,25 C40.3289491,25 39.9950362,25.3333333 40,26 C40,31.7841238 40,35.4507905 40,37 C40,39.3238143 39.3559226,40.0125845 37,40 C36.1055723,39.9952223 35.4398668,39.9786606 34.544685,39.9863668 C32.96098,40 32.0138689,39.4849485 32.0000003,37.9970869 C31.9861328,35.9870533 31.9861328,32.6535713 32.0000003,27.996641 C32.0056015,27.3347982 31.6720074,27.0038768 30.999218,27.0038768 C30.3264287,27.0038768 29.993356,27.3347982 30,27.996641 C30.0138675,32.8452973 30.0138675,35.846417 30,37 C29.9861325,38.2977793 29.3728855,39.4803351 28,39.5 C26.8351293,39.5131089 26.1648638,39.5131089 25,39.5 C23.4815082,39.4868911 22.5069274,38.4288721 22.5,37 C22.490755,35.1385326 22.490755,32.4718659 22.5,29 C22.5,28.0874653 22.1666667,27.631198 21.5,27.631198 C20.8333333,27.631198 20.5,28.0874653 20.5,29 L20.5,36.0355339 C20.5,37.3432359 19.8240901,37.9980579 18.4722704,38 C17.5015022,38.0013946 17.092458,38 15.5531629,38 C14.5269662,38 14.0138678,37.345178 14.0138678,36.0355339 C14.0000003,29.4188909 14.0000003,24.3211849 14.0138678,20.7424159 C14.0208016,19.8051272 14.7003085,19.1890124 15.7334401,19.2283357 C17.3143336,19.2938801 18.964563,18.828514 20.4275874,19.93622 C20.9892205,20.3622597 22.271963,19.529844 22.3967733,18.7957469 C22.5909182,17.6814872 23.2702119,17.082024 24.4489442,17.0427007 C25.731684,17.003374 27.0213649,16.9902651 28.2971704,17.0623641 C28.8033341,17.0885819 29.2750418,17.3275506 29.7188017,17.5831742 C30.9391398,18.2779486 32.0624048,17.8977878 32.3605584,16.5934523 C32.6101735,15.5054124 33.31048,15.0138289 34.4545478,15.007274 C35.3490019,15.007274 36.2434561,15.0138284 37.1379102,15.0007195 C38.0739632,14.9876106 38.8644099,15.151472 39.7241995,15.6692741 C40.6255879,16.2198483 41.8320574,16.6131177 42.948395,15.7348185 C43.2326787,15.5054123 43.7111045,15.4202049 44.1063314,15.4070956 C45.3474723,15.3677688 46.5955475,15.3808777 47.8436227,15.3939867 C49.2442385,15.41365 49.9930657,15.6825558 50,17 C50.0069337,20.4083159 50.0000003,34.342288 50.0000003,37.6857395 Z M49.9999964,43.7310725 C49.9793224,45.5576488 48.8651215,47.007017 47.0664803,46.9999367 C45.5366015,46.992857 43.9929458,46.7450657 42.4906345,46.4406368 C39.5135794,45.8530177 36.5709767,44.9538867 33.4974286,45.2866396 C32.1811841,45.4282343 30.8993989,45.8884178 29.5831544,46.0583288 C28.9284774,46.143286 28.0946268,46.1149667 27.5777777,45.7680591 C26.8059498,45.2441578 26.8817536,44.3308711 27.3779292,43.537941 C27.7500614,42.9361628 28.0808452,42.291907 28.55635,41.789241 C29.1076565,41.201622 29.7898989,40.7485216 30.4170111,40.2458556 C31.3817977,39.4741664 31.7814919,40.7555977 32.532651,40.8688733 C35.1858156,41.2865785 37.8045208,41.7750811 40.3405099,40.3378924 C40.6230547,40.1750582 41.0916621,40.2600155 41.4431201,40.3520519 C42.4216904,40.606923 43.3726932,41.1308214 44.3512634,41.1591426 C45.9776147,41.2016211 47.6108647,40.9113511 49.2509997,40.8334742 C49.4784136,40.8193147 49.8781113,41.2016209 49.9401319,41.4564919 C50.0503929,41.9449945 49.9745886,42.4830578 49.9745886,42.9998773 C49.9961213,43.2749501 50.0045906,43.5186819 49.9999964,43.7310725 Z" fill="#23FFFF" fill-rule="nonzero"></path>
                </g>
            </g>
        </g>
    </g>
</svg>