<?xml version="1.0" encoding="UTF-8"?>
<svg width="60px" height="60px" viewBox="0 0 60 60" version="1.1" xmlns="http://www.w3.org/2000/svg" xmlns:xlink="http://www.w3.org/1999/xlink">
    <title>关</title>
    <defs>
        <path d="M44.1708193,39.1844754 L44.1708193,39.1844754 C44.0511585,39.1844594 43.9329344,39.1594005 43.8243503,39.1110377 L43.1499638,38.8113491 L43.1499638,38.8113491 C42.7348411,38.6270063 42.5536823,38.1538812 42.7453384,37.7545954 C42.9369929,37.3553097 43.4288838,37.1810622 43.8440066,37.3654066 L44.5183931,37.6651264 L44.5183931,37.6651264 C44.9336231,37.8491367 45.1151489,38.3220756 44.9238405,38.7214676 C44.7884664,39.0040842 44.4943313,39.1849505 44.1708194,39.1845075 L44.1708193,39.1844754 Z M15.8289118,39.1844754 L15.8289118,39.1844754 C15.3717279,39.1850639 15.0006155,38.8290617 15.0000007,38.3893195 C14.9995686,38.0782019 15.1875727,37.7953393 15.4813381,37.6651264 L16.6341014,37.1533433 L16.6341013,37.1533433 C17.0492241,36.9690089 17.5411068,37.1432617 17.7327532,37.5425478 C17.9243989,37.9418336 17.7432346,38.4149509 17.3281115,38.5992859 L16.1753807,39.111069 L16.1753808,39.1110689 C16.0667849,39.1593985 15.9485686,39.1844558 15.8289117,39.1845067 L15.8289118,39.1844754 Z M41.1905488,37.861877 L41.1905488,37.861877 C41.0709893,37.8617328 40.9528952,37.8365561 40.8444696,37.7880955 L39.6913489,37.2762812 L39.6913489,37.2762812 C39.2762261,37.0919468 39.0950609,36.6188289 39.2867072,36.2195431 C39.4783529,35.8202574 39.9702363,35.6460036 40.3853591,35.8303386 L41.5384798,36.3421529 L41.5384798,36.3421529 C41.9536935,36.5266545 42.1347873,36.9999771 41.9429687,37.3993504 C41.8074491,37.6815051 41.5136837,37.8620739 41.1905487,37.8618458 L41.1905488,37.861877 Z M19.2875265,37.6480325 L19.2875265,37.6480325 C18.8303459,37.6488491 18.4590386,37.2930313 18.458186,36.8532923 C18.4575864,36.5419977 18.6456497,36.2589152 18.9395955,36.1286522 L20.0927161,35.6168692 L20.0927162,35.6168692 C20.507839,35.4325263 20.9997282,35.6067721 21.1913843,36.006058 C21.3830388,36.4053438 21.2018819,36.8784673 20.7867589,37.0628117 L19.6336382,37.5745948 L19.6336382,37.5745948 C19.5252685,37.6233296 19.4071555,37.6487531 19.2875266,37.649095 L19.2875265,37.6480325 Z M37.7319341,36.3250592 L37.731934,36.3250592 C37.6122775,36.3250082 37.4940608,36.299951 37.385465,36.2516214 L36.2327342,35.7409009 L36.2327341,35.7409008 C35.8176113,35.5565664 35.6364461,35.0834485 35.8280925,34.6841628 C36.0197382,34.284877 36.5116216,34.1106232 36.9267443,34.2949583 L38.0794751,34.8067726 L38.0794751,34.8067726 C38.4946889,34.9908204 38.676166,35.4637749 38.4848186,35.8631481 C38.3494445,36.1456951 38.0553809,36.3265248 37.731934,36.3261223 L37.7319341,36.3250592 Z M22.7461738,36.1112147 L22.7461738,36.1112147 C22.2889932,36.1118407 21.9178451,35.7558665 21.9171945,35.3161275 C21.9167347,35.004958 22.1047756,34.7220442 22.3986001,34.5918343 L23.5513309,34.0800513 L23.551331,34.0800513 C23.9664538,33.8957084 24.458343,34.0699542 24.6499991,34.4692401 C24.8416536,34.8685259 24.6604967,35.3416494 24.2453737,35.5259938 L23.0926429,36.0377769 L23.0926429,36.0377769 C22.9842492,36.0869686 22.8660238,36.1128809 22.7461739,36.1137146 L22.7461738,36.1112147 Z M34.2733193,34.791085 L34.2733193,34.791085 C34.1537725,34.791085 34.0356634,34.7660157 33.9272076,34.7176473 L32.774087,34.2058642 L32.774087,34.2058643 C32.3573007,34.0248011 32.1720288,33.553037 32.3602735,33.1521512 C32.5485183,32.7512654 33.0389942,32.5730617 33.4557804,32.7541248 C33.4599121,32.7559197 33.4640284,32.7577472 33.4681288,32.7596071 L34.6212495,33.2713902 L34.6212495,33.2713902 C35.0364632,33.4558917 35.217557,33.9292143 35.0257384,34.3285876 C34.8902139,34.6107527 34.5964339,34.7913236 34.2732859,34.791085 L34.2733193,34.791085 Z M26.2044312,34.5772405 L26.2044312,34.5772405 C25.7472473,34.5778291 25.3761349,34.2218268 25.3755201,33.7820846 C25.375088,33.470967 25.5630921,33.1881044 25.8568575,33.0578915 L27.0099781,32.5457334 L27.0099781,32.5457335 C27.4251009,32.3613991 27.9169836,32.5356519 28.1086299,32.9349379 C28.3002757,33.3342237 28.1191114,33.807341 27.7039883,33.991676 L26.5508676,34.5059591 L26.5508676,34.5059591 C26.4421838,34.5537608 26.3239353,34.5780912 26.2044311,34.5772406 L26.2044312,34.5772405 Z M30.8147045,33.2542672 L30.8147045,33.2542672 C30.6950479,33.2542162 30.5768313,33.229159 30.4682355,33.1808294 L29.9998655,32.9734537 L29.9998655,32.9734537 C29.5835211,33.1551299 29.0928892,32.9777713 28.9040077,32.5773117 C28.7151256,32.1768509 28.8995189,31.7049367 29.315862,31.5232611 L29.9998655,31.2191975 L31.1622457,31.7356368 L31.1622457,31.7356368 C31.5774594,31.9196847 31.7589366,32.3926391 31.5675891,32.7920124 C31.4322098,33.0745697 31.1381286,33.2554015 30.814672,33.2549866 L30.8147045,33.2542672 Z M29.9998655,28.6990639 L29.9998655,28.6990639 C29.5426817,28.6992536 29.171904,28.3429281 29.1717057,27.9031859 C29.1717057,27.9030817 29.1717057,27.9029775 29.1717057,27.9028734 L29.1717057,26.6814628 L29.1717057,26.681463 C29.1812065,26.241627 29.5596087,25.892479 30.01689,25.9016165 C30.4607953,25.9104875 30.818444,26.2544927 30.8276678,26.681463 L30.8276678,27.9028735 L30.8276678,27.9028423 C30.8276678,28.342572 30.4570688,28.6990639 29.9998979,28.6990639 L29.9998655,28.6990639 Z M29.9998655,25.0348634 L29.9998655,25.0348634 C29.5426817,25.0350532 29.171904,24.6787277 29.1717058,24.2389856 C29.1717057,24.2388814 29.1717057,24.2387772 29.1717057,24.238673 L29.1717057,23.0176375 L29.1717057,23.0176373 C29.1622049,22.5778014 29.5252022,22.2138345 29.9824835,22.204697 C30.4397648,22.1955586 30.8181679,22.5447076 30.8276678,22.9845435 C30.8279061,22.9955734 30.8279061,23.0066068 30.8276678,23.0176367 L30.8276678,24.2386723 L30.8276678,24.2386409 C30.8276678,24.6783705 30.4570688,25.0348634 29.9998979,25.0348634 L29.9998655,25.0348634 Z M29.9998655,21.3714132 L29.9998656,21.3714132 C29.5426817,21.3716029 29.171904,21.0152774 29.1717057,20.5755352 C29.1717057,20.575306 29.1717057,20.5750768 29.1717057,20.5748476 L29.1717057,19.3537808 L29.1717057,19.3537809 C29.1812066,18.913945 29.5596088,18.5647969 30.0168901,18.5739345 C30.4607954,18.5828055 30.8184441,18.9268107 30.827668,19.3537809 L30.827668,20.5748477 L30.827668,20.5749167 C30.8278258,21.0146588 30.4573353,21.3712601 30.0001515,21.3714132 C30.0000323,21.3714132 29.9999131,21.3714132 29.9997939,21.3714132 L29.9998655,21.3714132 Z M29.9998655,17.7072129 L29.9998655,17.7072129 C29.5426817,17.7074025 29.171904,17.3510771 29.1717057,16.9113349 C29.1717057,16.9112203 29.1717057,16.9111057 29.1717057,16.9109911 L29.1717057,15.6896118 L29.1717057,15.6896119 C29.1812065,15.249776 29.5596087,14.9006279 30.01689,14.9097654 C30.4607953,14.9186365 30.818444,15.2626417 30.8276678,15.6896119 L30.8276678,16.9109912 L30.8276678,16.9109913 C30.8276678,17.3507335 30.4570493,17.7072129 29.9998655,17.7072129 C29.9998654,17.7072129 29.9998654,17.7072129 29.9998653,17.7072129 L29.9998655,17.7072129 Z M29.9998655,46 L29.9998656,46 C29.8712269,46 29.7443447,45.9712761 29.6293217,45.915874 L15.4580106,39.1003814 L15.4580105,39.1003813 C15.1773972,38.9653455 15.0002256,38.6893674 15.0003944,38.3875663 L15.0003944,21.6116013 L15.0003944,21.6118205 C15.0003944,21.1718909 15.3711755,20.8152552 15.8285543,20.8152552 C15.94823,20.8152552 16.0664844,20.8402035 16.1751728,20.8883818 L30.3464839,27.1796538 L30.346484,27.1796538 C30.6400222,27.3096068 30.8281748,27.5919709 30.8281748,27.9027813 L30.8281748,45.2037482 L30.8281748,45.2037659 C30.8283978,45.6432987 30.4581345,46 30.0011651,46 C30.0009741,46 30.0007831,46 30.0005921,46 L29.9998655,46 Z M16.6563243,37.8960647 L29.1717058,43.9150232 L29.1717058,28.4114377 L16.6563243,22.8561682 L16.6563243,37.8960647 Z M29.9998655,45.9999996 L29.9998655,45.9999996 C29.5428994,46.0003963 29.1721184,45.6444043 29.1717054,45.2048715 C29.1717054,45.2045068 29.1717054,45.2041421 29.1717054,45.2037774 L29.1717054,27.902873 L29.1717054,27.9030305 C29.1717054,27.5922194 29.3597358,27.309819 29.6532468,27.1798123 L43.824233,20.8885403 L43.824233,20.8885403 C44.2394793,20.7041112 44.7315439,20.8783841 44.9232878,21.2777885 C44.9735375,21.3824595 44.9995754,21.4963752 44.9995754,21.6116678 L44.9995754,38.3879766 L44.9995754,38.3880193 C44.9995754,38.6898219 44.8225405,38.9657901 44.5419204,39.1008093 L30.3698295,45.9159582 L30.3698295,45.9159581 C30.2549785,45.9712587 30.1283019,45.9999996 29.999864,45.9999996 L29.9998655,45.9999996 Z M30.8276679,28.4114377 L30.8276679,43.9150232 L43.3434068,37.8960647 L43.3434068,22.8558557 L30.8276679,28.4114377 Z M29.9998655,28.6990637 L29.9998655,28.6990637 C29.8799832,28.6990637 29.7615414,28.673924 29.6526817,28.6256259 L15.4813706,22.3344164 L15.4813705,22.3344164 C15.0662217,22.1502345 14.884907,21.6772203 15.0763942,21.2779095 C15.1551675,21.1136424 15.2897482,20.9800729 15.457978,20.8991926 L29.6293541,14.0840125 L29.6293541,14.0840125 C29.8626573,13.9719958 30.1371372,13.9719958 30.3704417,14.0840124 L44.5417528,20.8991613 L44.5417528,20.8991613 C44.9507026,21.0957529 45.1165327,21.5739949 44.9121439,21.9673432 C44.8280635,22.1291572 44.6892023,22.2586089 44.5184253,22.3343851 L30.3466918,28.6252821 L30.3466918,28.6252821 C30.2379729,28.6736604 30.1196552,28.6988308 29.9998654,28.6990637 L29.9998655,28.6990637 Z M17.7394299,21.5827575 L29.9998655,27.0254016 L42.2603012,21.5827263 L29.9998655,15.6878306 L17.7394299,21.5827575 Z" id="path-1"></path>
        <filter x="-20.0%" y="-18.8%" width="140.0%" height="137.5%" filterUnits="objectBoundingBox" id="filter-2">
            <feOffset dx="0" dy="0" in="SourceAlpha" result="shadowOffsetOuter1"></feOffset>
            <feGaussianBlur stdDeviation="2" in="shadowOffsetOuter1" result="shadowBlurOuter1"></feGaussianBlur>
            <feColorMatrix values="0 0 0 0 0.475005661   0 0 0 0 0.475005661   0 0 0 0 0.475005661  0 0 0 1 0" type="matrix" in="shadowBlurOuter1"></feColorMatrix>
        </filter>
    </defs>
    <g id="页面-1" stroke="none" stroke-width="1" fill="none" fill-rule="evenodd">
        <g id="1莲都区公安-主页" transform="translate(-111.000000, -968.000000)">
            <g id="关" transform="translate(111.000000, 968.000000)">
                <circle id="内底" fill="#0C243C" opacity="0.5" cx="30" cy="30" r="30"></circle>
                <circle id="外圈" stroke="#335167" stroke-width="2" cx="30" cy="30" r="29"></circle>
                <g id="形状" fill-rule="nonzero">
                    <use fill="black" fill-opacity="1" filter="url(#filter-2)" xlink:href="#path-1"></use>
                    <use fill="#CCCCCC" xlink:href="#path-1"></use>
                </g>
            </g>
        </g>
    </g>
</svg>