<?xml version="1.0" encoding="UTF-8"?>
<svg width="56px" height="40px" viewBox="0 0 56 40" version="1.1" xmlns="http://www.w3.org/2000/svg" xmlns:xlink="http://www.w3.org/1999/xlink">
    <title>基础集控icon</title>
    <g id="正式稿" stroke="none" stroke-width="1" fill="none" fill-rule="evenodd">
        <g id="1-1莲都区公安-警情监控" transform="translate(-1433.000000, -38.000000)">
            <g id="顶部" transform="translate(40.000000, 30.000000)">
                <g id="主导航" transform="translate(1244.000000, 8.000000)">
                    <g id="基础集控icon" transform="translate(149.000000, 0.000000)">
                        <g id="底">
                            <polygon id="矩形" fill="#178DE8" points="11 0 56 0 45 40 0 40"></polygon>
                            <polygon id="路径-3" fill="#0076C9" points="0 40 56 0 47.6107967 30.5061937 45 40"></polygon>
                        </g>
                        <path d="M36,10 C37.1045695,10 38,10.8954305 38,12 L38,28 C38,29.1045695 37.1045695,30 36,30 L20,30 C18.8954305,30 18,29.1045695 18,28 L18,12 C18,10.8954305 18.8954305,10 20,10 L36,10 Z M30.5,22 C29.8467813,22 29.2910851,22.4175435 29.0852495,23.0002925 L22.5,23 C22.2238576,23 22,23.2238576 22,23.5 C22,23.7761424 22.2238576,24 22.5,24 L22.5,24 L29.0856015,24.000703 C29.2917181,24.5829319 29.8471533,25 30.5,25 C31.1528467,25 31.7082819,24.5829319 31.9143985,24.000703 L33.5,24 C33.7761424,24 34,23.7761424 34,23.5 C34,23.2238576 33.7761424,23 33.5,23 L33.5,23 L31.9147505,23.0002925 C31.7089149,22.4175435 31.1532187,22 30.5,22 Z M25.5,18 C24.8467813,18 24.2910851,18.4175435 24.0852495,19.0002925 L22.5,19 C22.2238576,19 22,19.2238576 22,19.5 C22,19.7761424 22.2238576,20 22.5,20 L22.5,20 L24.0856015,20.000703 C24.2917181,20.5829319 24.8471533,21 25.5,21 C26.1528467,21 26.7082819,20.5829319 26.9143985,20.000703 L33.5,20 C33.7761424,20 34,19.7761424 34,19.5 C34,19.2238576 33.7761424,19 33.5,19 L33.5,19 L26.9147505,19.0002925 C26.7089149,18.4175435 26.1532187,18 25.5,18 Z M30.5,14 C29.8467813,14 29.2910851,14.4175435 29.0852495,15.0002925 L22.5,15 C22.2238576,15 22,15.2238576 22,15.5 C22,15.7761424 22.2238576,16 22.5,16 L22.5,16 L29.0856015,16.000703 C29.2917181,16.5829319 29.8471533,17 30.5,17 C31.1528467,17 31.7082819,16.5829319 31.9143985,16.000703 L33.5,16 C33.7761424,16 34,15.7761424 34,15.5 C34,15.2238576 33.7761424,15 33.5,15 L33.5,15 L31.9147505,15.0002925 C31.7089149,14.4175435 31.1532187,14 30.5,14 Z" id="形状结合" fill="#FFFFFF" fill-rule="nonzero"></path>
                    </g>
                </g>
            </g>
        </g>
    </g>
</svg>