<?xml version="1.0" encoding="UTF-8"?>
<svg width="56px" height="40px" viewBox="0 0 56 40" version="1.1" xmlns="http://www.w3.org/2000/svg" xmlns:xlink="http://www.w3.org/1999/xlink">
    <title>多维管控icon</title>
    <g id="正式稿" stroke="none" stroke-width="1" fill="none" fill-rule="evenodd">
        <g id="1-1莲都区公安-警情监控" transform="translate(-1582.000000, -38.000000)">
            <g id="顶部" transform="translate(40.000000, 30.000000)">
                <g id="主导航" transform="translate(1244.000000, 8.000000)">
                    <g id="多维管控icon" transform="translate(298.000000, 0.000000)">
                        <g id="底">
                            <polygon id="矩形" fill="#178DE8" points="11 0 56 0 45 40 0 40"></polygon>
                            <polygon id="路径-3" fill="#0076C9" points="0 40 56 0 47.6107967 30.5061937 45 40"></polygon>
                        </g>
                        <path d="M28,9 L38,14.75 L38,26.25 L28,32 L18,26.25 L18,14.75 L28,9 Z M34,21.4115694 L28.118154,25.0420271 L28.0600001,25.0678732 C27.9996837,25.0855936 27.9346399,25.0761572 27.8818459,25.042027 L27.8818459,25.042027 L22,21.4115694 L22,22.4971089 L27.3963075,25.8275666 C27.7701514,26.0583365 28.2298443,26.0583365 28.6036904,25.8275666 L28.6036904,25.8275666 L34,22.4971089 L34,21.4115694 Z M34,19.0771036 L28.118154,22.7075612 L28.0600002,22.7334074 C27.9996838,22.7511278 27.9346399,22.7416914 27.881846,22.7075612 L27.881846,22.7075612 L22,19.0771036 L22,20.1626431 L27.3963075,23.4931008 C27.7701514,23.7238695 28.2298443,23.7238695 28.6036904,23.4931008 L28.6036904,23.4931008 L34,20.1626431 L34,19.0771036 Z M28.435684,14.1257158 C28.1694049,13.9580948 27.830578,13.9580948 27.5642989,14.1257157 L27.5642989,14.1257157 L22.0876796,17.529102 C22.0663194,17.5434015 22.0479703,17.5617506 22.0336708,17.5831108 C21.9732642,17.6733464 21.9974448,17.7954652 22.0876796,17.8558718 L22.0876796,17.8558718 L27.5642989,21.2592581 C27.830578,21.426879 28.1694049,21.426879 28.435684,21.259258 L28.435684,21.259258 L33.9123032,17.8558718 C33.9336634,17.8415723 33.9520125,17.8232232 33.966312,17.801863 C34.0267186,17.7116274 34.002538,17.5895086 33.9123032,17.529102 L33.9123032,17.529102 Z M27.999992,14.94079 L32.4261485,17.692483 L27.999992,20.4432501 L23.5729096,17.692483 L27.999992,14.9417158 L27.999992,14.94079 Z" id="形状结合" fill="#FFFFFF"></path>
                    </g>
                </g>
            </g>
        </g>
    </g>
</svg>