<?xml version="1.0" encoding="UTF-8"?>
<svg width="64px" height="64px" viewBox="0 0 64 64" version="1.1" xmlns="http://www.w3.org/2000/svg" xmlns:xlink="http://www.w3.org/1999/xlink">
    <title>涉黄icon</title>
    <g id="正式稿" stroke="none" stroke-width="1" fill="none" fill-rule="evenodd">
        <g id="1-1莲都区公安-警情监控" transform="translate(-40.000000, -385.000000)">
            <g id="左侧数据" transform="translate(40.000000, 157.000000)">
                <g id="涉黄icon" transform="translate(0.000000, 228.000000)">
                    <g id="图标斜线背景">
                        <rect id="矩形" fill-opacity="0.35" fill="#121212" x="0" y="0" width="64" height="64"></rect>
                        <path d="M64,0 L64,1.191 L1.194,63.998 L0.00130527678,63.9986947 L0.001,62.928 L62.929,0 L64,0 Z M64,3.077 L64,5.34 L5.342,63.998 L3.079,63.998 L64,3.077 Z M64,7.225 L64,9.488 L9.49,63.998 L7.228,63.998 L64,7.225 Z M64,11.374 L64,13.637 L13.638,63.998 L11.376,63.998 L64,11.374 Z M64,15.521 L64,17.784 L17.787,63.998 L15.524,63.998 L64,15.521 Z M64,19.67 L64,21.932 L21.935,63.998 L19.672,63.998 L64,19.67 Z M64,23.818 L64,26.08 L26.083,63.998 L23.821,63.998 L64,23.818 Z M64,27.966 L64,30.229 L30.232,63.998 L27.969,63.998 L64,27.966 Z M64,32.114 L64,34.377 L34.38,63.998 L32.117,63.998 L64,32.114 Z M64,36.263 L64,38.526 L38.528,63.998 L36.266,63.998 L64,36.263 Z M64,40.411 L64,42.674 L42.677,63.998 L40.414,63.998 L64,40.411 Z M64,44.559 L64,46.822 L46.824,63.998 L44.562,63.998 L64,44.559 Z M64,48.708 L64,50.97 L50.972,63.998 L48.71,63.998 L64,48.708 Z M64,52.856 L64,55.119 L55.121,63.998 L52.858,63.998 L64,52.856 Z M64,57.004 L64,59.267 L59.269,63.998 L57.006,63.998 L64,57.004 Z M64,61.152 L64,63.415 L63.417,63.998 L61.154,63.998 L64,61.152 Z M61.043,0 L0.001,61.042 L0.001,58.779 L58.781,0 L61.043,0 Z M56.895,0 L0.001,56.894 L0.001,54.631 L54.632,0 L56.895,0 Z M52.747,0 L0.001,52.745 L0.001,50.483 L50.484,0 L52.747,0 Z M48.598,0 L0.001,48.597 L0.001,46.335 L46.335,0 L48.598,0 Z M44.45,0 L0.001,44.449 L0.001,42.186 L42.187,0 L44.45,0 Z M40.301,0 L0.001,40.301 L0.001,38.038 L38.039,0 L40.301,0 Z M36.153,0 L0.001,36.152 L0.001,33.889 L33.891,0 L36.153,0 Z M32.005,0 L0.001,32.004 L0.001,29.741 L29.742,0 L32.005,0 Z M27.857,0 L0.001,27.856 L0.001,25.593 L25.594,0 L27.857,0 Z M23.708,0 L0.001,23.707 L0.001,21.445 L21.445,0 L23.708,0 Z M19.56,0 L0.001,19.559 L0.001,17.296 L17.297,0 L19.56,0 Z M15.412,0 L0.001,15.411 L0.001,13.148 L13.149,0 L15.412,0 Z M11.263,0 L0.001,11.262 L0.001,9 L9.001,0 L11.263,0 Z M7.115,0 L0.001,7.114 L0.001,4.851 L4.852,0 L7.115,0 Z M2.967,0 L0.001,2.966 L0.001,0.703 L0.704,0 L2.967,0 Z" id="形状结合" fill="#084752" opacity="0.8"></path>
                    </g>
                    <path d="M21.1683786,17.6246996 C29.1073494,11.6429283 40.3923358,13.2295266 46.3741262,21.1684974 L46.3741262,21.1684974 L46.3746997,21.1692583 C52.3570451,29.108991 50.7704467,40.3939775 42.831476,46.3757678 C34.8925052,52.3575392 23.6075188,50.7709408 17.6257284,42.83197 L17.6257284,42.83197 C11.6428095,34.8914764 13.2294079,23.60649 21.1683786,17.6246996 Z M27.3686791,23.4101547 C25.1068758,26.4788869 25.2058677,30.7655092 27.6146578,33.9422476 L25.8148161,35.7420866 L22.1641318,32.0884052 C21.7164045,31.621829 20.9954711,31.5743823 20.4925406,31.957677 L20.3882856,32.0464088 C19.9116207,32.5492099 19.9303802,33.3425471 20.430282,33.8222549 L24.0809663,37.4759363 L21.4711944,40.0857082 C20.9942362,40.5626664 21.0332328,41.3695954 21.5191904,41.8555525 C22.0201483,42.3565104 22.8300781,42.3655094 23.2890347,41.9065482 L25.8988066,39.2937754 L29.552488,42.9444598 C30.0002153,43.4110359 30.7211487,43.4584826 31.2240792,43.0751879 L31.3283342,42.9864561 C31.8049992,42.483655 31.7862397,41.6903178 31.2863378,41.21061 L27.6356535,37.5569286 L29.4324984,35.7600836 C33.389169,38.7598216 38.8816738,38.0938822 41.7014257,34.2692136 C44.5181804,30.4475459 43.5942617,24.919015 39.6376063,21.9192846 C35.6779653,18.9195466 30.1884309,19.588487 27.3686791,23.4101547 Z M38.8756613,24.4990188 C41.3834734,27.0098281 41.4764635,30.9874898 39.0796729,33.3842579 C36.6828819,35.7810489 32.7082211,35.6880588 30.1974336,33.1772758 C27.6866537,30.6664959 27.5936597,26.6918427 29.9904515,24.2950365 C32.3902434,21.8952446 36.3649118,21.9912356 38.8756613,24.4990188 Z" fill="#23FFFF" fill-rule="nonzero"></path>
                </g>
            </g>
        </g>
    </g>
</svg>