<?xml version="1.0" encoding="UTF-8"?>
<svg width="64px" height="64px" viewBox="0 0 64 64" version="1.1" xmlns="http://www.w3.org/2000/svg" xmlns:xlink="http://www.w3.org/1999/xlink">
    <title>盗窃icon</title>
    <g id="正式稿" stroke="none" stroke-width="1" fill="none" fill-rule="evenodd">
        <g id="1-1莲都区公安-警情监控" transform="translate(-40.000000, -271.000000)">
            <g id="左侧数据" transform="translate(40.000000, 157.000000)">
                <g id="盗窃icon" transform="translate(0.000000, 114.000000)">
                    <g id="图标斜线背景">
                        <rect id="矩形" fill-opacity="0.35" fill="#121212" x="0" y="0" width="64" height="64"></rect>
                        <path d="M64,0 L64,1.191 L1.194,63.998 L0.00130527678,63.9986947 L0.001,62.928 L62.929,0 L64,0 Z M64,3.077 L64,5.34 L5.342,63.998 L3.079,63.998 L64,3.077 Z M64,7.225 L64,9.488 L9.49,63.998 L7.228,63.998 L64,7.225 Z M64,11.374 L64,13.637 L13.638,63.998 L11.376,63.998 L64,11.374 Z M64,15.521 L64,17.784 L17.787,63.998 L15.524,63.998 L64,15.521 Z M64,19.67 L64,21.932 L21.935,63.998 L19.672,63.998 L64,19.67 Z M64,23.818 L64,26.08 L26.083,63.998 L23.821,63.998 L64,23.818 Z M64,27.966 L64,30.229 L30.232,63.998 L27.969,63.998 L64,27.966 Z M64,32.114 L64,34.377 L34.38,63.998 L32.117,63.998 L64,32.114 Z M64,36.263 L64,38.526 L38.528,63.998 L36.266,63.998 L64,36.263 Z M64,40.411 L64,42.674 L42.677,63.998 L40.414,63.998 L64,40.411 Z M64,44.559 L64,46.822 L46.824,63.998 L44.562,63.998 L64,44.559 Z M64,48.708 L64,50.97 L50.972,63.998 L48.71,63.998 L64,48.708 Z M64,52.856 L64,55.119 L55.121,63.998 L52.858,63.998 L64,52.856 Z M64,57.004 L64,59.267 L59.269,63.998 L57.006,63.998 L64,57.004 Z M64,61.152 L64,63.415 L63.417,63.998 L61.154,63.998 L64,61.152 Z M61.043,0 L0.001,61.042 L0.001,58.779 L58.781,0 L61.043,0 Z M56.895,0 L0.001,56.894 L0.001,54.631 L54.632,0 L56.895,0 Z M52.747,0 L0.001,52.745 L0.001,50.483 L50.484,0 L52.747,0 Z M48.598,0 L0.001,48.597 L0.001,46.335 L46.335,0 L48.598,0 Z M44.45,0 L0.001,44.449 L0.001,42.186 L42.187,0 L44.45,0 Z M40.301,0 L0.001,40.301 L0.001,38.038 L38.039,0 L40.301,0 Z M36.153,0 L0.001,36.152 L0.001,33.889 L33.891,0 L36.153,0 Z M32.005,0 L0.001,32.004 L0.001,29.741 L29.742,0 L32.005,0 Z M27.857,0 L0.001,27.856 L0.001,25.593 L25.594,0 L27.857,0 Z M23.708,0 L0.001,23.707 L0.001,21.445 L21.445,0 L23.708,0 Z M19.56,0 L0.001,19.559 L0.001,17.296 L17.297,0 L19.56,0 Z M15.412,0 L0.001,15.411 L0.001,13.148 L13.149,0 L15.412,0 Z M11.263,0 L0.001,11.262 L0.001,9 L9.001,0 L11.263,0 Z M7.115,0 L0.001,7.114 L0.001,4.851 L4.852,0 L7.115,0 Z M2.967,0 L0.001,2.966 L0.001,0.703 L0.704,0 L2.967,0 Z" id="形状结合" fill="#084752" opacity="0.8"></path>
                    </g>
                    <path d="M15.9483247,32.4354594 C17.1356966,32.4354594 18.4287398,33.141027 20.0174548,34.6558918 C20.8794837,35.4785405 21.506745,36.2934864 22.114746,37.0817297 C22.1746011,37.1595151 22.2342266,37.2370021 22.2938656,37.3141529 L22.4730668,37.5445595 L22.4730668,37.5445595 L22.6538092,37.772724 L22.6538092,37.772724 L22.8375523,37.9984208 C24.6019873,40.1301047 26.9702332,41.8971908 35.5735357,42.4294594 C35.1019185,41.7603513 34.6584109,41.1143513 34.4309311,40.7384594 C33.9369303,39.9147837 33.7448477,38.5447297 34.3382734,37.5187297 C34.7968769,36.7227837 35.6464126,36.2657567 36.6656472,36.2657567 C37.8754026,36.2657567 39.4167477,36.8942972 41.3776551,38.1868107 C41.3796467,38.1868107 41.6376918,38.3281124 42.0836343,38.554147 L42.3451004,38.6855019 C43.8811473,39.4504316 46.9967419,40.8853912 49.8516693,41.463027 C50.5201317,41.5981403 51,42.1784398 51,42.8515675 L51,42.8515675 L51,49.5827026 C51,49.9586822 50.8485608,50.3192552 50.579012,50.5850647 C50.3094631,50.8508743 49.9438953,51 49.5627647,51 L49.5627647,51 L29.1697442,51 C29.0953057,51 29.0208672,50.9943513 28.9464287,50.9825404 C28.4945924,50.9127026 17.81241,49.1513513 13.386704,39.0726216 C12.9962924,38.1837297 12.6371137,35.2664594 13.7136086,33.6494054 C14.2357191,32.8668108 15.0290355,32.4354594 15.9483247,32.4354594 Z M32.0002518,13 C40.8365785,13 48,20.0681575 48,28.7864986 C48.0050842,32.0081406 47.0067834,35.1533774 45.1404768,37.7956232 C44.2391674,37.4043428 43.3522047,36.9815883 42.4812638,36.5281582 C42.3951212,36.483471 42.3105292,36.4359269 42.2276319,36.3856072 C39.9930563,34.9327225 38.1203638,34.1848458 36.4066487,34.1848458 C34.5961875,34.1848458 32.9875859,35.0520315 32.1158243,36.5668949 C31.5175667,37.6009067 31.3402859,38.8353164 31.5139061,40 C29.4200047,39.6947548 27.8715426,39.266585 26.7325523,38.7227217 C25.4931551,38.1313413 24.8535843,37.5358291 23.7454482,36.0999885 C23.6895884,36.0275666 23.6338068,35.9550858 23.5781034,35.8825465 C22.5813561,34.588224 22.0688628,33.9782501 21.2441668,33.1900872 C19.4373663,31.4650126 17.7958187,30.5053753 16.0779201,30.3540439 C16.0259344,29.833107 16,29.3099596 16,28.7864986 C16,20.0681575 23.1639251,13 32.0002518,13 Z M27.3604132,18.3360978 C26.9394618,18.7738025 26.927822,19.4799369 27.3341,19.9324037 L30.9084339,23.6503532 C30.9074199,23.673564 30.896266,23.6925547 30.896266,23.716293 L30.896266,24.4041769 L28.1371844,24.4041769 C27.7350638,24.391491 27.3581595,24.6074587 27.1534969,24.967834 C26.9488344,25.3282093 26.9488344,25.7759046 27.1534969,26.1362799 C27.3581595,26.4966551 27.7350638,26.7126229 28.1371844,26.6999369 L30.896266,26.6999369 L30.896266,28.1843736 L28.1371844,28.1843736 C27.7350638,28.1716877 27.3581595,28.3876554 27.1534969,28.7480307 C26.9488344,29.108406 26.9488344,29.5561013 27.1534969,29.9164766 C27.3581595,30.2768518 27.7350638,30.4928196 28.1371844,30.4801336 L30.896266,30.4801336 L30.896266,32.8518563 C30.896266,33.4859585 31.390311,34 31.9997465,34 C32.609182,34 33.103227,33.4859585 33.103227,32.8518563 L33.103227,30.4801336 L35.8628156,30.4801336 C36.2649362,30.4928196 36.6418405,30.2768518 36.8465031,29.9164766 C37.0511656,29.5561013 37.0511656,29.108406 36.8465031,28.7480307 C36.6418405,28.3876554 36.2649362,28.1716877 35.8628156,28.1843736 L33.103227,28.1843736 L33.103227,26.6999369 L35.8628156,26.6999369 C36.4721111,26.6999369 36.9660427,26.1860136 36.9660427,25.5520569 C36.9660427,24.9181003 36.4721111,24.4041769 35.8628156,24.4041769 L33.103227,24.4041769 L33.103227,23.7168205 C33.103227,23.7083802 34.2911227,22.4581617 36.6659,19.9672199 C37.0968481,19.5188292 37.0968481,18.7924364 36.6659,18.3440458 L36.6659,18.3435183 C36.2349082,17.8952985 35.5363529,17.8952985 35.105361,18.3435183 L32.0162239,21.5561052 L28.894639,18.3097571 C28.4600375,17.8867412 27.7813646,17.8983931 27.3604132,18.3360978 Z" fill="#23FFFF" fill-rule="nonzero"></path>
                </g>
            </g>
        </g>
    </g>
</svg>