<?xml version="1.0" encoding="UTF-8"?>
<svg width="56px" height="40px" viewBox="0 0 56 40" version="1.1" xmlns="http://www.w3.org/2000/svg" xmlns:xlink="http://www.w3.org/1999/xlink">
    <title>联动作战icon</title>
    <g id="页面-1" stroke="none" stroke-width="1" fill="none" fill-rule="evenodd">
        <g id="1莲都区公安-主页" transform="translate(-1582.000000, -38.000000)">
            <g id="主导航" transform="translate(1135.000000, 38.000000)">
                <g id="联动作战icon" transform="translate(447.000000, 0.000000)">
                    <g id="底">
                        <polygon id="矩形" fill="#178DE8" points="11 0 56 0 45 40 0 40"></polygon>
                        <polygon id="路径-3" fill="#0076C9" points="0 40 56 0 47.6107967 30.5061937 45 40"></polygon>
                    </g>
                    <path d="M28.5,9 C22.1447368,9 17,14.1447368 17,20.5 C17,26.8552632 22.1447368,32 28.5,32 C34.8552632,32 40,26.8552632 40,20.5 C40,14.1447368 34.8552632,9 28.5,9 Z M28.5,13.4547368 C31.2478947,13.4547368 32.9063158,15.3673684 32.9063158,17.2921053 L32.9063158,17.9578947 L32.7973684,17.9578947 C32.5794737,17.8489474 32.2526316,17.8489474 31.9136842,17.8489474 L31.8047368,17.8489474 L31.8047368,17.0621053 C31.8047368,15.9363158 30.2673684,14.5805263 28.6089474,14.5805263 C26.8415789,14.5805263 25.5221053,15.8152632 25.5221053,17.74 C25.5221053,18.3089474 25.6310526,18.9747368 25.9578947,19.5436842 C26.0668421,19.7736842 26.1757895,19.9915789 26.2847368,20.1126316 L26.8294737,19.6647368 L26.9384211,19.5557895 C27.0473684,19.5557895 27.0473684,19.6647368 27.0473684,19.6647368 L27.3742105,22.0373684 L27.3742105,22.1463158 L27.2894737,22.1463158 L24.7594737,21.6984211 C24.7594737,21.6984211 24.6505263,21.6984211 24.6505263,21.5894737 L24.7594737,21.4805263 L25.4252632,20.9115789 C25.2073684,20.6815789 25.0984211,20.5726316 24.7594737,20.3426316 C24.3236842,19.6647368 24.0936842,18.7689474 24.0936842,17.7521053 C24.0936842,15.4763158 25.8610526,13.4547368 28.5,13.4547368 L28.5,13.4547368 Z M25.1226316,26.8068421 C22.5805263,26.8068421 20.7163158,25.0515789 20.7163158,22.3036842 C20.7163158,20.9842105 21.2731579,19.9915789 22.1447368,19.12 C22.4715789,18.9021053 22.8105263,18.5752632 23.0284211,18.3452632 C23.2463158,18.2363158 23.3552632,18.1273684 23.4642105,18.1273684 L23.5731579,18.1273684 C23.6821053,18.1273684 23.6821053,18.2363158 23.6821053,18.2363158 C23.6821053,18.2363158 23.7910526,18.6721053 23.7910526,18.89 C23.7910526,19.1078947 24.0089474,19.4347368 24.0089474,19.4347368 L24.0089474,19.5436842 L23.9,19.5436842 C23.0163158,19.9794737 22.0236842,21.19 22.0236842,22.2915789 C21.9147368,24.0468421 23.1252632,25.5842105 25.0015789,25.5842105 C25.8852632,25.5842105 26.66,25.0394737 27.4226316,24.3736842 C27.7494737,24.0468421 27.9794737,23.5989474 28.1973684,23.2721053 L27.4226316,22.9452632 C27.4226316,22.9452632 27.3136842,22.9452632 27.3136842,22.8363158 L27.4226316,22.7273684 L29.4078947,21.2989474 L29.5168421,21.2989474 C29.6257895,21.2989474 29.6257895,21.4078947 29.6257895,21.4078947 L30.1826316,24.0468421 L30.1826316,24.1557895 L30.0736842,24.1557895 L29.2989474,23.8289474 C28.7542105,25.3784211 26.9989474,26.8068421 25.1226316,26.8068421 L25.1226316,26.8068421 Z M31.9015789,26.8068421 C31.1389474,26.8068421 30.4731579,26.6978947 29.8194737,26.3589474 C29.3836842,26.25 28.9357895,25.9110526 28.6089474,25.5842105 L28.6089474,25.3663158 L29.1536842,24.5915789 L29.3715789,24.5915789 C29.4805263,24.7005263 29.8073684,24.8094737 30.1342105,25.0394737 C30.6789474,25.2573684 31.3447368,25.4873684 31.8894737,25.4873684 C33.5357895,25.4873684 34.9642105,24.1557895 34.9642105,22.3763158 C34.9642105,20.5968421 33.7536842,19.3742105 31.9984211,19.2652632 C31.6715789,19.2652632 31.2236842,19.2652632 30.8968421,19.3742105 C30.7878947,19.4831579 30.7878947,19.4831579 30.6789474,19.4831579 L31.0057895,20.1489474 L31.0057895,20.2578947 L30.8968421,20.2578947 L28.27,20.0157895 L28.1610526,20.0157895 L28.1610526,19.9068421 L29.5894737,17.5705263 L29.6984211,17.4615789 C29.8073684,17.4615789 29.8073684,17.5705263 29.8073684,17.5705263 L30.1342105,18.2363158 C30.2431579,18.2363158 30.3521053,18.1273684 30.4610526,18.1273684 C30.8968421,18.0184211 31.4536842,17.9094737 31.8894737,17.9094737 C34.4194737,17.9094737 36.2837425,19.9068421 36.2837425,22.3642105 C36.2957895,24.7973684 34.4194737,26.8068421 31.9015789,26.8068421 L31.9015789,26.8068421 Z" fill="#FFFFFF" fill-rule="nonzero"></path>
                </g>
            </g>
        </g>
    </g>
</svg>