<?xml version="1.0" encoding="UTF-8"?>
<svg width="64px" height="64px" viewBox="0 0 64 64" version="1.1" xmlns="http://www.w3.org/2000/svg" xmlns:xlink="http://www.w3.org/1999/xlink">
    <title>行业管理icon</title>
    <g id="正式稿" stroke="none" stroke-width="1" fill="none" fill-rule="evenodd">
        <g id="2-1莲都区公安-基础集控" transform="translate(-40.000000, -405.000000)">
            <g id="左侧数据" transform="translate(40.000000, 157.000000)">
                <g id="行业管理icon" transform="translate(0.000000, 248.000000)">
                    <g id="图标斜线背景">
                        <rect id="矩形" fill-opacity="0.35" fill="#121212" x="0" y="0" width="64" height="64"></rect>
                        <path d="M64,0 L64,1.191 L1.194,63.998 L0.00130527678,63.9986947 L0.001,62.928 L62.929,0 L64,0 Z M64,3.077 L64,5.34 L5.342,63.998 L3.079,63.998 L64,3.077 Z M64,7.225 L64,9.488 L9.49,63.998 L7.228,63.998 L64,7.225 Z M64,11.374 L64,13.637 L13.638,63.998 L11.376,63.998 L64,11.374 Z M64,15.521 L64,17.784 L17.787,63.998 L15.524,63.998 L64,15.521 Z M64,19.67 L64,21.932 L21.935,63.998 L19.672,63.998 L64,19.67 Z M64,23.818 L64,26.08 L26.083,63.998 L23.821,63.998 L64,23.818 Z M64,27.966 L64,30.229 L30.232,63.998 L27.969,63.998 L64,27.966 Z M64,32.114 L64,34.377 L34.38,63.998 L32.117,63.998 L64,32.114 Z M64,36.263 L64,38.526 L38.528,63.998 L36.266,63.998 L64,36.263 Z M64,40.411 L64,42.674 L42.677,63.998 L40.414,63.998 L64,40.411 Z M64,44.559 L64,46.822 L46.824,63.998 L44.562,63.998 L64,44.559 Z M64,48.708 L64,50.97 L50.972,63.998 L48.71,63.998 L64,48.708 Z M64,52.856 L64,55.119 L55.121,63.998 L52.858,63.998 L64,52.856 Z M64,57.004 L64,59.267 L59.269,63.998 L57.006,63.998 L64,57.004 Z M64,61.152 L64,63.415 L63.417,63.998 L61.154,63.998 L64,61.152 Z M61.043,0 L0.001,61.042 L0.001,58.779 L58.781,0 L61.043,0 Z M56.895,0 L0.001,56.894 L0.001,54.631 L54.632,0 L56.895,0 Z M52.747,0 L0.001,52.745 L0.001,50.483 L50.484,0 L52.747,0 Z M48.598,0 L0.001,48.597 L0.001,46.335 L46.335,0 L48.598,0 Z M44.45,0 L0.001,44.449 L0.001,42.186 L42.187,0 L44.45,0 Z M40.301,0 L0.001,40.301 L0.001,38.038 L38.039,0 L40.301,0 Z M36.153,0 L0.001,36.152 L0.001,33.889 L33.891,0 L36.153,0 Z M32.005,0 L0.001,32.004 L0.001,29.741 L29.742,0 L32.005,0 Z M27.857,0 L0.001,27.856 L0.001,25.593 L25.594,0 L27.857,0 Z M23.708,0 L0.001,23.707 L0.001,21.445 L21.445,0 L23.708,0 Z M19.56,0 L0.001,19.559 L0.001,17.296 L17.297,0 L19.56,0 Z M15.412,0 L0.001,15.411 L0.001,13.148 L13.149,0 L15.412,0 Z M11.263,0 L0.001,11.262 L0.001,9 L9.001,0 L11.263,0 Z M7.115,0 L0.001,7.114 L0.001,4.851 L4.852,0 L7.115,0 Z M2.967,0 L0.001,2.966 L0.001,0.703 L0.704,0 L2.967,0 Z" id="形状结合" fill="#084752" opacity="0.8"></path>
                    </g>
                    <g id="编组-3" transform="translate(16.000000, 17.000000)" fill="#23FFFF" fill-rule="nonzero">
                        <path d="M21.1867705,15 C21.2103287,15.1027424 21.2103287,15.2054819 21.2103287,15.3082212 C21.2103287,17.892511 18.8702114,20.0184109 15.9961025,20.0184109 C13.121997,20.0184109 10.7818763,17.8924974 10.7818763,15.3082212 C10.7818763,15.2054819 10.7818763,15.1027424 10.8054346,15 L6.75015599e-14,15 L6.75015599e-14,27.2892161 L6.75015599e-14,27.2892232 C-0.00864830302,28.7775691 1.18316925,29.9912024 2.66204218,30 C2.67254328,30 2.68304468,30 2.69354578,30 L29.275096,30 C30.7749701,30 32,28.7986945 32,27.2892129 L32,15 L21.1867845,15 L21.1867705,15 Z M29.2750885,5 L2.69349743,5 C1.19362101,5 6.75015599e-14,6.21807355 6.75015599e-14,7.72691633 L6.75015599e-14,13 L32,13 L32,7.72691633 C32,6.21807693 30.7749683,5 29.2750918,5 L29.2750885,5 Z M18.9686441,15 L13.026449,15 C13,15.1254018 13,15.250804 13,15.3762058 C13,16.8135067 14.3400795,18 15.997551,18 C17.6550188,18 18.995102,16.8135026 18.995102,15.3762058 C19.0039184,15.250804 19.0039184,15.1254018 18.9686531,15 L18.9686441,15 Z" id="形状"></path>
                        <path d="M20.6078888,8 L10.3842072,8 C9.06578578,8 8,6.9963096 8,5.77121742 L8,2.22878258 C8,0.996308015 9.07368298,0 10.3842072,0 L20.6157928,0 C21.9342142,0 23,1.0036904 23,2.22878258 L23,5.76382869 C23,6.99630326 21.926317,8 20.6078956,8 L20.6078888,8 Z M11,5 L20,5 L20,3 L11,3 L11,5 L11,5 Z" id="形状"></path>
                    </g>
                </g>
            </g>
        </g>
    </g>
</svg>