<?xml version="1.0" encoding="UTF-8"?>
<svg width="64px" height="64px" viewBox="0 0 64 64" version="1.1" xmlns="http://www.w3.org/2000/svg" xmlns:xlink="http://www.w3.org/1999/xlink">
    <title>视频点位icon</title>
    <g id="正式稿" stroke="none" stroke-width="1" fill="none" fill-rule="evenodd">
        <g id="2-1莲都区公安-多维管控" transform="translate(-40.000000, -157.000000)">
            <g id="视频点位icon" transform="translate(40.000000, 157.000000)">
                <g id="图标斜线背景">
                    <rect id="矩形" fill-opacity="0.35" fill="#121212" x="0" y="0" width="64" height="64"></rect>
                    <path d="M64,0 L64,1.191 L1.194,63.998 L0.00130527678,63.9986947 L0.001,62.928 L62.929,0 L64,0 Z M64,3.077 L64,5.34 L5.342,63.998 L3.079,63.998 L64,3.077 Z M64,7.225 L64,9.488 L9.49,63.998 L7.228,63.998 L64,7.225 Z M64,11.374 L64,13.637 L13.638,63.998 L11.376,63.998 L64,11.374 Z M64,15.521 L64,17.784 L17.787,63.998 L15.524,63.998 L64,15.521 Z M64,19.67 L64,21.932 L21.935,63.998 L19.672,63.998 L64,19.67 Z M64,23.818 L64,26.08 L26.083,63.998 L23.821,63.998 L64,23.818 Z M64,27.966 L64,30.229 L30.232,63.998 L27.969,63.998 L64,27.966 Z M64,32.114 L64,34.377 L34.38,63.998 L32.117,63.998 L64,32.114 Z M64,36.263 L64,38.526 L38.528,63.998 L36.266,63.998 L64,36.263 Z M64,40.411 L64,42.674 L42.677,63.998 L40.414,63.998 L64,40.411 Z M64,44.559 L64,46.822 L46.824,63.998 L44.562,63.998 L64,44.559 Z M64,48.708 L64,50.97 L50.972,63.998 L48.71,63.998 L64,48.708 Z M64,52.856 L64,55.119 L55.121,63.998 L52.858,63.998 L64,52.856 Z M64,57.004 L64,59.267 L59.269,63.998 L57.006,63.998 L64,57.004 Z M64,61.152 L64,63.415 L63.417,63.998 L61.154,63.998 L64,61.152 Z M61.043,0 L0.001,61.042 L0.001,58.779 L58.781,0 L61.043,0 Z M56.895,0 L0.001,56.894 L0.001,54.631 L54.632,0 L56.895,0 Z M52.747,0 L0.001,52.745 L0.001,50.483 L50.484,0 L52.747,0 Z M48.598,0 L0.001,48.597 L0.001,46.335 L46.335,0 L48.598,0 Z M44.45,0 L0.001,44.449 L0.001,42.186 L42.187,0 L44.45,0 Z M40.301,0 L0.001,40.301 L0.001,38.038 L38.039,0 L40.301,0 Z M36.153,0 L0.001,36.152 L0.001,33.889 L33.891,0 L36.153,0 Z M32.005,0 L0.001,32.004 L0.001,29.741 L29.742,0 L32.005,0 Z M27.857,0 L0.001,27.856 L0.001,25.593 L25.594,0 L27.857,0 Z M23.708,0 L0.001,23.707 L0.001,21.445 L21.445,0 L23.708,0 Z M19.56,0 L0.001,19.559 L0.001,17.296 L17.297,0 L19.56,0 Z M15.412,0 L0.001,15.411 L0.001,13.148 L13.149,0 L15.412,0 Z M11.263,0 L0.001,11.262 L0.001,9 L9.001,0 L11.263,0 Z M7.115,0 L0.001,7.114 L0.001,4.851 L4.852,0 L7.115,0 Z M2.967,0 L0.001,2.966 L0.001,0.703 L0.704,0 L2.967,0 Z" id="形状结合" fill="#084752" opacity="0.8"></path>
                </g>
                <path d="M18.032424,33.75994 L15.791879,33.3334379 C15.4320516,33.2649869 15.0823789,33.4940343 15.0121705,33.8442244 L15.0121705,33.8442244 C15.0041064,33.8854144 15,33.9272525 15,33.969186 L15,48 L18.5697501,46.7758181 L18.5697501,42.2554966 C18.5697501,41.8974825 18.8667856,41.6079194 19.2340294,41.6079194 L23.997284,41.6079194 C24.2092403,41.6079194 24.4090641,41.5078757 24.5339635,41.3420138 L27.0438561,37.9958894 C27.2605285,37.7062521 27.1964053,37.3009231 26.9000164,37.0901935 L26.9000164,37.0901935 C26.8755525,37.0730049 26.8500916,37.057207 26.8237608,37.0428785 L24.0749087,35.592319 C23.7522772,35.4211916 23.348522,35.5395903 23.1737237,35.852885 L23.1737236,35.8528851 C23.1549042,35.8875424 23.1390909,35.9236736 23.126449,35.9609008 L22.4277881,38.0380127 L22.4277881,38.0380126 C22.3379294,38.3038819 22.0830315,38.4833665 21.7959127,38.4829438 L19.234714,38.4829438 C18.8674701,38.4829438 18.5697881,38.1933436 18.5697881,37.8352183 L18.5697881,34.3956506 C18.5697501,34.0864347 18.3442542,33.8191942 18.032424,33.7599392 L18.032424,33.75994 Z M48.7018868,33.3189022 L23.2877457,16.9187804 L21.7668177,16.083575 C21.4711134,15.9210132 21.0971758,16.0019604 20.8993677,16.2711291 L15.1485177,24.1204067 C14.9351923,24.4113047 15.0047161,24.8161146 15.3031207,25.0241002 C15.3125528,25.0307005 15.3213384,25.0365964 15.3307705,25.0424922 L16.1023781,25.5243187 L39.1753776,39.3253808 C40.1042505,39.5044434 41.0682656,39.3175197 41.8567217,38.8093659 L48.7018487,34.3996931 C49.0083543,34.2022014 49.0920643,33.7994309 48.8895401,33.5019696 C48.8409343,33.4282532 48.7774958,33.3676263 48.7018868,33.3189022 L48.7018868,33.3189022 Z M17.5078388,28.1280135 L16.5276598,29.4219813 C16.3096564,29.7102095 16.3724103,30.1156868 16.6674301,30.3282704 C16.6808936,30.338171 16.6943952,30.3466624 16.7078969,30.3552652 L39.7356755,44.4906838 C40.0205785,44.6671508 40.393185,44.615757 40.6173498,44.372211 L43.58489,41.1498249 C43.8251806,40.8892218 43.819856,40.4890841 43.5700192,40.2350813 L43.4984036,40.1612166 C43.2527503,39.9112186 42.8544337,39.8808866 42.5749694,40.0941376 L40.5254628,41.6421452 C40.2905347,41.818501 39.9678652,41.8304039 39.7208047,41.6711052 L18.4084154,27.9720521 C18.1133956,27.7824586 17.7178555,27.8509466 17.5078388,28.1280135 L17.5078388,28.1280135 Z" id="形状" fill="#23FFFF" fill-rule="nonzero"></path>
            </g>
        </g>
    </g>
</svg>