<?xml version="1.0" encoding="UTF-8"?>
<svg width="56px" height="40px" viewBox="0 0 56 40" version="1.1" xmlns="http://www.w3.org/2000/svg" xmlns:xlink="http://www.w3.org/1999/xlink">
    <title>重点警情icon</title>
    <g id="页面-1" stroke="none" stroke-width="1" fill="none" fill-rule="evenodd">
        <g id="1莲都区公安-主页" transform="translate(-1284.000000, -38.000000)">
            <g id="主导航" transform="translate(1135.000000, 38.000000)">
                <g id="重点警情icon" transform="translate(149.000000, 0.000000)">
                    <g id="底">
                        <polygon id="矩形" fill="#178DE8" points="11 0 56 0 45 40 0 40"></polygon>
                        <polygon id="路径-3" fill="#0076C9" points="0 40 56 0 47.6107967 30.5061937 45 40"></polygon>
                    </g>
                    <path d="M25.1008505,10 C25.7670481,10 26.3895113,10.3317157 26.7610119,10.8847135 L26.7610119,10.8847135 L28,12.729011 L37.2559765,12.729011 C38.2160577,12.729011 39,13.3915065 39,14.4592112 L39,14.4592112 L39,28.1810595 C39,29.2512244 38.2160577,30 37.2559765,30 L37.2559765,30 L18.8333333,30 C17.875733,30 17,29.2487643 17,28.1810595 L17,28.1810595 L17,11.8180502 C17,10.7478854 17.7186716,10 18.8333333,10 L18.8333333,10 Z M21.5833333,22.7263517 C21.0770723,22.7263517 20.6666667,23.1333361 20.6666667,23.6353769 C20.6666667,24.1374176 21.0770723,24.544402 21.5833333,24.544402 C22.0895944,24.544402 22.5,24.1374176 22.5,23.6353769 C22.5,23.1333361 22.0895944,22.7263517 21.5833333,22.7263517 Z M34.4243082,22.7263517 L25.2423585,22.7263517 C24.7403177,22.7263517 24.3333333,23.1333361 24.3333333,23.6353769 C24.3333333,24.1374176 24.7403177,24.544402 25.2423585,24.544402 L25.2423585,24.544402 L34.4243082,24.544402 C34.9263489,24.544402 35.3333333,24.1374176 35.3333333,23.6353769 C35.3333333,23.1333361 34.9263489,22.7263517 34.4243082,22.7263517 L34.4243082,22.7263517 Z M21.5833333,19.0902512 C21.0770723,19.0902512 20.6666667,19.4972356 20.6666667,19.9992764 C20.6666667,20.5013171 21.0770723,20.9083015 21.5833333,20.9083015 C22.0895944,20.9083015 22.5,20.5013171 22.5,19.9992764 C22.5,19.4972356 22.0895944,19.0902512 21.5833333,19.0902512 Z M34.4243082,19.0902512 L25.2423585,19.0902512 C24.7403177,19.0902512 24.3333333,19.4972356 24.3333333,19.9992764 C24.3333333,20.5013171 24.7403177,20.9083015 25.2423585,20.9083015 L25.2423585,20.9083015 L34.4243082,20.9083015 C34.9263489,20.9083015 35.3333333,20.5013171 35.3333333,19.9992764 C35.3333333,19.4972356 34.9263489,19.0902512 34.4243082,19.0902512 L34.4243082,19.0902512 Z" fill="#FFFFFF" fill-rule="nonzero"></path>
                </g>
            </g>
        </g>
    </g>
</svg>