<?xml version="1.0" encoding="UTF-8"?>
<svg width="64px" height="64px" viewBox="0 0 64 64" version="1.1" xmlns="http://www.w3.org/2000/svg" xmlns:xlink="http://www.w3.org/1999/xlink">
    <title>重点人员icon</title>
    <g id="正式稿" stroke="none" stroke-width="1" fill="none" fill-rule="evenodd">
        <g id="2-1莲都区公安-基础集控" transform="translate(-40.000000, -157.000000)">
            <g id="重点人员icon" transform="translate(40.000000, 157.000000)">
                <g id="图标斜线背景">
                    <rect id="矩形" fill-opacity="0.35" fill="#121212" x="0" y="0" width="64" height="64"></rect>
                    <path d="M64,0 L64,1.191 L1.194,63.998 L0.00130527678,63.9986947 L0.001,62.928 L62.929,0 L64,0 Z M64,3.077 L64,5.34 L5.342,63.998 L3.079,63.998 L64,3.077 Z M64,7.225 L64,9.488 L9.49,63.998 L7.228,63.998 L64,7.225 Z M64,11.374 L64,13.637 L13.638,63.998 L11.376,63.998 L64,11.374 Z M64,15.521 L64,17.784 L17.787,63.998 L15.524,63.998 L64,15.521 Z M64,19.67 L64,21.932 L21.935,63.998 L19.672,63.998 L64,19.67 Z M64,23.818 L64,26.08 L26.083,63.998 L23.821,63.998 L64,23.818 Z M64,27.966 L64,30.229 L30.232,63.998 L27.969,63.998 L64,27.966 Z M64,32.114 L64,34.377 L34.38,63.998 L32.117,63.998 L64,32.114 Z M64,36.263 L64,38.526 L38.528,63.998 L36.266,63.998 L64,36.263 Z M64,40.411 L64,42.674 L42.677,63.998 L40.414,63.998 L64,40.411 Z M64,44.559 L64,46.822 L46.824,63.998 L44.562,63.998 L64,44.559 Z M64,48.708 L64,50.97 L50.972,63.998 L48.71,63.998 L64,48.708 Z M64,52.856 L64,55.119 L55.121,63.998 L52.858,63.998 L64,52.856 Z M64,57.004 L64,59.267 L59.269,63.998 L57.006,63.998 L64,57.004 Z M64,61.152 L64,63.415 L63.417,63.998 L61.154,63.998 L64,61.152 Z M61.043,0 L0.001,61.042 L0.001,58.779 L58.781,0 L61.043,0 Z M56.895,0 L0.001,56.894 L0.001,54.631 L54.632,0 L56.895,0 Z M52.747,0 L0.001,52.745 L0.001,50.483 L50.484,0 L52.747,0 Z M48.598,0 L0.001,48.597 L0.001,46.335 L46.335,0 L48.598,0 Z M44.45,0 L0.001,44.449 L0.001,42.186 L42.187,0 L44.45,0 Z M40.301,0 L0.001,40.301 L0.001,38.038 L38.039,0 L40.301,0 Z M36.153,0 L0.001,36.152 L0.001,33.889 L33.891,0 L36.153,0 Z M32.005,0 L0.001,32.004 L0.001,29.741 L29.742,0 L32.005,0 Z M27.857,0 L0.001,27.856 L0.001,25.593 L25.594,0 L27.857,0 Z M23.708,0 L0.001,23.707 L0.001,21.445 L21.445,0 L23.708,0 Z M19.56,0 L0.001,19.559 L0.001,17.296 L17.297,0 L19.56,0 Z M15.412,0 L0.001,15.411 L0.001,13.148 L13.149,0 L15.412,0 Z M11.263,0 L0.001,11.262 L0.001,9 L9.001,0 L11.263,0 Z M7.115,0 L0.001,7.114 L0.001,4.851 L4.852,0 L7.115,0 Z M2.967,0 L0.001,2.966 L0.001,0.703 L0.704,0 L2.967,0 Z" id="形状结合" fill="#084752" opacity="0.8"></path>
                </g>
                <path d="M37,19.5 C37,17.0147161 34.9852817,15 32.5,15 C30.0147183,15 28,17.0147161 28,19.5 C28,21.9852747 30.0147183,24 32.5,24 C34.9852817,24 37,21.985274 37,19.5 Z M38.0043396,27.8873354 L38.0043396,27.8873351 C37.8956677,26.8194182 36.9620726,26.0068501 35.8496705,26.0119826 L34.6670791,26.0119826 L34.6670791,26.0119826 C34.379254,26.0105076 34.1027865,26.1201924 33.8993235,26.3165781 L32.5000269,27.6663541 L31.1007303,26.3046332 L31.1007303,26.3046332 C30.8972689,26.1082475 30.6207979,25.9985625 30.3329747,26 L29.1503833,26 L29.1503834,26 C28.0465296,25.9936726 27.1162334,26.7930573 26.9957144,27.8515004 L26.0112535,35.2633234 L26.0112535,35.2633235 C25.9257652,35.8346416 26.3365988,36.364634 26.9288763,36.447095 C26.9797215,36.4541742 27.0310245,36.4577564 27.0823968,36.4578144 L28.252605,36.4578144 L29.162767,47.1126833 L29.162767,47.1126836 C29.2654454,48.1853338 30.2007115,49.0045425 31.3174361,49 L33.6888104,49 L33.6888105,49 C34.8076054,48.9983341 35.7411908,48.1754195 35.8434796,47.1007387 L36.7474499,36.4578148 L37.9114666,36.4578148 L37.9114665,36.4578148 C38.2246195,36.457191 38.5223586,36.3266443 38.7287548,36.0994672 L38.7287549,36.0994671 C38.9392341,35.8714946 39.0344288,35.5654097 38.9888011,35.2633227 L38.0043396,27.8873354 Z M48,19.5 C48,17.0147161 45.9852817,15 43.5,15 C41.0147183,15 39,17.0147161 39,19.5 C39,21.9852747 41.0147183,24 43.5,24 C45.9852817,24 48,21.985274 48,19.5 Z M17,19.5 L17,19.5 C17,21.9852817 19.0147183,24 21.5,24 C23.9852817,24 26,21.9852817 26,19.5 C26,19.5 26,19.5 26,19.5 L26,19.5 C26,17.0147183 23.9852817,15 21.5,15 C19.0147183,15 17,17.0147183 17,19.5 L17,19.5 Z M49.9903656,35.2993658 L49.0416908,27.8911676 L49.0416908,27.8911674 C48.9419416,26.8176391 48.0615655,25.998336 47.0096528,26 L45.8911535,26 L45.8911535,26 C45.6189273,25.9986131 45.3574433,26.1088662 45.1650073,26.3062693 L43.8415474,27.6630382 L42.5122314,26.2942625 L42.5122314,26.2942625 C42.3196823,26.1021716 42.0605897,25.9963579 41.7919413,26 L40.6675859,26 L40.6675859,26 C40.5447475,26.009895 40.4231422,26.0320133 40.3045128,26.0661332 L40.3045129,26.0661332 C40.5846091,26.5500037 40.7659085,27.0871656 40.8374104,27.645028 L41.7919413,35.0472228 L41.7919413,35.0472227 C41.9069238,35.9498868 41.6333479,36.8591921 41.042371,37.5386346 L41.0423711,37.5386345 C40.7532716,37.8676251 40.3975101,38.127846 40,38.3010666 L40.679298,45.1089246 L40.679298,45.1089245 C40.7818903,46.1833947 41.6640935,47.0020373 42.7171921,47 L44.9600467,47 L44.9600468,47 C46.0192795,47.0011769 46.9038566,46.1725135 46.9979408,45.0909143 L47.8529194,36.5000459 L48.9597066,36.5000459 L48.9597067,36.5000459 C49.5289006,36.5055004 49.9946333,36.0368872 50,35.4533678 C50.0004246,35.401862 49.9972198,35.3503903 49.9903663,35.2993636 L49.9903656,35.2993658 Z M23.2323686,35.0533211 L24.1630088,27.5911524 L24.1630087,27.5911533 C24.2248454,27.0514517 24.398465,26.5315501 24.6722269,26.0663014 L24.672227,26.0663014 C24.5597556,26.0316627 24.4439801,26.0095232 24.3268951,26.0002645 L23.2031032,26.0002645 L23.2031032,26.0002645 C22.9310135,25.9987819 22.6696605,26.109034 22.4773209,26.3064356 L21.1545242,27.6631935 L19.8375806,26.2944289 L19.8375806,26.2944289 C19.6418916,26.0999307 19.3783734,25.9939787 19.1059453,26.0002646 L17.9938596,26.0002646 L17.9938597,26.0002646 C16.9493295,25.9910731 16.0683308,26.7960204 15.9569869,27.8613042 L15.0087875,35.2994595 L15.0087874,35.2994599 C14.9701889,35.5972379 15.0599342,35.8974952 15.2546173,36.1219193 L15.2546172,36.1219192 C15.4474492,36.3499844 15.7270488,36.4813329 16.021371,36.4821205 L17.1451629,36.4821205 L17.999713,45.1089398 L17.999713,45.1089398 C18.1022539,46.1834013 18.9840149,47.0020373 20.0365858,47 L22.2841695,47 L22.2841696,47 C23.3417997,46.9983407 24.2243458,46.1711694 24.3210424,45.0909297 L25,38.3011366 L25,38.3011366 C24.6111943,38.1240902 24.2609166,37.8689289 23.9698574,37.5507174 L23.9698574,37.5507173 C23.3831187,36.8670179 23.1141037,35.956039 23.2323689,35.0533222 L23.2323686,35.0533211 Z" id="形状" fill="#23FFFF" fill-rule="nonzero"></path>
            </g>
        </g>
    </g>
</svg>