<?xml version="1.0" encoding="UTF-8"?>
<svg width="48px" height="48px" viewBox="0 0 48 48" version="1.1" xmlns="http://www.w3.org/2000/svg" xmlns:xlink="http://www.w3.org/1999/xlink">
    <title>面积icon</title>
    <g id="投标版" stroke="none" stroke-width="1" fill="none" fill-rule="evenodd">
        <g id="1主页" transform="translate(-1500.000000, -233.000000)">
            <g id="右侧" transform="translate(1500.000000, 172.000000)">
                <g id="面积icon" transform="translate(0.000000, 61.000000)">
                    <g id="编组-4">
                        <rect id="矩形" fill-opacity="0.35" fill="#121212" x="0" y="0" width="48" height="48"></rect>
                        <path d="M48,0 L48,0.893 L0.895,47.999 L0.000978957588,47.999021 L-2.84217094e-14,47.196 L47.197,0 L48,0 Z M48,2.308 L48,4.005 L4.005,47.999 L2.309,47.999 L48,2.308 Z M48,5.419 L48,7.116 L7.117,47.999 L5.421,47.999 L48,5.419 Z M48,8.531 L48,10.227 L10.229,47.999 L8.531,47.999 L48,8.531 Z M48,11.64 L48,13.338 L13.339,47.999 L11.642,47.999 L48,11.64 Z M48,14.752 L48,16.449 L16.451,47.999 L14.753,47.999 L48,14.752 Z M48,17.863 L48,19.56 L19.562,47.999 L17.865,47.999 L48,17.863 Z M48,20.974 L48,22.672 L22.673,47.999 L20.976,47.999 L48,20.974 Z M48,24.086 L48,25.783 L25.784,47.999 L24.087,47.999 L48,24.086 Z M48,27.197 L48,28.894 L28.895,47.999 L27.199,47.999 L48,27.197 Z M48,30.308 L48,32.005 L32.007,47.999 L30.31,47.999 L48,30.308 Z M48,33.419 L48,35.116 L35.118,47.999 L33.421,47.999 L48,33.419 Z M48,36.53 L48,38.228 L38.229,47.999 L36.531,47.999 L48,36.53 Z M48,39.642 L48,41.339 L41.34,47.999 L39.643,47.999 L48,39.642 Z M48,42.753 L48,44.45 L44.451,47.999 L42.754,47.999 L48,42.753 Z M48,45.864 L48,47.561 L47.562,47.999 L45.865,47.999 L48,45.864 Z M45.783,0 L-2.84217094e-14,45.782 L-2.84217094e-14,44.086 L44.085,0 L45.783,0 Z M42.671,0 L-2.84217094e-14,42.672 L-2.84217094e-14,40.974 L40.974,0 L42.671,0 Z M39.56,0 L-2.84217094e-14,39.56 L-2.84217094e-14,37.862 L37.863,0 L39.56,0 Z M36.449,0 L-2.84217094e-14,36.448 L-2.84217094e-14,34.752 L34.751,0 L36.449,0 Z M33.337,0 L-2.84217094e-14,33.338 L-2.84217094e-14,31.64 L31.641,0 L33.337,0 Z M30.226,0 L-2.84217094e-14,30.226 L-2.84217094e-14,28.53 L28.529,0 L30.226,0 Z M27.115,0 L-2.84217094e-14,27.115 L-2.84217094e-14,25.418 L25.418,0 L27.115,0 Z M24.004,0 L-2.84217094e-14,24.004 L-2.84217094e-14,22.306 L22.307,0 L24.004,0 Z M20.893,0 L-2.84217094e-14,20.892 L-2.84217094e-14,19.196 L19.195,0 L20.893,0 Z M17.781,0 L-2.84217094e-14,17.782 L-2.84217094e-14,16.084 L16.084,0 L17.781,0 Z M14.67,0 L-2.84217094e-14,14.67 L-2.84217094e-14,12.973 L12.973,0 L14.67,0 Z M11.559,0 L-2.84217094e-14,11.559 L-2.84217094e-14,9.861 L9.861,0 L11.559,0 Z M8.447,0 L-2.84217094e-14,8.447 L-2.84217094e-14,6.751 L6.751,0 L8.447,0 Z M5.336,0 L-2.84217094e-14,5.336 L-2.84217094e-14,3.639 L3.639,0 L5.336,0 Z M2.225,0 L-2.84217094e-14,2.225 L-2.84217094e-14,0.528 L0.528,0 L2.225,0 Z" id="形状结合" fill="#39F4E8" opacity="0.2"></path>
                    </g>
                    <path d="M38,32.7272727 C39.1045695,32.7272727 40,33.6227032 40,34.7272727 L40,38 C40,39.1045695 39.1045695,40 38,40 L34.7272727,40 C33.6227032,40 32.7272727,39.1045695 32.7272727,38 L32.7272727,34.7272727 C32.7272727,33.6227032 33.6227032,32.7272727 34.7272727,32.7272727 L38,32.7272727 Z M13.2727273,32.7272727 C14.3772968,32.7272727 15.2727273,33.6227032 15.2727273,34.7272727 L15.2727273,38 C15.2727273,39.1045695 14.3772968,40 13.2727273,40 L10,40 C8.8954305,40 8,39.1045695 8,38 L8,34.7272727 C8,33.6227032 8.8954305,32.7272727 10,32.7272727 L13.2727273,32.7272727 Z M31.271798,11.6363636 L31.2727273,14.7272727 C31.2727273,15.7816345 32.0886051,16.6454378 33.1234649,16.721787 L33.2727273,16.7272727 L35.635798,16.7263636 L35.635798,31.2723636 L33.2727273,31.2727273 C32.2183655,31.2727273 31.3545622,32.0886051 31.278213,33.1234649 L31.2727273,33.2727273 L31.271798,36.3633636 L16.726798,36.3633636 L16.7272727,33.2727273 C16.7272727,32.2183655 15.9113949,31.3545622 14.8765351,31.278213 L14.7272727,31.2727273 L11.635798,31.2723636 L11.635798,16.7263636 L14.7272727,16.7272727 C15.7816345,16.7272727 16.6454378,15.9113949 16.721787,14.8765351 L16.7272727,14.7272727 L16.726798,11.6363636 L31.271798,11.6363636 Z M15.5803618,25.7662338 L14.5454545,26.801141 L21.9261317,34.1818182 L22.961039,33.1469109 L15.5803618,25.7662338 Z M16.8406667,21.4161491 L15.8057595,22.4510563 L26.0098732,32.6551701 L27.0447805,31.6202628 L16.8406667,21.4161491 Z M17.6537667,16.6188594 L16.6188594,17.6537667 L30.1273798,31.1622871 L31.1622871,30.1273798 L17.6537667,16.6188594 Z M22.4510563,15.8057595 L21.4161491,16.8406667 L31.6202628,27.0447805 L32.6551701,26.0098732 L22.4510563,15.8057595 Z M26.801141,14.5454545 L25.7662338,15.5803618 L33.1469109,22.961039 L34.1818182,21.9261317 L26.801141,14.5454545 Z M38,8 C39.1045695,8 40,8.8954305 40,10 L40,13.2727273 C40,14.3772968 39.1045695,15.2727273 38,15.2727273 L34.7272727,15.2727273 C33.6227032,15.2727273 32.7272727,14.3772968 32.7272727,13.2727273 L32.7272727,10 C32.7272727,8.8954305 33.6227032,8 34.7272727,8 L38,8 Z M13.2727273,8 C14.3772968,8 15.2727273,8.8954305 15.2727273,10 L15.2727273,13.2727273 C15.2727273,14.3772968 14.3772968,15.2727273 13.2727273,15.2727273 L10,15.2727273 C8.8954305,15.2727273 8,14.3772968 8,13.2727273 L8,10 C8,8.8954305 8.8954305,8 10,8 L13.2727273,8 Z" id="形状结合" fill="#39F4E8"></path>
                </g>
            </g>
        </g>
    </g>
</svg>