<?xml version="1.0" encoding="UTF-8"?>
<svg width="48px" height="48px" viewBox="0 0 48 48" version="1.1" xmlns="http://www.w3.org/2000/svg" xmlns:xlink="http://www.w3.org/1999/xlink">
    <title>小班icon</title>
    <g id="投标版" stroke="none" stroke-width="1" fill="none" fill-rule="evenodd">
        <g id="2分析决策" transform="translate(-1500.000000, -233.000000)">
            <g id="右侧" transform="translate(1500.000000, 172.000000)">
                <g id="小班icon" transform="translate(0.000000, 61.000000)">
                    <g id="编组-4">
                        <rect id="矩形" fill-opacity="0.35" fill="#121212" x="0" y="0" width="48" height="48"></rect>
                        <path d="M48,0 L48,0.893 L0.895,47.999 L0.000978957588,47.999021 L-2.84217094e-14,47.196 L47.197,0 L48,0 Z M48,2.308 L48,4.005 L4.005,47.999 L2.309,47.999 L48,2.308 Z M48,5.419 L48,7.116 L7.117,47.999 L5.421,47.999 L48,5.419 Z M48,8.531 L48,10.227 L10.229,47.999 L8.531,47.999 L48,8.531 Z M48,11.64 L48,13.338 L13.339,47.999 L11.642,47.999 L48,11.64 Z M48,14.752 L48,16.449 L16.451,47.999 L14.753,47.999 L48,14.752 Z M48,17.863 L48,19.56 L19.562,47.999 L17.865,47.999 L48,17.863 Z M48,20.974 L48,22.672 L22.673,47.999 L20.976,47.999 L48,20.974 Z M48,24.086 L48,25.783 L25.784,47.999 L24.087,47.999 L48,24.086 Z M48,27.197 L48,28.894 L28.895,47.999 L27.199,47.999 L48,27.197 Z M48,30.308 L48,32.005 L32.007,47.999 L30.31,47.999 L48,30.308 Z M48,33.419 L48,35.116 L35.118,47.999 L33.421,47.999 L48,33.419 Z M48,36.53 L48,38.228 L38.229,47.999 L36.531,47.999 L48,36.53 Z M48,39.642 L48,41.339 L41.34,47.999 L39.643,47.999 L48,39.642 Z M48,42.753 L48,44.45 L44.451,47.999 L42.754,47.999 L48,42.753 Z M48,45.864 L48,47.561 L47.562,47.999 L45.865,47.999 L48,45.864 Z M45.783,0 L-2.84217094e-14,45.782 L-2.84217094e-14,44.086 L44.085,0 L45.783,0 Z M42.671,0 L-2.84217094e-14,42.672 L-2.84217094e-14,40.974 L40.974,0 L42.671,0 Z M39.56,0 L-2.84217094e-14,39.56 L-2.84217094e-14,37.862 L37.863,0 L39.56,0 Z M36.449,0 L-2.84217094e-14,36.448 L-2.84217094e-14,34.752 L34.751,0 L36.449,0 Z M33.337,0 L-2.84217094e-14,33.338 L-2.84217094e-14,31.64 L31.641,0 L33.337,0 Z M30.226,0 L-2.84217094e-14,30.226 L-2.84217094e-14,28.53 L28.529,0 L30.226,0 Z M27.115,0 L-2.84217094e-14,27.115 L-2.84217094e-14,25.418 L25.418,0 L27.115,0 Z M24.004,0 L-2.84217094e-14,24.004 L-2.84217094e-14,22.306 L22.307,0 L24.004,0 Z M20.893,0 L-2.84217094e-14,20.892 L-2.84217094e-14,19.196 L19.195,0 L20.893,0 Z M17.781,0 L-2.84217094e-14,17.782 L-2.84217094e-14,16.084 L16.084,0 L17.781,0 Z M14.67,0 L-2.84217094e-14,14.67 L-2.84217094e-14,12.973 L12.973,0 L14.67,0 Z M11.559,0 L-2.84217094e-14,11.559 L-2.84217094e-14,9.861 L9.861,0 L11.559,0 Z M8.447,0 L-2.84217094e-14,8.447 L-2.84217094e-14,6.751 L6.751,0 L8.447,0 Z M5.336,0 L-2.84217094e-14,5.336 L-2.84217094e-14,3.639 L3.639,0 L5.336,0 Z M2.225,0 L-2.84217094e-14,2.225 L-2.84217094e-14,0.528 L0.528,0 L2.225,0 Z" id="形状结合" fill="#39F4E8" opacity="0.2"></path>
                    </g>
                    <path d="M20.6284375,10 L12.4965625,10 C11.1181776,10.001034 10.001034,11.1181776 10,12.4965625 L10,20.6284375 C10.001034,22.0068224 11.1181776,23.123966 12.4965625,23.125 L20.6284375,23.125 C22.0068224,23.123966 23.123966,22.0068224 23.125,20.6284375 L23.125,12.4965625 C23.0996875,11.10625 21.9925,10 20.6284375,10 Z M35.5034375,10 L27.3715625,10 C26.0075,10 24.875,11.1259375 24.875,12.540625 L24.875,25.271875 C24.875,26.659375 25.98125,27.8125 27.3715625,27.8125 L35.5034375,27.8125 C36.8675,27.8125 38,26.6865625 38,25.271875 L38,12.540625 C38,11.1259375 36.89375,10 35.5034375,10 Z M20.6284375,24.875 L12.4965625,24.875 C11.1169912,24.8775854 10,25.9966763 10,27.37625 L10,35.49875 C10,36.8783237 11.1169912,37.9974146 12.4965625,38 L20.6284375,38 C22.0080088,37.9974146 23.125,36.8783237 23.125,35.49875 L23.125,27.35 C23.0996875,25.9840625 21.9925,24.875 20.6284375,24.875 Z M35.5034375,30.5 L27.3715625,30.5 C26.0075,30.5 24.875,31.589375 24.875,32.958125 L24.875,35.541875 C24.875,36.8853125 25.98125,38 27.3715625,38 L35.5034375,38 C36.8675,38 38,36.910625 38,35.541875 L38,32.9328125 C38,31.589375 36.89375,30.5 35.5034375,30.5 Z" id="形状" fill="#39F4E8"></path>
                </g>
            </g>
        </g>
    </g>
</svg>