<?xml version="1.0" encoding="UTF-8"?>
<svg width="48px" height="48px" viewBox="0 0 48 48" version="1.1" xmlns="http://www.w3.org/2000/svg" xmlns:xlink="http://www.w3.org/1999/xlink">
    <title>株数icon</title>
    <g id="投标版" stroke="none" stroke-width="1" fill="none" fill-rule="evenodd">
        <g id="1主页" transform="translate(-1500.000000, -544.000000)">
            <g id="右侧" transform="translate(1500.000000, 172.000000)">
                <g id="除治进度·疫木" transform="translate(0.000000, 311.000000)">
                    <g id="株数icon" transform="translate(0.000000, 61.000000)">
                        <g id="编组-4">
                            <rect id="矩形" fill-opacity="0.35" fill="#121212" x="0" y="0" width="48" height="48"></rect>
                            <path d="M48,0 L48,0.893 L0.895,47.999 L0.000978957588,47.999021 L0,47.196 L47.197,0 L48,0 Z M48,2.308 L48,4.005 L4.005,47.999 L2.309,47.999 L48,2.308 Z M48,5.419 L48,7.116 L7.117,47.999 L5.421,47.999 L48,5.419 Z M48,8.531 L48,10.227 L10.229,47.999 L8.531,47.999 L48,8.531 Z M48,11.64 L48,13.338 L13.339,47.999 L11.642,47.999 L48,11.64 Z M48,14.752 L48,16.449 L16.451,47.999 L14.753,47.999 L48,14.752 Z M48,17.863 L48,19.56 L19.562,47.999 L17.865,47.999 L48,17.863 Z M48,20.974 L48,22.672 L22.673,47.999 L20.976,47.999 L48,20.974 Z M48,24.086 L48,25.783 L25.784,47.999 L24.087,47.999 L48,24.086 Z M48,27.197 L48,28.894 L28.895,47.999 L27.199,47.999 L48,27.197 Z M48,30.308 L48,32.005 L32.007,47.999 L30.31,47.999 L48,30.308 Z M48,33.419 L48,35.116 L35.118,47.999 L33.421,47.999 L48,33.419 Z M48,36.53 L48,38.228 L38.229,47.999 L36.531,47.999 L48,36.53 Z M48,39.642 L48,41.339 L41.34,47.999 L39.643,47.999 L48,39.642 Z M48,42.753 L48,44.45 L44.451,47.999 L42.754,47.999 L48,42.753 Z M48,45.864 L48,47.561 L47.562,47.999 L45.865,47.999 L48,45.864 Z M45.783,0 L0,45.782 L0,44.086 L44.085,0 L45.783,0 Z M42.671,0 L0,42.672 L0,40.974 L40.974,0 L42.671,0 Z M39.56,0 L0,39.56 L0,37.862 L37.863,0 L39.56,0 Z M36.449,0 L0,36.448 L0,34.752 L34.751,0 L36.449,0 Z M33.337,0 L0,33.338 L0,31.64 L31.641,0 L33.337,0 Z M30.226,0 L0,30.226 L0,28.53 L28.529,0 L30.226,0 Z M27.115,0 L0,27.115 L0,25.418 L25.418,0 L27.115,0 Z M24.004,0 L0,24.004 L0,22.306 L22.307,0 L24.004,0 Z M20.893,0 L0,20.892 L0,19.196 L19.195,0 L20.893,0 Z M17.781,0 L0,17.782 L0,16.084 L16.084,0 L17.781,0 Z M14.67,0 L0,14.67 L0,12.973 L12.973,0 L14.67,0 Z M11.559,0 L0,11.559 L0,9.861 L9.861,0 L11.559,0 Z M8.447,0 L0,8.447 L0,6.751 L6.751,0 L8.447,0 Z M5.336,0 L0,5.336 L0,3.639 L3.639,0 L5.336,0 Z M2.225,0 L0,2.225 L0,0.528 L0.528,0 L2.225,0 Z" id="形状结合" fill="#39F4E8" opacity="0.2"></path>
                        </g>
                        <g id="数" transform="translate(8.000000, 8.000000)" fill="#39F4E8" fill-rule="nonzero">
                            <path d="M18.4527822,0.254477339 C18.7103643,-0.0848257798 19.1337242,-0.0848257798 19.3913058,0.254477339 L19.3913058,0.254477339 L24.6917942,7.18713981 C24.949376,7.52644199 24.8089986,7.80195842 24.3851921,7.80195842 L24.3851921,7.80195842 L23.3758119,7.80195842 C22.9488864,7.80195842 22.8080633,8.07614317 23.0692098,8.41544629 L23.0692098,8.41544629 L28.6000693,15.6510781 C28.8572054,15.9886081 28.720394,16.2641245 28.2930215,16.2641245 L28.2930215,16.2641245 L26.9115289,16.2641245 C26.4881683,16.2641245 26.3473452,16.5400815 26.6049268,16.8776123 L26.6049268,16.8776123 L31.8710784,23.7628693 C32.1282129,24.1003977 31.9878356,24.3763572 31.5644763,24.3763572 L31.5644763,24.3763572 L21.3075734,24.3763563 C20.8809128,24.3778154 20.5354043,24.7212422 20.5339386,25.1453242 L20.5339386,25.1453242 L20.5339386,31.2288184 C20.5324769,31.6534389 20.1870494,31.9975719 19.7598564,32 L19.7598564,32 L18.071762,32 C17.644569,31.9975702 17.29914,31.6534358 17.2976798,31.2288184 L17.2976798,31.2288184 L17.2976798,25.1453219 C17.2967001,24.7210396 16.9509041,24.3773315 16.524045,24.3763572 L16.524045,24.3763572 L6.27424786,24.3763572 C5.84865922,24.3763572 5.71184689,24.1004002 5.96898268,23.7628693 L5.96898268,23.7628693 L11.2333703,16.8776123 C11.4927345,16.540084 11.3541401,16.2641245 10.9285505,16.2641245 L10.9285505,16.2641245 L9.5470579,16.2641245 C9.12146895,16.2641245 8.98465662,15.988609 9.24223816,15.6510781 L9.24223816,15.6510781 L14.7730976,8.41544629 C15.0320145,8.07614598 14.8934202,7.80195842 14.4682779,7.80195842 L14.4682779,7.80195842 L13.4584505,7.80195842 C13.0333072,7.80195842 12.8947122,7.52644293 13.1522938,7.18713981 L13.1522938,7.18713981 Z M12.2686176,26.1831565 C12.6961162,26.183886 13.0427647,26.527651 13.0444796,26.9525658 L13.0444796,26.9525658 L13.0444796,30.1710667 C13.0442339,30.596877 12.6970108,30.9420039 12.2686145,30.9422482 L12.2686145,30.9422482 L11.2387331,30.9422482 C10.811307,30.9405449 10.4655814,30.5959188 10.4650919,30.1710729 L10.4650919,30.1710729 L10.4650919,26.9525658 C10.4658355,26.5281082 10.8117008,26.1841316 11.2387363,26.1831565 L11.2387363,26.1831565 Z M7.14102881,17.1261029 C7.56661776,17.1261029 7.70521245,17.4020631 7.44807666,17.7391493 L7.44807666,17.7391493 L2.70910404,23.9404709 C2.45196605,24.2784423 1.89134807,24.5539587 1.46620581,24.5539587 L1.46620581,24.5539587 L0.43677178,24.5539587 C0.00940047156,24.5539587 -0.127411862,24.2784432 0.12972393,23.9404709 L0.12972393,23.9404709 L4.86869654,17.7391493 C5.12583454,17.4020624 5.68645252,17.1261029 6.11159477,17.1261029 L6.11159477,17.1261029 Z M11.4762267,2.51930468 C11.7338089,2.18177379 12.1571703,2.18177379 12.4143061,2.51930468 L12.4143061,2.51930468 L12.7668089,2.97997401 C13.0243904,3.31750177 13.0243904,3.86720514 12.7668089,4.20650826 L12.7668089,4.20650826 L9.28411951,8.764481 C9.0247553,9.10378318 9.163797,9.3792996 9.58893926,9.3792996 L9.58893926,9.3792996 L10.380845,9.3792996 C10.8064337,9.3792996 10.9450287,9.65348748 10.6861102,9.99057375 L10.6861102,9.99057375 L5.70249628,16.5130566 C5.44535828,16.8519154 4.88518762,17.1261155 4.45959804,17.1261155 L4.45959804,17.1261155 L3.43192274,17.1261155 C3.00499718,17.1261155 2.8677391,16.8519276 3.12532064,16.5130691 L3.12532064,16.5130691 L8.11028914,9.99102464 C8.36787099,9.65393805 8.22882929,9.37975049 7.80368704,9.37975049 L7.80368704,9.37975049 L7.00955095,9.37975049 C6.58262539,9.37975049 6.44581306,9.104235 6.70294885,8.76493188 L6.70294885,8.76493188 Z" id="形状结合"></path>
                        </g>
                    </g>
                </g>
            </g>
        </g>
    </g>
</svg>