<?xml version="1.0" encoding="UTF-8"?>
<svg width="48px" height="48px" viewBox="0 0 48 48" version="1.1" xmlns="http://www.w3.org/2000/svg" xmlns:xlink="http://www.w3.org/1999/xlink">
    <title>疫木icon</title>
    <g id="正式稿" stroke="none" stroke-width="1" fill="none" fill-rule="evenodd">
        <g id="2决策分析" transform="translate(-1706.000000, -254.000000)" fill-rule="nonzero">
            <g id="右侧" transform="translate(1500.000000, 177.000000)">
                <g id="图标2" transform="translate(0.000000, 71.000000)">
                    <g id="2" transform="translate(206.000000, 0.000000)">
                        <g id="疫木icon" transform="translate(0.000000, 6.000000)">
                            <path d="M47.0888048,36.4928393 C47.7187727,36.4928393 47.9276573,36.0797117 47.5450355,35.5744117 L39.7088857,25.2667747 C39.3255987,24.761471 39.5351466,24.3483471 40.1651164,24.3483471 L42.2208079,24.3483471 C42.8567477,24.3483471 43.060326,23.9358827 42.6777018,23.4305804 L34.447661,12.5984115 C34.0590692,12.0904547 34.2686171,11.6799839 34.9038917,11.6799839 L36.4058716,11.6799839 C37.0365051,11.6799839 37.2453897,11.2675195 36.8621023,10.7595641 L28.9748587,0.380958256 C28.5915717,-0.126998585 27.9616028,-0.126998585 27.5783149,0.380958256 L19.6910714,10.7595641 C19.3077843,11.2675209 19.5140168,11.6799839 20.1466392,11.6799839 L21.6492847,11.6799839 C22.2819058,11.6799839 22.4881373,12.0904589 22.1028632,12.5984115 L13.8728224,23.4305804 C13.4895354,23.9358841 13.6931152,24.3483471 14.3264009,24.3483471 L16.3820923,24.3483471 C17.015379,24.3483471 17.2216105,24.7614748 16.8356708,25.2667747 L9.0021461,35.5744117 C8.61952237,36.0797154 8.82310214,36.4928393 9.45638741,36.4928393 L24.7083114,36.4928393 L24.7083115,36.4928393 C25.3434872,36.4942979 25.8580394,37.0088493 25.8594972,37.6440251 L25.8594972,46.7513794 L25.8594972,46.7513791 C25.8616699,47.3870564 26.3756759,47.9022461 27.0113485,47.9058836 L29.5232702,47.9058836 L29.5232702,47.9058836 C30.1589428,47.9022486 30.6729465,47.3870611 30.6751216,46.7513791 L30.6751216,37.6440248 L30.6751215,37.6440284 C30.6773025,37.0091527 31.1914268,36.4950224 31.8263073,36.492838 L47.0888048,36.4928393 Z" id="路径" fill="#F7B500"></path>
                            <path d="M15.6924558,45.1678651 L15.6924558,45.1678716 C15.693184,45.8038911 16.2076314,46.3198167 16.8436509,46.3223667 L18.376137,46.3223667 L18.3761371,46.3223667 C19.0136003,46.3220008 19.5302759,45.8053254 19.5306415,45.1678622 L19.5306415,40.3495753 L19.5306415,40.3495761 C19.5280896,39.7134534 19.0122691,39.1988169 18.3761418,39.1977247 L16.8436556,39.1977247 L16.8436557,39.1977247 C16.2082174,39.1991845 15.6935621,39.7141378 15.6924558,40.3495761 L15.6924558,45.1678651 Z" id="路径" fill="#FA6400"></path>
                            <path d="M6.75614849,25.6387986 C7.38943516,25.6387986 8.22298144,25.2283048 8.60560845,24.7210131 L16.0213358,14.9564705 C16.4066122,14.4518324 16.2003798,14.041357 15.5670945,14.041357 L14.3887213,14.041357 C13.7561002,14.041357 13.5492031,13.6288926 13.9351428,13.1209371 L19.1174613,6.29738233 C19.5007483,5.78942549 19.5007483,4.96648703 19.1174613,4.461188 L18.5929294,3.77153876 C18.2103057,3.26623505 17.5803345,3.26623505 17.1970466,3.77153876 L10.0943039,13.1216121 C9.71168021,13.629569 9.91525998,14.042032 10.5505346,14.042032 L11.7322266,14.042032 C12.3648477,14.042032 12.5717448,14.452507 12.1884573,14.9571455 L4.7707143,24.7210319 C4.38742729,25.2283231 4.59167034,25.6387986 5.22694499,25.6387986 L6.75614849,25.6387986 Z" id="路径" fill="#FA6400"></path>
                            <path d="M9.21435603,25.6387798 C8.58173499,25.6387798 7.74752308,26.0519075 7.36489607,26.5565465 L0.313200364,35.8402917 C-0.069423362,36.3462564 0.134156406,36.7587193 0.770094334,36.7587193 L2.30191487,36.7587193 C2.93453591,36.7587193 3.76874782,36.346255 4.15137483,35.8402917 L11.2030705,26.5565465 C11.5856943,26.0519084 11.3794623,25.6387798 10.7461766,25.6387798 L9.21435603,25.6387798 Z" id="路径" fill="#FA6400"></path>
                        </g>
                    </g>
                </g>
            </g>
        </g>
    </g>
</svg>