<?xml version="1.0" encoding="UTF-8"?>
<svg width="62px" height="62px" viewBox="0 0 62 62" version="1.1" xmlns="http://www.w3.org/2000/svg" xmlns:xlink="http://www.w3.org/1999/xlink">
    <!-- Generator: Sketch 53.2 (72643) - https://sketchapp.com -->
    <title>分组 10</title>
    <desc>Created with Sketch.</desc>
    <g id="页面-1" stroke="none" stroke-width="1" fill="none" fill-rule="evenodd">
        <g id="画板" transform="translate(-648.000000, -858.000000)">
            <g id="分组-10" transform="translate(649.000000, 859.000000)">
                <circle id="椭圆形-copy-4" stroke="#2D99FF" cx="30" cy="30" r="30"></circle>
                <g id="gongjiao" transform="translate(13.000000, 9.000000)" fill="#2D99FF" fill-rule="nonzero">
                    <path d="M33.2093023,30.8221104 L33.2093023,32.9213814 C33.2093023,33.5919819 33.1355038,34.1751128 32.9879069,34.670774 C32.84031,35.1664353 32.5746356,35.5600486 32.1908837,35.851614 C31.8071317,36.1431795 31.2315038,36.2889622 30.4639999,36.2889622 L30.4639999,39.0005207 C30.4639999,39.7585908 30.1909457,40.4073239 29.6448371,40.9467199 C29.0987286,41.4861159 28.4419224,41.755814 27.6744185,41.755814 C26.9069147,41.755814 26.2574883,41.4861159 25.7261395,40.9467199 C25.1947907,40.4073239 24.9291163,39.7585908 24.9291162,39.0005207 L24.9291162,36.2889622 L8.280186,36.2889622 L8.280186,39.0005207 C8.280186,39.7585908 8.01451158,40.4073239 7.48316274,40.9467199 C6.95181389,41.4861159 6.30238755,41.755814 5.53488369,41.755814 C4.76737984,41.755814 4.11057364,41.4861159 3.56446509,40.9467199 C3.01835654,40.4073239 2.74530228,39.7585908 2.74530231,39.0005207 L2.74530231,36.2889622 C2.00731781,36.2889622 1.44644958,36.1431795 1.06269764,35.851614 C0.678945699,35.5600486 0.413271277,35.1664353 0.265674377,34.670774 C0.118077476,34.1751128 0.0368991879,33.5992711 0.0221395127,32.9432489 C0.00737983757,32.2872267 -1.27323475e-15,31.5801805 0,30.8221104 L0,6.19940995 C0,5.44133982 0.147596901,4.73429366 0.442790702,4.07827145 C0.737984504,3.42224924 1.13649614,2.84640752 1.6383256,2.35074629 C2.14015506,1.85508505 2.72316281,1.46147172 3.38734885,1.16990629 C4.05153489,0.878340856 4.76737985,0.73255814 5.53488374,0.73255814 L27.6744186,0.73255814 C28.4419225,0.73255814 29.1577674,0.878340856 29.8219535,1.16990629 C30.4861395,1.46147172 31.0691473,1.85508505 31.5709767,2.35074629 C32.0728062,2.84640752 32.4713178,3.42224924 32.7665116,4.07827145 C33.0617054,4.73429366 33.2093023,5.44133982 33.2093023,6.19940995 L33.2093023,30.8221104 L33.2093023,30.8221104 Z M10.9812092,3.44411661 C10.5974573,3.44411661 10.2727441,3.57532106 10.0070697,3.83772995 C9.74139527,4.10013884 9.60855806,4.42086081 9.60855806,4.79989587 C9.60855806,5.20808748 9.74139527,5.54338773 10.0070697,5.80579661 C10.2727441,6.0682055 10.5974573,6.19940995 10.9812092,6.19940995 L22.2280929,6.19940995 C22.6118449,6.19940995 22.9365581,6.0682055 23.2022325,5.80579661 C23.4679069,5.54338773 23.6007441,5.20808748 23.6007441,4.79989587 C23.6007441,4.42086081 23.4679069,4.10013884 23.2022325,3.83772995 C22.9365581,3.57532106 22.6118449,3.44411661 22.2280929,3.44411661 L10.9812092,3.44411661 Z M6.81897673,31.2594585 C7.37984495,31.2594585 7.85953487,31.0626519 8.25804649,30.6690386 C8.65655811,30.2754252 8.85581391,29.8016314 8.85581391,29.2476571 C8.85581391,28.6936828 8.65655811,28.219889 8.25804649,27.8262756 C7.85953487,27.4326623 7.37984495,27.2358557 6.81897673,27.2358557 C6.22858912,27.2358557 5.74151935,27.4326623 5.35776741,27.8262756 C4.97401547,28.219889 4.7821395,28.6936828 4.7821395,29.2476571 C4.7821395,29.8016314 4.97401547,30.2754252 5.35776741,30.6690386 C5.74151935,31.0626519 6.22858912,31.2594585 6.81897673,31.2594585 L6.81897673,31.2594585 Z M26.2132092,31.1719889 C26.7445581,31.1719889 27.1947286,30.9824714 27.5637208,30.6034363 C27.9327131,30.2244012 28.1172092,29.7724748 28.1172092,29.247657 C28.1172092,28.7228393 27.9327131,28.2709129 27.5637208,27.8918778 C27.1947286,27.5128427 26.7445581,27.3233252 26.2132092,27.3233252 C25.652341,27.3233252 25.1874108,27.5128427 24.8184185,27.8918778 C24.4494263,28.2709129 24.2649302,28.7228393 24.2649302,29.247657 C24.2649302,29.7724748 24.4494263,30.2244012 24.8184185,30.6034363 C25.1874108,30.9824714 25.652341,31.1719889 26.2132092,31.1719889 Z M30.4639999,8.91096842 L2.74530227,8.91096842 L2.74530227,19.844672 L30.4639999,19.844672 L30.4639999,8.91096842 Z" id="形状"></path>
                </g>
            </g>
        </g>
    </g>
</svg>