<?xml version="1.0" encoding="UTF-8"?>
<svg width="62px" height="62px" viewBox="0 0 62 62" version="1.1" xmlns="http://www.w3.org/2000/svg" xmlns:xlink="http://www.w3.org/1999/xlink">
    <!-- Generator: Sketch 53.2 (72643) - https://sketchapp.com -->
    <title>分组 9</title>
    <desc>Created with Sketch.</desc>
    <g id="页面-1" stroke="none" stroke-width="1" fill="none" fill-rule="evenodd">
        <g id="画板" transform="translate(-514.000000, -858.000000)">
            <g id="分组-9" transform="translate(515.000000, 859.000000)">
                <circle id="椭圆形" stroke="#2D99FF" cx="30" cy="30" r="30"></circle>
                <g id="yiyuan2" transform="translate(9.000000, 9.000000)" fill="#2D99FF" fill-rule="nonzero">
                    <path d="M30.9018643,6.95779389 L23.9432936,0 C23.3707923,1.04401864 22.2762817,1.76100466 21,1.76100466 C19.7244951,1.76100466 18.6292077,1.04401864 18.0567064,0 L11.0989125,6.95779389 C10.3190057,7.73770067 10.3190057,9.01398239 11.0989125,9.79388918 L17.631797,16.3275505 L17.631797,9.1786639 C17.631797,8.73588814 17.9899016,8.37700673 18.434231,8.37700673 L23.5665458,8.37700673 C24.0093216,8.37700673 24.3674262,8.73588814 24.3674262,9.1786639 L24.3674262,16.3283273 L30.9018643,9.79466598 C31.6817711,9.01475919 31.6817711,7.73847747 30.9018643,6.95779389 M35.0414293,30.9018643 L42,23.9432936 C40.9552046,23.3707923 40.2382185,22.2762817 40.2382185,21 C40.2382185,19.7252719 40.9552046,18.6284309 42,18.0559296 L35.0414293,11.0981357 C34.2615225,10.3190057 32.9852408,10.3190057 32.2061108,11.0981357 L25.6740031,17.631797 L32.8213361,17.631797 C33.2641119,17.631797 33.6237701,17.9906784 33.6237701,18.4334542 L33.6237701,23.565769 C33.6237701,24.0093216 33.2641119,24.3674262 32.8213361,24.3674262 L25.6740031,24.3674262 L32.2061108,30.9010875 C32.9852408,31.6817711 34.2622993,31.6817711 35.0414293,30.9018643 M11.0989125,35.0414293 L18.0567064,42 C18.6292077,40.9559814 19.7244951,40.2389953 21,40.2389953 C22.2762817,40.2389953 23.3707923,40.9559814 23.9432936,42 L30.9018643,35.0414293 C31.6817711,34.2615225 31.6817711,32.9860176 30.9018643,32.2061108 L24.3674262,25.6740031 L24.3674262,32.8221129 C24.3674262,33.2641119 24.0093216,33.6245469 23.5665458,33.6245469 L18.434231,33.6245469 C17.9906784,33.6245469 17.631797,33.2641119 17.631797,32.8221129 L17.631797,25.6740031 L11.0989125,32.2061108 C10.3190057,32.9860176 10.3190057,34.2615225 11.0989125,35.0414293 M6.95857069,11.0989125 L0,18.0567064 C1.04479544,18.6299845 1.76100466,19.7260487 1.76100466,21.0007768 C1.76100466,22.2762817 1.04479544,23.3707923 0,23.9440704 L6.95857069,30.9026411 C7.73847747,31.6825479 9.01553599,31.6825479 9.79466598,30.9026411 L16.3275505,24.3689798 L9.1786639,24.3689798 C8.73588814,24.3689798 8.37700673,24.0108752 8.37700673,23.5673226 L8.37700673,18.4357846 C8.37700673,17.992232 8.73588814,17.6333506 9.1786639,17.6333506 L16.3275505,17.6333506 L9.79466598,11.0996893 C9.01553599,10.3190057 7.73847747,10.3190057 6.95857069,11.0989125" id="形状"></path>
                </g>
            </g>
        </g>
    </g>
</svg>