<?xml version="1.0" encoding="UTF-8"?>
<svg width="62px" height="62px" viewBox="0 0 62 62" version="1.1" xmlns="http://www.w3.org/2000/svg" xmlns:xlink="http://www.w3.org/1999/xlink">
    <!-- Generator: Sketch 53.2 (72643) - https://sketchapp.com -->
    <title>分组 16</title>
    <desc>Created with Sketch.</desc>
    <g id="页面-1" stroke="none" stroke-width="1" fill="none" fill-rule="evenodd">
        <g id="画板" transform="translate(-1316.000000, -858.000000)">
            <g id="分组-16" transform="translate(1317.000000, 859.000000)">
                <circle id="椭圆形-copy-9" stroke="#2D99FF" cx="30" cy="30" r="30"></circle>
                <g id="yanglao" transform="translate(12.000000, 10.000000)" fill="#2D99FF" fill-rule="nonzero">
                    <path d="M29.5930635,23.6671562 C28.9464751,23.6671562 28.3397058,23.7751562 27.7765481,23.9816825 C27.7329365,23.9437878 27.7120789,23.9077878 27.6684673,23.8717878 L16.12089,14.1214707 C15.3396745,13.4621022 14.2171514,13.2404179 13.2008129,13.4772601 L13.1818514,13.4583127 C13.1609937,13.4772601 13.115486,13.4772601 13.0965244,13.4943127 C12.7142909,13.5891173 12.353821,13.7563533 12.0346783,13.9869443 C4.9430626,17.6077869 0.0775316302,26.3216829 0.0775316302,33.5368418 C0.0775316302,34.5448419 -0.0969145377,35.0242104 0.0775316302,35.9962105 L22.3080402,35.9962105 L22.3080402,26.4941039 L23.4097056,27.4301041 C23.6031133,27.5949462 23.8003133,27.7237883 24.0164749,27.8317883 C24.1245556,28.7469464 25.0347095,29.4669465 26.136375,29.4669465 C27.1735711,29.4669465 28.0382173,28.843578 28.2354173,28.0174726 L28.2790289,28.0174726 L28.2790289,27.6517883 C28.2790289,27.0454724 28.8611481,26.5717882 29.5532443,26.5717882 C30.2699905,26.5717882 30.8274597,27.0644198 30.8274598,27.6555778 L30.8274598,36 L34.2462253,36 L34.2462253,27.6517883 C34.2860445,25.4501038 32.1870021,23.6690509 29.5930635,23.6690509 M35.9508676,5.13094311 C35.7783176,4.50757462 33.6356637,3.68525871 32.9682175,3.84441663 L32.5567521,3.94483769 L30.522179,1.81515319 C30.3060174,1.59157421 29.2233135,0.568416175 28.404175,0.126942419 C27.2342481,-0.496426073 18.1744247,1.29220573 17.0044977,2.9595744 C16.5058092,3.68336396 16.29344,4.52652197 16.183463,4.92820627 L15.468613,8.20231197 L15.0590438,8.30273304 C14.3878053,8.4637857 12.9827552,10.1709438 13.1572014,10.7943123 C13.3278552,11.4176808 14.0218476,11.798523 14.7120476,11.6185229 L17.4387169,10.955365 C18.0853054,14.1688391 21.1362171,16.6035763 24.7920018,16.6035763 C28.921825,16.6035763 32.2761213,13.5094706 32.2761214,9.68778584 C32.2761214,8.88631203 32.124429,8.10189087 31.8400059,7.37810132 L35.0426099,6.5747328 C35.7328099,6.39473277 36.1480677,5.75241689 35.9508676,5.1290484 M30.2851597,1.55367946 L30.522179,1.81515319 C30.6112982,1.91557426 30.5676867,1.85304795 30.2851597,1.55367946" id="形状"></path>
                </g>
            </g>
        </g>
    </g>
</svg>