<?xml version="1.0" encoding="UTF-8"?>
<svg width="62px" height="62px" viewBox="0 0 62 62" version="1.1" xmlns="http://www.w3.org/2000/svg" xmlns:xlink="http://www.w3.org/1999/xlink">
    <!-- Generator: Sketch 53.2 (72643) - https://sketchapp.com -->
    <title>分组 15</title>
    <desc>Created with Sketch.</desc>
    <g id="页面-1" stroke="none" stroke-width="1" fill="none" fill-rule="evenodd">
        <g id="画板" transform="translate(-1182.000000, -858.000000)">
            <g id="分组-15" transform="translate(1183.000000, 859.000000)">
                <circle id="椭圆形-copy-8" stroke="#2D99FF" cx="30" cy="30" r="30"></circle>
                <g id="zhengwu" transform="translate(11.000000, 7.000000)" fill="#2D99FF" fill-rule="nonzero">
                    <path d="M19.4999554,0 L0,12.1874749 L39,12.1874749 L19.4999554,0 Z M30.4687221,14.624961 L31.6874443,17.0625362 L31.6874443,31.6875418 L36.5625112,31.6875418 L36.5625111,17.0624917 L37.7812332,14.624961 L30.4687221,14.624961 L30.4687221,14.624961 Z M20.7187221,14.624961 L21.9374888,17.0625362 L21.9374888,31.6875418 L26.8124665,31.6875418 L26.8124665,17.0624917 L28.0312332,14.624961 L20.7187221,14.624961 L20.7187221,14.624961 Z M10.9687221,14.624961 L12.1874443,17.0625362 L12.1874443,31.6875418 L17.062422,31.6875418 L17.062422,17.0624917 L18.2811887,14.624961 L10.9687221,14.624961 L10.9687221,14.624961 Z M1.21876671,14.624961 L2.43748885,17.0625362 L2.43748885,31.6875418 L7.31246654,31.6875418 L7.31246654,17.0624917 L8.53123325,14.624961 L1.21876671,14.624961 L1.21876671,14.624961 Z M1.21876671,34.1249833 L0,39 L39,39 L37.7812333,34.1249387 L1.21876671,34.1249387 L1.21876671,34.1249833 Z M21.9374888,7.3125028 C21.9374888,8.6586464 20.8461451,9.74998886 19.4999554,9.74998886 C18.1537657,9.74998886 17.0624666,8.6586464 17.0624666,7.3125028 C17.0624666,5.9663592 18.1538103,4.87501674 19.4999554,4.87501674 C20.8461897,4.87501674 21.9374888,5.9663592 21.9374888,7.3125028 Z" id="形状"></path>
                </g>
            </g>
        </g>
    </g>
</svg>