<?xml version="1.0" encoding="UTF-8"?>
<svg width="62px" height="62px" viewBox="0 0 62 62" version="1.1" xmlns="http://www.w3.org/2000/svg" xmlns:xlink="http://www.w3.org/1999/xlink">
    <!-- Generator: Sketch 53.2 (72643) - https://sketchapp.com -->
    <title>分组 12</title>
    <desc>Created with Sketch.</desc>
    <g id="页面-1" stroke="none" stroke-width="1" fill="none" fill-rule="evenodd">
        <g id="画板" transform="translate(-781.000000, -858.000000)">
            <g id="分组-12" transform="translate(782.000000, 859.000000)">
                <circle id="椭圆形-copy-5" stroke="#2D99FF" cx="30" cy="30" r="30"></circle>
                <g id="tingche" transform="translate(18.000000, 10.000000)" fill="#2D99FF" fill-rule="nonzero">
                    <path d="M17.4999819,26.6000305 L5.83329708,26.6000305 L5.83329708,39.2000174 C5.83329708,40.5258216 4.25933843,42 2.91664854,42 C1.57395861,42 1.25775375e-15,40.9257756 1.25775375e-15,39.5999714 L0,2.42298246 C0,1.37171197 0.681352865,0.335309309 1.62051124,0 L16.2037087,0 C23.3633933,0 29.1666667,5.78563952 29.1666667,12.9231237 C29.1666667,20.0606079 24.6596665,26.6000305 17.4999819,26.6000305 Z M17.4999819,5.6000087 L5.83329708,5.6000087 L5.83329708,21.0000218 L17.4998007,21.0000218 C20.7212603,21.0000218 23.333279,16.7018634 23.333279,13.300037 C23.333279,9.89821047 20.7213056,5.6000087 17.4999819,5.6000087 Z" id="形状"></path>
                </g>
            </g>
        </g>
    </g>
</svg>