<?xml version="1.0" encoding="UTF-8"?>
<svg width="62px" height="62px" viewBox="0 0 62 62" version="1.1" xmlns="http://www.w3.org/2000/svg" xmlns:xlink="http://www.w3.org/1999/xlink">
    <!-- Generator: Sketch 53.2 (72643) - https://sketchapp.com -->
    <title>分组 13</title>
    <desc>Created with Sketch.</desc>
    <g id="页面-1" stroke="none" stroke-width="1" fill="none" fill-rule="evenodd">
        <g id="画板" transform="translate(-915.000000, -858.000000)">
            <g id="分组-13" transform="translate(916.000000, 859.000000)">
                <circle id="椭圆形-copy-6" stroke="#2D99FF" cx="30" cy="30" r="30"></circle>
                <g id="xuexiao" transform="translate(9.000000, 12.000000)" fill="#2D99FF" fill-rule="nonzero">
                    <path d="M23.5468139,21.3655756 C22.1882753,21.8906513 20.6625319,21.8906513 19.3039932,21.3655756 L11.8633815,18.4881606 L9,17.375 L9,27.3724419 C9,28.107548 9.45981308,28.7796449 10.1495327,29.0316813 L19.3248938,32.5811932 C20.6834325,33.1062689 22.2091759,33.1062689 23.5677145,32.5811932 L32.4504673,29.1576994 C33.1401869,28.88466 33.6,28.2335661 33.6,27.4984601 L33.6,17.5010182 L31.0292268,18.4881606 L23.5468139,21.3655756 L23.5468139,21.3655756 Z" id="路径"></path>
                    <path d="M40.8664251,7.53477417 L23.1490691,0.766672548 C21.7845808,0.244442484 20.2521554,0.244442484 18.8876671,0.766672548 L1.14931901,7.53477417 C-0.383106335,8.11967184 -0.383106335,10.2712597 1.14931901,10.8561574 L18.866675,17.624259 C20.2311633,18.1464891 21.7635887,18.1464891 23.128077,17.624259 L36.6050231,12.464626 L37.0248657,12.2975124 L37.0248657,21.4469831 C37.0248657,22.0736591 37.5286767,22.575 38.1584406,22.575 L38.4943146,22.575 C39.1240785,22.575 39.6278895,22.0736591 39.6278895,21.4469831 L39.6278895,11.2948306 L40.8664251,10.814379 C42.3778583,10.2294813 42.3778583,8.09878264 40.8664251,7.53477417 Z" id="路径"></path>
                </g>
            </g>
        </g>
    </g>
</svg>