<?xml version="1.0" encoding="UTF-8"?>
<svg width="42px" height="36px" viewBox="0 0 42 36" version="1.1" xmlns="http://www.w3.org/2000/svg" xmlns:xlink="http://www.w3.org/1999/xlink">
    <title>养殖区icon</title>
    <g id="页面-1" stroke="none" stroke-width="1" fill="none" fill-rule="evenodd">
        <g id="区级" transform="translate(-79.000000, -603.000000)" fill-rule="nonzero">
            <g id="产业布局" transform="translate(40.000000, 383.000000)">
                <g id="养殖区" transform="translate(0.000000, 200.000000)">
                    <g id="养殖区icon" transform="translate(39.000000, 20.000000)">
                        <path d="M38.5692993,32.9711763 L36.3009125,32.9711763 L36.3009125,28.4513113 L38.5411788,28.4513113 L38.5411788,26.1095819 L36.3009125,26.1095819 L36.3009125,22.3609452 C36.3571535,21.972994 36.1368763,21.589717 35.8041171,21.3700338 C35.8041171,21.3700338 34.2293692,20.1313944 33.2873326,19.3554921 C33.1514168,19.2199429 32.9826939,19.1077642 32.7905371,19.0516749 L32.7905371,18.9955856 C32.5983804,19.0516749 32.4015369,19.1311348 32.2937417,19.2994028 C31.4923075,20.0145417 30.6627528,20.6782654 29.7769572,21.2858998 C29.444198,21.505583 29.2520412,21.8935341 29.2801617,22.2768112 L29.2801617,26.0254479 L28.0100526,26.0254479 L28.0100526,22.2768112 C28.0662936,21.88886 27.8460164,21.505583 27.5132571,21.2858998 C27.5132571,21.2858998 25.9385093,20.0472605 24.9964726,19.2713581 C24.8324364,18.9955856 24.4434362,18.9394962 24.1950385,19.1077642 C24.110677,19.1638535 24.0591227,19.2433134 24.0028817,19.3274474 C23.2014475,20.0425863 22.3718929,20.70631 21.4860972,21.3139444 C21.153338,21.5336276 20.9611813,21.9215788 20.9893018,22.3048559 L20.9893018,26.0534926 L19.7191926,26.0534926 L19.7191926,22.3001818 C19.7754336,21.9122306 19.5551564,21.5289535 19.2223972,21.3092703 C19.2223972,21.3092703 17.6476493,20.070631 16.7056127,19.2947286 C16.5415764,19.0189561 16.1525762,18.9628668 15.9041785,19.1311348 C15.819817,19.1872241 15.7682628,19.266684 15.7120218,19.350818 C14.9105876,20.0659569 14.0810329,20.7296806 13.1952373,21.337315 C12.862478,21.5569982 12.6703213,21.9449494 12.6984418,22.3282264 L12.6984418,26.1049078 L11.2596097,26.1049078 L11.2596097,22.3562711 C11.3158507,21.9683199 11.123694,21.5850428 10.7628142,21.3653596 C10.7628142,21.3653596 9.18806639,20.1267203 8.24602973,19.350818 C8.08199349,19.0750454 7.69299328,19.0189561 7.44459555,19.1872241 C7.36023406,19.2433134 7.30867982,19.3227733 7.25243882,19.4069073 C6.45100465,20.1220462 5.62144998,20.7857699 4.73565431,21.3934043 C4.4028951,21.6130875 4.21073836,22.0010387 4.23885886,22.3843158 L4.23885886,26.1329525 L1.99859258,26.1329525 L1.99859258,28.4746819 L4.23885886,28.4746819 L4.23885886,33.0225915 L1.99859258,33.0225915 L1.99859258,36 L38.5974198,36 L38.5974198,32.9665022 L38.5692993,32.9711763 L38.5692993,32.9711763 Z M12.5531526,32.999221 L11.2830434,32.999221 L11.2830434,28.4513113 L12.5531526,28.4513113 L12.5531526,32.999221 Z M20.9049403,32.999221 L19.6348311,32.999221 L19.6348311,28.4513113 L20.9049403,28.4513113 L20.9049403,32.999221 Z M29.2801617,32.999221 L28.0100526,32.999221 L28.0100526,28.4513113 L29.2801617,28.4513113 L29.2801617,32.999221 Z" fill="#00BAFF"></path>
                        <path d="M35.5510326,6.31004934 L35.8837918,6.44559855 C37.2382625,6.96909894 38.3162149,7.76837185 39.1457695,8.67982342 C41.1376381,10.8299143 41.8265903,13.4520904 41.8828313,13.5876396 L41.8828313,13.5876396 L42,14.2747338 L41.8078433,14.8823682 C41.4516503,15.9574137 40.4018184,16.7005972 39.211384,16.6725526 C38.6067933,16.6725526 37.9975159,16.5089587 37.4444794,16.2051415 C37.116407,16.1770969 36.7836477,16.1490522 36.4508885,16.1490522 C35.9540931,16.1490522 35.4010566,16.1770969 34.7355382,16.2331862 C34.627743,16.8969099 34.45902,17.5279148 34.2387427,18.1635939 C33.8497425,17.7756427 33.3248266,17.5559595 32.7717901,17.5279148 C32.3874767,17.5279148 32.026597,17.6120488 31.7219582,17.831732 C32.1343922,16.649182 32.3827899,15.4058686 32.4952719,14.1391846 L32.4952719,14.1391846 L32.4952719,13.9475461 L32.6874286,13.9195014 C33.9294173,13.7559076 35.1760927,13.6717736 36.4180813,13.6437289 C37.135154,13.5876396 37.8241061,13.6998182 38.4896246,13.9475461 C38.7099018,14.0550506 38.9582995,14.1391846 39.2066973,14.1672293 C39.2629383,14.1672293 39.342613,14.1672293 39.398854,14.11114 C39.2020105,13.480135 38.0443834,10.0072708 34.9745624,8.79200208 L34.9745624,8.79200208 L34.9464419,8.79200208 C33.952851,8.79200208 32.3218622,9.69877954 31.6844642,10.3344586 C31.6628331,10.3560314 31.6393161,10.3794849 31.5944752,10.4037299 L31.5565426,10.422045 C31.2587743,10.5510511 30.239323,10.6943651 25.6854248,10.6943651 L25.3643859,10.6941089 C24.2856271,10.6924101 23.1223574,10.6823565 21.9280462,10.6667332 L21.2081623,10.656713 C15.3056767,10.5697874 8.91464747,10.3625032 8.32570447,10.3625032 C7.90858376,10.4980525 4.45444934,11.7927811 4.45444934,16.2051415 C4.45444934,17.2287717 4.47788309,18.2757725 4.59036508,19.2947286 L4.59036508,19.2947286 L3.7889309,20.0379122 L3.73268991,20.0940016 C3.30150895,20.4211893 2.91719549,20.7997923 2.53756877,21.1783952 L2.53756877,21.1783952 L2.51882178,21.1877434 C2.01265282,20.0192158 1.96578533,18.294469 1.96578533,16.4949364 L1.96578533,16.4949364 L1.96578533,16.2378603 C1.96578533,15.8499091 1.96578533,15.4385874 2.02202632,15.0506362 C2.35009879,11.8535445 4.50600359,9.09581927 7.60394504,7.99272916 L7.60394504,7.99272916 L7.96482475,7.88055051 L8.36576156,7.88077675 C8.65594813,7.88767958 13.841452,8.05090478 19.2317869,8.14573894 L20.2877302,8.16335846 C20.4050585,8.16520536 20.522339,8.16701303 20.6395236,8.16877913 L21.3410941,8.17885864 C22.8569984,8.1995371 24.3403987,8.21241236 25.6854248,8.21241236 L26.0017862,8.21220029 C28.7907132,8.20840598 30.0149771,8.15431984 30.4940299,8.10023371 C31.707898,7.22150091 33.5029231,6.31004934 34.9979962,6.31004934 L34.9979962,6.31004934 L35.5510326,6.31004934 Z M33.6154051,8.52651283e-14 L33.9481643,0.135549208 C37.6272627,1.57050117 39.230131,5.12282524 39.755047,6.61386653 C39.5066492,7.2168268 39.3379263,7.63282264 39.2020105,7.88055051 C38.3724558,6.9971436 37.2945034,6.16982602 35.9400328,5.64632563 L35.9400328,5.64632563 L35.6072736,5.51077642 L35.0542372,5.51077642 C33.5357303,5.51077642 31.7407052,6.38950922 30.5502708,7.30096079 C30.0253549,7.35705012 28.7271253,7.41313944 25.7416658,7.41313944 C24.2991411,7.41313944 22.6938153,7.39820718 21.058589,7.37467756 L20.3563346,7.36408554 L20.3563346,7.36408554 L19.6527436,7.35255159 L19.6527436,7.35255159 L18.9501409,7.34018654 C13.5732501,7.24248505 8.4884625,7.08127759 8.41006596,7.08127759 L8.02106575,7.08127759 L7.66018603,7.19345625 C4.66066632,8.25915347 2.36415904,10.857959 1.89079734,13.900805 C1.85799009,14.1391846 1.75956835,14.3635419 1.60021886,14.5458323 C1.40806213,14.7608413 1.24871265,14.8075824 0.831591937,14.9665022 C0.69098945,15.0225915 0.555073713,14.9384575 0.498832719,14.8029083 C0.00203726627,13.564269 0.00203726627,11.7974552 0.00203726627,9.92313685 C-0.0776374761,6.25396001 2.18606256,2.92131914 5.66831747,1.68267982 L5.66831747,1.68267982 L6.02919719,1.57050117 L6.43013399,1.57072741 C6.84018024,1.5804814 17.0246667,1.90236302 23.7497972,1.90236302 L24.0661586,1.90215095 C26.8550857,1.89835664 28.0793495,1.8442705 28.5584023,1.79018437 C29.7722704,0.911451571 31.5672955,8.52651283e-14 33.0623686,8.52651283e-14 L33.0623686,8.52651283e-14 L33.6154051,8.52651283e-14 Z" id="形状结合" fill="#02D281"></path>
                    </g>
                </g>
            </g>
        </g>
    </g>
</svg>