<?xml version="1.0" encoding="UTF-8"?>
<svg width="42px" height="42px" viewBox="0 0 42 42" version="1.1" xmlns="http://www.w3.org/2000/svg" xmlns:xlink="http://www.w3.org/1999/xlink">
    <title>办公区icon</title>
    <g id="页面-1" stroke="none" stroke-width="1" fill="none" fill-rule="evenodd">
        <g id="区级" transform="translate(-79.000000, -480.000000)" fill-rule="nonzero">
            <g id="产业布局" transform="translate(40.000000, 383.000000)">
                <g id="办公区" transform="translate(0.000000, 80.000000)">
                    <g id="办公区icon" transform="translate(39.000000, 17.000000)">
                        <path d="M41.0609977,12.6611018 L29.9813444,12.6611018 L28.3031788,11.5692821 L28.3031788,10.427379 L33.182551,10.427379 C33.5915157,10.4223706 33.9863782,10.2370618 34.2684228,9.92654424 C34.5504674,9.61602671 34.7102927,9.1903172 34.7008912,8.75459098 L34.7008912,1.67278798 C34.705592,1.23706177 34.5504674,0.811352254 34.2684228,0.500834725 C33.9863782,0.190317195 33.5915157,0.00500834725 33.182551,0 L21.0076243,0 C20.5986596,0.00500834725 20.2037971,0.190317195 19.9217525,0.500834725 C19.6397079,0.811352254 19.4798826,1.23706177 19.4892841,1.67278798 L19.4892841,8.74958264 C19.4845833,9.18530885 19.6397079,9.61101836 19.9217525,9.92153589 C20.2037971,10.2320534 20.5986596,10.4173623 21.0076243,10.4223706 L25.9387047,10.4223706 L25.9387047,11.5943239 L24.2605391,12.6861436 L11.3193912,12.6861436 L11.3193912,12.5158598 L11.1078578,11.7646077 C10.938631,11.1135225 10.938631,10.427379 11.1078578,9.78130217 L11.4745158,8.68948247 C11.6766478,8.04340568 11.7565604,7.3572621 11.709553,6.67612688 L11.709553,5.61435726 C11.6155381,4.99833055 11.084354,4.56761269 10.5014618,4.6327212 L7.87844672,4.6327212 C7.33786118,4.65776294 6.89129051,5.09348915 6.83018084,5.66944908 L6.83018084,6.7312187 C6.7831734,7.41235392 6.86308605,8.09348915 7.06521803,8.74457429 L7.43187606,9.83639399 C7.60110283,10.4874791 7.60110283,11.1736227 7.43187606,11.8196995 L7.22034258,12.5709516 L7.22034258,12.7412354 L0.944849517,12.7412354 C0.441869924,12.7562604 0.0235037193,13.1819699 0,13.7228715 L0,16.5175292 C0,17.0784641 0.418366204,17.5392321 0.944849517,17.5542571 L1.88969903,17.5542571 C2.41618235,17.5692821 2.83454855,18.0250417 2.83454855,18.590985 L2.83454855,40.9632721 C2.83454855,41.524207 3.25291476,41.984975 3.77939807,42 L4.72424759,42 C5.2507309,41.984975 5.6690971,41.5292154 5.6690971,40.9632721 L5.6690971,18.5859766 C5.6690971,18.0250417 6.08746331,17.5642738 6.61394662,17.5492487 L35.3542946,17.5492487 C35.8807779,17.5642738 36.2991441,18.0200334 36.2991441,18.5859766 L36.2991441,40.9582638 C36.2991441,41.5191987 36.7175104,41.9799666 37.2439937,41.9949917 L38.1888432,41.9949917 C38.7153265,41.9799666 39.1336927,41.524207 39.1336927,40.9582638 L39.1336927,18.5859766 C39.1336927,18.0250417 39.5520589,17.5642738 40.0785422,17.5492487 L41.0233917,17.5492487 C41.2913341,17.5492487 41.5545758,17.4290484 41.7426055,17.2136895 C41.9259346,17.0033389 42.0199494,16.7178631 41.9964457,16.427379 L41.9964457,13.6327212 C41.9823435,13.1018364 41.568678,12.6761269 41.0609977,12.6611018 L41.0609977,12.6611018 Z" id="路径" fill="#00BAFF"></path>
                        <path d="M18.591442,30.1953255 C18.812377,30.1853088 19.0239104,30.2704508 19.1837357,30.4357262 C19.3388603,30.6010017 19.4281744,30.8263773 19.4281744,31.0617696 L19.4281744,31.0617696 L19.4281744,37.7228715 C19.4281744,37.9582638 19.343561,38.1836394 19.1837357,38.3489149 C19.0239104,38.5141903 18.812377,38.5993322 18.591442,38.5943239 L18.591442,38.5943239 L8.69637616,38.5943239 C8.47544119,38.5993322 8.26390772,38.5141903 8.10408243,38.3489149 C7.94895788,38.1836394 7.85964375,37.9582638 7.85964375,37.7228715 L7.85964375,37.7228715 L7.85964375,31.066778 C7.85964375,30.8313856 7.94425714,30.60601 8.10408243,30.4407346 C8.26390772,30.2754591 8.47544119,30.1903172 8.69637616,30.1953255 L8.69637616,30.1953255 Z M33.8171514,19.5626043 C34.0380863,19.557596 34.2496198,19.6427379 34.4094451,19.8080134 C34.5645697,19.9732888 34.6538838,20.1986644 34.6538838,20.4340568 L34.6538838,20.4340568 L34.6538838,37.7178631 C34.6538838,37.9532554 34.5692704,38.1786311 34.4094451,38.3439065 C34.2496198,38.509182 34.0380863,38.5943239 33.8171514,38.5893155 L33.8171514,38.5893155 L23.9455893,38.5893155 C23.7246543,38.5943239 23.5131208,38.509182 23.3532955,38.3439065 C23.198171,38.1786311 23.1088569,37.9532554 23.1088569,37.7178631 L23.1088569,37.7178631 L23.1088569,20.4340568 C23.1088569,20.1986644 23.1934702,19.9732888 23.3532955,19.8080134 C23.5131208,19.6427379 23.7246543,19.557596 23.9455893,19.5626043 L23.9455893,19.5626043 Z M18.591442,19.5676127 C18.812377,19.5626043 19.0239104,19.6477462 19.1837357,19.8080134 C19.3388603,19.9732888 19.4281744,20.1986644 19.4281744,20.4340568 L19.4281744,20.4340568 L19.4281744,27.0901503 C19.4281744,27.3255426 19.343561,27.5509182 19.1837357,27.7161937 C19.0239104,27.8814691 18.812377,27.966611 18.591442,27.9616027 L18.591442,27.9616027 L8.71987988,27.9616027 C8.49894491,27.966611 8.28741144,27.8814691 8.12758615,27.7161937 C7.9724616,27.5509182 7.88314747,27.3255426 7.88314747,27.0901503 L7.88314747,27.0901503 L7.88314747,20.4340568 C7.88314747,19.9582638 8.24980549,19.5676127 8.69637616,19.5676127 L8.69637616,19.5676127 Z" id="形状结合" fill="#02D281"></path>
                    </g>
                </g>
            </g>
        </g>
    </g>
</svg>