<?xml version="1.0" encoding="UTF-8"?>
<svg width="42px" height="38px" viewBox="0 0 42 38" version="1.1" xmlns="http://www.w3.org/2000/svg" xmlns:xlink="http://www.w3.org/1999/xlink">
    <title>地下管网icon</title>
    <g id="页面-1" stroke="none" stroke-width="1" fill="none" fill-rule="evenodd">
        <g id="区级" transform="translate(-339.000000, -602.000000)" fill-rule="nonzero">
            <g id="产业布局" transform="translate(40.000000, 383.000000)">
                <g id="地下管网" transform="translate(260.000000, 200.000000)">
                    <g id="地下管网icon" transform="translate(39.000000, 19.000000)">
                        <path d="M19.0862219,29.3205374 L18.4729114,29.2962252 C17.2462905,29.2476008 13.2229738,28.1049264 12.0208852,24.96865 C11.481172,23.5585413 11.186783,21.2488804 11.1622506,17.9424184 C11.1131857,12.4721689 11.0641209,8.55790147 11.0395885,8.21753039 C11.0395885,8.21753039 10.5980049,7.22072937 9.05246256,7.19641715 C7.38425807,7.22072937 7.26159598,8.02303263 7.1634663,8.48496481 C7.08986905,8.97120921 7.08986905,13.4689699 7.08986905,16.6052463 L7.97303613,16.6295585 L7.94850371,20.9085093 L0.0245324189,20.9571337 L0.0245324189,16.678183 L1.03036159,16.678183 C1.00582917,14.4900832 0.932231916,7.56110045 1.64367206,5.51887396 C2.96842268,1.62891875 7.35972566,0.753678823 8.80713837,0.753678823 C9.83749996,0.753678823 12.9531172,0.753678823 15.2591645,3.57389635 C17.393485,6.19961612 17.0745635,10.5515035 17.0500311,10.7460013 C17.0500311,14.1497121 17.0500311,20.762636 17.0745635,21.2245681 C17.0990959,21.540627 17.8596009,22.5131158 18.6446383,22.6833013 L19.1352867,22.7805502 L19.1352867,23.2911068 C19.1352867,25.2117722 19.1598191,28.4696097 19.1352867,28.6884197 L19.0862219,29.3205374 L19.0862219,29.3205374 Z M4.09691395,37.6110045 C1.79086658,37.6110045 1.22662094,36.8087012 1.10395885,36.565579 L1.05489401,36.2981446 L1.03036159,26.8163788 L0.0245324189,26.7920665 L1.77635684e-15,23.193858 L7.97303613,23.2424824 L7.99756855,26.7677543 L7.04080421,26.7920665 L7.01627179,36.1765835 C7.01627179,36.2738324 6.99173937,36.5898912 6.69735035,36.9059501 C6.25576681,37.3678823 5.44619699,37.5866923 4.24410846,37.6110045 L4.09691395,37.6110045 L4.09691395,37.6110045 Z M5.74785158,36.1522713 L5.74785158,36.2627812 L5.74785158,36.1522713 Z M24.4588216,14.4900832 C22.0546445,14.4900832 21.4658665,13.6391555 21.3432044,13.3474088 L21.2696071,13.0556622 L21.2450747,3.96289187 L19.2334164,3.93857965 L19.208884,1.42108547e-14 L29.0463839,1.42108547e-14 L29.0463839,3.93857965 L27.2555173,3.96289187 L27.2309849,13.371721 L27.0837904,13.5419066 C26.9856607,13.6148433 26.2496882,14.4900832 24.4588216,14.4900832 L24.4588216,14.4900832 Z" fill="#00BAFF"></path>
                        <path d="M41.4597879,32.9673704 L41.4597879,38 L15.2836969,38 L15.2836969,32.9673704 L41.4597879,32.9673704 Z M24.9004051,16.2162508 C26.004364,16.2162508 26.8875311,17.2130518 26.8875311,18.4043506 L26.8875311,27.5214331 C26.8875311,28.7370441 26.004364,29.7338452 24.9004051,29.7338452 L23.3303303,29.7338452 C22.2263715,29.7338452 21.3432044,28.7370441 21.3432044,27.5457454 L21.3432044,18.4043506 C21.3432044,17.1887396 22.2263715,16.2162508 23.3303303,16.2162508 L24.9004051,16.2162508 Z M40.0123751,12.8854766 C41.116334,12.8854766 41.9995011,13.8822777 41.9995011,15.0492642 L41.9995011,27.4971209 C42.0240335,28.6884197 41.1408664,29.6609085 40.0123751,29.6609085 L38.4423003,29.6609085 C37.3383415,29.6609085 36.4551744,28.6641075 36.4551744,27.4971209 L36.4551744,15.0492642 C36.4551744,13.8336532 37.3383415,12.8854766 38.4423003,12.8854766 L40.0123751,12.8854766 Z M32.4073253,7.53678823 C33.5112842,7.53678823 34.3944512,8.50927703 34.3944512,9.6762636 L34.3944512,27.5214331 C34.4189836,28.7127319 33.4867517,29.6609085 32.4073253,29.6609085 L30.8372505,29.6609085 C29.7332916,29.6609085 28.8501246,28.6884197 28.8501246,27.5214331 L28.8501246,9.6762636 C28.8501246,8.48496481 29.7332916,7.53678823 30.8372505,7.53678823 L32.4073253,7.53678823 Z" id="形状结合" fill="#02D281"></path>
                    </g>
                </g>
            </g>
        </g>
    </g>
</svg>