<?xml version="1.0" encoding="UTF-8"?>
<svg width="42px" height="42px" viewBox="0 0 42 42" version="1.1" xmlns="http://www.w3.org/2000/svg" xmlns:xlink="http://www.w3.org/1999/xlink">
    <title>大棚区icon</title>
    <g id="页面-1" stroke="none" stroke-width="1" fill="none" fill-rule="evenodd">
        <g id="区级" transform="translate(-339.000000, -480.000000)" fill-rule="nonzero">
            <g id="产业布局" transform="translate(40.000000, 383.000000)">
                <g id="大棚区" transform="translate(260.000000, 80.000000)">
                    <g id="大棚区icon" transform="translate(39.000000, 17.000000)">
                        <path d="M24.6521739,0 C34.1300928,0 41.8327604,7.43903631 41.9973134,16.6768597 L42,16.9787234 L42,42 L36.5217391,42 L36.5217391,16.9787234 C36.5217391,10.6544755 31.3583031,5.5105534 24.932347,5.36487486 L24.6521739,5.36170213 L17.3478261,5.36170213 C10.8860945,5.36170213 5.63034804,10.4152778 5.48150258,16.7045115 L5.47826087,16.9787234 L5.47826087,42 L0,42 L0,16.9787234 C0,7.70246232 7.60075449,0.163681266 17.0394001,0.0026294662 L17.3478261,0 L24.6521739,0 Z" id="路径" fill="#32C5FF"></path>
                        <path d="M34,42 L32.015822,42 L32.0039169,26.1834263 C31.759863,21.9607046 27.1453159,18.0218134 21.5003294,18.0218134 C15.8546841,18.0218134 11.2408113,21.9600441 10.9960831,26.1834263 L10.984178,26.3843495 L10.984178,42 L9,42 L9.1805602,24.7802895 C10.2196068,19.7664948 14.9862574,16 21.5003294,16 C28.0144014,16 32.8399069,19.7538827 33.8789651,24.7676619" id="路径" fill="#32C5FF"></path>
                        <path d="M22.7490487,41.9670914 L19.6895799,41.9670914 L20.2168457,34.3015378 C19.3229099,34.1336041 16.8581766,33.5007369 16.2033063,32.0656004 C15.8681724,31.3285996 15.928306,30.5057986 16.5267067,29.6037976 C16.773107,29.2671972 17.2563728,29.0809317 17.7667734,29.0809317 C18.7853745,29.0809317 20.2234415,29.8164673 20.9765771,31.4136692 C21.3505775,29.9448023 22.1997785,28 24.0741807,28 C24.4386476,28 24.8265816,28.0770001 25.2277168,28.2302668 C25.7190521,28.4422005 26.6415837,29.4087334 26.6151837,30.7089349 C26.5931836,31.7774014 25.4770476,33.3482032 22.3706439,34.6110047 L22.7490444,41.9670914 L22.7490487,41.9670914 Z" id="路径" fill="#02D281"></path>
                    </g>
                </g>
            </g>
        </g>
    </g>
</svg>