<?xml version="1.0" encoding="UTF-8"?>
<svg width="42px" height="42px" viewBox="0 0 42 42" version="1.1" xmlns="http://www.w3.org/2000/svg" xmlns:xlink="http://www.w3.org/1999/xlink">
    <title>水果icon</title>
    <g id="页面-1" stroke="none" stroke-width="1" fill="none" fill-rule="evenodd">
        <g id="区级" transform="translate(-210.000000, -823.000000)" fill-rule="nonzero">
            <g id="生产销售" transform="translate(40.000000, 743.000000)">
                <g id="编组" transform="translate(11.000000, 80.000000)">
                    <g id="水果" transform="translate(128.000000, 0.000000)">
                        <g id="水果icon" transform="translate(31.000000, 0.000000)">
                            <path d="M27.5252429,8.38065936 C28.9780696,8.37295731 30.4233295,8.59556797 31.8096491,9.04078049 C39.2256901,11.4223985 43.3528476,19.5116336 41.0279176,27.1085405 C38.7030047,34.7054606 30.8063705,38.9332805 23.3903424,36.5516448 L23.3903424,36.5516448 L23.6046976,36.2068099 C23.8813664,35.7413931 24.1212803,35.2538149 24.3220429,34.7487201 L24.3220429,34.7487201 L24.4853916,34.3265156 C25.0593189,32.7696959 25.3575718,31.119166 25.3648523,29.4526173 L25.3648523,29.4526173 L25.3598613,28.9980405 C25.313743,27.3331225 24.9621467,25.6905252 24.3220512,24.1564939 L24.3220512,24.1564939 L24.1480963,23.7550724 C23.4872624,22.2950742 22.5747325,20.9677186 21.4532479,19.8373524 L21.4532479,19.8373524 L21.1465817,19.5275026 C20.0043335,18.4118719 18.6682752,17.522992 17.2061429,16.9075928 L17.2061429,16.9075928 L16.7632109,16.7227402 C16.1683354,16.4878627 15.5566974,16.2994993 14.9335389,16.1593772 L14.9335389,16.1593772 L15.0934723,15.8558978 C17.5951427,11.2403124 22.3539627,8.37006144 27.525245,8.38424597 L27.525245,8.38424597 Z M17.2074984,0.462032324 C19.3151744,-0.34534327 21.6786347,-0.0861944349 23.57624,1.17362187 L23.57624,1.17362187 L23.7996115,1.32861031 C25.632386,2.65336636 26.7440395,4.79898251 26.7794265,7.10752926 L26.7794265,7.10752926 L26.5173833,7.21378244 C24.41001,8.01964882 22.0479229,7.76236196 20.1486098,6.50690648 L20.1486098,6.50690648 L19.9250954,6.35181152 C18.0911722,5.02612813 16.9794098,2.8786009 16.9454233,0.568509332 L16.9454233,0.568509332 Z M30.5729296,3.17848321 C31.8086799,2.44388759 33.3134592,2.33710026 34.6422445,2.90107921 L34.6422445,2.90107921 L34.6347396,3.14459677 C34.5521091,4.59941485 33.796803,5.93332061 32.5929421,6.72779594 L32.5929421,6.72779594 L32.3777518,6.8639388 C31.1420016,7.59853479 29.6372222,7.70532212 28.3084367,7.14134317 L28.3084367,7.14134317 L28.3169852,6.90244803 C28.4054404,5.44836292 29.1587874,4.11576939 30.357739,3.3146262 L30.357739,3.3146262 Z" id="形状结合" fill="#00BAFF"></path>
                            <path d="M11.990014,17.1329701 L12.4697656,17.1414583 C12.9491525,17.1591246 13.4271967,17.2043017 13.9016476,17.2767797 L14.3748173,17.3583502 L14.6699965,17.4211381 C20.054681,18.6381067 23.9431297,23.4601249 24.0932135,29.1066859 L24.097679,29.4154812 L24.0912476,29.8317331 C24.0241331,31.9101574 23.4339248,33.9357997 22.3779525,35.7118742 L22.1605648,36.0637032 L21.9701954,36.353824 C19.7070299,39.7003824 15.9786003,41.7042481 11.9899355,41.6978903 L11.989,41.6969701 L11.6898953,41.6941177 C5.30639723,41.5334685 0.160506922,36.2620687 0.00368272251,29.7228755 L-7.10542736e-15,29.4154369 C-7.10542736e-15,22.6320049 5.36809218,17.1329701 11.990014,17.1329701 Z M11.9899343,18.7499417 L11.7102321,18.7564653 C6.69032582,18.9406638 2.46642955,22.7166839 1.62949608,27.8170104 C0.658057448,33.7369645 4.55537058,39.3427398 10.3343734,40.3378588 C16.1133762,41.3329911 21.5856806,37.3406215 22.5571064,31.4206674 C23.5126198,25.5977617 19.7577042,20.0788184 14.1349121,18.9524576 L13.8522291,18.899819 L13.3884838,18.8406177 C12.9239684,18.7886481 12.4573006,18.7583852 11.9899343,18.7499417 Z M12.5487271,31.5563812 L17.0939414,37.077851 C15.5568228,38.1143107 13.7553301,38.6630794 11.9151263,38.6554139 L11.9151263,38.6554139 L12.5487271,31.5563812 Z M10.9097338,31.4065039 L10.3135412,38.5055449 C8.5090664,38.1657262 6.84693439,37.27531 5.54503561,35.9510199 L5.54503561,35.9510199 L10.9097338,31.4065039 Z M13.8533208,30.5422249 C14.2625212,30.579427 14.8587219,30.6166124 15.7156229,30.6921101 C16.9069243,30.8047931 18.5844263,30.9546616 20.968129,31.1428423 C20.7404116,32.3959967 20.2580825,33.5861235 19.5524274,34.6360171 L19.5524274,34.6360171 L19.3460531,34.9346579 C19.062371,35.3262947 18.7449299,35.6913589 18.3974257,36.0254001 L18.3974257,36.0254001 L13.8522286,30.5422249 Z M2.89952409,29.4908511 L9.90430217,30.1297552 L4.53960452,34.7114659 C3.48779704,33.1823833 2.91570859,31.361337 2.89952409,29.4908511 L2.89952409,29.4908511 Z M19.4490183,24.1587176 C20.5360559,25.7122253 21.1102976,27.5807833 21.0880374,29.4920452 L21.0880374,29.4920452 L14.7168382,28.9286299 L14.011,28.8529701 L14.1655516,28.7233426 C14.2162131,28.678531 14.2658739,28.6325457 14.3144955,28.5854224 L14.4572039,28.4406738 L14.7475213,28.1898009 C15.449598,27.5833389 16.3174783,26.8352786 17.2066506,26.0725293 L17.970642,25.4181069 C18.4789518,24.9833736 18.980732,24.555684 19.4490183,24.1587176 Z M5.4702181,22.9924688 L10.0154148,28.5139482 L3.01171524,27.8750353 C3.3486422,26.0366508 4.20324866,24.3394195 5.4702181,22.9924688 L5.4702181,22.9924688 Z M13.5541284,20.325261 C15.3999263,20.6387092 17.105272,21.5312734 18.4348255,22.8797859 L18.4348255,22.8797859 L17.9699334,23.2709043 C16.6861037,24.3520805 15.0788524,25.7135144 13.8566288,26.7481953 C13.4837283,27.049059 13.1482279,27.348796 12.8875276,27.5741621 L12.8875276,27.5741621 L13.3341282,22.5034245 L13.5541284,20.4751294 Z M11.9195349,20.2148314 L11.2848425,27.4648594 L6.70222002,21.9433895 C8.23442727,20.8477008 10.0511782,20.24579 11.9195349,20.2148314 L11.9195349,20.2148314 Z" id="形状结合" fill="#02D281"></path>
                        </g>
                    </g>
                </g>
            </g>
        </g>
    </g>
</svg>