<?xml version="1.0" encoding="UTF-8"?>
<svg width="37px" height="42px" viewBox="0 0 37 42" version="1.1" xmlns="http://www.w3.org/2000/svg" xmlns:xlink="http://www.w3.org/1999/xlink">
    <title>消防设施icon</title>
    <g id="页面-1" stroke="none" stroke-width="1" fill="none" fill-rule="evenodd">
        <g id="区级" transform="translate(-211.000000, -600.000000)" fill-rule="nonzero">
            <g id="产业布局" transform="translate(40.000000, 383.000000)">
                <g id="消防设施" transform="translate(130.000000, 200.000000)">
                    <g id="消防设施icon" transform="translate(41.000000, 17.000000)">
                        <path d="M21.9705636,42 L10.7662035,42 L10.7662034,42 C9.61658951,41.9963176 8.68562009,41.0483189 8.68228359,39.877963 L8.68228359,19.5085956 C8.68228359,15.2047362 12.1402944,11.6838184 16.3678772,11.6838184 C20.5954599,11.6838184 24.0534708,15.2047362 24.0534708,19.5085956 L24.0534708,39.877963 L24.0534708,39.8779396 C24.050151,41.0478935 23.1198028,41.9957374 21.9705889,42 L21.9705636,42 Z M12.5422946,-2.84217094e-14 L12.5422948,-2.84217094e-14 C15.0169344,-0.000284515514 17.0232541,2.0417715 17.0235325,4.56106006 C17.023812,7.08034862 15.017947,9.12286749 12.5433074,9.12315098 C10.0686678,9.12343549 8.06234816,7.08137948 8.06206967,4.56209092 C8.06206967,4.56174732 8.06206967,4.56140372 8.06206967,4.56106011 L8.06206967,4.5610608 C8.06206967,2.04205573 10.0679337,-2.84217094e-14 12.5422948,-2.84217094e-14 L12.5422946,-2.84217094e-14 Z M12.5422946,2.98228918 L12.5422946,2.98228918 C11.6858168,2.98257568 10.9917337,3.68964451 10.9920121,4.56157549 C10.9922918,5.43350647 11.6868294,6.14011255 12.5433072,6.13982915 C13.3995877,6.1395445 14.0935898,5.43279002 14.0935898,4.56106006 L14.0935898,4.56108921 C14.0938853,3.68944171 13.4000383,2.98259338 12.5438439,2.98228918 C12.5433375,2.98228918 12.542831,2.98228918 12.5423246,2.98228918 L12.5422946,2.98228918 Z M10,6 L24,6 L24,10 L10,10 L10,6 Z M14.5441943,9.05202133 L18.1895351,9.05202133 L18.1895351,14.4908625 L14.5441943,14.4908625 L14.5441943,9.05202133 Z M7.54406452,7.15271487 C7.54406452,7.15271487 1.21534782,8.34233253 0.0250427862,15.5125107 C-0.31215124,17.5458909 2.86030787,18.0216349 3.26078906,16.0722701 C3.54279668,14.699674 4.54425281,11.2390618 7.54406452,10.8664043 C11.5782417,10.3648887 7.54406452,7.15271487 7.54406452,7.15271487 Z" fill="#00BAFF"></path>
                        <polygon id="路径" fill="#02D281" points="36.9983888 2 25 6.00407802 25 10.0046613 37 13"></polygon>
                    </g>
                </g>
            </g>
        </g>
    </g>
</svg>