<?xml version="1.0" encoding="UTF-8"?>
<svg width="42px" height="42px" viewBox="0 0 42 42" version="1.1" xmlns="http://www.w3.org/2000/svg" xmlns:xlink="http://www.w3.org/1999/xlink">
    <title>深加工icon</title>
    <g id="页面-1" stroke="none" stroke-width="1" fill="none" fill-rule="evenodd">
        <g id="区级" transform="translate(-338.000000, -823.000000)" fill-rule="nonzero">
            <g id="生产销售" transform="translate(40.000000, 743.000000)">
                <g id="编组" transform="translate(11.000000, 80.000000)">
                    <g id="深加工" transform="translate(257.000000, 0.000000)">
                        <g id="深加工icon" transform="translate(30.000000, 0.000000)">
                            <path d="M41.8186376,26.5184329 L41.8186376,41.7782403 L2.67819954e-14,41.7782403 L2.67819954e-14,26.5184329 L41.8186376,26.5184329 Z M8.41887698,29.1070056 L4.32736802,29.1070056 L4.32736802,36.0374764 L8.41887698,36.0374764 L8.41887698,29.1070056 Z M16.6018486,29.1070056 L12.510386,29.1070056 L12.510386,36.0374764 L16.6018486,36.0374764 L16.6018486,29.1070056 Z M24.8266058,29.1070056 L20.7351431,29.1070056 L20.7351431,36.0374764 L24.8266058,36.0374764 L24.8266058,29.1070056 Z" id="形状" fill="#00BAFF"></path>
                            <path d="M30.2957408,12.5739666 L31.7987233,18.0849333 L41.7763894,18.0849333 L41.7763894,25.0154041 L0.0402584603,25.0154041 L0.0402584603,18.0849333 L2.23980489,18.0849333 L14.4308071,12.5739666 L15.9337896,18.0849333 L18.6057482,18.0849333 L30.2957408,12.5739666 Z M29.2103357,-8.0960879e-14 L29.2103357,11.3214194 L22.3633896,14.8283941 L22.3633896,-8.0960879e-14 L29.2103357,-8.0960879e-14 Z M13.846319,-4.36573854e-14 L13.846319,11.3214194 L6.99932665,14.4109092 L6.99932665,-4.36573854e-14 L13.846319,-4.36573854e-14 Z" id="形状结合" fill="#02D281"></path>
                        </g>
                    </g>
                </g>
            </g>
        </g>
    </g>
</svg>