<?xml version="1.0" encoding="UTF-8"?>
<svg width="42px" height="42px" viewBox="0 0 42 42" version="1.1" xmlns="http://www.w3.org/2000/svg" xmlns:xlink="http://www.w3.org/1999/xlink">
    <title>苗木icon</title>
    <g id="页面-1" stroke="none" stroke-width="1" fill="none" fill-rule="evenodd">
        <g id="区级" transform="translate(-209.000000, -480.000000)" fill-rule="nonzero">
            <g id="产业布局" transform="translate(40.000000, 383.000000)">
                <g id="苗木区" transform="translate(130.000000, 80.000000)">
                    <g id="苗木icon" transform="translate(39.000000, 17.000000)">
                        <path d="M24.5999705,29.1641452 C17.6279507,22.0993519 14.1419616,18.907373 14.1419616,19.5900656 C14.1419616,20.6137785 25.1999946,33.6280377 25.1999946,36.6039386 C25.1999946,37.9252415 25.7999937,38.3894832 25.7999937,39.2822576 C25.7999937,40.175032 25.7003934,40.5779704 25.1999946,41.0826834 C24.2999917,41.9903348 20.7000009,42.5855191 19.2000031,41.0826834 C17.700001,39.5798477 19.2000031,37.496713 19.2000031,36.3063526 C19.2000031,35.1159882 18,34.2232179 16.7219987,34.4303408 C13.1159923,35.0142136 3.82499563,31.3597964 1.24559501,21.6369218 C-1.33380977,11.9140307 0.729594243,1.16741027 1.76159578,0.143722161 C2.79359732,-0.879990708 4.52219761,3.81599588 9.49979764,6.28481911 C11.5632017,7.30853198 14.1480188,8.63876116 16.8564269,9.64640436 C21.1992486,11.262322 24.9384268,11.9652317 27.5556436,16.0077061 C29.9856476,19.7603281 28.999845,24.146823 24.6000412,29.1641988 L24.5999705,29.1641452 Z" id="路径" fill="#00BAFF"></path>
                        <path d="M27.5555729,33.4065949 C28.4075755,28.9117928 29.9555778,25.6704164 32.1983858,23.6837038 C34.4411897,21.6969871 37.7088063,20.6732742 42,20.6131595 C42,24.3663758 40.6241963,27.6065595 37.8731961,30.3360506 C35.1215928,33.065554 31.6823767,34.0892669 27.5555729,33.4071892 L27.5555729,33.4065949 Z" id="路径" fill="#02D281"></path>
                    </g>
                </g>
            </g>
        </g>
    </g>
</svg>