<?xml version="1.0" encoding="UTF-8"?>
<svg width="42px" height="42px" viewBox="0 0 42 42" version="1.1" xmlns="http://www.w3.org/2000/svg" xmlns:xlink="http://www.w3.org/1999/xlink">
    <title>蔬菜icon</title>
    <g id="页面-1" stroke="none" stroke-width="1" fill="none" fill-rule="evenodd">
        <g id="区级" transform="translate(-82.000000, -823.000000)" fill-rule="nonzero">
            <g id="生产销售" transform="translate(40.000000, 743.000000)">
                <g id="编组" transform="translate(11.000000, 80.000000)">
                    <g id="蔬菜icon" transform="translate(31.000000, 0.000000)">
                        <path d="M8.01749315,4.05877064 C8.4603198,4.51239794 8.99637312,4.94215013 9.46250645,5.27640183 C9.50911978,5.27640183 9.50911978,5.32415207 9.53242645,5.32415207 C9.01967979,5.94490523 8.5302398,6.58953351 8.15733314,7.16253642 L7.03861317,8.8099198 L9.01967979,9.19192174 C10.1850131,9.43067295 11.6300264,9.38292271 12.7953597,9.12029637 C13.2381864,9.00092077 13.681013,8.8099198 14.100533,8.54729346 C14.9628797,9.50229832 16.4545063,10.5050534 17.5033063,11.1735568 L19.1813862,12.2479373 L19.4843729,10.2901773 C19.6708262,9.1441715 19.5542929,7.68778909 19.2513062,6.58953351 C19.2046929,6.4701579 19.1813862,6.35078229 19.1347729,6.27915693 C19.6475195,5.96878035 20.1602662,5.63452865 20.6030929,5.32415207 C22.5375461,6.54178326 24.0757861,8.260792 25.0313594,10.2424271 C24.5885328,10.9586807 24.2156261,11.7704348 24.0291728,12.582189 L19.5542929,14.3011977 C15.149333,15.9724562 11.6533331,17.8585908 7.94757315,20.7952307 C6.71231984,21.7979858 5.59359987,22.8484912 4.66133323,23.994497 C1.81791996,21.821861 3.73034936e-14,18.5748444 3.73034936e-14,14.945826 C3.73034936e-14,10.0514261 3.30954659,5.84940474 8.01749315,4.05877064 Z M3.98543991,9.40679783 C1.56154663,11.5078085 1.70138663,15.136827 3.93882658,20.7474805 C4.05535991,16.4977089 4.54479989,13.1074416 5.9198932,10.624429 L3.98543991,9.40679783 Z M14.9162663,2.37208627e-14 L16.477813,0.907254613 C15.918453,1.7906341 15.7319996,2.48301263 15.7319996,3.19926627 C16.3612796,2.86501457 17.0837863,2.60238823 17.7130663,2.6740136 C19.2726707,2.84909782 20.538514,3.54578713 20.7386573,3.66068615 L20.7662395,3.6767687 C20.7662395,3.6767687 18.5287996,5.27640183 17.1770129,5.70615401 C17.5499196,6.04040571 17.8529063,6.42240766 18.0626662,6.89991008 C18.4685907,8.36624046 18.2869929,9.81250909 18.2539077,10.043371 L18.2491196,10.0753012 C18.2491196,10.0753012 15.9417596,8.61891882 15.009493,7.54453836 C14.7065063,7.18641154 14.6132797,6.73278423 14.5666663,6.27915693 C14.0539197,6.97153545 13.3547197,7.66391397 12.562293,7.85491494 C10.9075197,8.23691688 9.34597312,7.9265403 9.34597312,7.9265403 C9.34597312,7.9265403 10.9075197,5.70615401 12.0495464,4.7988994 C12.1194664,4.72727404 12.2359997,4.70339892 12.3059197,4.65564867 C11.5601064,4.67952379 10.8375997,4.56014819 10.3248531,4.22589649 C8.90314646,3.27089163 8.08741315,1.93388483 8.08741315,1.93388483 C8.08741315,1.93388483 10.7676798,1.55188289 12.1893864,1.7906341 C12.8652797,1.95775995 13.471253,2.55463799 13.9140797,3.17539115 C13.9140797,2.17263605 14.1238397,1.28925656 14.9162663,2.37208627e-14 Z" id="形状结合" fill="#02D281"></path>
                        <path d="M35.6125858,2.50688775 L36.8012258,2.57851311 L40.0408524,2.84113945 L40.7866657,2.88888969 L40.7866657,3.60514333 C40.7866657,4.36914722 40.6701324,5.44352768 40.4836791,6.58953351 C40.2972257,7.49678812 40.0641591,8.45179297 39.8077857,9.38292271 C40.2506124,9.83655002 40.6235191,10.3379276 40.9731191,10.9825558 C41.3460257,11.7465597 41.6490124,12.6299392 41.8587724,13.6088192 C42.6365646,17.8430442 39.9605459,20.0152154 39.6897278,20.2081178 L39.6679457,20.2222278 L39.1785058,20.5564795 L38.6890658,20.2222278 C38.6890658,20.2222278 38.6191458,20.1744776 38.5492258,20.1028522 C35.6825058,29.3902744 27.292106,37.6510664 17.5033063,40.8025825 C12.3991464,42.4499658 9.34597312,41.7098371 6.50255985,37.364565 C4.2651199,34.1414236 3.23962659,28.8888969 10.1383998,23.4214941 C16.7807996,18.1450923 21.3722128,17.5720893 27.5950927,14.7787001 L27.2687994,14.5876992 L27.3154127,14.0863216 C27.3154127,14.0863216 27.3853327,10.9825558 31.8602126,8.78604467 C32.7924792,8.33241737 33.6781326,8.02204079 34.5870925,7.87879006 C35.1464525,7.75941445 35.7058125,7.75941445 36.2651725,7.8071647 C36.3117858,7.16253642 36.3117858,6.51790814 36.3117858,5.89715499 C36.2651725,4.98990037 36.1253325,4.17814624 35.9854925,3.65289357 L35.6125858,2.50688775 Z M7.13183983,31.5629105 C6.80554651,33.4490451 7.48143983,35.4306802 9.57903978,37.5316908 C8.83322646,35.8843075 8.87983979,34.2846743 9.43919978,32.7089163 L7.13183983,31.5629105 Z M23.7727994,18.1450923 C19.7407462,20.1028522 11.4202664,23.7557458 8.25055981,28.5307701 L10.9075197,29.8439017 C14.030613,25.4986297 20.2301862,21.5592346 23.7727994,18.1450923 Z M37.6169591,4.32139697 C37.6868791,4.77502428 37.7334925,5.32415207 37.7567991,5.84940474 C37.8034125,6.8044096 37.8034125,7.87879006 37.6402658,8.85767004 L37.5237325,9.74104953 L36.6380792,9.55004856 C36.0321058,9.40679783 35.3795192,9.40679783 34.7036259,9.50229832 C34.0743459,9.57392368 33.2819192,9.83655002 32.5361059,10.218552 C30.0422926,11.4361831 29.249866,12.8925656 28.9934927,13.6088192 C29.6227726,13.7520699 30.788106,13.9191958 32.4195726,13.3461929 L33.7946659,12.8925656 L33.4683726,14.3011977 C33.2119992,15.4472035 33.3984526,16.4738338 33.5382926,17.118462 C34.1442659,16.9274611 35.0765325,16.4738338 36.0087992,15.3278279 L37.0575991,14.1101967 L37.4305058,15.6859548 C37.7567991,17.0707118 38.5492258,18.0257167 39.0619724,18.5509693 C39.6679457,17.8585908 40.6002124,16.3783333 40.1340791,14.0146963 C39.9942391,13.1313168 39.7145591,12.4150631 39.4348791,11.79431 C39.1551991,11.1735568 38.7356791,10.6960544 38.2695458,10.3379276 L37.8500258,10.0036759 L37.9898658,9.50229832 C38.3161591,8.49954322 38.5958391,7.44903788 38.7822924,6.39853253 C38.8988258,5.68227889 39.0153591,5.01377549 39.0386658,4.44077258 L37.6169591,4.32139697 Z" id="形状结合" fill="#00BAFF"></path>
                    </g>
                </g>
            </g>
        </g>
    </g>
</svg>