<?xml version="1.0" standalone="no"?><!DOCTYPE svg PUBLIC "-//W3C//DTD SVG 1.1//EN" "http://www.w3.org/Graphics/SVG/1.1/DTD/svg11.dtd"><svg t="1619170070458" class="icon" viewBox="0 0 1024 1024" version="1.1" xmlns="http://www.w3.org/2000/svg" p-id="1979" xmlns:xlink="http://www.w3.org/1999/xlink" width="200" height="200"><defs><style type="text/css"></style></defs><path d="M750.933333 0a68.266667 68.266667 0 0 1 68.266667 68.266667h68.266667a136.533333 136.533333 0 0 1 136.533333 136.533333v682.666667a136.533333 136.533333 0 0 1-136.533333 136.533333H136.533333a136.533333 136.533333 0 0 1-136.533333-136.533333V204.8a136.533333 136.533333 0 0 1 136.533333-136.533333h68.266667a68.266667 68.266667 0 0 1 68.266667-68.266667h477.866666zM204.8 136.533333H136.533333a68.266667 68.266667 0 0 0-68.096 63.146667L68.266667 204.8v682.666667a68.266667 68.266667 0 0 0 63.146666 68.096L136.533333 955.733333h750.933334a68.266667 68.266667 0 0 0 68.096-63.146666L955.733333 887.466667V204.8a68.266667 68.266667 0 0 0-63.146666-68.096L887.466667 136.533333h-68.266667a68.266667 68.266667 0 0 1-68.266667 68.266667H273.066667a68.266667 68.266667 0 0 1-68.266667-68.266667z m501.998933 248.9344a34.133333 34.133333 0 0 1 2.833067 45.056l-2.833067 3.208534-238.933333 273.066666a34.133333 34.133333 0 0 1-45.056 2.833067l-3.208533-2.833067-102.4-102.4a34.133333 34.133333 0 0 1 45.056-51.0976l3.208533 2.833067L443.733333 634.368l214.801067-248.900267a34.133333 34.133333 0 0 1 48.264533 0zM750.933333 68.266667H273.066667v68.266666h477.866666V68.266667z" p-id="1980"></path></svg>