<?xml version="1.0" standalone="no"?><!DOCTYPE svg PUBLIC "-//W3C//DTD SVG 1.1//EN" "http://www.w3.org/Graphics/SVG/1.1/DTD/svg11.dtd"><svg t="1619170080149" class="icon" viewBox="0 0 1092 1024" version="1.1" xmlns="http://www.w3.org/2000/svg" p-id="2259" xmlns:xlink="http://www.w3.org/1999/xlink" width="213.28125" height="200"><defs><style type="text/css"></style></defs><path d="M819.2 955.733333a34.133333 34.133333 0 0 1 3.9936 68.027734L819.2 1024H273.066667a34.133333 34.133333 0 0 1-3.9936-68.027733L273.066667 955.733333h546.133333z m136.533333-955.733333a136.533333 136.533333 0 0 1 136.533334 136.533333v580.266667a136.533333 136.533333 0 0 1-136.533334 136.533333H136.533333a136.533333 136.533333 0 0 1-136.533333-136.533333V136.533333a136.533333 136.533333 0 0 1 136.533333-136.533333h819.2z m0 68.266667H136.533333a68.266667 68.266667 0 0 0-68.096 63.146666L68.266667 136.533333v580.266667a68.266667 68.266667 0 0 0 63.146666 68.096L136.533333 785.066667h819.2a68.266667 68.266667 0 0 0 68.096-63.146667L1024 716.8V136.533333a68.266667 68.266667 0 0 0-63.146667-68.096L955.733333 68.266667z m-286.276266 229.034666l3.208533 2.833067 92.433067 92.398933h156.4672v68.266667H750.933333a34.133333 34.133333 0 0 1-20.753066-7.031467l-3.413334-2.9696L648.533333 372.565333l-146.5344 214.766934a34.133333 34.133333 0 0 1-45.056 2.833066l-3.208533-2.833066L327.168 460.8H170.666667v-68.266667h170.666666a34.133333 34.133333 0 0 1 20.753067 7.031467l3.413333 2.9696L477.866667 514.901333l146.5344-214.766933a34.133333 34.133333 0 0 1 45.056-2.833067z" p-id="2260"></path></svg>