<?xml version="1.0" standalone="no"?><!DOCTYPE svg PUBLIC "-//W3C//DTD SVG 1.1//EN" "http://www.w3.org/Graphics/SVG/1.1/DTD/svg11.dtd"><svg t="1619170090578" class="icon" viewBox="0 0 1092 1024" version="1.1" xmlns="http://www.w3.org/2000/svg" p-id="2679" xmlns:xlink="http://www.w3.org/1999/xlink" width="213.28125" height="200"><defs><style type="text/css"></style></defs><path d="M819.2 955.733333a34.133333 34.133333 0 0 1 3.9936 68.027734L819.2 1024H273.066667a34.133333 34.133333 0 0 1-3.9936-68.027733L273.066667 955.733333h546.133333z m136.533333-955.733333a136.533333 136.533333 0 0 1 136.533334 136.533333v580.266667a136.533333 136.533333 0 0 1-136.533334 136.533333H136.533333a136.533333 136.533333 0 0 1-136.533333-136.533333V136.533333a136.533333 136.533333 0 0 1 136.533333-136.533333h819.2z m0 68.266667H136.533333a68.266667 68.266667 0 0 0-68.096 63.146666L68.266667 136.533333v580.266667a68.266667 68.266667 0 0 0 63.146666 68.096L136.533333 785.066667h819.2a68.266667 68.266667 0 0 0 68.096-63.146667L1024 716.8V136.533333a68.266667 68.266667 0 0 0-63.146667-68.096L955.733333 68.266667zM546.133333 238.933333c82.261333 0 164.215467 35.7376 230.5024 76.049067l16.213334 10.1376c5.290667 3.413333 10.478933 6.826667 15.530666 10.24l14.7456 10.205867 13.960534 10.069333 13.073066 9.8304 12.151467 9.454933 16.384 13.312 18.1248 15.530667 13.482667 12.151467 11.298133 10.752-10.922667 12.288-9.3184 10.0352-7.68 7.9872-8.772266 8.9088-9.796267 9.693866-10.820267 10.376534-11.776 10.922666c-2.048 1.8432-4.096 3.720533-6.2464 5.597867l-13.073066 11.502933-13.9264 11.741867-14.677334 11.8784C734.242133 593.066667 640.375467 648.533333 546.133333 648.533333c-101.000533 0-201.5232-63.658667-273.134933-122.811733l-13.9264-11.741867-13.073067-11.502933-12.253866-11.127467-16.5888-15.7696-9.796267-9.693866-8.772267-8.874667-16.9984-18.056533L170.666667 426.666667l11.264-10.752 13.5168-12.151467 13.175466-11.3664 15.633067-12.9024 11.6736-9.216 6.178133-4.8128 13.073067-9.8304 13.960533-10.069333 14.7456-10.205867c5.051733-3.413333 10.24-6.826667 15.530667-10.24l16.213333-10.1376C381.952 274.705067 463.872 238.933333 546.133333 238.933333z m0 68.266667c-66.491733 0-142.848 30.5152-220.501333 82.363733-16.9984 11.3664-33.28 23.210667-48.708267 35.259734l-7.68 6.109866 3.447467 3.345067c15.121067 14.336 31.0272 28.433067 47.547733 41.915733l16.725334 13.243734C411.716267 546.952533 484.283733 580.266667 546.133333 580.266667c63.931733 0 139.195733-35.5328 216.132267-96.256a824.32 824.32 0 0 0 48.810667-41.7792l11.946666-11.332267-14.677333-11.4688a802.030933 802.030933 0 0 0-32.085333-23.3472l-16.725334-11.195733C684.100267 335.7696 610.440533 307.2 546.133333 307.2z m0 34.133333a102.4 102.4 0 1 1 0 204.8 102.4 102.4 0 0 1 0-204.8z m0 68.266667a34.133333 34.133333 0 1 0 0 68.266667 34.133333 34.133333 0 0 0 0-68.266667z" p-id="2680"></path></svg>