<?xml version="1.0" encoding="UTF-8"?>
<svg width="32px" height="32px" viewBox="0 0 32 32" version="1.1" xmlns="http://www.w3.org/2000/svg" xmlns:xlink="http://www.w3.org/1999/xlink">
    <title>核算</title>
    <g id="正式稿" stroke="none" stroke-width="1" fill="" fill-rule="evenodd">
        <g id="2决策分析" transform="translate(-1708.000000, -32.000000)" fill="">
            <g id="主导航/10个群组栏目" transform="translate(1072.000000, 32.000000)">
                <g id="核算" transform="translate(636.000000, 0.000000)">
                    <path d="M4.00301626,29.9971219 C3.47388823,30.000064 2.96555164,29.7913071 2.59120805,29.4173392 C2.21686446,29.0433712 2.00759725,28.5352445 2.01000817,28.0061138 L2.01000817,4.27601737 C2.01000817,3.1760129 2.88201171,2.00400814 4.00301626,2.00400814 L25.0021016,2.00400814 C26.1221061,2.00400814 27.0021097,2.90001178 27.0021097,4.00001625 L27.0021097,11.1480453 C27.0021097,11.7780478 27.3861113,12.0030488 28.0021138,12.0030488 C28.6181163,12.0030488 28.9961178,11.7790479 29.0001178,11.1480453 L29.0001178,3.99601623 C29.0001178,1.63800665 27.3511111,-3.55271368e-15 25.0021016,-3.55271368e-15 L4.00301626,-3.55271368e-15 C1.6500067,-3.55271368e-15 0,1.91800779 0,4.28001739 L0,28.0061138 C0,30.3641234 1.6500067,32.00013 4.00301626,32.00013 L12.0010488,32.00013 C12.6170513,32.00013 12.9960528,31.6361285 13.0000528,31.004126 C13.0000528,30.3741234 12.6210513,29.9971219 12.0010488,29.9971219 L4.00301626,29.9971219 Z M19.0000772,8.00002844 C19.0000772,7.48503041 18.5540754,7.00002844 17.9980731,7.00002844 L6.00202438,7.00002844 C5.44902214,7.00002844 5.00002031,7.48503041 5.00002031,8.00002844 C5.00002031,8.51503459 5.45002214,9.00002844 6.00202438,9.00002844 L18.0020731,9.00002844 C18.5540754,9.00002844 19.0000772,8.51503459 19.0000772,8.00002844 Z M6.00102438,13.0000528 C5.45002214,13.0000528 5.00002031,13.4910548 5.00002031,14.0020569 C5.00002031,14.5090589 5.44902214,15.0000528 6.00102438,15.0000528 L14.0000569,15.0000528 C14.5520591,15.0000528 15.0010609,14.5090589 15.0010609,14.0020569 C15.0010609,13.4940548 14.5560591,13.0000528 14.0000569,13.0000528 L6.00002031,13.0000528 L6.00102438,13.0000528 Z M25,18 C28.8818145,18 32,21.1181855 32,25 C32,28.8818145 28.8818145,32 25,32 C21.1181855,32 18,28.8818145 18,25 C18,21.1181855 21.1181855,18 25,18 Z M27.0363574,21.7545484 L25.1272715,23.6636344 L23.2181855,21.7545484 C22.9636398,21.5000027 22.5818213,21.5000027 22.327277,21.7545484 C22.0727313,22.0090941 22.0727313,22.3909127 22.327277,22.645457 L24.3636344,24.6818145 L22.6454488,24.6818145 C22.3909031,24.6818145 22.1363574,24.872723 22.1363574,25.1909059 C22.1363574,25.5090873 22.327266,25.6999973 22.6454488,25.6999973 L24.4272633,25.6999973 L24.4272633,26.3363615 L22.6454488,26.3363615 C22.3909031,26.3363615 22.1363574,26.5272701 22.1363574,26.8454529 C22.1363574,27.1636344 22.327266,27.3545443 22.6454488,27.3545443 L24.4272633,27.3545443 L24.4272633,28.6272715 C24.4272633,29.00909 24.681809,29.2636357 25.0636275,29.2636357 C25.4454461,29.2636357 25.6999918,29.00909 25.6999918,28.6272715 L25.6999918,27.3545443 L27.4818062,27.3545443 C27.736352,27.3545443 27.9908977,27.1636357 27.9908977,26.8454529 C27.9908976,26.5272715 27.7999891,26.3363615 27.4818062,26.3363615 L25.6999918,26.3363615 L25.6999918,25.6999973 L27.4818062,25.6999973 C27.736352,25.6999973 27.9908977,25.5090887 27.9908977,25.1909059 C27.9908976,24.8727244 27.7999891,24.6818145 27.4818062,24.6818145 L25.8908922,24.6818145 L27.927266,22.645457 C28.1818117,22.3909113 28.1818117,22.0090928 27.927266,21.7545484 C27.6727203,21.5000027 27.2909018,21.5000027 27.0363574,21.7545484 Z M12.0030488,18.9990772 C12.543051,18.9990772 12.9990528,19.452079 13.0030528,20.0010813 C13.0030528,20.5490835 12.543051,21.0020853 12.0030488,21.0020853 L5.97902429,21.0020853 C5.43230785,20.9944121 4.99377279,20.5478469 4.9960117,20.0010813 C4.99487135,19.4534371 5.43443263,19.006743 5.9820243,18.9990772 L12.0030488,18.9990772 Z"></path>
                </g>
            </g>
        </g>
    </g>
</svg>