<?xml version="1.0" standalone="no"?><!DOCTYPE svg PUBLIC "-//W3C//DTD SVG 1.1//EN" "http://www.w3.org/Graphics/SVG/1.1/DTD/svg11.dtd"><svg t="1619170075566" class="icon" viewBox="0 0 1024 1024" version="1.1" xmlns="http://www.w3.org/2000/svg" p-id="2119" xmlns:xlink="http://www.w3.org/1999/xlink" width="200" height="200"><defs><style type="text/css"></style></defs><path d="M853.333333 0a170.666667 170.666667 0 0 1 170.496 163.259733L1024 170.666667v273.066666a34.133333 34.133333 0 0 1-68.027733 3.9936L955.733333 443.733333V170.666667a102.4 102.4 0 0 0-96.392533-102.229334L853.333333 68.266667H170.666667a102.4 102.4 0 0 0-102.229334 96.392533L68.266667 170.666667v682.666666a102.4 102.4 0 0 0 96.392533 102.229334L170.666667 955.733333h341.333333a34.133333 34.133333 0 0 1 3.9936 68.027734L512 1024H170.666667a170.666667 170.666667 0 0 1-170.496-163.259733L0 853.333333V170.666667A170.666667 170.666667 0 0 1 163.259733 0.170667L170.666667 0h682.666666z m18.363734 587.025067l3.072 2.696533 139.707733 138.410667c11.707733 11.605333 12.629333 29.9008 2.696533 42.564266l-2.730666 3.072-139.6736 138.376534a32.768 32.768 0 0 1-46.045867 0 32.0512 32.0512 0 0 1-2.696533-42.564267l2.730666-3.072L910.882133 785.066667h-330.5472A34.2016 34.2016 0 0 1 546.133333 750.933333c0-17.5104 13.2096-31.9488 30.242134-33.8944l3.9936-0.238933h330.615466l-82.261333-81.476267a32.0512 32.0512 0 0 1-2.696533-42.564266l2.730666-3.072a32.768 32.768 0 0 1 42.939734-2.6624zM409.6 512a34.133333 34.133333 0 0 1 3.9936 68.027733L409.6 580.266667H204.8a34.133333 34.133333 0 0 1-3.9936-68.027734L204.8 512h204.8z m409.6-273.066667a34.133333 34.133333 0 0 1 3.9936 68.027734L819.2 307.2H204.8a34.133333 34.133333 0 0 1-3.9936-68.027733L204.8 238.933333h614.4z" p-id="2120"></path></svg>