<?xml version="1.0" standalone="no"?><!DOCTYPE svg PUBLIC "-//W3C//DTD SVG 1.1//EN" "http://www.w3.org/Graphics/SVG/1.1/DTD/svg11.dtd"><svg t="1619170087338" class="icon" viewBox="0 0 1024 1024" version="1.1" xmlns="http://www.w3.org/2000/svg" p-id="2539" xmlns:xlink="http://www.w3.org/1999/xlink" width="200" height="200"><defs><style type="text/css"></style></defs><path d="M415.264 99.36a32 32 0 0 1-24.512 38.08C201.152 178.4 64 346.976 64 544c0 229.76 186.24 416 416 416 196.672 0 365.344-137.6 406.528-327.264a32 32 0 0 1 62.528 13.568C901.504 865.28 706.944 1024 480 1024 214.912 1024 0 809.088 0 544 0 316.736 158.272 122.24 377.248 74.88a32 32 0 0 1 38.016 24.48zM544 0c261.12 0 474.176 208.704 479.904 469.632l0.096 10.016A32 32 0 0 1 992 512H576a64 64 0 0 1-64-64V32a32 32 0 0 1 32-32z m32 65.216V448h382.752l-0.544-6.912c-18.432-198.784-176.576-356.576-374.72-375.232L576 65.216z" p-id="2540"></path></svg>