<?xml version="1.0" standalone="no"?><!DOCTYPE svg PUBLIC "-//W3C//DTD SVG 1.1//EN" "http://www.w3.org/Graphics/SVG/1.1/DTD/svg11.dtd"><svg t="1619170083927" class="icon" viewBox="0 0 1024 1024" version="1.1" xmlns="http://www.w3.org/2000/svg" p-id="2399" xmlns:xlink="http://www.w3.org/1999/xlink" width="200" height="200"><defs><style type="text/css"></style></defs><path d="M853.333333 0a170.666667 170.666667 0 0 1 170.666667 170.666667v682.666666a170.666667 170.666667 0 0 1-170.666667 170.666667H170.666667a170.666667 170.666667 0 0 1-170.666667-170.666667V170.666667a170.666667 170.666667 0 0 1 170.666667-170.666667h682.666666z m0 68.266667H170.666667a102.4 102.4 0 0 0-102.229334 96.392533L68.266667 170.666667v682.666666a102.4 102.4 0 0 0 96.392533 102.229334L170.666667 955.733333h682.666666a102.4 102.4 0 0 0 102.229334-96.392533L955.733333 853.333333V170.666667a102.4 102.4 0 0 0-96.392533-102.229334L853.333333 68.266667z m-85.333333 614.4a51.2 51.2 0 0 1 51.2 51.2v68.266666a51.2 51.2 0 0 1-51.2 51.2h-512A51.2 51.2 0 0 1 204.8 802.133333v-68.266666A51.2 51.2 0 0 1 256 682.666667h512z m-323.8912 34.133333h-68.7104l-34.5088 102.4H409.6l34.5088-102.4z m136.533333 0h-68.7104l-34.5088 102.4H546.133333l34.5088-102.4z m187.357867 0h-119.534933l-34.5088 102.4H768a17.066667 17.066667 0 0 0 16.7936-13.994667L785.066667 802.133333v-68.266666a17.066667 17.066667 0 0 0-13.994667-16.7936L768 716.8z m-147.319467-337.92c24.234667 0 43.554133 8.840533 58.0608 26.5216 14.506667 17.681067 21.742933 41.506133 21.742934 71.441067 0 30.276267-7.236267 54.1696-21.742934 71.68-14.506667 17.5104-33.860267 26.282667-58.0608 26.282666-24.234667 0-43.554133-8.772267-58.0608-26.282666-14.506667-17.5104-21.742933-41.403733-21.742933-71.68 0-29.934933 7.236267-53.76 21.742933-71.441067 14.506667-17.681067 33.860267-26.5216 58.0608-26.5216z m23.893334-192.580267l-223.6416 382.7712h-41.5744L603.477333 186.299733h41.096534z m-23.893334 225.553067c-13.687467 0-24.302933 5.666133-31.778133 16.964267-7.509333 11.298133-11.229867 27.306667-11.229867 48.0256s3.754667 36.727467 11.229867 48.0256c7.509333 11.298133 18.090667 16.964267 31.778133 16.964266s24.302933-5.666133 31.778134-16.964266c7.509333-11.298133 11.229867-27.306667 11.229866-48.0256s-3.754667-36.727467-11.229866-48.0256a35.9424 35.9424 0 0 0-31.778134-16.964267zM403.729067 180.565333c24.234667 0 43.554133 8.840533 58.0608 26.5216 14.506667 17.681067 21.742933 41.506133 21.742933 71.441067 0 30.276267-7.236267 54.237867-21.742933 71.918933-14.506667 17.681067-33.860267 26.5216-58.0608 26.5216-24.234667 0-43.554133-8.840533-58.0608-26.5216-14.506667-17.681067-21.742933-41.642667-21.742934-71.918933 0-29.934933 7.236267-53.76 21.742934-71.441067 14.506667-17.681067 33.860267-26.5216 58.0608-26.5216z m0 33.450667c-13.687467 0-24.302933 5.666133-31.778134 16.964267-7.509333 11.298133-11.229867 27.170133-11.229866 47.547733 0 21.026133 3.754667 37.205333 11.229866 48.503467 7.509333 11.298133 18.090667 16.964267 31.778134 16.964266s24.302933-5.666133 31.778133-16.964266c7.509333-11.298133 11.229867-27.477333 11.229867-48.503467 0-20.3776-3.754667-36.2496-11.229867-47.547733a35.9424 35.9424 0 0 0-31.778133-16.964267z" p-id="2400"></path></svg>