<?xml version="1.0" standalone="no"?><!DOCTYPE svg PUBLIC "-//W3C//DTD SVG 1.1//EN" "http://www.w3.org/Graphics/SVG/1.1/DTD/svg11.dtd"><svg t="1614674255562" class="icon" viewBox="0 0 1024 1024" version="1.1" xmlns="http://www.w3.org/2000/svg" p-id="1219" xmlns:xlink="http://www.w3.org/1999/xlink" width="200" height="200"><defs><style type="text/css"></style></defs><path d="M800.038999 0c75.19765 0 127.964001 52.414362 127.964001 127.868004v228.856848c-0.127996 20.15937-12.223618 27.359145-31.935002 27.359145-19.743383 0-31.999-7.167776-31.999-27.359145V127.996c0-35.1989-28.15912-63.870004-63.998-63.870004h-671.979001c-35.83888 0-63.774007 37.534827-63.774007 72.701728v759.336271c0 35.070904 27.903128 63.67801 63.774007 63.67801h255.928002c19.83938 0 31.999 12.095622 31.999 32.286991-0.159995 20.223368-12.287616 31.871004-31.999 31.871004H128.091997C52.79835 1023.968001 0 971.649636 0 896.195994V136.95572C0 61.374082 52.79835 0 128.091997 0h671.979001zM607.981001 255.992c0-16.479485-14.271554-31.999-32.062998-31.999H192.057998C174.39455 223.993 159.995 239.512515 159.995 255.992s14.39955 31.999 32.062998 31.999h383.988001c17.663448 0 31.935002-15.519515 31.935002-31.999zM192.025999 415.987c-17.59945 0-31.999 15.711509-31.999 32.062998 0 16.223493 14.335552 31.935002 31.999 31.935002h255.992c17.631449 0 31.999-15.67951 31.999-31.935002s-14.239555-32.062998-31.999-32.062998H191.994z m608.172995 149.14734L1023.968001 788.935346l-182.3943 187.322146c-21.279335 21.279335-53.950314 29.535077-92.061123 23.263273l-78.621543-12.831599c-12.447611-2.079935-25.151214-8.479735-36.350864-18.23943l-54.974282 54.910284-14.07956-14.07956 55.486266-55.550264a71.453767 71.453767 0 0 1-13.631574-30.623043l-12.895597-78.621543c-6.207806-38.046811 1.983938-70.71779 23.231274-91.933127l182.490297-187.418143z m-85.309334 277.11134l-16.191494 16.191494 107.132652 107.100653 16.159495-16.159495-107.100653-107.100653z m47.902503-47.902503l-16.191494 16.191494 107.132652 107.100653 16.159495-16.159495-107.100653-107.132652z m47.902503-47.902503l-16.159495 16.159495 107.100653 107.132652 16.159495-16.159495-107.100653-107.132652z m-426.610669-138.523671c17.59945 0.255992 31.807006 14.463548 31.999 32.062998 0 17.535452-14.71954 32.030999-31.999 32.030999H191.35402a31.903003 31.903003 0 0 1-31.455017-31.999 31.999 31.999 0 0 1 31.551014-32.062998h0.031999z" p-id="1220"></path></svg>