<?xml version="1.0" encoding="UTF-8"?>
<svg width="48px" height="48px" viewBox="0 0 48 48" version="1.1" xmlns="http://www.w3.org/2000/svg" xmlns:xlink="http://www.w3.org/1999/xlink">
    <title>人口总数icon</title>
    <g id="页面-1" stroke="none" stroke-width="1" fill="none" fill-rule="evenodd">
        <g id="样稿2" transform="translate(-40.000000, -607.000000)">
            <g id="人口信息" transform="translate(40.000000, 175.000000)">
                <g id="人口总数icon" transform="translate(0.000000, 432.000000)">
                    <rect id="矩形" fill-opacity="0.2" fill="#121212" x="0" y="0" width="48" height="48"></rect>
                    <path d="M48,0 L48,0.893 L0.895,47.999 L0.000978957588,47.999021 L0,47.196 L47.197,0 L48,0 Z M48,2.308 L48,4.005 L4.005,47.999 L2.309,47.999 L48,2.308 Z M48,5.419 L48,7.116 L7.117,47.999 L5.421,47.999 L48,5.419 Z M48,8.531 L48,10.227 L10.229,47.999 L8.531,47.999 L48,8.531 Z M48,11.64 L48,13.338 L13.339,47.999 L11.642,47.999 L48,11.64 Z M48,14.752 L48,16.449 L16.451,47.999 L14.753,47.999 L48,14.752 Z M48,17.863 L48,19.56 L19.562,47.999 L17.865,47.999 L48,17.863 Z M48,20.974 L48,22.672 L22.673,47.999 L20.976,47.999 L48,20.974 Z M48,24.086 L48,25.783 L25.784,47.999 L24.087,47.999 L48,24.086 Z M48,27.197 L48,28.894 L28.895,47.999 L27.199,47.999 L48,27.197 Z M48,30.308 L48,32.005 L32.007,47.999 L30.31,47.999 L48,30.308 Z M48,33.419 L48,35.116 L35.118,47.999 L33.421,47.999 L48,33.419 Z M48,36.53 L48,38.228 L38.229,47.999 L36.531,47.999 L48,36.53 Z M48,39.642 L48,41.339 L41.34,47.999 L39.643,47.999 L48,39.642 Z M48,42.753 L48,44.45 L44.451,47.999 L42.754,47.999 L48,42.753 Z M48,45.864 L48,47.561 L47.562,47.999 L45.865,47.999 L48,45.864 Z M45.783,0 L0,45.782 L0,44.086 L44.085,0 L45.783,0 Z M42.671,0 L0,42.672 L0,40.974 L40.974,0 L42.671,0 Z M39.56,0 L0,39.56 L0,37.862 L37.863,0 L39.56,0 Z M36.449,0 L0,36.448 L0,34.752 L34.751,0 L36.449,0 Z M33.337,0 L0,33.338 L0,31.64 L31.641,0 L33.337,0 Z M30.226,0 L0,30.226 L0,28.53 L28.529,0 L30.226,0 Z M27.115,0 L0,27.115 L0,25.418 L25.418,0 L27.115,0 Z M24.004,0 L0,24.004 L0,22.306 L22.307,0 L24.004,0 Z M20.893,0 L0,20.892 L0,19.196 L19.195,0 L20.893,0 Z M17.781,0 L0,17.782 L0,16.084 L16.084,0 L17.781,0 Z M14.67,0 L0,14.67 L0,12.973 L12.973,0 L14.67,0 Z M11.559,0 L0,11.559 L0,9.861 L9.861,0 L11.559,0 Z M8.447,0 L0,8.447 L0,6.751 L6.751,0 L8.447,0 Z M5.336,0 L0,5.336 L0,3.639 L3.639,0 L5.336,0 Z M2.225,0 L0,2.225 L0,0.528 L0.528,0 L2.225,0 Z" id="形状结合" fill-opacity="0.25" fill="#32C5FF"></path>
                    <path d="M13.1542201,12.6048199 L13.1542201,12.6048204 C13.1542201,14.5957087 14.7710046,16.2096409 16.7654115,16.2096409 C18.7598183,16.2096409 20.3766028,14.5957087 20.3766028,12.6048204 L20.3766028,12.6048204 C20.3766028,10.6139322 18.7598183,9 16.7654115,9 C14.7710046,9 13.1542201,10.6139322 13.1542201,12.6048204 L13.1542201,12.6048199 Z M20.7252272,18.4806772 L12.8055957,18.4806772 C11.8125181,18.4806772 11,19.2917618 11,20.2830874 L11,30.0161026 C11,31.0074282 11.8125181,31.8185128 12.8055957,31.8185128 L13.7636447,31.8185128 L13.7636447,39 L19.7672143,39 L19.7672143,31.8185128 L20.7252633,31.8185128 C21.718341,31.8185128 22.530859,31.0074282 22.530859,30.0161026 L22.530859,20.2830874 C22.530859,19.2917618 21.7183049,18.4806772 20.7252272,18.4806772 Z M26.5409426,12.6048199 L26.5409426,12.6048204 C26.5409426,14.5957087 28.1577271,16.2096409 30.1521339,16.2096409 C32.1465408,16.2096409 33.7633253,14.5957087 33.7633253,12.6048204 L33.7633253,12.6048204 C33.7633253,10.6139322 32.1465408,9 30.1521339,9 C28.1577271,9 26.5409426,10.6139322 26.5409426,12.6048204 L26.5409426,12.6048199 Z M33.6777039,20.2830874 C33.6777039,19.2917618 32.8651859,18.4806772 31.8721083,18.4806772 L28.4664659,18.4806772 C27.4733883,18.4806772 26.6608702,19.2917618 26.6608702,20.2830874 L23.2663504,30.0161026 C23.2663504,31.0074282 24.0788684,31.8185128 25.071946,31.8185128 L27.1238611,31.8185128 L27.1238611,39 L33.1274306,39 L33.1274306,31.8185128 L35.1944043,31.8185128 C36.1874819,31.8185128 37,31.0074282 37,30.0161026 L33.6777039,20.2830874 L33.6777039,20.2830874 Z" id="形状" fill="#32C5FF" fill-rule="nonzero"></path>
                </g>
            </g>
        </g>
    </g>
</svg>