<?xml version="1.0" encoding="UTF-8"?>
<svg width="48px" height="48px" viewBox="0 0 48 48" version="1.1" xmlns="http://www.w3.org/2000/svg" xmlns:xlink="http://www.w3.org/1999/xlink">
    <title>停车场icon</title>
    <g id="页面-1" stroke="none" stroke-width="1" fill="none" fill-rule="evenodd">
        <g id="样稿2" transform="translate(-1690.000000, -758.000000)">
            <g id="休闲旅游设施" transform="translate(1500.000000, 678.000000)">
                <g id="停车场icon" transform="translate(190.000000, 80.000000)">
                    <rect id="矩形" fill-opacity="0.2" fill="#121212" x="0" y="0" width="48" height="48"></rect>
                    <path d="M48,0.000978957588 L48,0.237 L0.237,48 L0.000978957588,48 L0,46.823 L46.823,0 L48,0.000978957588 Z M48,1.652 L48,3.066 L3.066,48 L1.652,48 L48,1.652 Z M48,4.48 L48,5.894 L5.894,48 L4.48,48 L48,4.48 Z M48,7.309 L48,8.723 L8.723,48 L7.309,48 L48,7.309 Z M48,10.137 L48,11.551 L11.551,48 L10.137,48 L48,10.137 Z M48,12.965 L48,14.379 L14.379,48 L12.965,48 L48,12.965 Z M48,15.793 L48,17.208 L17.208,48 L15.793,48 L48,15.793 Z M48,18.622 L48,20.036 L20.036,48 L18.622,48 L48,18.622 Z M48,21.45 L48,22.865 L22.865,48 L21.45,48 L48,21.45 Z M48,24.279 L48,25.693 L25.693,48 L24.279,48 L48,24.279 Z M48,27.107 L48,28.521 L28.521,48 L27.107,48 L48,27.107 Z M48,29.935 L48,31.348 L31.349,48 L29.935,48 L48,29.935 Z M48,32.763 L48,34.177 L34.177,48 L32.763,48 L48,32.763 Z M48,35.591 L48,37.005 L37.005,48 L35.591,48 L48,35.591 Z M48,38.42 L48,39.834 L39.834,48 L38.42,48 L48,38.42 Z M48,41.248 L48,42.662 L42.662,48 L41.248,48 L48,41.248 Z M48,44.076 L48,45.49 L45.49,48 L44.076,48 L48,44.076 Z M48,46.904 L48,48 L46.904,48 L48,46.904 Z M45.409,0 L0,45.409 L0,43.995 L43.995,0 L45.409,0 Z M42.581,0 L0,42.581 L0,41.167 L41.167,0 L42.581,0 Z M39.753,0 L0,39.753 L0,38.338 L38.338,0 L39.753,0 Z M36.924,0 L0,36.924 L0,35.51 L35.51,0 L36.924,0 Z M34.096,0 L0,34.096 L0,32.681 L32.681,0 L34.096,0 Z M31.267,0 L0,31.267 L0,29.853 L29.853,0 L31.267,0 Z M28.439,0 L0,28.439 L0,27.025 L27.025,0 L28.439,0 Z M25.611,0 L0,25.611 L0,24.197 L24.197,0 L25.611,0 Z M22.782,0 L0,22.782 L0,21.368 L21.368,0 L22.782,0 Z M19.954,0 L0,19.954 L0,18.539 L18.539,0 L19.954,0 Z M17.125,0 L0,17.125 L0,15.711 L15.711,0 L17.125,0 Z M14.297,0 L0,14.297 L0,12.883 L12.883,0 L14.297,0 Z M11.469,0 L0,11.469 L0,10.055 L10.055,0 L11.469,0 Z M8.64,0 L0,8.641 L0,7.226 L7.226,0 L8.64,0 Z M5.812,0 L0,5.812 L0,4.398 L4.398,0 L5.812,0 Z M2.983,0 L0,2.983 L0,1.569 L1.569,0 L2.983,0 Z" id="形状结合" fill-opacity="0.25" fill="#32C5FF"></path>
                    <path d="M28.6553606,17.1710964 C28.6553606,12.6581362 25.0038171,9 20.4990871,9 C20.2939783,9 20.0926847,9.01565949 19.8912617,9.03062812 L12.6862672,9.03062812 L12.6862672,9.04615602 L9,9.04615602 L9,39 L13.1380626,39 L13.1380626,25.3161046 L19.862293,25.3161046 C20.1779419,25.3529834 20.1741268,25.3423573 20.4992487,25.3423573 C25.0039464,25.3421928 28.6553606,21.6844185 28.6553606,17.1710964 Z M19.862099,21.1053134 L13.1380626,21.1053134 L13.1380626,13.2102649 L19.862293,13.2102649 C21.8277999,13.3040902 23.629679,15.1329938 23.629679,17.1249404 C23.629679,19.1168869 21.8276706,21.0106327 19.8621313,21.1053134 L19.862099,21.1053134 Z M38.7240535,31.6253006 C38.593274,31.359155 38.2332344,31.0558017 38.2332344,31.0558017 L36.7492351,27.0132842 C36.4411194,26.2470548 35.5341662,25.8429675 35.1385301,25.8429675 L27.3444623,25.8429675 C26.9485028,25.8429675 26.0421963,26.2470548 25.7339835,27.0132842 L24.2496286,31.0558017 C24.2496286,31.0558017 23.8904296,31.3591221 23.7584863,31.6252677 C23.6267045,31.8904263 23.4831866,32.1277203 23.4831866,33.9197451 C23.4831866,35.6682787 23.8278365,36.2891644 24.2397029,36.5049429 L24.5654715,36.6922318 L24.5654715,38.3154894 C24.5654715,38.8415299 24.6881358,38.9979933 25.1796015,38.9979933 L26.2817377,38.9979933 C26.7725244,38.9979933 27.1034659,39 27.1034659,38.4739924 L27.1034659,36.895213 L35.3795911,36.895213 L35.3795911,38.4739924 C35.3795911,39.0000329 35.709983,38.9979933 36.200802,38.9979933 L37.3032615,38.9979933 C37.7943715,38.9979933 37.9170682,38.8415299 37.9170682,38.3154894 L37.9170682,36.6922318 L38.2428368,36.5049429 C38.6550265,36.2893288 38.9993208,35.6686735 38.9999999,33.9197451 C39.0001614,32.1277203 38.8564495,31.8903934 38.7240535,31.6253006 L38.7240535,31.6253006 Z M26.2262898,30.5811152 C26.2878483,30.3522432 26.7001996,28.5598564 26.8828059,27.9386747 C26.9579435,27.7242449 27.4461114,27.0851995 28.0155597,27.1215848 L34.4676266,27.1215848 C35.0367516,27.085035 35.5254045,27.7240804 35.5992165,27.9386747 C35.782631,28.5598893 36.1943358,30.3522432 36.2567349,30.5811481 C36.3302235,30.852656 36.08774,30.8289036 36.08774,30.8289036 L26.3954463,30.8289036 C26.3954463,30.8287391 26.1523162,30.852656 26.2262898,30.5811481 L26.2262898,30.5811152 Z M26.385844,34.9694574 C25.7316557,34.9694574 25.1998085,34.4269021 25.1998085,33.7632818 C25.1998085,33.0982798 25.7316557,32.5570733 26.385844,32.5570733 C27.0389007,32.5570733 27.5705864,33.0982469 27.5705864,33.7632818 C27.5709096,34.4270995 27.0390623,34.9694574 26.385844,34.9694574 Z M36.1339089,34.9694574 C35.4803672,34.9694574 34.947841,34.4269021 34.947841,33.7632818 C34.947841,33.0982798 35.4803672,32.5570733 36.1339089,32.5570733 C36.7867716,32.5570733 37.3188128,33.0982469 37.3188128,33.7632818 C37.3188128,34.4270995 36.7867716,34.9694574 36.1339089,34.9694574 Z" id="形状" fill="#32C5FF" fill-rule="nonzero"></path>
                </g>
            </g>
        </g>
    </g>
</svg>