<?xml version="1.0" encoding="UTF-8"?>
<svg width="48px" height="48px" viewBox="0 0 48 48" version="1.1" xmlns="http://www.w3.org/2000/svg" xmlns:xlink="http://www.w3.org/1999/xlink">
    <title>党员人数icon</title>
    <g id="页面-1" stroke="none" stroke-width="1" fill="none" fill-rule="evenodd">
        <g id="样稿2" transform="translate(-229.000000, -358.000000)">
            <g id="人口信息" transform="translate(40.000000, 175.000000)">
                <g id="党员人数icon" transform="translate(189.000000, 183.000000)">
                    <rect id="矩形" fill-opacity="0.2" fill="#121212" x="0" y="0" width="48" height="48"></rect>
                    <path d="M48,0 L48,0.893 L0.895,47.999 L0.000978957588,47.999021 L0,47.196 L47.197,0 L48,0 Z M48,2.308 L48,4.005 L4.005,47.999 L2.309,47.999 L48,2.308 Z M48,5.419 L48,7.116 L7.117,47.999 L5.421,47.999 L48,5.419 Z M48,8.531 L48,10.227 L10.229,47.999 L8.531,47.999 L48,8.531 Z M48,11.64 L48,13.338 L13.339,47.999 L11.642,47.999 L48,11.64 Z M48,14.752 L48,16.449 L16.451,47.999 L14.753,47.999 L48,14.752 Z M48,17.863 L48,19.56 L19.562,47.999 L17.865,47.999 L48,17.863 Z M48,20.974 L48,22.672 L22.673,47.999 L20.976,47.999 L48,20.974 Z M48,24.086 L48,25.783 L25.784,47.999 L24.087,47.999 L48,24.086 Z M48,27.197 L48,28.894 L28.895,47.999 L27.199,47.999 L48,27.197 Z M48,30.308 L48,32.005 L32.007,47.999 L30.31,47.999 L48,30.308 Z M48,33.419 L48,35.116 L35.118,47.999 L33.421,47.999 L48,33.419 Z M48,36.53 L48,38.228 L38.229,47.999 L36.531,47.999 L48,36.53 Z M48,39.642 L48,41.339 L41.34,47.999 L39.643,47.999 L48,39.642 Z M48,42.753 L48,44.45 L44.451,47.999 L42.754,47.999 L48,42.753 Z M48,45.864 L48,47.561 L47.562,47.999 L45.865,47.999 L48,45.864 Z M45.783,0 L0,45.782 L0,44.086 L44.085,0 L45.783,0 Z M42.671,0 L0,42.672 L0,40.974 L40.974,0 L42.671,0 Z M39.56,0 L0,39.56 L0,37.862 L37.863,0 L39.56,0 Z M36.449,0 L0,36.448 L0,34.752 L34.751,0 L36.449,0 Z M33.337,0 L0,33.338 L0,31.64 L31.641,0 L33.337,0 Z M30.226,0 L0,30.226 L0,28.53 L28.529,0 L30.226,0 Z M27.115,0 L0,27.115 L0,25.418 L25.418,0 L27.115,0 Z M24.004,0 L0,24.004 L0,22.306 L22.307,0 L24.004,0 Z M20.893,0 L0,20.892 L0,19.196 L19.195,0 L20.893,0 Z M17.781,0 L0,17.782 L0,16.084 L16.084,0 L17.781,0 Z M14.67,0 L0,14.67 L0,12.973 L12.973,0 L14.67,0 Z M11.559,0 L0,11.559 L0,9.861 L9.861,0 L11.559,0 Z M8.447,0 L0,8.447 L0,6.751 L6.751,0 L8.447,0 Z M5.336,0 L0,5.336 L0,3.639 L3.639,0 L5.336,0 Z M2.225,0 L0,2.225 L0,0.528 L0.528,0 L2.225,0 Z" id="形状结合" fill-opacity="0.25" fill="#32C5FF"></path>
                    <path d="M21.18011,37.2214287 C21.3730823,36.4071431 22.0377647,36.1928573 22.9383021,36.1500002 L21.7161442,34.564286 L23.3242467,33.1928574 L23.3242461,33.1928568 C25.7568396,35.6402273 29.4019693,36.4292507 32.6297997,35.2071425 L26.6262167,29.7642855 L25.4898242,31.0071426 L23.0026256,28.4999998 L27.0764855,24.4071428 C27.226575,24.2571428 27.5910783,24.2571428 27.8269333,24.2142857 C28.0627884,24.1714285 28.5773812,24.2142857 28.9418844,24.2142857 L28.9418848,24.2142857 C29.3055505,24.1791207 29.6647302,24.1073276 30.0139532,23.9999999 L30.2283668,23.9999999 L31.4290834,25.1357142 L29.5422431,27.1071427 L34.8597023,32.8928568 C39.2122999,28.1142855 30.4427805,22.0071429 30.4427805,22.0071429 L30.4427808,22.0071429 C34.5507459,21.9109882 38.1290757,24.7900613 38.9121211,28.8214283 L38.9121212,28.8214288 C39.2183488,31.1461207 38.7189458,33.5055134 37.4969909,35.5071428 L38.8477971,36.5357142 C38.0544665,37.4142856 36.5750121,39 36.5321293,39 C36.4892466,39 35.7173574,38.1214285 35.3099714,37.7571428 L35.3099713,37.7571427 C35.13625,37.6331641 34.9189109,37.5866192 34.709613,37.6285713 L34.7096134,37.6285711 C31.3705995,39.1863177 27.4972733,39.1071559 24.2247846,37.4142858 L22.8954198,39 C22.7024475,39 20.9656967,38.0785715 21.1801104,37.2214286 L21.18011,37.2214287 Z M19.1002973,29.7428576 C19.4862419,30.321429 20.6440758,31.8857146 20.9442549,32.3357146 L20.9442549,32.3357147 C21.040793,32.5615564 21.040793,32.8170171 20.9442549,33.0428575 C20.0437175,34.9071431 19.0788559,36.7500002 18.1354357,38.5928573 C18.1354357,38.7428573 17.8138152,38.9785716 17.6637256,38.9785716 L17.6637265,38.9785715 C15.511432,39.0532327 13.3569933,38.916867 11.2313162,38.571432 C9.21581758,38.1642859 9.0014039,37.5857144 9.0014039,35.7000002 L9.00140389,35.699999 C8.95428246,32.3784065 10.0947428,29.1490171 12.217609,26.5928565 L12.2176093,26.5928561 C13.7420872,24.8787345 15.9490104,23.9289902 18.2426337,23.9999991 C18.2426337,23.9999991 24.0103616,23.8928562 24.3963062,23.9999991 C24.7822508,24.1071419 25.1038713,24.2142848 24.8036922,24.4928562 L19.1002973,29.7428576 Z M14.2974309,15.642858 L14.2974309,15.6428571 C14.2974309,19.3115959 17.2733152,22.2857141 20.9442549,22.2857141 C24.6151846,22.2857141 27.5910789,19.3116059 27.5910789,15.6428571 C27.5910789,15.6428571 27.5910789,15.642857 27.5910789,15.6428569 L27.5910789,15.6428569 C27.5910789,11.9741182 24.6151946,9 20.9442549,9 C17.2733252,9 14.2974309,11.9741082 14.2974309,15.6428569 L14.2974309,15.642858 Z" fill="#32C5FF" fill-rule="nonzero"></path>
                </g>
            </g>
        </g>
    </g>
</svg>