<?xml version="1.0" encoding="UTF-8"?>
<svg width="48px" height="48px" viewBox="0 0 48 48" version="1.1" xmlns="http://www.w3.org/2000/svg" xmlns:xlink="http://www.w3.org/1999/xlink">
    <title>农家乐icon</title>
    <g id="页面-1" stroke="none" stroke-width="1" fill="none" fill-rule="evenodd">
        <g id="样稿2" transform="translate(-1500.000000, -826.000000)">
            <g id="休闲旅游设施" transform="translate(1500.000000, 678.000000)">
                <g id="农家乐icon" transform="translate(0.000000, 148.000000)">
                    <rect id="矩形" fill-opacity="0.2" fill="#121212" x="0" y="0" width="48" height="48"></rect>
                    <path d="M48,0.000978957588 L48,0.237 L0.237,48 L0.000978957588,48 L0,46.823 L46.823,0 L48,0.000978957588 Z M48,1.652 L48,3.066 L3.066,48 L1.652,48 L48,1.652 Z M48,4.48 L48,5.894 L5.894,48 L4.48,48 L48,4.48 Z M48,7.309 L48,8.723 L8.723,48 L7.309,48 L48,7.309 Z M48,10.137 L48,11.551 L11.551,48 L10.137,48 L48,10.137 Z M48,12.965 L48,14.379 L14.379,48 L12.965,48 L48,12.965 Z M48,15.793 L48,17.208 L17.208,48 L15.793,48 L48,15.793 Z M48,18.622 L48,20.036 L20.036,48 L18.622,48 L48,18.622 Z M48,21.45 L48,22.865 L22.865,48 L21.45,48 L48,21.45 Z M48,24.279 L48,25.693 L25.693,48 L24.279,48 L48,24.279 Z M48,27.107 L48,28.521 L28.521,48 L27.107,48 L48,27.107 Z M48,29.935 L48,31.348 L31.349,48 L29.935,48 L48,29.935 Z M48,32.763 L48,34.177 L34.177,48 L32.763,48 L48,32.763 Z M48,35.591 L48,37.005 L37.005,48 L35.591,48 L48,35.591 Z M48,38.42 L48,39.834 L39.834,48 L38.42,48 L48,38.42 Z M48,41.248 L48,42.662 L42.662,48 L41.248,48 L48,41.248 Z M48,44.076 L48,45.49 L45.49,48 L44.076,48 L48,44.076 Z M48,46.904 L48,48 L46.904,48 L48,46.904 Z M45.409,0 L0,45.409 L0,43.995 L43.995,0 L45.409,0 Z M42.581,0 L0,42.581 L0,41.167 L41.167,0 L42.581,0 Z M39.753,0 L0,39.753 L0,38.338 L38.338,0 L39.753,0 Z M36.924,0 L0,36.924 L0,35.51 L35.51,0 L36.924,0 Z M34.096,0 L0,34.096 L0,32.681 L32.681,0 L34.096,0 Z M31.267,0 L0,31.267 L0,29.853 L29.853,0 L31.267,0 Z M28.439,0 L0,28.439 L0,27.025 L27.025,0 L28.439,0 Z M25.611,0 L0,25.611 L0,24.197 L24.197,0 L25.611,0 Z M22.782,0 L0,22.782 L0,21.368 L21.368,0 L22.782,0 Z M19.954,0 L0,19.954 L0,18.539 L18.539,0 L19.954,0 Z M17.125,0 L0,17.125 L0,15.711 L15.711,0 L17.125,0 Z M14.297,0 L0,14.297 L0,12.883 L12.883,0 L14.297,0 Z M11.469,0 L0,11.469 L0,10.055 L10.055,0 L11.469,0 Z M8.64,0 L0,8.641 L0,7.226 L7.226,0 L8.64,0 Z M5.812,0 L0,5.812 L0,4.398 L4.398,0 L5.812,0 Z M2.983,0 L0,2.983 L0,1.569 L1.569,0 L2.983,0 Z" id="形状结合" fill-opacity="0.25" fill="#32C5FF"></path>
                    <path d="M10.6626624,17.9296806 L11.5990819,16.9932611 L11.5990819,25.9423772 L12.7081746,25.9423772 L12.7081746,15.7978318 L16.5435101,11.7068073 L22.0823323,17.92636 L37.6793632,17.92636 L30.6064069,10 L14.9230394,10 L7.85008302,17.4149819 L10.6626624,17.9296806 L10.6626624,17.9296806 Z M14.9230394,20.2275613 L17.2242406,20.2275613 L17.2242406,16.8205879 L14.9230394,16.8205879 L14.9230394,20.2275613 L14.9230394,20.2275613 Z M25.14728,30.4551226 L26.2563727,30.4551226 L26.2563727,23.6378553 L28.3018849,21.1673015 L31.6258424,24.7469479 L41,24.7469479 L36.8226389,20.2308819 L27.4484813,20.2308819 L22.8493994,25.6833675 L24.3835335,25.85272 L25.0642641,24.9993163 L25.14728,30.4551226 Z M27.4484813,27.0481492 L28.557574,27.0481492 L28.557574,24.7469479 L27.4484813,24.7469479 L27.4484813,27.0481492 Z M9.29788065,25.7697041 L9.29788065,24.9163004 C9.29788065,24.8299639 9.2115441,24.7469479 9.12852818,24.7469479 L7.16935248,24.7469479 C7.08301592,24.7469479 7,24.8332845 7,24.9163004 L7,25.7697041 C7,25.8560406 7.08633656,25.9390565 7.16935248,25.9390565 L9.12852818,25.9390565 C9.2115441,25.9390565 9.29788065,25.85272 9.29788065,25.7697041 Z M10.4069733,28.0709054 L10.4069733,27.2175017 C10.4069733,27.1311652 10.3206368,27.0481492 10.2376209,27.0481492 L8.27844516,27.0481492 C8.1921086,27.0481492 8.10909268,27.1344858 8.10909268,27.2175017 L8.10909268,28.0709054 C8.10909268,28.1572419 8.19542924,28.2402578 8.27844516,28.2402578 L10.2376209,28.2402578 C10.3206368,28.1539213 10.4069733,28.1539213 10.4069733,28.0709054 Z M13.8139467,30.2857701 L13.8139467,29.4323664 C13.8139467,29.3460299 13.7276101,29.263014 13.6445942,29.263014 L9.46723313,29.263014 C9.38089657,29.263014 9.29788065,29.3493505 9.29788065,29.4323664 L9.29788065,30.2857701 C9.29788065,30.3721067 9.38421721,30.4551226 9.46723313,30.4551226 L13.6445942,30.4551226 C13.7276101,30.4551226 13.8139467,30.368786 13.8139467,30.2857701 Z M16.115148,31.7335677 C16.115148,31.6472312 16.0288114,31.5642153 15.9457955,31.5642153 L11.7684344,31.5642153 C11.6820979,31.5642153 11.5990819,31.6505518 11.5990819,31.7335677 L11.5990819,32.5869714 C11.5990819,32.6733079 11.6854185,32.7563239 11.7684344,32.7563239 L15.9457955,32.7563239 C16.032132,32.7563239 16.115148,32.6699873 16.115148,32.5869714 L16.115148,31.7335677 Z M20.631214,34.8881727 L20.631214,34.034769 C20.631214,33.9484325 20.5448774,33.8654165 20.4618615,33.8654165 L16.2845004,33.8654165 C16.1981639,33.8654165 16.115148,33.9517531 16.115148,34.034769 L16.115148,34.8881727 C16.115148,34.9745092 16.2014845,35.0575251 16.2845004,35.0575251 L20.4618615,35.0575251 C20.5481981,34.9711886 20.631214,34.9711886 20.631214,34.8881727 Z M23.8721555,36.1666178 L19.6947944,36.1666178 C19.6084579,36.1666178 19.5254419,36.2529544 19.5254419,36.2529544 L19.5254419,37.189374 C19.5254419,37.2757105 19.6117785,37.2757105 19.6947944,37.2757105 L23.8721555,37.2757105 C23.958492,37.2757105 24.041508,37.189374 24.041508,37.189374 L24.041508,36.2529544 C24.041508,36.1666178 23.9551714,36.1666178 23.8721555,36.1666178 Z M29.5803301,36.1666178 L25.402969,36.1666178 C25.3166325,36.1666178 25.2336166,36.2529544 25.2336166,36.2529544 L25.2336166,37.189374 C25.2336166,37.2757105 25.3199531,37.2757105 25.402969,37.2757105 L29.5803301,37.2757105 C29.6666667,37.2757105 29.7496826,37.189374 29.7496826,37.189374 L29.7496826,36.2529544 C29.7496826,36.1666178 29.6666667,36.1666178 29.5803301,36.1666178 Z M35.2054888,36.1666178 L31.0281277,36.1666178 C30.9417912,36.1666178 30.8587753,36.2529544 30.8587753,36.2529544 L30.8587753,37.189374 C30.8587753,37.2757105 30.9451118,37.2757105 31.0281277,37.2757105 L35.2054888,37.2757105 C35.2918254,37.2757105 35.3748413,37.189374 35.3748413,37.189374 L35.3748413,36.2529544 C35.3748413,36.1666178 35.2918254,36.1666178 35.2054888,36.1666178 Z" id="形状" fill="#32C5FF" fill-rule="nonzero"></path>
                </g>
            </g>
        </g>
    </g>
</svg>