<?xml version="1.0" encoding="UTF-8"?>
<svg width="48px" height="48px" viewBox="0 0 48 48" version="1.1" xmlns="http://www.w3.org/2000/svg" xmlns:xlink="http://www.w3.org/1999/xlink">
    <title>危房数量icon</title>
    <g id="页面-1" stroke="none" stroke-width="1" fill="none" fill-rule="evenodd">
        <g id="样稿2" transform="translate(-1689.000000, -255.000000)">
            <g id="房屋及林地信息" transform="translate(1500.000000, 175.000000)">
                <g id="危房数量icon" transform="translate(189.000000, 80.000000)">
                    <rect id="矩形" fill-opacity="0.2" fill="#121212" x="0" y="0" width="48" height="48"></rect>
                    <path d="M48,0.000978957588 L48,0.237 L0.237,48 L0.000978957588,48 L0,46.823 L46.823,0 L48,0.000978957588 Z M48,1.652 L48,3.066 L3.066,48 L1.652,48 L48,1.652 Z M48,4.48 L48,5.894 L5.894,48 L4.48,48 L48,4.48 Z M48,7.309 L48,8.723 L8.723,48 L7.309,48 L48,7.309 Z M48,10.137 L48,11.551 L11.551,48 L10.137,48 L48,10.137 Z M48,12.965 L48,14.379 L14.379,48 L12.965,48 L48,12.965 Z M48,15.793 L48,17.208 L17.208,48 L15.793,48 L48,15.793 Z M48,18.622 L48,20.036 L20.036,48 L18.622,48 L48,18.622 Z M48,21.45 L48,22.865 L22.865,48 L21.45,48 L48,21.45 Z M48,24.279 L48,25.693 L25.693,48 L24.279,48 L48,24.279 Z M48,27.107 L48,28.521 L28.521,48 L27.107,48 L48,27.107 Z M48,29.935 L48,31.348 L31.349,48 L29.935,48 L48,29.935 Z M48,32.763 L48,34.177 L34.177,48 L32.763,48 L48,32.763 Z M48,35.591 L48,37.005 L37.005,48 L35.591,48 L48,35.591 Z M48,38.42 L48,39.834 L39.834,48 L38.42,48 L48,38.42 Z M48,41.248 L48,42.662 L42.662,48 L41.248,48 L48,41.248 Z M48,44.076 L48,45.49 L45.49,48 L44.076,48 L48,44.076 Z M48,46.904 L48,48 L46.904,48 L48,46.904 Z M45.409,0 L0,45.409 L0,43.995 L43.995,0 L45.409,0 Z M42.581,0 L0,42.581 L0,41.167 L41.167,0 L42.581,0 Z M39.753,0 L0,39.753 L0,38.338 L38.338,0 L39.753,0 Z M36.924,0 L0,36.924 L0,35.51 L35.51,0 L36.924,0 Z M34.096,0 L0,34.096 L0,32.681 L32.681,0 L34.096,0 Z M31.267,0 L0,31.267 L0,29.853 L29.853,0 L31.267,0 Z M28.439,0 L0,28.439 L0,27.025 L27.025,0 L28.439,0 Z M25.611,0 L0,25.611 L0,24.197 L24.197,0 L25.611,0 Z M22.782,0 L0,22.782 L0,21.368 L21.368,0 L22.782,0 Z M19.954,0 L0,19.954 L0,18.539 L18.539,0 L19.954,0 Z M17.125,0 L0,17.125 L0,15.711 L15.711,0 L17.125,0 Z M14.297,0 L0,14.297 L0,12.883 L12.883,0 L14.297,0 Z M11.469,0 L0,11.469 L0,10.055 L10.055,0 L11.469,0 Z M8.64,0 L0,8.641 L0,7.226 L7.226,0 L8.64,0 Z M5.812,0 L0,5.812 L0,4.398 L4.398,0 L5.812,0 Z M2.983,0 L0,2.983 L0,1.569 L1.569,0 L2.983,0 Z" id="形状结合" fill-opacity="0.25" fill="#32C5FF"></path>
                    <path d="M23.9982141,16.3016411 L34.9672955,26.3339411 L34.9672955,38 L13.0291327,38 L13.0291327,26.3339411 L23.9982141,16.3016411 Z M23.9992591,23 C23.6851232,23 23.3961775,23.1725605 23.2494819,23.4431002 L23.2494819,23.4431002 L18.1062476,32.7496676 C17.9595521,33.0085084 17.9654792,33.3258442 18.1195836,33.5832225 C18.273688,33.8420633 18.5552249,34 18.8560248,34 L18.8560248,34 L29.1439752,34 C29.4447751,34 29.726312,33.8406009 29.8804164,33.5832225 C30.0345208,33.3243818 30.0404479,33.007046 29.8937524,32.7496676 L29.8937524,32.7496676 L24.7490363,23.4431002 C24.6023408,23.1725605 24.313395,23 23.9992591,23 Z M24.6423486,30.6160596 C24.763854,30.6160596 24.8572057,30.7155012 24.8572057,30.8339537 L24.8572057,30.8339537 L24.8572057,32.0901356 C24.8572057,32.2085881 24.7623722,32.3080298 24.6423486,32.3080298 L24.6423486,32.3080298 L23.3561696,32.3080298 C23.2346642,32.3080298 23.1413125,32.2085881 23.1413125,32.0901356 L23.1413125,32.0901356 L23.1413125,30.8339537 C23.1413125,30.7155012 23.236146,30.6160596 23.3561696,30.6160596 L23.3561696,30.6160596 Z M24.7371821,26.3839404 C24.796453,26.3839404 24.8572057,26.4234246 24.8972136,26.4570593 C24.9431486,26.490694 24.9638934,26.5433395 24.9638934,26.5828237 L24.9638934,26.5828237 L24.8468333,29.617256 C24.8394244,29.7035363 24.7386639,29.7693433 24.6186403,29.7693433 L24.6186403,29.7693433 L23.379878,29.7693433 C23.2524455,29.7693433 23.1516849,29.7035363 23.1516849,29.617256 L23.1516849,29.617256 L23.0375884,26.5959851 C23.0375884,26.5565009 23.0568514,26.490694 23.1042682,26.4570593 C23.1442761,26.4234246 23.203547,26.3839404 23.2642997,26.3839404 L23.2642997,26.3839404 Z M23.9982141,10 L30.1703315,15.6014587 L30.1703315,10.9335765 L34.9708673,10.9335765 L34.9708673,20.0323001 L40,24.4667882 L37.9426275,27.0341235 L23.9982141,14.4344881 L10.0573725,27.0341235 L8,24.4667882 L23.9982141,10 Z" id="形状结合" fill="#32C5FF" fill-rule="nonzero"></path>
                </g>
            </g>
        </g>
    </g>
</svg>