<?xml version="1.0" encoding="UTF-8"?>
<svg width="48px" height="48px" viewBox="0 0 48 48" version="1.1" xmlns="http://www.w3.org/2000/svg" xmlns:xlink="http://www.w3.org/1999/xlink">
    <title>孤寡老人icon</title>
    <g id="页面-1" stroke="none" stroke-width="1" fill="none" fill-rule="evenodd">
        <g id="样稿2" transform="translate(-40.000000, -499.000000)">
            <g id="人口信息" transform="translate(40.000000, 175.000000)">
                <g id="孤寡老人icon" transform="translate(0.000000, 324.000000)">
                    <rect id="矩形" fill-opacity="0.2" fill="#121212" x="0" y="0" width="48" height="48"></rect>
                    <path d="M48,0 L48,0.893 L0.895,47.999 L0.000978957588,47.999021 L0,47.196 L47.197,0 L48,0 Z M48,2.308 L48,4.005 L4.005,47.999 L2.309,47.999 L48,2.308 Z M48,5.419 L48,7.116 L7.117,47.999 L5.421,47.999 L48,5.419 Z M48,8.531 L48,10.227 L10.229,47.999 L8.531,47.999 L48,8.531 Z M48,11.64 L48,13.338 L13.339,47.999 L11.642,47.999 L48,11.64 Z M48,14.752 L48,16.449 L16.451,47.999 L14.753,47.999 L48,14.752 Z M48,17.863 L48,19.56 L19.562,47.999 L17.865,47.999 L48,17.863 Z M48,20.974 L48,22.672 L22.673,47.999 L20.976,47.999 L48,20.974 Z M48,24.086 L48,25.783 L25.784,47.999 L24.087,47.999 L48,24.086 Z M48,27.197 L48,28.894 L28.895,47.999 L27.199,47.999 L48,27.197 Z M48,30.308 L48,32.005 L32.007,47.999 L30.31,47.999 L48,30.308 Z M48,33.419 L48,35.116 L35.118,47.999 L33.421,47.999 L48,33.419 Z M48,36.53 L48,38.228 L38.229,47.999 L36.531,47.999 L48,36.53 Z M48,39.642 L48,41.339 L41.34,47.999 L39.643,47.999 L48,39.642 Z M48,42.753 L48,44.45 L44.451,47.999 L42.754,47.999 L48,42.753 Z M48,45.864 L48,47.561 L47.562,47.999 L45.865,47.999 L48,45.864 Z M45.783,0 L0,45.782 L0,44.086 L44.085,0 L45.783,0 Z M42.671,0 L0,42.672 L0,40.974 L40.974,0 L42.671,0 Z M39.56,0 L0,39.56 L0,37.862 L37.863,0 L39.56,0 Z M36.449,0 L0,36.448 L0,34.752 L34.751,0 L36.449,0 Z M33.337,0 L0,33.338 L0,31.64 L31.641,0 L33.337,0 Z M30.226,0 L0,30.226 L0,28.53 L28.529,0 L30.226,0 Z M27.115,0 L0,27.115 L0,25.418 L25.418,0 L27.115,0 Z M24.004,0 L0,24.004 L0,22.306 L22.307,0 L24.004,0 Z M20.893,0 L0,20.892 L0,19.196 L19.195,0 L20.893,0 Z M17.781,0 L0,17.782 L0,16.084 L16.084,0 L17.781,0 Z M14.67,0 L0,14.67 L0,12.973 L12.973,0 L14.67,0 Z M11.559,0 L0,11.559 L0,9.861 L9.861,0 L11.559,0 Z M8.447,0 L0,8.447 L0,6.751 L6.751,0 L8.447,0 Z M5.336,0 L0,5.336 L0,3.639 L3.639,0 L5.336,0 Z M2.225,0 L0,2.225 L0,0.528 L0.528,0 L2.225,0 Z" id="形状结合" fill-opacity="0.25" fill="#32C5FF"></path>
                    <path d="M33.0171524,28.3786811 L33.0171524,28.3786811 C32.5319422,28.3767838 32.0514199,28.467941 31.6050031,28.6465733 C31.5694129,28.6164772 31.5551766,28.5830373 31.519586,28.5529409 L22.5404984,20.1632011 L22.5404985,20.1632012 C21.9441486,19.6086958 21.0768443,19.3977338 20.2690371,19.6106972 L20.2512419,19.5939771 C20.2334467,19.6106972 20.2014154,19.6106972 20.1836199,19.6240732 L20.18362,19.6240732 C19.8800017,19.709034 19.5992665,19.8540969 19.3602937,20.049504 C13.8433838,23.1653686 10.0601083,30.6700597 10.0601083,36.8821276 C10.0601083,37.7497131 9.92486464,38.1617684 10.0601083,39 L27.3511335,39 L27.3511335,30.8108928 L28.2104456,31.6182855 L28.2104457,31.6182857 C28.3521766,31.7514403 28.5101295,31.868422 28.6810299,31.9668059 L28.6810299,31.9668059 C28.7665261,32.8249158 29.5762028,33.455428 30.4894934,33.3750986 C31.2200884,33.3108375 31.8192179,32.8037286 31.9632605,32.1276905 L31.9952919,32.1276905 L31.9952919,31.8092666 L31.9952919,31.8094318 C31.995292,31.2949826 32.4391539,30.8779385 32.9866847,30.8779385 C33.5340782,30.8779386 33.9778808,31.2947801 33.9780776,31.8091002 L33.9780776,38.9990942 L36.6343097,38.9990942 L36.6343097,31.8092763 C36.6699,29.9143388 35.0370912,28.3786853 33.0187196,28.3786853 L33.0171524,28.3786811 Z M19.8530546,29.4503997 L20.3240581,29.8996735 L20.7950617,29.4503997 C21.5777067,28.7308862 22.8207311,28.7410202 23.5892106,29.4740457 C24.3506073,30.2070713 24.3612315,31.3927486 23.6069175,32.1359081 L21.6626998,33.990429 L20.3240581,35.2706902 L18.9145888,33.929625 L18.8968819,33.9127351 L17.034116,32.1359081 C16.5170745,31.6596104 16.308133,30.9536088 16.4922848,30.2881432 C16.6764366,29.6226776 17.2182677,29.1058439 17.9159196,28.930188 C18.6135715,28.7579101 19.35372,28.953834 19.8530546,29.4503997 Z M23.2290084,11.3286885 C24.1385199,10.0174635 31.184253,8.61037981 32.0937864,9.0993487 C32.6408612,9.39871669 33.3372723,10.0324854 33.6304215,10.3169567 L33.7408326,10.4269189 L35.3206517,12.1018942 L35.6413622,12.0212664 C36.1621677,11.8941933 37.8274058,12.5440468 37.9630448,13.0333854 L37.9630448,13.0333854 C38.1125032,13.5244784 37.7949566,14.0301673 37.2571452,14.1672715 L37.2571452,14.1672715 L34.7677927,14.7989164 C34.9900357,15.3816458 35.1034977,15.9960622 35.1031761,16.6150769 L35.1031761,16.6150769 L35.0987697,16.828851 C34.9786996,19.7347861 32.4198931,22.0525539 29.2837515,22.0525539 C26.4376873,22.0525539 24.0669702,20.1431228 23.5639576,17.6131951 L23.5639576,17.6131951 L21.4451403,18.1374603 C21.192797,18.2043044 20.9225308,18.1742327 20.6937853,18.0538602 L20.6937853,18.0538602 L20.5846974,17.9866984 C20.412201,17.8639806 20.2877837,17.6891904 20.2338762,17.4898382 L20.2338762,17.4898382 L20.2225314,17.4103424 C20.2062611,16.8695549 21.218881,15.6509495 21.7136463,15.5298779 L21.7136463,15.5298779 L22.0343567,15.4529658 L22.5907544,12.8765936 C22.6753779,12.5618848 22.843841,11.898286 23.2290084,11.3286885 Z" fill="#32C5FF" fill-rule="nonzero"></path>
                </g>
            </g>
        </g>
    </g>
</svg>