<?xml version="1.0" encoding="UTF-8"?>
<svg width="48px" height="48px" viewBox="0 0 48 48" version="1.1" xmlns="http://www.w3.org/2000/svg" xmlns:xlink="http://www.w3.org/1999/xlink">
    <title>常驻外出icon</title>
    <g id="页面-1" stroke="none" stroke-width="1" fill="none" fill-rule="evenodd">
        <g id="样稿2" transform="translate(-40.000000, -715.000000)">
            <g id="人口信息" transform="translate(40.000000, 175.000000)">
                <g id="常驻外出icon" transform="translate(0.000000, 540.000000)">
                    <rect id="矩形" fill-opacity="0.2" fill="#121212" x="0" y="0" width="48" height="48"></rect>
                    <path d="M48,0 L48,0.893 L0.895,47.999 L0.000978957588,47.999021 L0,47.196 L47.197,0 L48,0 Z M48,2.308 L48,4.005 L4.005,47.999 L2.309,47.999 L48,2.308 Z M48,5.419 L48,7.116 L7.117,47.999 L5.421,47.999 L48,5.419 Z M48,8.531 L48,10.227 L10.229,47.999 L8.531,47.999 L48,8.531 Z M48,11.64 L48,13.338 L13.339,47.999 L11.642,47.999 L48,11.64 Z M48,14.752 L48,16.449 L16.451,47.999 L14.753,47.999 L48,14.752 Z M48,17.863 L48,19.56 L19.562,47.999 L17.865,47.999 L48,17.863 Z M48,20.974 L48,22.672 L22.673,47.999 L20.976,47.999 L48,20.974 Z M48,24.086 L48,25.783 L25.784,47.999 L24.087,47.999 L48,24.086 Z M48,27.197 L48,28.894 L28.895,47.999 L27.199,47.999 L48,27.197 Z M48,30.308 L48,32.005 L32.007,47.999 L30.31,47.999 L48,30.308 Z M48,33.419 L48,35.116 L35.118,47.999 L33.421,47.999 L48,33.419 Z M48,36.53 L48,38.228 L38.229,47.999 L36.531,47.999 L48,36.53 Z M48,39.642 L48,41.339 L41.34,47.999 L39.643,47.999 L48,39.642 Z M48,42.753 L48,44.45 L44.451,47.999 L42.754,47.999 L48,42.753 Z M48,45.864 L48,47.561 L47.562,47.999 L45.865,47.999 L48,45.864 Z M45.783,0 L0,45.782 L0,44.086 L44.085,0 L45.783,0 Z M42.671,0 L0,42.672 L0,40.974 L40.974,0 L42.671,0 Z M39.56,0 L0,39.56 L0,37.862 L37.863,0 L39.56,0 Z M36.449,0 L0,36.448 L0,34.752 L34.751,0 L36.449,0 Z M33.337,0 L0,33.338 L0,31.64 L31.641,0 L33.337,0 Z M30.226,0 L0,30.226 L0,28.53 L28.529,0 L30.226,0 Z M27.115,0 L0,27.115 L0,25.418 L25.418,0 L27.115,0 Z M24.004,0 L0,24.004 L0,22.306 L22.307,0 L24.004,0 Z M20.893,0 L0,20.892 L0,19.196 L19.195,0 L20.893,0 Z M17.781,0 L0,17.782 L0,16.084 L16.084,0 L17.781,0 Z M14.67,0 L0,14.67 L0,12.973 L12.973,0 L14.67,0 Z M11.559,0 L0,11.559 L0,9.861 L9.861,0 L11.559,0 Z M8.447,0 L0,8.447 L0,6.751 L6.751,0 L8.447,0 Z M5.336,0 L0,5.336 L0,3.639 L3.639,0 L5.336,0 Z M2.225,0 L0,2.225 L0,0.528 L0.528,0 L2.225,0 Z" id="形状结合" fill-opacity="0.25" fill="#32C5FF"></path>
                    <path d="M24,9 C25.976,9 27.64,10.7142857 27.64,12.7504762 C27.64,14.7857143 25.976,16.5 24,16.5 C22.024,16.5 20.36,14.7857143 20.36,12.7495238 C20.36,10.7142857 22.024,9 24,9 Z M26.6,39 L21.4,39 L20.36,27.2142857 L18.28,27.2142857 L18.28,19.9285714 C18.28,18.6428571 19.32,17.5714286 20.568,17.5714286 L27.328,17.5714286 C28.68,17.5714286 29.72,18.6428571 29.72,19.9285714 L29.72,27.2142857 L27.64,27.2142857 L26.6,39 Z M30.76,36.8571429 L30.76,19.7142857 L35.336,19.7142857 C36.272,19.7142857 37,20.5714286 37,21.6428571 L37,27.2142857 L35.232,27.2142857 L33.984,36.8571429 L30.76,36.8571429 Z M33.36,13.2857143 C34.504,13.2857143 35.544,14.1428571 35.856,15.3219048 C36.168,16.5 35.648,17.6790476 34.608,18.3219048 C33.568,18.9647619 32.32,18.7504762 31.488,17.8933333 C31.384,17.7857143 31.28,17.6790476 31.28,17.5714286 L31.28,17.5714286 C30.9544719,17.1009673 30.7733947,16.5414911 30.76,15.9647619 C30.76,15.2142857 31.072,14.5714286 31.488,14.0361905 C32.008,13.6076191 32.632,13.2857143 33.36,13.2857143 L33.36,13.2857143 Z M17.24,36.8571429 L14.016,36.8571429 L12.768,27.2142857 L11,27.2142857 L11,21.6428571 C11,20.5714286 11.728,19.7142857 12.664,19.7142857 L17.24,19.7142857 L17.24,36.8571429 Z M14.64,13.2857132 C15.368,13.2857132 15.992,13.607619 16.512,14.0361905 C17.032,14.4647619 17.24,15.2142857 17.24,15.9647619 L17.24,15.9647608 C17.2266052,16.54149 17.0455299,17.1009662 16.72,17.5714275 C16.616,17.6790465 16.512,17.7857132 16.512,17.8933323 C15.68,18.7504751 14.432,18.9647608 13.392,18.3219037 C12.352,17.6790465 11.832,16.4999989 12.144,15.3219037 C12.456,14.1428561 13.496,13.2857132 14.64,13.2857132 L14.64,13.2857132 Z" id="形状" fill="#32C5FF" fill-rule="nonzero"></path>
                </g>
            </g>
        </g>
    </g>
</svg>