<?xml version="1.0" encoding="UTF-8"?>
<svg width="48px" height="48px" viewBox="0 0 48 48" version="1.1" xmlns="http://www.w3.org/2000/svg" xmlns:xlink="http://www.w3.org/1999/xlink">
    <title>总人口数icon</title>
    <g id="页面-1" stroke="none" stroke-width="1" fill="none" fill-rule="evenodd">
        <g id="样稿2" transform="translate(-40.000000, -283.000000)">
            <g id="人口信息" transform="translate(40.000000, 175.000000)">
                <g id="总人口数icon" transform="translate(0.000000, 108.000000)">
                    <rect id="矩形" fill-opacity="0.2" fill="#121212" x="0" y="0" width="48" height="48"></rect>
                    <path d="M48,0 L48,0.893 L0.895,47.999 L0.000978957588,47.999021 L0,47.196 L47.197,0 L48,0 Z M48,2.308 L48,4.005 L4.005,47.999 L2.309,47.999 L48,2.308 Z M48,5.419 L48,7.116 L7.117,47.999 L5.421,47.999 L48,5.419 Z M48,8.531 L48,10.227 L10.229,47.999 L8.531,47.999 L48,8.531 Z M48,11.64 L48,13.338 L13.339,47.999 L11.642,47.999 L48,11.64 Z M48,14.752 L48,16.449 L16.451,47.999 L14.753,47.999 L48,14.752 Z M48,17.863 L48,19.56 L19.562,47.999 L17.865,47.999 L48,17.863 Z M48,20.974 L48,22.672 L22.673,47.999 L20.976,47.999 L48,20.974 Z M48,24.086 L48,25.783 L25.784,47.999 L24.087,47.999 L48,24.086 Z M48,27.197 L48,28.894 L28.895,47.999 L27.199,47.999 L48,27.197 Z M48,30.308 L48,32.005 L32.007,47.999 L30.31,47.999 L48,30.308 Z M48,33.419 L48,35.116 L35.118,47.999 L33.421,47.999 L48,33.419 Z M48,36.53 L48,38.228 L38.229,47.999 L36.531,47.999 L48,36.53 Z M48,39.642 L48,41.339 L41.34,47.999 L39.643,47.999 L48,39.642 Z M48,42.753 L48,44.45 L44.451,47.999 L42.754,47.999 L48,42.753 Z M48,45.864 L48,47.561 L47.562,47.999 L45.865,47.999 L48,45.864 Z M45.783,0 L0,45.782 L0,44.086 L44.085,0 L45.783,0 Z M42.671,0 L0,42.672 L0,40.974 L40.974,0 L42.671,0 Z M39.56,0 L0,39.56 L0,37.862 L37.863,0 L39.56,0 Z M36.449,0 L0,36.448 L0,34.752 L34.751,0 L36.449,0 Z M33.337,0 L0,33.338 L0,31.64 L31.641,0 L33.337,0 Z M30.226,0 L0,30.226 L0,28.53 L28.529,0 L30.226,0 Z M27.115,0 L0,27.115 L0,25.418 L25.418,0 L27.115,0 Z M24.004,0 L0,24.004 L0,22.306 L22.307,0 L24.004,0 Z M20.893,0 L0,20.892 L0,19.196 L19.195,0 L20.893,0 Z M17.781,0 L0,17.782 L0,16.084 L16.084,0 L17.781,0 Z M14.67,0 L0,14.67 L0,12.973 L12.973,0 L14.67,0 Z M11.559,0 L0,11.559 L0,9.861 L9.861,0 L11.559,0 Z M8.447,0 L0,8.447 L0,6.751 L6.751,0 L8.447,0 Z M5.336,0 L0,5.336 L0,3.639 L3.639,0 L5.336,0 Z M2.225,0 L0,2.225 L0,0.528 L0.528,0 L2.225,0 Z" id="形状结合" fill-opacity="0.25" fill="#32C5FF"></path>
                    <path d="M18.7665533,26.8305651 C19.0354472,26.7239318 19.3621687,26.6264356 19.750373,26.3706925 C20.3161217,25.9980325 20.7520315,25.2295912 19.7002932,24.287969 C16.2205126,19.0315607 17.487066,15.5390239 18.0156375,14.223399 C17.5741043,14.0434061 17.0719005,13.9369365 16.4970606,13.9369365 L16.3162672,13.9369365 C12.9861637,13.9369365 12.1010978,17.1119313 12.0335541,18.8927343 C11.988879,23.0917498 14.4377281,24.7612363 14.4377281,24.7612363 C14.4377281,24.7612363 14.5902793,24.9820355 14.5902793,25.6224578 C14.5902793,25.7684564 14.4994921,26.20583 14.342817,26.3379427 C12.9759478,27.498268 8.41362507,28.7070959 8.09480764,31.2066915 C7.92626085,31.9289229 8.02707651,32.6790898 8.06025477,33.3742697 C8.80679679,33.9751958 11.198568,34.4846517 11.198568,34.4846517 C11.198568,34.4846517 11.3971376,33.8522531 11.5987065,32.8071415 C11.8966235,31.2623007 13.8904743,28.762312 18.7665533,26.8305651 Z M39.9033211,31.1847164 C39.5757873,28.688232 34.8919985,27.4810416 33.4903889,26.3222228 C33.329465,26.1901428 33.237022,25.753457 33.237022,25.6078514 C33.237022,24.9679531 33.3923537,24.7475142 33.3923537,24.7475142 C33.3923537,24.7475142 35.9036541,23.0802546 35.8567297,18.8865774 C35.78828,17.107903 34.729575,13.9369365 31.4680461,13.9369365 L31.2825665,13.9369365 C30.5795124,13.9369365 29.9883958,14.0770401 29.4837551,14.3060922 C30.1816232,16.7551877 31.0201084,21.2491151 27.4919663,24.2607212 C26.1077894,26.4239109 30.7185986,27.6927036 30.0019233,27.3550859 C34.1741672,29.3206634 35.2970731,30.8285951 35.6028317,32.387682 C35.8581355,33.6889298 36.0029702,34.4846844 36.0029702,34.4846844 C36.0029702,34.4846844 39.1289118,33.9845295 39.9373741,33.3495764 C39.9722394,32.6551497 40.0755231,31.9060307 39.9033211,31.1847164 L39.9033211,31.1847164 Z M26.297549,26.3930278 C26.100354,26.2287548 25.9869168,25.6852392 25.9869168,25.5043293 C25.9869168,24.7091641 26.1767702,24.4358343 26.1767702,24.4358343 C26.1733024,24.4381923 29.2613483,22.6876828 29.2006153,17.151493 C29.1165137,14.9405868 27.8180005,11 23.8162403,11 L23.5886475,11 C19.4017514,11 18.2882179,14.9405541 18.2037101,17.151493 C18.1471946,22.3632305 21.2268679,24.4358343 21.2268679,24.4358343 C21.2268679,24.4358343 21.6003264,24.8823451 21.6003264,25.6775757 C21.6003264,25.8586821 21.3040027,26.2285583 21.10712,26.3930606 C19.3884426,27.8334622 13.1998854,29.2851953 12.7987159,32.3877148 C12.4880837,33.7039292 10.6507206,35.7913687 16.7598312,36.6317285 C18.4427685,36.8631713 20.7288192,37 23.8159591,37 C37.9841683,37 35.0548593,34.1226354 34.6566578,32.4356605 C34.2552383,29.333272 28.0167888,27.833364 26.297549,26.3930278 Z" id="形状" fill="#32C5FF" fill-rule="nonzero"></path>
                </g>
            </g>
        </g>
    </g>
</svg>