<?xml version="1.0" encoding="UTF-8"?>
<svg width="48px" height="48px" viewBox="0 0 48 48" version="1.1" xmlns="http://www.w3.org/2000/svg" xmlns:xlink="http://www.w3.org/1999/xlink">
    <title>总户籍数 icon</title>
    <g id="页面-1" stroke="none" stroke-width="1" fill="none" fill-rule="evenodd">
        <g id="样稿2" transform="translate(-40.000000, -175.000000)">
            <g id="总户籍数-icon" transform="translate(40.000000, 175.000000)">
                <rect id="矩形" fill-opacity="0.2" fill="#121212" x="0" y="0" width="48" height="48"></rect>
                <path d="M48,0 L48,0.893 L0.895,47.999 L0.000978957588,47.999021 L0,47.196 L47.197,0 L48,0 Z M48,2.308 L48,4.005 L4.005,47.999 L2.309,47.999 L48,2.308 Z M48,5.419 L48,7.116 L7.117,47.999 L5.421,47.999 L48,5.419 Z M48,8.531 L48,10.227 L10.229,47.999 L8.531,47.999 L48,8.531 Z M48,11.64 L48,13.338 L13.339,47.999 L11.642,47.999 L48,11.64 Z M48,14.752 L48,16.449 L16.451,47.999 L14.753,47.999 L48,14.752 Z M48,17.863 L48,19.56 L19.562,47.999 L17.865,47.999 L48,17.863 Z M48,20.974 L48,22.672 L22.673,47.999 L20.976,47.999 L48,20.974 Z M48,24.086 L48,25.783 L25.784,47.999 L24.087,47.999 L48,24.086 Z M48,27.197 L48,28.894 L28.895,47.999 L27.199,47.999 L48,27.197 Z M48,30.308 L48,32.005 L32.007,47.999 L30.31,47.999 L48,30.308 Z M48,33.419 L48,35.116 L35.118,47.999 L33.421,47.999 L48,33.419 Z M48,36.53 L48,38.228 L38.229,47.999 L36.531,47.999 L48,36.53 Z M48,39.642 L48,41.339 L41.34,47.999 L39.643,47.999 L48,39.642 Z M48,42.753 L48,44.45 L44.451,47.999 L42.754,47.999 L48,42.753 Z M48,45.864 L48,47.561 L47.562,47.999 L45.865,47.999 L48,45.864 Z M45.783,0 L0,45.782 L0,44.086 L44.085,0 L45.783,0 Z M42.671,0 L0,42.672 L0,40.974 L40.974,0 L42.671,0 Z M39.56,0 L0,39.56 L0,37.862 L37.863,0 L39.56,0 Z M36.449,0 L0,36.448 L0,34.752 L34.751,0 L36.449,0 Z M33.337,0 L0,33.338 L0,31.64 L31.641,0 L33.337,0 Z M30.226,0 L0,30.226 L0,28.53 L28.529,0 L30.226,0 Z M27.115,0 L0,27.115 L0,25.418 L25.418,0 L27.115,0 Z M24.004,0 L0,24.004 L0,22.306 L22.307,0 L24.004,0 Z M20.893,0 L0,20.892 L0,19.196 L19.195,0 L20.893,0 Z M17.781,0 L0,17.782 L0,16.084 L16.084,0 L17.781,0 Z M14.67,0 L0,14.67 L0,12.973 L12.973,0 L14.67,0 Z M11.559,0 L0,11.559 L0,9.861 L9.861,0 L11.559,0 Z M8.447,0 L0,8.447 L0,6.751 L6.751,0 L8.447,0 Z M5.336,0 L0,5.336 L0,3.639 L3.639,0 L5.336,0 Z M2.225,0 L0,2.225 L0,0.528 L0.528,0 L2.225,0 Z" id="形状结合" fill-opacity="0.25" fill="#32C5FF"></path>
                <path d="M37.9579375,12.0024727 C37.9930158,12.0042357 38.0277361,12.006704 38.0628144,12.0102301 C38.0978927,12.0137562 38.1326131,12.0179875 38.1673334,12.022924 L38.1673335,12.0229241 C38.2369643,12.0328946 38.3060209,12.0464295 38.3742228,12.0634738 C38.4082272,12.0719364 38.4422317,12.0811043 38.4758782,12.0909773 C38.5095248,12.101203 38.5428134,12.1121339 38.575744,12.12377 C38.6090326,12.1354061 38.6416053,12.1477475 38.674178,12.1611466 C38.7067507,12.1741932 38.7389655,12.1882975 38.7704643,12.2031071 C38.8023211,12.2179167 38.83382,12.2334316 38.864603,12.2496516 L38.8646032,12.2496517 C38.9265808,12.2825564 38.9870153,12.3182064 39.0457217,12.3564923 C39.074715,12.3758859 39.1033503,12.395632 39.1316277,12.416436 C39.1599051,12.4368873 39.1874667,12.4583965 39.2146702,12.4802583 C39.2418738,12.5021201 39.2687194,12.5246871 39.2944912,12.5479593 C39.320621,12.5712315 39.3460349,12.595209 39.3710908,12.619539 C39.3957888,12.6442217 39.4201288,12.669257 39.443753,12.6949974 C39.4673771,12.7203853 39.4902854,12.746831 39.5124778,12.7736294 C39.5346702,12.8004277 39.5565046,12.8275786 39.5772653,12.8554348 L39.5772653,12.8554348 C39.6192153,12.9109235 39.6582815,12.9684729 39.6943122,13.0278608 C39.7125673,13.0578326 39.7297485,13.0878044 39.7462138,13.1184814 C39.7630371,13.1488059 39.7787865,13.1798355 39.79382,13.2112177 C39.8088536,13.2422474 39.8231713,13.2739822 39.8364151,13.3060697 C39.8500169,13.3381572 39.8625449,13.3702446 39.8743569,13.4030373 C39.886169,13.4354774 39.8972652,13.4682701 39.9076455,13.5014153 C39.9176679,13.5345606 39.9269744,13.5680585 39.935565,13.6015564 L39.9355651,13.6015568 C39.9528672,13.6687427 39.9666069,13.7367706 39.976728,13.805364 C39.9820972,13.8395672 39.9863925,13.8737703 39.9896139,13.908326 L39.9896139,13.9083256 C39.9966809,13.977216 40,14.0464188 40,14.1156596 L40,34.8843581 L40,34.8843408 C40,34.9535802 39.9966154,35.0227798 39.9896167,35.0916751 C39.9863953,35.1262309 39.9821,35.160434 39.9767308,35.1946371 L39.9767308,35.1946374 C39.9666095,35.2632309 39.9528699,35.3312588 39.9355679,35.3984446 C39.9269772,35.4319425 39.9176708,35.4654404 39.9076484,35.4985857 C39.8972681,35.531731 39.8861719,35.5645237 39.8743598,35.5969638 C39.8625477,35.6297564 39.8500198,35.6618439 39.836418,35.6939314 C39.8231741,35.7260188 39.8088565,35.7577537 39.7938229,35.7887833 C39.7787893,35.8201656 39.7630399,35.8511952 39.7462166,35.8815196 L39.7462167,35.8815196 C39.7132856,35.9426501 39.6772059,36.0020834 39.6381183,36.0595873 C39.6184315,36.0885013 39.5983867,36.1167101 39.5772682,36.1445662 C39.5565075,36.1724224 39.5346731,36.1995733 39.5124807,36.2263716 C39.4902883,36.2531699 39.46738,36.2796157 39.4437559,36.3050035 C39.4201317,36.330744 39.3957917,36.3557793 39.3710937,36.380462 C39.3460378,36.404792 39.3206239,36.4287695 39.2944941,36.4520417 C39.2687223,36.4753139 39.2418767,36.4978809 39.2146731,36.5197427 C39.1874695,36.5416045 39.159908,36.5631137 39.1316306,36.583565 C39.1033532,36.604369 39.0747179,36.6241151 39.0457246,36.6435086 C39.0163734,36.6625496 38.9866642,36.6812379 38.9565971,36.6988683 C38.926172,36.7168514 38.895747,36.7337767 38.8646061,36.7499967 C38.8338231,36.7665694 38.8023242,36.7820842 38.7704674,36.7968938 C38.7389685,36.8117034 38.7067537,36.8258077 38.674181,36.8388543 C38.6416083,36.8522535 38.6090356,36.8645948 38.575747,36.8762309 C38.5428164,36.887867 38.5095278,36.8987979 38.4758813,36.9090236 C38.4422348,36.9188966 38.4082303,36.9280645 38.3742258,36.9365271 L38.3742259,36.9365271 C38.306024,36.9535715 38.2369674,36.9671065 38.1673366,36.9770772 C38.1326163,36.9823663 38.0978959,36.9865976 38.0628176,36.9897711 L38.0628177,36.9897711 C37.9928834,36.9967039 37.9226355,37 37.8523479,37 L10.1476537,37 L10.1476537,37 C10.0773661,37 10.0071183,36.9967066 9.93718396,36.9897711 C9.90210567,36.9865976 9.86738532,36.9823663 9.83266496,36.9770772 L9.83266497,36.9770772 C9.76303419,36.9671067 9.69397756,36.9535717 9.62577569,36.9365274 C9.59177122,36.9280648 9.55776675,36.918897 9.52412022,36.9090239 C9.49047369,36.8987982 9.45718511,36.8878673 9.42425446,36.8762312 C9.39096588,36.8645951 9.35839317,36.8522538 9.32582047,36.8388546 C9.29324777,36.8258081 9.26103301,36.8117037 9.22953413,36.7968941 C9.19767731,36.7820845 9.16617844,36.7665697 9.13539544,36.749997 L9.13539547,36.749997 C9.07334053,36.7175566 9.01300837,36.6820143 8.95463487,36.643509 C8.92528364,36.6241155 8.8966483,36.6043693 8.8683709,36.5835654 C8.8400935,36.563114 8.81253198,36.5416048 8.7853284,36.5197431 C8.75812483,36.4978813 8.73127919,36.4753143 8.70550738,36.452042 L8.70550709,36.4520418 C8.67945534,36.4287279 8.65391694,36.4048633 8.62891006,36.3804645 C8.60421207,36.3557819 8.57987203,36.3307466 8.55624788,36.3050061 C8.53262372,36.2796182 8.50971544,36.2531725 8.48752305,36.2263742 C8.46533066,36.1995759 8.44349621,36.1724249 8.42273559,36.1445688 L8.42273569,36.1445689 C8.38078563,36.0890802 8.34171951,36.0315308 8.30568873,35.9721429 C8.2874337,35.9421711 8.27025249,35.9121993 8.25342923,35.8815222 C8.23696391,35.8511978 8.22121447,35.8201682 8.20618091,35.7887859 C8.19114736,35.7577563 8.17682969,35.7260215 8.16358584,35.693934 C8.14998405,35.6618465 8.13745609,35.6297591 8.12564401,35.5969664 C8.11383193,35.5645263 8.10273574,35.5317336 8.09235543,35.4985883 C8.08233306,35.4654431 8.07302657,35.4319451 8.06443597,35.3984472 L8.06443585,35.3984468 C8.04713369,35.3312609 8.0333941,35.263233 8.0232729,35.1946396 C8.01826171,35.1604364 8.01396641,35.1262333 8.010387,35.0916776 L8.01038696,35.0916772 C8.00334889,35.0227907 8,34.9535954 8,34.8843608 L8,14.1156624 L8,14.1156363 C8,14.0463958 8.00334496,13.9771945 8.0103862,13.908302 C8.01396561,13.8737462 8.01826092,13.8395431 8.0232721,13.80534 L8.02327217,13.8053396 C8.03339347,13.7367461 8.0471331,13.6687182 8.06443511,13.6015323 C8.07302572,13.5680344 8.0823322,13.5345365 8.09235457,13.5013912 C8.10273488,13.468246 8.11383108,13.4354533 8.12564316,13.4030132 C8.13745524,13.3702205 8.1499832,13.3381331 8.16358499,13.3060456 C8.17682883,13.2739581 8.19114651,13.2422233 8.20618006,13.2111936 C8.22121362,13.1798114 8.23696305,13.1487818 8.25342838,13.1184573 C8.27025164,13.0877803 8.28743285,13.0578085 8.30568788,13.0278367 L8.30568775,13.0278369 C8.34171853,12.968449 8.38078465,12.9108996 8.42273471,12.8554109 C8.44349534,12.8275547 8.46532979,12.8004038 8.48752218,12.7736055 C8.50971457,12.7468072 8.53262284,12.7203614 8.556247,12.6949736 C8.57987116,12.6692331 8.6042112,12.6441978 8.62890918,12.6195151 C8.65396511,12.5951851 8.67937897,12.5712076 8.70550873,12.5479354 C8.73128053,12.5246632 8.75812617,12.5020962 8.78532974,12.4802344 C8.81253332,12.4583726 8.84009484,12.4368634 8.86837224,12.4164121 L8.86837208,12.4164122 C8.92469995,12.3750871 8.98311962,12.3366029 9.04340561,12.3011089 C9.07383066,12.2831258 9.10425571,12.2662006 9.13539665,12.2496279 C9.16617964,12.2334079 9.19767852,12.2178931 9.22953534,12.2030835 C9.26103422,12.1882739 9.29324898,12.1741695 9.32582168,12.1611229 C9.35839438,12.1477238 9.39096708,12.1353824 9.42425567,12.1237463 C9.45718631,12.1121102 9.4904749,12.1011793 9.52412143,12.0909536 C9.55776796,12.0810806 9.59177243,12.0719127 9.6257769,12.0634501 L9.62577687,12.0634501 C9.69397874,12.0464057 9.76303538,12.0328708 9.83266615,12.0229 C9.8673865,12.0179635 9.90210686,12.0137322 9.93718515,12.0102061 L9.93718513,12.0102061 C10.0071173,12.003253 10.0773666,12 10.1476538,12 L37.852348,12 C37.8874263,12 37.9225046,12.0007104 37.9579408,12.0024735 L37.9579375,12.0024727 Z M10.6927958,24.0730005 C10.7851448,24.2094603 10.8467108,24.3762446 10.9540933,24.4971897 C11.2157488,24.7852716 11.6313192,24.8307582 11.9695742,24.6184873 C12.0311402,24.5730007 12.0927061,24.5275141 12.2004466,24.4668653 L12.2004466,31.1202536 C12.2004466,31.4386599 12.3081871,31.6657404 12.5848761,31.7870381 L24.200445,31.7870381 C24.4928834,31.6505782 24.5852324,31.4234977 24.5852324,31.1202536 C24.5748521,29.7055843 24.5780736,28.2912677 24.581653,26.8765985 C24.5834427,26.1696164 24.5852324,25.4622818 24.5852324,24.7549472 L24.5852324,24.4668653 C24.8465299,24.6791362 25.1081853,24.8004338 25.4160153,24.739785 C25.7696618,24.663974 25.9697512,24.406569 26.0928832,24.0881627 L26.0928832,23.7091075 C25.9851427,23.3758915 25.7080958,23.1787828 25.4618318,22.9513497 C23.3080961,21.087456 21.1543604,19.2383719 19.0002667,17.3741255 C18.6004457,17.0257474 18.2156583,17.0257474 17.8158373,17.3741255 C15.5543611,19.3141829 13.3079185,21.2694025 11.0464423,23.2242694 C10.9082768,23.3455671 10.8159278,23.5426758 10.7081873,23.7091075 L10.7081873,24.0730005 L10.6927958,24.0730005 Z M28.166082,21.0631259 C28.0135988,21.2284998 27.9373572,21.4277241 27.9373572,21.6615042 C27.9373572,21.8952843 28.0135988,22.0945087 28.166082,22.2598825 C28.3185652,22.4252564 28.5025473,22.507767 28.7183862,22.507767 L37.1786982,22.507767 C37.3945371,22.507767 37.5785192,22.4252564 37.7310024,22.2598825 C37.8834856,22.0945087 37.9597272,21.8952843 37.9597272,21.6615042 C37.9597272,21.4277241 37.8834856,21.2284998 37.7310024,21.0631259 C37.5785192,20.8977521 37.3945371,20.8152415 37.1786982,20.8152415 L28.7183862,20.8152415 C28.5025473,20.8152415 28.3185652,20.8977521 28.166082,21.0631259 Z M16.877314,24.9813225 C16.600267,24.799376 16.5848755,24.2538891 16.6160165,24.1932403 C16.661833,24.1325915 16.6772245,24.1174293 16.7695735,24.1174293 C16.7695735,23.2080494 17.2928844,22.4199672 18.3695733,22.4199672 C19.4466201,22.4199672 19.9695731,23.2080494 19.9695731,24.1174293 C20.0619221,24.1174293 20.092705,24.1325915 20.123488,24.1932403 C20.1696625,24.2538891 20.1388795,24.799376 19.8618326,24.9813225 C19.7852331,25.0116469 19.7082756,25.0116469 19.7082756,24.9964847 C19.6313181,25.132592 19.4466201,26.2997293 18.3695733,26.2997293 C17.2928844,26.2997293 17.0927949,25.132592 17.0158375,24.9964847 C17.0158375,25.0116469 16.93888,25.0116469 16.877314,24.9813225 Z M21.7234878,29.4975447 C21.7234878,29.5581936 21.6773133,29.8007889 21.3848749,29.8007889 L15.3850547,29.8007889 C15.0926162,29.8007889 15.0467997,29.5581936 15.0467997,29.4823825 L15.0467997,27.9517048 C15.0467997,27.9517048 15.0772247,27.5878118 15.2465312,27.4062179 C15.3696632,27.2242714 15.9849651,26.8755406 17.031229,26.5726491 L18.3849648,28.7701114 L19.7390586,26.5878113 C20.769573,26.8907028 21.4006243,27.2394336 21.5233984,27.4213801 C21.6927048,27.602974 21.7234878,27.966867 21.7234878,27.966867 L21.7234878,29.4975447 L21.7234878,29.4975447 Z M34.5288552,27.8321701 L28.8017866,27.7969092 C28.5644712,27.7954988 28.3615182,27.8769516 28.1929276,28.040915 C28.0239791,28.205231 27.938789,28.4041027 27.9373296,28.6378828 L27.9373296,28.6378835 C27.936449,28.7490842 27.9579848,28.8593536 28.0007133,28.9622842 C28.0436663,29.0659514 28.1052323,29.1579825 28.1850533,29.2376722 C28.2652322,29.3177146 28.3579392,29.3794212 28.4628161,29.4231448 C28.567693,29.4665158 28.6772232,29.4887301 28.7910487,29.4894354 L34.5181173,29.5246963 C34.7554327,29.5261068 34.9583857,29.444654 35.1269763,29.2806906 C35.2959248,29.1163745 35.3811149,28.9175028 35.3825743,28.6837227 L35.3825743,28.683722 C35.3834549,28.5725213 35.3619191,28.4622519 35.3191906,28.3593213 C35.2762376,28.2556541 35.2146716,28.163623 35.1348506,28.0839333 L35.1348506,28.0839333 C35.0556234,28.0046244 34.9612141,27.9415838 34.8570878,27.8984607 L34.8570878,27.8984607 C34.7531901,27.8552406 34.6416351,27.8327107 34.5288551,27.8321701 L34.5288552,27.8321701 Z" id="形状" fill="#32C5FF" fill-rule="nonzero"></path>
            </g>
        </g>
    </g>
</svg>