<?xml version="1.0" encoding="UTF-8"?>
<svg width="48px" height="48px" viewBox="0 0 48 48" version="1.1" xmlns="http://www.w3.org/2000/svg" xmlns:xlink="http://www.w3.org/1999/xlink">
    <title>旅游景点icon</title>
    <g id="页面-1" stroke="none" stroke-width="1" fill="none" fill-rule="evenodd">
        <g id="样稿2" transform="translate(-1500.000000, -758.000000)">
            <g id="休闲旅游设施" transform="translate(1500.000000, 678.000000)">
                <g id="旅游景点icon" transform="translate(0.000000, 80.000000)">
                    <rect id="矩形" fill-opacity="0.2" fill="#121212" x="0" y="0" width="48" height="48"></rect>
                    <path d="M48,0.000978957588 L48,0.237 L0.237,48 L0.000978957588,48 L0,46.823 L46.823,0 L48,0.000978957588 Z M48,1.652 L48,3.066 L3.066,48 L1.652,48 L48,1.652 Z M48,4.48 L48,5.894 L5.894,48 L4.48,48 L48,4.48 Z M48,7.309 L48,8.723 L8.723,48 L7.309,48 L48,7.309 Z M48,10.137 L48,11.551 L11.551,48 L10.137,48 L48,10.137 Z M48,12.965 L48,14.379 L14.379,48 L12.965,48 L48,12.965 Z M48,15.793 L48,17.208 L17.208,48 L15.793,48 L48,15.793 Z M48,18.622 L48,20.036 L20.036,48 L18.622,48 L48,18.622 Z M48,21.45 L48,22.865 L22.865,48 L21.45,48 L48,21.45 Z M48,24.279 L48,25.693 L25.693,48 L24.279,48 L48,24.279 Z M48,27.107 L48,28.521 L28.521,48 L27.107,48 L48,27.107 Z M48,29.935 L48,31.348 L31.349,48 L29.935,48 L48,29.935 Z M48,32.763 L48,34.177 L34.177,48 L32.763,48 L48,32.763 Z M48,35.591 L48,37.005 L37.005,48 L35.591,48 L48,35.591 Z M48,38.42 L48,39.834 L39.834,48 L38.42,48 L48,38.42 Z M48,41.248 L48,42.662 L42.662,48 L41.248,48 L48,41.248 Z M48,44.076 L48,45.49 L45.49,48 L44.076,48 L48,44.076 Z M48,46.904 L48,48 L46.904,48 L48,46.904 Z M45.409,0 L0,45.409 L0,43.995 L43.995,0 L45.409,0 Z M42.581,0 L0,42.581 L0,41.167 L41.167,0 L42.581,0 Z M39.753,0 L0,39.753 L0,38.338 L38.338,0 L39.753,0 Z M36.924,0 L0,36.924 L0,35.51 L35.51,0 L36.924,0 Z M34.096,0 L0,34.096 L0,32.681 L32.681,0 L34.096,0 Z M31.267,0 L0,31.267 L0,29.853 L29.853,0 L31.267,0 Z M28.439,0 L0,28.439 L0,27.025 L27.025,0 L28.439,0 Z M25.611,0 L0,25.611 L0,24.197 L24.197,0 L25.611,0 Z M22.782,0 L0,22.782 L0,21.368 L21.368,0 L22.782,0 Z M19.954,0 L0,19.954 L0,18.539 L18.539,0 L19.954,0 Z M17.125,0 L0,17.125 L0,15.711 L15.711,0 L17.125,0 Z M14.297,0 L0,14.297 L0,12.883 L12.883,0 L14.297,0 Z M11.469,0 L0,11.469 L0,10.055 L10.055,0 L11.469,0 Z M8.64,0 L0,8.641 L0,7.226 L7.226,0 L8.64,0 Z M5.812,0 L0,5.812 L0,4.398 L4.398,0 L5.812,0 Z M2.983,0 L0,2.983 L0,1.569 L1.569,0 L2.983,0 Z" id="形状结合" fill-opacity="0.25" fill="#32C5FF"></path>
                    <path d="M28.4333152,11.5865721 L28.4333152,11.5865725 C28.4333152,13.0150964 29.384802,14.1731449 30.5585193,14.1731449 C31.7322367,14.1731449 32.6837235,13.0150964 32.6837235,11.5865725 L32.6837235,11.5865725 C32.6837235,10.1580485 31.7322367,9 30.5585193,9 C29.384802,9 28.4333152,10.1580485 28.4333152,11.5865725 L28.4333152,11.5865721 Z M39.111595,31.5583038 L35.436037,31.5583038 L32.7534023,24.7102472 C32.0740338,23.3533567 30.4540011,23.3533567 29.7746326,24.7102472 L28.7817093,28.1660776 L28.6771911,28.3992931 L22.8938487,15.4876322 C22.2144801,14.1307417 20.5944475,14.1307417 19.9150789,15.4876322 L12.73816,31.5795052 L8.8709853,31.5795052 C8.38323353,31.5795052 8,32.0459363 8,32.6395759 C8,33.2332155 8.38323353,33.6996466 8.8709853,33.6996466 L39.1290147,33.6996466 C39.6167665,33.6996466 40,33.2332155 40,32.6395759 C40,32.0459363 39.5993468,31.5583038 39.111595,31.5583038 Z M34.8089276,36.8798586 L13.4349483,36.8798586 C12.9471965,36.8798586 12.563963,37.3462897 12.563963,37.9399293 C12.563963,38.5335689 12.9471965,39 13.4349483,39 L34.8089276,39 C35.2966794,39 35.6799129,38.5335689 35.6799129,37.9399293 C35.6799129,37.3462897 35.2966794,36.8798586 34.8089276,36.8798586 Z" id="形状" fill="#32C5FF" fill-rule="nonzero"></path>
                </g>
            </g>
        </g>
    </g>
</svg>