<?xml version="1.0" encoding="UTF-8"?>
<svg width="48px" height="48px" viewBox="0 0 48 48" version="1.1" xmlns="http://www.w3.org/2000/svg" xmlns:xlink="http://www.w3.org/1999/xlink">
    <title>林地面积icon</title>
    <g id="页面-1" stroke="none" stroke-width="1" fill="none" fill-rule="evenodd">
        <g id="样稿2" transform="translate(-1500.000000, -323.000000)">
            <g id="房屋及林地信息" transform="translate(1500.000000, 175.000000)">
                <g id="林地面积icon" transform="translate(0.000000, 148.000000)">
                    <rect id="矩形" fill-opacity="0.2" fill="#121212" x="0" y="0" width="48" height="48"></rect>
                    <path d="M48,0.000978957588 L48,0.237 L0.237,48 L0.000978957588,48 L0,46.823 L46.823,0 L48,0.000978957588 Z M48,1.652 L48,3.066 L3.066,48 L1.652,48 L48,1.652 Z M48,4.48 L48,5.894 L5.894,48 L4.48,48 L48,4.48 Z M48,7.309 L48,8.723 L8.723,48 L7.309,48 L48,7.309 Z M48,10.137 L48,11.551 L11.551,48 L10.137,48 L48,10.137 Z M48,12.965 L48,14.379 L14.379,48 L12.965,48 L48,12.965 Z M48,15.793 L48,17.208 L17.208,48 L15.793,48 L48,15.793 Z M48,18.622 L48,20.036 L20.036,48 L18.622,48 L48,18.622 Z M48,21.45 L48,22.865 L22.865,48 L21.45,48 L48,21.45 Z M48,24.279 L48,25.693 L25.693,48 L24.279,48 L48,24.279 Z M48,27.107 L48,28.521 L28.521,48 L27.107,48 L48,27.107 Z M48,29.935 L48,31.348 L31.349,48 L29.935,48 L48,29.935 Z M48,32.763 L48,34.177 L34.177,48 L32.763,48 L48,32.763 Z M48,35.591 L48,37.005 L37.005,48 L35.591,48 L48,35.591 Z M48,38.42 L48,39.834 L39.834,48 L38.42,48 L48,38.42 Z M48,41.248 L48,42.662 L42.662,48 L41.248,48 L48,41.248 Z M48,44.076 L48,45.49 L45.49,48 L44.076,48 L48,44.076 Z M48,46.904 L48,48 L46.904,48 L48,46.904 Z M45.409,0 L0,45.409 L0,43.995 L43.995,0 L45.409,0 Z M42.581,0 L0,42.581 L0,41.167 L41.167,0 L42.581,0 Z M39.753,0 L0,39.753 L0,38.338 L38.338,0 L39.753,0 Z M36.924,0 L0,36.924 L0,35.51 L35.51,0 L36.924,0 Z M34.096,0 L0,34.096 L0,32.681 L32.681,0 L34.096,0 Z M31.267,0 L0,31.267 L0,29.853 L29.853,0 L31.267,0 Z M28.439,0 L0,28.439 L0,27.025 L27.025,0 L28.439,0 Z M25.611,0 L0,25.611 L0,24.197 L24.197,0 L25.611,0 Z M22.782,0 L0,22.782 L0,21.368 L21.368,0 L22.782,0 Z M19.954,0 L0,19.954 L0,18.539 L18.539,0 L19.954,0 Z M17.125,0 L0,17.125 L0,15.711 L15.711,0 L17.125,0 Z M14.297,0 L0,14.297 L0,12.883 L12.883,0 L14.297,0 Z M11.469,0 L0,11.469 L0,10.055 L10.055,0 L11.469,0 Z M8.64,0 L0,8.641 L0,7.226 L7.226,0 L8.64,0 Z M5.812,0 L0,5.812 L0,4.398 L4.398,0 L5.812,0 Z M2.983,0 L0,2.983 L0,1.569 L1.569,0 L2.983,0 Z" id="形状结合" fill-opacity="0.25" fill="#32C5FF"></path>
                    <path d="M27.1376939,9.18848466 L27.1792407,9.23878553 L32.1489042,15.7379471 C32.37824,16.0407267 32.2700627,16.2897446 31.9161202,16.3129966 L31.8611526,16.3146766 L30.9148044,16.3146766 C30.5336148,16.3146766 30.3955536,16.547398 30.5945997,16.8445662 L30.6274924,16.8893229 L35.8109073,23.6727163 C36.0402431,23.9737823 35.9351084,24.223237 35.5785629,24.2460522 L35.5231558,24.2477322 L34.2293558,24.2477322 C33.8516143,24.2477322 33.7140263,24.4821672 33.91003,24.7776218 L33.9420437,24.8227817 L38.879254,31.277657 C39.1085898,31.578723 39.0004125,31.8281777 38.6464701,31.8509593 L38.5915025,31.8526729 L28.9758622,31.8526729 C28.5980869,31.8526729 28.2848123,32.144297 28.2532381,32.5120276 L28.2501956,32.5739545 L28.2501956,38.2770048 C28.2501956,38.6542109 27.955514,38.9651556 27.5868661,38.9974127 L27.5250023,39 L25.9434169,39 L25.9434169,39 C25.5671257,38.9977048 25.2542432,38.7114759 25.2207928,38.3389316 L25.2181897,38.2770048 L25.2181897,32.5739881 L25.2181898,32.5739923 C25.2176233,32.1998607 24.9298253,31.888039 24.5548637,31.8552947 L24.4925603,31.8527074 L14.8816528,31.8527074 C14.5017478,31.8527074 14.3671347,31.618306 14.5636117,31.3224146 L14.5956254,31.2776915 L19.5293875,24.8228162 C19.7608869,24.521347 19.6539942,24.2722955 19.2987333,24.249514 L19.2433601,24.2478003 L17.94956,24.2478003 C17.5700606,24.2478003 17.4355152,24.0133989 17.6319583,23.7174739 L17.663972,23.6727844 L22.8491111,16.8893238 C23.0806104,16.5865105 22.9737516,16.3388031 22.6184907,16.3164248 L22.5635231,16.3147111 L21.6172087,16.3147111 C21.2372699,16.3147111 21.101406,16.0798729 21.2974097,15.7831078 L21.3294572,15.7379479 L26.2991206,9.23882 C26.527138,8.93815721 26.8936561,8.92139025 27.1372578,9.18848552 L27.1376939,9.18848466 Z M20.5016949,33.5468748 C20.8811604,33.5468748 21.194435,33.8384653 21.2264825,34.2061959 L21.2290518,34.2681228 L21.2290518,37.2852342 C21.2290518,37.6637172 20.9356885,37.9742587 20.5644377,38.0056422 L20.5016611,38.0082294 L19.5367199,38.0082294 L19.5367199,38.0082294 C19.1601954,38.0067788 18.846789,37.7204349 18.8136902,37.3476315 L18.8110871,37.2852342 L18.8110871,34.2685596 L18.8110871,34.2685638 C18.8116536,33.8944321 19.0994519,33.5826104 19.4744132,33.5498661 L19.5367165,33.5472788 L20.5016577,33.5472788 L20.5016949,33.5468748 Z M15.6951424,25.0555031 C16.0941137,25.0555031 16.2239264,25.3144333 15.982894,25.6305526 L11.5398509,31.4445538 C11.298379,31.7606731 10.773077,32.0191664 10.374579,32.0191664 L9.40957019,32.0191664 C9.00887485,32.0191664 8.88038054,31.7611099 9.12181867,31.4445874 L13.5640166,25.6305526 C13.8054547,25.3144333 14.3307905,25.0555031 14.729728,25.0555031 L15.6951424,25.0555031 Z M20.597736,11.31184 L20.6392828,11.3613009 L20.9694263,11.7935456 C21.1957534,12.0903107 21.2095799,12.5617007 21.0118521,12.8816842 L20.9694263,12.9431742 L17.7041971,17.2161946 C17.4726977,17.5189407 17.5795904,17.7679921 17.9348513,17.7907737 L17.989785,17.7925209 L18.73276,17.7925209 C19.1122594,17.7925209 19.2485627,18.0256119 19.0508011,18.3215369 L19.018348,18.3658232 L14.3468143,24.4808904 C14.120521,24.7789323 13.644541,25.023246 13.2572664,25.0529158 L13.1815423,25.0555031 L12.2178519,25.0555031 C11.8366285,25.0555031 11.702083,24.8228153 11.8985262,24.5256135 L11.9305399,24.480924 L16.6037977,18.3658232 C16.8335729,18.0647572 16.7266803,17.817453 16.3714194,17.7942346 L16.3164856,17.7925209 L15.572226,17.7925209 C15.1905631,17.7925209 15.0560177,17.5581196 15.252427,17.2609177 L15.2844745,17.2161946 L19.7595651,11.3612673 C19.9871768,11.0627885 20.3541343,11.0460216 20.5972965,11.3118064 L20.597736,11.31184 Z" id="形状" fill="#32C5FF" fill-rule="nonzero"></path>
                </g>
            </g>
        </g>
    </g>
</svg>