<?xml version="1.0" encoding="UTF-8"?>
<svg width="48px" height="48px" viewBox="0 0 48 48" version="1.1" xmlns="http://www.w3.org/2000/svg" xmlns:xlink="http://www.w3.org/1999/xlink">
    <title>高龄老人icon</title>
    <g id="页面-1" stroke="none" stroke-width="1" fill="none" fill-rule="evenodd">
        <g id="样稿2" transform="translate(-40.000000, -391.000000)">
            <g id="人口信息" transform="translate(40.000000, 175.000000)">
                <g id="高龄老人icon" transform="translate(0.000000, 216.000000)">
                    <rect id="矩形" fill-opacity="0.2" fill="#121212" x="0" y="0" width="48" height="48"></rect>
                    <path d="M48,0 L48,0.893 L0.895,47.999 L0.000978957588,47.999021 L0,47.196 L47.197,0 L48,0 Z M48,2.308 L48,4.005 L4.005,47.999 L2.309,47.999 L48,2.308 Z M48,5.419 L48,7.116 L7.117,47.999 L5.421,47.999 L48,5.419 Z M48,8.531 L48,10.227 L10.229,47.999 L8.531,47.999 L48,8.531 Z M48,11.64 L48,13.338 L13.339,47.999 L11.642,47.999 L48,11.64 Z M48,14.752 L48,16.449 L16.451,47.999 L14.753,47.999 L48,14.752 Z M48,17.863 L48,19.56 L19.562,47.999 L17.865,47.999 L48,17.863 Z M48,20.974 L48,22.672 L22.673,47.999 L20.976,47.999 L48,20.974 Z M48,24.086 L48,25.783 L25.784,47.999 L24.087,47.999 L48,24.086 Z M48,27.197 L48,28.894 L28.895,47.999 L27.199,47.999 L48,27.197 Z M48,30.308 L48,32.005 L32.007,47.999 L30.31,47.999 L48,30.308 Z M48,33.419 L48,35.116 L35.118,47.999 L33.421,47.999 L48,33.419 Z M48,36.53 L48,38.228 L38.229,47.999 L36.531,47.999 L48,36.53 Z M48,39.642 L48,41.339 L41.34,47.999 L39.643,47.999 L48,39.642 Z M48,42.753 L48,44.45 L44.451,47.999 L42.754,47.999 L48,42.753 Z M48,45.864 L48,47.561 L47.562,47.999 L45.865,47.999 L48,45.864 Z M45.783,0 L0,45.782 L0,44.086 L44.085,0 L45.783,0 Z M42.671,0 L0,42.672 L0,40.974 L40.974,0 L42.671,0 Z M39.56,0 L0,39.56 L0,37.862 L37.863,0 L39.56,0 Z M36.449,0 L0,36.448 L0,34.752 L34.751,0 L36.449,0 Z M33.337,0 L0,33.338 L0,31.64 L31.641,0 L33.337,0 Z M30.226,0 L0,30.226 L0,28.53 L28.529,0 L30.226,0 Z M27.115,0 L0,27.115 L0,25.418 L25.418,0 L27.115,0 Z M24.004,0 L0,24.004 L0,22.306 L22.307,0 L24.004,0 Z M20.893,0 L0,20.892 L0,19.196 L19.195,0 L20.893,0 Z M17.781,0 L0,17.782 L0,16.084 L16.084,0 L17.781,0 Z M14.67,0 L0,14.67 L0,12.973 L12.973,0 L14.67,0 Z M11.559,0 L0,11.559 L0,9.861 L9.861,0 L11.559,0 Z M8.447,0 L0,8.447 L0,6.751 L6.751,0 L8.447,0 Z M5.336,0 L0,5.336 L0,3.639 L3.639,0 L5.336,0 Z M2.225,0 L0,2.225 L0,0.528 L0.528,0 L2.225,0 Z" id="形状结合" fill-opacity="0.25" fill="#32C5FF"></path>
                    <path d="M33.0173509,28.3786811 L33.0173508,28.3786811 C32.5321364,28.3767838 32.05161,28.467941 31.6051894,28.6465733 C31.5695988,28.6164772 31.5553624,28.5830373 31.5197715,28.5529409 L22.5406065,20.1632011 L22.5406066,20.1632012 C21.9442516,19.6086958 21.0769397,19.3977338 20.2691257,19.6106972 L20.2513303,19.5939771 C20.2335349,19.6106972 20.2015033,19.6106972 20.1837077,19.6240732 L20.1837078,19.6240732 C19.8800868,19.709034 19.5993492,19.8540969 19.3603743,20.049504 C13.8434169,23.1653686 10.0601088,30.6700597 10.0601088,36.8821276 C10.0601088,37.7497131 9.92486399,38.1617684 10.0601088,39 L27.3512831,39 L27.3512831,30.8108928 L28.2106025,31.6182855 L28.2106027,31.6182857 C28.3523348,31.7514403 28.510289,31.868422 28.681191,31.9668059 L28.681191,31.9668059 C28.7666878,32.8249158 29.5763715,33.455428 30.48967,33.3750986 C31.2202713,33.3108375 31.8194059,32.8037286 31.9634499,32.1276905 L31.9954815,32.1276905 L31.9954815,31.8092666 L31.9954815,31.8094318 C31.9954816,31.2949826 32.4393473,30.8779385 32.9868829,30.8779385 C33.534281,30.8779386 33.9780875,31.2947801 33.9782843,31.8091002 L33.9782843,38.9990942 L36.6345393,38.9990942 L36.6345393,31.8092763 C36.6701298,29.9143388 35.037307,28.3786853 33.018918,28.3786853 L33.0173509,28.3786811 Z M37.9632859,13.0333854 C37.8276457,12.5440468 36.1623932,11.8941933 35.6415832,12.0212664 L35.32087,12.1018942 L33.7410373,10.4269189 C33.5737608,10.2530306 32.7322363,9.44861136 32.0939768,9.0993487 C31.1844356,8.61037981 24.1386418,10.0174635 23.2291225,11.3286885 C22.8439518,11.898286 22.6754872,12.5618848 22.5908629,12.8765936 L22.0344605,15.4529658 L21.7137472,15.5298779 C21.1929372,15.6573217 20.0983221,17.0008694 20.2339645,17.4898383 L20.2339645,17.4898382 C20.298654,17.7290608 20.4648786,17.9329143 20.6938775,18.0538602 L20.6938775,18.0538602 C20.922625,18.1742327 21.1928935,18.2043044 21.445239,18.1374603 L23.5640746,17.6131951 C24.0670914,20.1431228 26.437829,22.0525539 29.2839178,22.0525539 C32.4965783,22.0525539 35.1033924,19.6203454 35.1033924,16.615197 L35.1033924,16.6150769 C35.1037141,15.9960622 34.9902511,15.3816458 34.7680062,14.7989164 L37.2573801,14.1672715 C37.7951962,14.0301673 38.1127456,13.5244784 37.9628674,13.0351398 L37.9632859,13.0333854 Z M33.555954,10.2225604 L33.7410257,10.4269165 C33.8090437,10.5075443 33.7730574,10.4603565 33.555954,10.2225604 Z" id="高龄icon" fill="#32C5FF" fill-rule="nonzero"></path>
                </g>
            </g>
        </g>
    </g>
</svg>