<svg xmlns="http://www.w3.org/2000/svg" xmlns:xlink="http://www.w3.org/1999/xlink" width="529.456" height="295.177" viewBox="0 0 529.456 295.177">
  <defs>
    <filter id="_0_" x="21.271" y="212.502" width="61" height="68" filterUnits="userSpaceOnUse">
      <feOffset input="SourceAlpha"/>
      <feGaussianBlur stdDeviation="3.5" result="blur"/>
      <feFlood flood-color="#31b0f7"/>
      <feComposite operator="in" in2="blur"/>
      <feComposite in="SourceGraphic"/>
    </filter>
    <filter id="_0_2" x="449.302" y="0" width="61" height="68" filterUnits="userSpaceOnUse">
      <feOffset input="SourceAlpha"/>
      <feGaussianBlur stdDeviation="3.5" result="blur-2"/>
      <feFlood flood-color="#31b0f7"/>
      <feComposite operator="in" in2="blur-2"/>
      <feComposite in="SourceGraphic"/>
    </filter>
    <filter id="_0" x="221.126" y="147.627" width="44.19" height="68.092" filterUnits="userSpaceOnUse">
      <feOffset input="SourceAlpha"/>
      <feGaussianBlur stdDeviation="3.5" result="blur-3"/>
      <feFlood flood-color="#31b0f7"/>
      <feComposite operator="in" in2="blur-3"/>
      <feComposite in="SourceGraphic"/>
    </filter>
  </defs>
  <g id="组件_5_1" data-name="组件 5 – 1" transform="translate(0.592 10.5)">
    <g id="组_624" data-name="组 624" transform="translate(-2589.2 -2597.08)">
      <path id="路径_591" data-name="路径 591" d="M2886.7,2816.98a85.9,85.9,0,0,1-142.977-64.211,86.537,86.537,0,0,1,.769-11.476l-14.925-4.334a101.333,101.333,0,0,0,100.073,117.119,100.919,100.919,0,0,0,67.341-25.629Z" fill="#0dbc86"/>
      <path id="路径_592" data-name="路径 592" d="M2829.641,2651.46a101.31,101.31,0,0,0-100.073,85.5l14.925,4.333a85.978,85.978,0,0,1,85.148-74.441h0V2651.46Z" fill="#0dbc86"/>
      <path id="路径_593" data-name="路径 593" d="M2930.95,2752.769a101.309,101.309,0,0,0-101.309-101.309v15.392a85.9,85.9,0,0,1,57.06,150.128l10.281,11.469A101.052,101.052,0,0,0,2930.95,2752.769Z" fill="#f5d44a"/>
    </g>
    <g id="组_625" data-name="组 625" transform="translate(-2589.2 -2597.08)">
      <circle id="椭圆_217" data-name="椭圆 217" cx="10.641" cy="10.641" r="10.641" transform="translate(3096.19 2640.792)" fill="none" stroke="#f5d44a" stroke-miterlimit="10" stroke-width="1.184" opacity="0.6"/>
      <circle id="椭圆_218" data-name="椭圆 218" cx="5.011" cy="5.011" r="5.011" transform="translate(3101.821 2646.423)" fill="#f5d44a" opacity="0.2"/>
    </g>
    <path id="路径_594" data-name="路径 594" d="M2890.1,2692.307l28.377-41.276h177.7" transform="translate(-2589.2 -2597.08)" fill="none" stroke="#f5d44a" stroke-miterlimit="10" stroke-width="1.184" opacity="0.6"/>
    <g id="组_626" data-name="组 626" transform="translate(-2589.2 -2597.08)">
      <circle id="椭圆_219" data-name="椭圆 219" cx="10.641" cy="10.641" r="10.641" transform="translate(2589.2 2859.883)" fill="none" stroke="#0dbc86" stroke-miterlimit="10" stroke-width="1.184" opacity="0.6"/>
      <circle id="椭圆_220" data-name="椭圆 220" cx="5.011" cy="5.011" r="5.011" transform="translate(2594.831 2865.513)" fill="#0dbc86" opacity="0.2"/>
    </g>
    <path id="路径_595" data-name="路径 595" d="M2814,2841.286l-20.638,29.022H2610.7" transform="translate(-2589.2 -2597.08)" fill="none" stroke="#0dbc86" stroke-miterlimit="10" stroke-width="1.184"/>
    <g id="组_627" data-name="组 627" transform="translate(-2589.2 -2597.08)">
      <text id="已解决" transform="translate(2996.805 2819.233)" fill="#fff" font-size="20" font-family="MicrosoftYaHei, Microsoft YaHei"><tspan x="0" y="0">已解决</tspan></text>
      <text id="_0个" data-name="0个" transform="translate(3078.536 2819.233)" fill="#fff" font-size="20" font-family="MicrosoftYaHei, Microsoft YaHei"><tspan x="0" y="0">0</tspan><tspan y="0" font-size="16">个</tspan></text>
      <rect id="矩形_518" data-name="矩形 518" width="12.634" height="13.467" transform="translate(2967.302 2804.653)" fill="#11bc8e"/>
    </g>
    <g id="组_628" data-name="组 628" transform="translate(-2589.2 -2597.08)">
      <text id="未解决" transform="translate(2996.806 2865.548)" fill="#fff" font-size="20" font-family="MicrosoftYaHei, Microsoft YaHei"><tspan x="0" y="0">未解决</tspan></text>
      <text id="_0个-2" data-name="0个" transform="translate(3078.537 2865.548)" fill="#fff" font-size="20" font-family="MicrosoftYaHei, Microsoft YaHei"><tspan x="0" y="0">0</tspan><tspan y="0" font-size="16">个</tspan></text>
      <rect id="矩形_519" data-name="矩形 519" width="12.634" height="13.467" transform="translate(2967.302 2850.968)" fill="#f5d44a"/>
    </g>
    <g transform="matrix(1, 0, 0, 1, -0.59, -10.5)" filter="url(#_0_)">
      <text id="_0_3" data-name="0%" transform="translate(31.77 261)" fill="#f3fcff" font-size="36" font-family="MicrosoftYaHei-Bold, Microsoft YaHei" font-weight="700"><tspan x="0" y="0">0</tspan><tspan y="0" font-size="20" font-family="MicrosoftYaHei, Microsoft YaHei" font-weight="400">%</tspan></text>
    </g>
    <g transform="matrix(1, 0, 0, 1, -0.59, -10.5)" filter="url(#_0_2)">
      <text id="_0_4" data-name="0%" transform="translate(459.8 48.5)" fill="#f3fcff" font-size="36" font-family="MicrosoftYaHei-Bold, Microsoft YaHei" font-weight="700"><tspan x="0" y="0">0</tspan><tspan y="0" font-size="20" font-family="MicrosoftYaHei, Microsoft YaHei" font-weight="400">%</tspan></text>
    </g>
    <g transform="matrix(1, 0, 0, 1, -0.59, -10.5)" filter="url(#_0)">
      <text id="_0-2" data-name="0" transform="translate(231.66 196.13) rotate(0.23)" fill="#f3fcff" font-size="36" font-family="MicrosoftYaHei-Bold, Microsoft YaHei" font-weight="700"><tspan x="0" y="0">0</tspan></text>
    </g>
    <text id="问题总数" transform="translate(182.13 140.497)" fill="#fff" font-size="30" font-family="MicrosoftJhengHeiUIRegular, Microsoft JhengHei UI"><tspan x="0" y="0">问题总</tspan><tspan y="0" font-family="YuGothicUI-Regular, Yu Gothic UI">数</tspan></text>
  </g>
</svg>
