<svg xmlns="http://www.w3.org/2000/svg" width="464.387" height="186.891" viewBox="0 0 464.387 186.891">
  <g id="组_1576" data-name="组 1576" transform="translate(-110.613 -773.597)">
    <g id="组_366" data-name="组 366" transform="translate(3456.694 -1656.423)">
      <text id="第二产业" transform="translate(-3019.597 2549.648)" fill="#fff" font-size="20" font-family="MicrosoftYaHei, Microsoft YaHei"><tspan x="0" y="0">第二产业</tspan></text>
      <text id="_0万元" data-name=" 0万元" transform="translate(-2937.694 2528.648)" fill="#fff" font-size="20" font-family="MicrosoftYaHei, Microsoft YaHei"><tspan x="0" y="21" xml:space="preserve"> 0</tspan><tspan y="21" font-size="16">万元</tspan></text>
      <rect id="矩形_237" data-name="矩形 237" width="12.634" height="13.467" transform="translate(-3049.1 2535.069)" fill="#11bc8e"/>
    </g>
    <g id="组_367" data-name="组 367" transform="translate(3456.694 -1656.423)">
      <text id="第三产业" transform="translate(-3019.596 2587.518)" fill="#fff" font-size="20" font-family="MicrosoftYaHei, Microsoft YaHei"><tspan x="0" y="0">第三产业</tspan></text>
      <text id="_0万元-2" data-name=" 0万元" transform="translate(-2937.694 2587.518)" fill="#fff" font-size="20" font-family="MicrosoftYaHei, Microsoft YaHei"><tspan x="0" y="0" xml:space="preserve"> 0</tspan><tspan y="0" font-size="16">万元</tspan></text>
      <rect id="矩形_238" data-name="矩形 238" width="12.634" height="13.467" transform="translate(-3049.1 2572.938)" fill="#11c9f4"/>
    </g>
    <g id="组_368" data-name="组 368" transform="translate(3456.694 -1656.423)">
      <text id="第一产业" transform="translate(-3019.596 2505.786)" fill="#fff" font-size="20" font-family="MicrosoftYaHei, Microsoft YaHei"><tspan x="0" y="0">第一产业</tspan></text>
      <text id="_0万元-3" data-name=" 0万元" transform="translate(-2937.694 2505.786)" fill="#fff" font-size="20" font-family="MicrosoftYaHei, Microsoft YaHei"><tspan x="0" y="0" xml:space="preserve"> 0</tspan><tspan y="0" font-size="16">万元</tspan></text>
      <rect id="矩形_239" data-name="矩形 239" width="12.634" height="13.467" transform="translate(-3049.1 2491.206)" fill="#03a5ff"/>
    </g>
    <text id="_0.0_" data-name="0.0%" transform="translate(222.77 815.597)" fill="#fff" font-size="40" font-family="MicrosoftYaHei, Microsoft YaHei"><tspan x="0" y="0">0.0%</tspan></text>
    <line id="直线_96" data-name="直线 96" x1="24.519" y1="22.158" transform="translate(267.355 824.506)" fill="none" stroke="#03a5ff" stroke-miterlimit="10" stroke-width="1"/>
    <g id="组_1546" data-name="组 1546" transform="translate(-600.387 -252.607)">
      <g id="组_1545" data-name="组 1545" transform="translate(7.061 89.132)" opacity="0.94">
        <path id="路径_326" data-name="路径 326" d="M869.724,1013.6s30.463,1.129,49,20.721c0,0,19.137-5.691,35.657-4.257L955.525,1077l-36.107-9.188s-13.516-17.073-49.363-21.048Z" fill="#606060"/>
        <path id="路径_327" data-name="路径 327" d="M869.683,1013.642l14-12.251s48.687,4.953,70.874,28.672c0,0-26.677,1.216-35.657,4.431C918.9,1034.494,898.473,1014.945,869.683,1013.642Z" fill="#b1b1b1" opacity="0.42"/>
        <path id="路径_328" data-name="路径 328" d="M851.264,1099.179s93.313-11.252,68.03-43.138l35.448-4.431s26.326,25.414-29.714,47.569c0,0-38.055,13.032-65.944,13.032Z" fill="#b1b1b1" opacity="0.42"/>
        <path id="路径_329" data-name="路径 329" d="M859.214,1123.363v-11.339s90.446-5.213,101.784-43.4c0,0,.521,14.075-2.737,19.158S931.414,1120.235,859.214,1123.363Z" fill="#969696"/>
        <path id="路径_330" data-name="路径 330" d="M919.294,1056.073l-.13,12.055s4.007,3.095.162,8.113C919.324,1076.242,929.264,1067.873,919.294,1056.073Z" fill="#969696"/>
        <path id="路径_331" data-name="路径 331" d="M831.024,1033.408s26.717.782,38.968,1.3l.781,12.077s-22.633-2.563-39.358-1.911Z" fill="#606060"/>
        <path id="路径_332" data-name="路径 332" d="M831.194,1019.029s30.713.13,38.75,2.215l.087,13.6-39.185-1.3Z" fill="#b1b1b1" opacity="0.42"/>
        <path id="路径_333" data-name="路径 333" d="M743.485,1071.24s-9.383-18.134,27.89-29.838c0,0,32.777-12.094,60.927-7.777l-.63,11.252S762.513,1042.173,743.485,1071.24Z" fill="#606060"/>
        <path id="路径_334" data-name="路径 334" d="M859.518,1112.237l-7.819-13.718s-107.215,2.915-109.15-32.064c-.323-5.829,3.44-11.164,8.384-14.37,11.061-7.172,38.476-21.754,81.39-18.387l.261-14.747s-96.441-1.544-125.112,36.011a25.809,25.809,0,0,0-2.9,11.961C704.561,1084.9,723.6,1116.373,859.518,1112.237Z" fill="#b1b1b1" opacity="0.42"/>
        <path id="路径_335" data-name="路径 335" d="M704.485,1067.888s-1.7,11.853.9,18.2c0,0,18.528,43.021,153.892,37.362v-11.127S731.624,1115.152,704.485,1067.888Z" fill="#969696"/>
      </g>
    </g>
  </g>
</svg>
