<svg xmlns="http://www.w3.org/2000/svg" xmlns:xlink="http://www.w3.org/1999/xlink" width="528.196" height="298.465" viewBox="0 0 528.196 298.465">
  <defs>
    <filter id="_0元" x="21.271" y="215.79" width="64" height="68" filterUnits="userSpaceOnUse">
      <feOffset input="SourceAlpha"/>
      <feGaussianBlur stdDeviation="3.5" result="blur"/>
      <feFlood flood-color="#31b0f7"/>
      <feComposite operator="in" in2="blur"/>
      <feComposite in="SourceGraphic"/>
    </filter>
    <filter id="_0元-2" x="7.271" y="0" width="64" height="68" filterUnits="userSpaceOnUse">
      <feOffset input="SourceAlpha"/>
      <feGaussianBlur stdDeviation="3.5" result="blur-2"/>
      <feFlood flood-color="#31b0f7"/>
      <feComposite operator="in" in2="blur-2"/>
      <feComposite in="SourceGraphic"/>
    </filter>
    <filter id="_13.2万元" x="316.068" y="3.288" width="138" height="68" filterUnits="userSpaceOnUse">
      <feOffset input="SourceAlpha"/>
      <feGaussianBlur stdDeviation="3.5" result="blur-3"/>
      <feFlood flood-color="#31b0f7"/>
      <feComposite operator="in" in2="blur-3"/>
      <feComposite in="SourceGraphic"/>
    </filter>
    <filter id="_13.2" x="195.554" y="150.911" width="99.189" height="68.315" filterUnits="userSpaceOnUse">
      <feOffset input="SourceAlpha"/>
      <feGaussianBlur stdDeviation="3.5" result="blur-4"/>
      <feFlood flood-color="#31b0f7"/>
      <feComposite operator="in" in2="blur-4"/>
      <feComposite in="SourceGraphic"/>
    </filter>
  </defs>
  <g id="组_1596" data-name="组 1596" transform="translate(-1385.182 -581.086)">
    <g id="组件_5_2" data-name="组件 5 – 2" transform="translate(1385.774 591.586)">
      <g id="组_624" data-name="组 624" transform="translate(-2589.2 -2593.792)">
        <path id="路径_591" data-name="路径 591" d="M2886.7,2816.98a85.9,85.9,0,0,1-142.977-64.211,86.537,86.537,0,0,1,.769-11.476l-14.925-4.334a101.333,101.333,0,0,0,100.073,117.119,100.919,100.919,0,0,0,67.341-25.629Z" fill="#f5d44a"/>
        <path id="路径_592" data-name="路径 592" d="M2829.641,2651.46a101.31,101.31,0,0,0-100.073,85.5l14.925,4.333a85.978,85.978,0,0,1,85.148-74.441h0V2651.46Z" fill="#f5d44a"/>
        <path id="路径_593" data-name="路径 593" d="M2930.95,2752.769a101.309,101.309,0,0,0-101.309-101.309v15.392a85.9,85.9,0,0,1,57.06,150.128l10.281,11.469A101.052,101.052,0,0,0,2930.95,2752.769Z" fill="#f5d44a"/>
      </g>
      <g id="组_625" data-name="组 625" transform="translate(-2623.337 -2593.792)">
        <circle id="椭圆_217" data-name="椭圆 217" cx="10.641" cy="10.641" r="10.641" transform="translate(3096.19 2640.792)" fill="none" stroke="#f5d44a" stroke-miterlimit="10" stroke-width="1.184" opacity="0.6"/>
        <circle id="椭圆_218" data-name="椭圆 218" cx="5.011" cy="5.011" r="5.011" transform="translate(3101.821 2646.423)" fill="#f5d44a" opacity="0.2"/>
      </g>
      <path id="路径_594" data-name="路径 594" d="M2890.1,2692.307l23.678-41.276h148.272" transform="translate(-2589.2 -2593.792)" fill="none" stroke="#f5d44a" stroke-miterlimit="10" stroke-width="1.184" opacity="0.6"/>
      <g id="组_626" data-name="组 626" transform="translate(-2589.2 -2593.792)">
        <circle id="椭圆_219" data-name="椭圆 219" cx="10.641" cy="10.641" r="10.641" transform="translate(2589.2 2859.883)" fill="none" stroke="#0dbc86" stroke-miterlimit="10" stroke-width="1.184" opacity="0.6"/>
        <ellipse id="椭圆_405" data-name="椭圆 405" cx="10.641" cy="10.641" rx="10.641" ry="10.641" transform="translate(2589.2 2634.286)" fill="none" stroke="#bc5e0d" stroke-miterlimit="10" stroke-width="1.184" opacity="0.6"/>
        <circle id="椭圆_220" data-name="椭圆 220" cx="5.011" cy="5.011" r="5.011" transform="translate(2594.831 2865.513)" fill="#0dbc86" opacity="0.2"/>
        <ellipse id="椭圆_404" data-name="椭圆 404" cx="5.011" cy="5.011" rx="5.011" ry="5.011" transform="translate(2594.831 2639.917)" fill="#bc5e0d" opacity="0.2"/>
      </g>
      <path id="路径_595" data-name="路径 595" d="M2814,2841.286l-20.638,29.022H2610.7" transform="translate(-2589.2 -2593.792)" fill="none" stroke="#0dbc86" stroke-miterlimit="10" stroke-width="1.184"/>
      <path id="路径_1048" data-name="路径 1048" d="M2771.33,2870.308l-16.306-29.022H2610.7" transform="translate(-2589.201 -2789.935)" fill="none" stroke="#bc5e0d" stroke-miterlimit="10" stroke-width="1.184"/>
      <g id="组_627" data-name="组 627" transform="translate(-2589.2 -2593.792)">
        <text id="景点" transform="translate(3036.805 2829.233)" fill="#fff" font-size="20" font-family="MicrosoftYaHei, Microsoft YaHei"><tspan x="0" y="0">景点</tspan></text>
        <text id="旅游民宿" transform="translate(3036.805 2792.233)" fill="#fff" font-size="20" font-family="MicrosoftYaHei, Microsoft YaHei"><tspan x="0" y="0">旅游民宿</tspan></text>
        <rect id="矩形_518" data-name="矩形 518" width="12.634" height="13.467" transform="translate(3007.302 2814.653)" fill="#11bc8e"/>
        <rect id="矩形_920" data-name="矩形 920" width="12.634" height="13.467" transform="translate(3007.302 2777.653)" fill="#bc5e0d"/>
      </g>
      <g id="组_628" data-name="组 628" transform="translate(-2589.2 -2593.792)">
        <text id="农家乐" transform="translate(3036.806 2865.548)" fill="#fff" font-size="20" font-family="MicrosoftYaHei, Microsoft YaHei"><tspan x="0" y="0">农家乐</tspan></text>
        <rect id="矩形_519" data-name="矩形 519" width="12.634" height="13.467" transform="translate(3007.302 2850.968)" fill="#f5d44a"/>
      </g>
      <g transform="matrix(1, 0, 0, 1, -0.59, -10.5)" filter="url(#_0元)">
        <text id="_0元-3" data-name="0元" transform="translate(31.77 264.29)" fill="#f3fcff" font-size="36" font-family="MicrosoftYaHei-Bold, Microsoft YaHei" font-weight="700"><tspan x="0" y="0">0</tspan><tspan y="0" font-size="20" font-family="MicrosoftYaHei, Microsoft YaHei" font-weight="400">元</tspan></text>
      </g>
      <g transform="matrix(1, 0, 0, 1, -0.59, -10.5)" filter="url(#_0元-2)">
        <text id="_0元-4" data-name="0元" transform="translate(17.77 48.5)" fill="#f3fcff" font-size="36" font-family="MicrosoftYaHei-Bold, Microsoft YaHei" font-weight="700"><tspan x="0" y="0">0</tspan><tspan y="0" font-size="20" font-family="MicrosoftYaHei, Microsoft YaHei" font-weight="400">元</tspan></text>
      </g>
      <g transform="matrix(1, 0, 0, 1, -0.59, -10.5)" filter="url(#_13.2万元)">
        <text id="_13.2万元-2" data-name="13.2万元" transform="translate(326.57 51.79)" fill="#f3fcff" font-size="36" font-family="MicrosoftYaHei-Bold, Microsoft YaHei" font-weight="700"><tspan x="0" y="0">13.2</tspan><tspan y="0" font-size="20" font-family="MicrosoftYaHei, Microsoft YaHei" font-weight="400">万元</tspan></text>
      </g>
      <g transform="matrix(1, 0, 0, 1, -0.59, -10.5)" filter="url(#_13.2)">
        <text id="_13.2-2" data-name="13.2" transform="translate(245.09 199.57) rotate(0.23)" fill="#f3fcff" font-size="36" font-family="MicrosoftYaHei-Bold, Microsoft YaHei" font-weight="700"><tspan x="-38.443" y="0">13.2</tspan></text>
      </g>
      <text id="产值" transform="translate(214.557 143.785)" fill="#fff" font-size="30" font-family="MicrosoftJhengHeiUIRegular, Microsoft JhengHei UI"><tspan x="0" y="0">产值</tspan></text>
    </g>
  </g>
</svg>
