<svg class="icon" style="width: 1.0283203125em;height: 1em;vertical-align: middle;fill: currentColor;overflow: hidden;color: rgba(0,0,0,.35);" viewBox="0 0 1053 1024" version="1.1" xmlns="http://www.w3.org/2000/svg" p-id="721"><path d="M825.051429 753.576229c-138.269257-50.3808-182.330514-93.037714-182.330515-183.734858 0-54.330514 42.1888-36.776229 60.708572-136.6016 7.489829-41.457371 44.763429-0.702171 52.0192-95.378285 0-37.449143-20.392229-47.074743-20.392229-47.074743s10.298514-55.998171 14.277486-98.889143C754.2784 138.24 718.409143 0 526.7456 0c-191.926857 0-227.766857 138.24-222.588343 191.926857 4.213029 42.861714 14.511543 98.859886 14.511543 98.859886s-20.626286 9.362286-20.626286 47.104c7.285029 94.646857 44.529371 53.891657 52.0192 95.378286 18.519771 99.796114 60.708571 82.212571 60.708572 136.6016 0 90.697143-44.061257 133.3248-182.301257 183.7056C89.965714 803.957029 0 855.478857 0 890.411886v118.081828h1053.257143v-118.081828c0.234057-34.933029-89.731657-86.454857-228.205714-136.835657z" p-id="722"></path></svg>