<svg class="icon" fill="currentColor" style="width: 1em; height: 1em;vertical-align: middle;overflow: hidden;" viewBox="0 0 1024 1024" version="1.1" xmlns="http://www.w3.org/2000/svg" p-id="1193"><path d="M1003.52 917.0944l-27.32032-789.21728C976.19968 57.26208 915.08736 0 839.68 0H184.32C108.9536 0 47.80032 57.26208 47.80032 127.87712L20.48 917.0944h94.6176a59.35104 59.35104 0 0 0-1.10592 11.10016v25.96864c0 32.768 26.58304 59.31008 59.31008 59.31008h85.27872c32.768 0 59.35104-26.54208 59.35104-59.31008v-25.96864c0-3.80928-0.45056-7.49568-1.14688-11.10016h390.43072a59.35104 59.35104 0 0 0-1.14688 11.10016v25.96864c0 32.768 26.58304 59.31008 59.35104 59.31008h85.27872c32.768 0 59.31008-26.54208 59.31008-59.31008v-25.96864c0-3.80928-0.4096-7.49568-1.10592-11.10016H1003.52zM188.94848 793.3952a74.9568 74.9568 0 1 1 0-149.9136 74.9568 74.9568 0 0 1 0 149.9136z m-53.08416-272.13824l10.15808-323.9936c0-71.4752 26.0096-99.7376 91.79136-99.7376h548.00384c65.78176 0 91.7504 28.2624 91.7504 99.7376l10.56768 323.9936H135.86432z m699.1872 272.13824a74.9568 74.9568 0 1 1 0-149.9136 74.9568 74.9568 0 0 1 0 149.9136z" p-id="1194"></path></svg>