<?xml version="1.0" encoding="UTF-8"?>
<svg width="48px" height="48px" viewBox="0 0 48 48" version="1.1" xmlns="http://www.w3.org/2000/svg" xmlns:xlink="http://www.w3.org/1999/xlink">
    <!-- Generator: Sketch 63.1 (92452) - https://sketch.com -->
    <title>正常文本icon</title>
    <desc>Created with Sketch.</desc>
    <g id="主页" stroke="none" stroke-width="1" fill="none" fill-rule="evenodd">
        <g id="丽水市地质灾害监测总平台" transform="translate(-40.000000, -754.000000)">
            <g id="物资情况" transform="translate(40.000000, 670.000000)">
                <g id="自有储备库" transform="translate(0.002818, 80.000000)">
                    <g id="正常文本icon" transform="translate(0.000000, 4.000000)">
                        <path d="M37.5031524,-4.97379915e-14 C41.0266667,-4.97379915e-14 43.5001767,2.45700998 43.5001767,5.99402435 L43.5001767,5.99402435 L43.5001767,16.7220679 C43.4941767,17.6685718 42.9271744,18.0045731 42.0031706,18.0045731 C41.0791669,18.0045731 40.5031645,17.6670718 40.5031645,16.7220679 L40.5031645,16.7220679 L40.5031645,6.00002438 C40.5031645,4.35001767 39.1831592,3.00601221 37.5031524,3.00601221 L37.5031524,3.00601221 L6.00452439,3.00601221 C4.32301756,3.00601221 3.01501225,4.76401935 3.01501225,6.41402606 L3.01501225,6.41402606 L3.01501225,42.0091707 C3.01139587,42.8028668 3.32529669,43.5650569 3.88681207,44.1260088 C4.44832745,44.6869607 5.21083234,45.0000961 6.00452439,44.9956828 L6.00452439,44.9956828 L18.0015731,44.9956828 C18.9315769,44.9956828 19.5000792,45.5611851 19.5000792,46.5061889 C19.4940792,47.4541928 18.9255769,48.000195 18.0015731,48.000195 L18.0015731,48.000195 L6.00452439,48.000195 C2.47501005,48.000195 -9.9475983e-14,45.546185 -9.9475983e-14,42.0091707 L-9.9475983e-14,42.0091707 L-9.9475983e-14,6.42002608 C-9.9475983e-14,2.87701169 2.47501005,-4.97379915e-14 6.00452439,-4.97379915e-14 L6.00452439,-4.97379915e-14 Z M18.0045731,28.4986158 C18.8145764,28.4986158 19.4985792,29.1781185 19.5045792,30.0016219 C19.5045792,30.8236252 18.8145764,31.503128 18.0045731,31.503128 L8.96853644,31.503128 C8.14846177,31.4916182 7.49065919,30.8217704 7.49401754,30.0016219 C7.49230703,29.1801557 8.15164894,28.5101145 8.97303645,28.4986158 L18.0045731,28.4986158 Z M21.0000853,19.5000792 C21.8340887,19.5000792 22.5015914,20.2410822 22.5015914,21.0030853 C22.5015914,21.7635884 21.8280887,22.5000914 21.0000853,22.5000914 L21.0000853,22.5000914 L9.00153657,22.5000914 C8.17353321,22.5000914 7.50003047,21.7635884 7.50003047,21.0030853 C7.50003047,20.2365822 8.17503321,19.5000792 9.00153657,19.5000792 L9.00153657,19.5000792 Z M26.9971097,10.5000427 C27.8311131,10.5000427 28.5001158,11.2275456 28.5001158,12.0000427 C28.5001158,12.7725519 27.8311131,13.5000548 27.0031097,13.5000548 L27.0031097,13.5000548 L9.00303658,13.5000548 C8.17503321,13.5000548 7.50003047,12.7725519 7.50003047,12.0000427 C7.50003047,11.2275456 8.17353321,10.5000427 9.00303658,10.5000427 L9.00303658,10.5000427 Z" id="形状结合" fill="#00BAFF"></path>
                        <path d="M43.2428614,33.4012053 C43.001168,33.1506887 42.6698554,33.0064465 42.3218103,33.0002109 C41.9737652,32.9939753 41.6374984,33.1262571 41.3869864,33.3679553 L35.8876114,38.6748303 L33.7132364,36.6360803 L33.6108614,36.5494553 C33.0549892,36.1234709 32.2625861,36.2089519 31.8103521,36.7436865 C31.3581182,37.2784211 31.4053779,38.074019 31.9177364,38.5514553 L34.7999864,41.2534553 L34.9032364,41.3409553 C35.1937364,41.5623303 35.5542364,41.6454553 35.8972364,41.5929553 C36.2883614,41.6533303 36.7022364,41.5360803 37.0084864,41.2403303 L43.2096114,35.2570803 L43.3014864,35.1590803 C43.7355139,34.6447497 43.7101921,33.8854756 43.2428614,33.4012053 Z M37.5,48 C31.6772783,48 27,43.3227217 27,37.5 C27,31.6772783 31.6772783,27 37.5,27 C43.3227217,27 48,31.6772783 48,37.5 C48,43.3227217 43.3227217,48 37.5,48 Z" id="形状" fill="#02D281"></path>
                    </g>
                </g>
            </g>
        </g>
    </g>
</svg>