<?xml version="1.0" encoding="UTF-8"?>
<svg width="32px" height="32px" viewBox="0 0 32 32" version="1.1" xmlns="http://www.w3.org/2000/svg" xmlns:xlink="http://www.w3.org/1999/xlink">
    <!-- Generator: Sketch 63.1 (92452) - https://sketch.com -->
    <title>图标库/双色32/相对湿度</title>
    <desc>Created with Sketch.</desc>
    <g id="主页" stroke="none" stroke-width="1" fill="none" fill-rule="evenodd">
        <g id="灾害点抢险" transform="translate(-537.000000, -388.000000)">
            <g id="图标库/双色32/相对湿度" transform="translate(537.000000, 388.000000)">
                <g id="相对湿度">
                    <path d="M7,6.44980387 C7,5.59107035 5.5,3 5.5,3 C5.5,3 4,5.59478785 4,6.44980387 C4,7.30853738 4.66824644,8 5.5,8 C6.33175356,8.00370261 7,7.30853738 7,6.44980387 Z" id="路径" fill="#00BAFF"></path>
                    <path d="M4,18.1384462 C4,17.1105578 1.99841144,14 1.99841144,14 C1.99841144,14 0,17.1075697 0,18.1384462 C0,19.1693227 0.895949176,20 2.00158856,20 C3.10405082,20 4,19.1663347 4,18.1384462 L4,18.1384462 Z" id="路径" fill="#00BAFF"></path>
                    <path d="M28,22 C30.2134647,22 32,20.1939799 32,17.9632107 C32,15.7324415 28,9 28,9 C28,9 24,15.7391304 24,17.9632107 C24,20.1939799 25.7898194,22 28,22 Z" id="路径" fill="#00BAFF"></path>
                    <path d="M20,18.9090909 L20,4.36363636 C20,1.96363636 17.975,0 15.5,0 C13.025,0 11,1.96363636 11,4.36363636 L11,18.9090909 C9.19999999,20.2181818 8,22.3272727 8,24.7272727 C8,28.7272727 11.375,32 15.5,32 C19.625,32 23,28.7272727 23,24.7272727 C23,22.3272727 21.8,20.2181818 20,18.9090909 Z M15.5,30.5454545 C12.2,30.5454545 9.49999998,27.9272727 9.49999998,24.7272727 C9.49999998,22.5454545 10.7,20.7272727 12.5,19.7090909 L12.5,4.36363636 C12.5,2.76363637 13.85,1.45454547 15.5,1.45454547 C17.15,1.45454547 18.5,2.76363637 18.5,4.36363636 L18.5,19.7090909 C20.3,20.7272727 21.5,22.6181818 21.5,24.7272727 C21.5,27.9272727 18.8,30.5454545 15.5,30.5454545 Z" id="形状" fill="#00BAFF"></path>
                    <path d="M17,20.5818182 L17,11.6363636 C17,10.8363636 16.325,10.1818182 15.5,10.1818182 C14.675,10.1818182 14,10.8363636 14,11.6363636 L14,20.5818182 C12.275,21.1636364 11,22.7636363 11,24.7272727 C11,27.1272727 13.025,29.0909091 15.5,29.0909091 C17.975,29.0909091 20,27.1272727 20,24.7272727 C20,22.8363636 18.725,21.2363636 17,20.5818182 Z" id="路径" fill="#02D281"></path>
                </g>
            </g>
        </g>
    </g>
</svg>