<?xml version="1.0" encoding="UTF-8"?>
<svg width="32px" height="30px" viewBox="0 0 32 30" version="1.1" xmlns="http://www.w3.org/2000/svg" xmlns:xlink="http://www.w3.org/1999/xlink">
    <!-- Generator: Sketch 63.1 (92452) - https://sketch.com -->
    <title>图标库/双色32x32/下雨</title>
    <desc>Created with Sketch.</desc>
    <g id="主页" stroke="none" stroke-width="1" fill="none" fill-rule="evenodd">
        <g id="灾害点抢险" transform="translate(-52.000000, -253.000000)">
            <g id="左右数据表" transform="translate(40.000000, 177.000000)">
                <g id="左侧">
                    <g id="数据模块库/天气预报2" transform="translate(0.000000, 75.000000)">
                        <g id="当前天气" transform="translate(0.000000, 1.000000)">
                            <g id="图标库/双色32/下雨" transform="translate(12.000000, 0.000000)">
                                <g id="下雨">
                                    <path d="M24.1538884,3.66426675 C23.7236535,3.66426675 23.2960226,3.69891332 22.8741496,3.76540123 C21.0472558,1.39577236 18.2313095,-6.49639073e-15 15.1912787,-6.49639073e-15 C10.5949058,-6.49639073e-15 6.70544439,3.15881297 5.73674656,7.51663052 C2.53090791,7.75329102 0,10.2732372 0,13.3540134 C0,16.6252547 2.78983367,19.2578842 6.21961013,19.2578842 L6.21961013,19.2578842 L7.42398179,19.2578842 L7.42398179,16.914559 L6.21671281,16.9174736 C4.11633322,16.9174736 2.40870665,15.3309447 2.40870665,13.3832681 C2.40870665,11.4673599 4.12216457,9.90684332 6.22544148,9.90684332 C6.36216604,9.90684332 6.5018246,9.91289099 6.63851247,9.92709935 C6.63851247,9.92709935 7.33383456,9.96753857 7.65672163,9.66963633 C7.90981608,9.43556249 7.9534227,8.86052409 7.9534227,8.86052409 C8.34617571,5.17887941 11.4588964,2.40179808 15.191242,2.40179808 C17.5184934,2.40179808 19.6508536,3.43055719 21.0181725,5.26241736 C21.0472925,5.30318447 21.0792731,5.34624678 21.1086498,5.38697744 C21.169457,5.4736485 21.230851,5.56035602 21.2886876,5.64994165 C21.3236022,5.70192972 21.3585168,5.75107612 21.3905341,5.80568728 C21.6904626,6.26833378 22.2664808,6.47063919 22.7900904,6.29405461 C23.2700933,6.13218846 23.7413309,6.07444415 24.1718959,6.05998077 C27.1595181,6.06836005 29.5886161,8.49001346 29.5886161,11.4607294 C29.5886161,13.7205531 28.7391488,15.258227 26.9936735,16.1566334 C26.4845873,16.4195976 25.9667724,16.58722 25.5158528,16.6973167 L25.5158528,19.1305189 C26.2198669,19.0120429 27.1129774,18.7777141 28.0086553,18.3327005 C29.8297911,17.422891 32,15.4921915 32,11.4580335 C32,7.16091115 28.4800396,3.66426675 24.1538884,3.66426675 L24.1538884,3.66426675 Z" id="路径" fill="#00BAFF"></path>
                                    <path d="M20.8104586,23.7788869 C21.7198162,24.1454994 22.7559595,23.7098852 23.1250204,22.8061234 C23.4941181,21.9027987 23.6496569,18.4407644 23.0823674,18.2122282 C22.5150411,17.9837284 20.2000759,20.5757366 19.8313817,21.479462 C19.4619174,22.3829688 19.9006609,23.412493 20.8104586,23.7788869 L20.8104586,23.7788869 L20.8104586,23.7788869 Z" id="路径" fill="#02D281"></path>
                                    <path d="M14.5424647,29.349157 C13.5193777,28.9371142 13.0261718,27.7796782 13.4413699,26.7633787 C13.8561646,25.7471157 16.4596891,22.8319581 17.0979815,23.088656 C17.7358705,23.3457547 17.5607472,27.2395414 17.1454757,28.2554037 C16.7306443,29.2717032 15.5651115,29.7612363 14.5424647,29.349157 L14.5424647,29.349157 Z" id="路径" fill="#02D281"></path>
                                    <path d="M9.05675038,25.7777284 C8.03366343,25.3656856 7.54045751,24.2082496 7.95565563,23.1919501 C8.37045034,22.1756871 10.9739748,19.2605295 11.6122672,19.5172275 C12.2501562,19.7743262 12.0750329,23.6681128 11.6597614,24.6839751 C11.24493,25.7002746 10.0793972,26.1898077 9.05675038,25.7777284 L9.05675038,25.7777284 Z" id="路径" fill="#02D281"></path>
                                </g>
                            </g>
                        </g>
                    </g>
                </g>
            </g>
        </g>
    </g>
</svg>