<?xml version="1.0" encoding="UTF-8"?>
<svg width="48px" height="48px" viewBox="0 0 48 48" version="1.1" xmlns="http://www.w3.org/2000/svg" xmlns:xlink="http://www.w3.org/1999/xlink">
    <!-- Generator: Sketch 63.1 (92452) - https://sketch.com -->
    <title>承灾人数icon</title>
    <desc>Created with Sketch.</desc>
    <g id="主页" stroke="none" stroke-width="1" fill="none" fill-rule="evenodd">
        <g id="丽水市地质灾害监测总平台" transform="translate(-40.000000, -754.000000)">
            <g id="左侧" transform="translate(40.000000, 177.000000)">
                <g id="物资情况" transform="translate(0.000000, 493.000000)">
                    <g id="承灾人数(人)" transform="translate(0.002818, 80.000000)">
                        <g id="承灾人数icon" transform="translate(0.000000, 4.000000)">
                            <path d="M37.5031524,-7.10542736e-15 C41.0266667,-7.10542736e-15 43.5001767,2.45700998 43.5001767,5.99402435 L43.5001767,5.99402435 L43.5001767,16.7220679 C43.4941767,17.6685718 42.9271744,18.0045731 42.0031706,18.0045731 C41.0791669,18.0045731 40.5031645,17.6670718 40.5031645,16.7220679 L40.5031645,16.7220679 L40.5031645,6.00002438 C40.5031645,4.35001767 39.1831592,3.00601221 37.5031524,3.00601221 L37.5031524,3.00601221 L6.00452439,3.00601221 C4.32301756,3.00601221 3.01501225,4.76401935 3.01501225,6.41402606 L3.01501225,6.41402606 L3.01501225,42.0091707 C3.01139587,42.8028668 3.32529669,43.5650569 3.88681207,44.1260088 C4.44832745,44.6869607 5.21083234,45.0000961 6.00452439,44.9956828 L6.00452439,44.9956828 L18.0015731,44.9956828 C18.9315769,44.9956828 19.5000792,45.5611851 19.5000792,46.5061889 C19.4940792,47.4541928 18.9255769,48.000195 18.0015731,48.000195 L18.0015731,48.000195 L6.00452439,48.000195 C2.47501005,48.000195 -7.10542736e-14,45.546185 -7.10542736e-14,42.0091707 L-7.10542736e-14,42.0091707 L-7.10542736e-14,6.42002608 C-7.10542736e-14,2.87701169 2.47501005,-7.10542736e-15 6.00452439,-7.10542736e-15 L6.00452439,-7.10542736e-15 Z M18.0045731,28.4986158 C18.8145764,28.4986158 19.4985792,29.1781185 19.5045792,30.0016219 C19.5045792,30.8236252 18.8145764,31.503128 18.0045731,31.503128 L8.96853644,31.503128 C8.14846177,31.4916182 7.49065919,30.8217704 7.49401754,30.0016219 C7.49230703,29.1801557 8.15164894,28.5101145 8.97303645,28.4986158 L18.0045731,28.4986158 Z M21.0000853,19.5000792 C21.8340887,19.5000792 22.5015914,20.2410822 22.5015914,21.0030853 C22.5015914,21.7635884 21.8280887,22.5000914 21.0000853,22.5000914 L21.0000853,22.5000914 L9.00153657,22.5000914 C8.17353321,22.5000914 7.50003047,21.7635884 7.50003047,21.0030853 C7.50003047,20.2365822 8.17503321,19.5000792 9.00153657,19.5000792 L9.00153657,19.5000792 Z M26.9971097,10.5000427 C27.8311131,10.5000427 28.5001158,11.2275456 28.5001158,12.0000427 C28.5001158,12.7725519 27.8311131,13.5000548 27.0031097,13.5000548 L27.0031097,13.5000548 L9.00303658,13.5000548 C8.17503321,13.5000548 7.50003047,12.7725519 7.50003047,12.0000427 C7.50003047,11.2275456 8.17353321,10.5000427 9.00303658,10.5000427 L9.00303658,10.5000427 Z" id="形状结合" fill="#00BAFF"></path>
                            <path d="M40.468835,39.9890418 C40.2025582,39.5630581 40.2349621,38.9923238 40.9098114,38.1279516 C41.7410448,37.0857411 42.5441026,34.4057712 42.5074722,32.2579325 C42.4567528,29.1878122 40.8576828,27.1433756 37.5721881,27.0055143 L37.4524339,27 C34.113399,27.1406158 32.5030583,29.1836792 32.4283909,32.2524182 C32.3776715,34.4030121 33.1652312,37.0871089 34.000692,38.1334633 C34.6839947,39.0805522 34.7262616,39.6581784 34.4895695,40.0179891 C34.4585742,40.0662396 34.4360323,40.0882969 34.440259,40.0869183 L30.9138497,42.3243631 L27.3494008,44.5852436 L27.3494008,44.5852436 C27.1292742,44.7254198 26.9966955,44.9651604 26.997182,45.2221508 L26.997182,47.2417778 C26.997182,47.6608672 27.3437667,48 27.7720632,48 L47.2004135,48 L47.2004135,48 C47.584754,48 47.9109357,47.7241418 47.9668409,47.3520644 C47.9964273,47.1535481 48.0020627,46.7454871 47.9936095,46.1044457 L47.9936089,46.1044004 C47.9895826,45.8039288 47.9834798,45.5034888 47.975301,45.2030996 L47.975301,45.2031013 C47.9692216,44.9529785 47.8374347,44.7218931 47.6230836,44.5854932 L40.5505517,40.098206 L40.5505516,40.098206 C40.521101,40.0633861 40.4942625,40.0265278 40.4702461,39.9879194 L40.4688372,39.9879194 L40.468835,39.9890418 Z" id="路径" fill="#02D281" fill-rule="nonzero"></path>
                        </g>
                    </g>
                </g>
            </g>
        </g>
    </g>
</svg>