<?xml version="1.0" encoding="UTF-8"?>
<svg width="48px" height="48px" viewBox="0 0 48 48" version="1.1" xmlns="http://www.w3.org/2000/svg" xmlns:xlink="http://www.w3.org/1999/xlink">
    <!-- Generator: Sketch 63.1 (92452) - https://sketch.com -->
    <title>位置icon</title>
    <desc>Created with Sketch.</desc>
    <g id="主页" stroke="none" stroke-width="1" fill="none" fill-rule="evenodd">
        <g id="灾害点抢险" transform="translate(-1503.000000, -653.000000)">
            <g id="左右数据表" transform="translate(40.000000, 177.000000)">
                <g id="物资情况" transform="translate(1460.000000, 401.000000)">
                    <g id="生活保障物资" transform="translate(3.002818, 74.000000)">
                        <g id="-图标库/双色48/位置1" transform="translate(0.000000, 1.000000)">
                            <g id="位置统计icon">
                                <path d="M5,6 L5,7 C5,9.14219539 6.68396847,10.8910789 8.80035966,10.9951047 L9,11 C11.1421954,11 12.8910789,9.31603153 12.9951047,7.19964034 L13,7 L13,6 L16,6 L16,7 C16,9.14219539 17.6839685,10.8910789 19.8003597,10.9951047 L20,11 C22.1421954,11 23.8910789,9.31603153 23.9951047,7.19964034 L24,7 L24,6 L27,6 L27,7 C27,9.14219539 28.6839685,10.8910789 30.8003597,10.9951047 L31,11 C33.1421954,11 34.8910789,9.31603153 34.9951047,7.19964034 L35,7 L35,6 L36,6 C38.209139,6 40,7.790861 40,10 L40.0008423,24.1418982 C39.347368,24.0483855 38.6793345,24 38,24 C30.2680135,24 24,30.2680135 24,38 C24,41.9172317 25.6088156,45.4587044 28.2017473,47.9997186 L4,48 C1.790861,48 2.705415e-16,46.209139 0,44 L0,10 C-2.705415e-16,7.790861 1.790861,6 4,6 L5,6 Z M15,36 L7,36 L6.85073766,36.0054857 C5.81587779,36.0818349 5,36.9456382 5,38 C5,39.0543618 5.81587779,39.9181651 6.85073766,39.9945143 L7,40 L15,40 L15.1492623,39.9945143 C16.1841222,39.9181651 17,39.0543618 17,38 C17,36.8954305 16.1045695,36 15,36 Z M21,27 L7,27 L6.85073766,27.0054857 C5.81587779,27.0818349 5,27.9456382 5,29 C5,30.0543618 5.81587779,30.9181651 6.85073766,30.9945143 L7,31 L21,31 L21.1492623,30.9945143 C22.1841222,30.9181651 23,30.0543618 23,29 C23,27.8954305 22.1045695,27 21,27 Z M33,18 L7,18 L6.85073766,18.0054857 C5.81587779,18.0818349 5,18.9456382 5,20 C5,21.0543618 5.81587779,21.9181651 6.85073766,21.9945143 L7,22 L33,22 L33.1492623,21.9945143 C34.1841222,21.9181651 35,21.0543618 35,20 C35,18.8954305 34.1045695,18 33,18 Z M9,0.430379747 C10.1045695,0.430379747 11,1.32581025 11,2.43037975 L11,6.43037975 C11,7.53494925 10.1045695,8.43037975 9,8.43037975 C7.8954305,8.43037975 7,7.53494925 7,6.43037975 L7,2.43037975 C7,1.32581025 7.8954305,0.430379747 9,0.430379747 Z M20,0.430379747 C21.1045695,0.430379747 22,1.32581025 22,2.43037975 L22,6.43037975 C22,7.53494925 21.1045695,8.43037975 20,8.43037975 C18.8954305,8.43037975 18,7.53494925 18,6.43037975 L18,2.43037975 C18,1.32581025 18.8954305,0.430379747 20,0.430379747 Z M31,0.430379747 C32.1045695,0.430379747 33,1.32581025 33,2.43037975 L33,6.43037975 C33,7.53494925 32.1045695,8.43037975 31,8.43037975 C29.8954305,8.43037975 29,7.53494925 29,6.43037975 L29,2.43037975 C29,1.32581025 29.8954305,0.430379747 31,0.430379747 Z" id="形状结合" fill="#00BAFF"></path>
                                <path d="M37.9318866,28 L38.2040435,28.0037528 C43.4517869,28.148562 47.8693664,32.4667637 47.8675237,37.9337616 C47.8675237,43.4192855 43.4211605,47.8664877 37.9356366,47.8675233 C32.4493802,47.8685485 28.0010355,43.4218929 27.9999998,37.9356366 C27.9989746,32.4493802 32.4456302,28.0010355 37.9318866,28 L37.9318866,28 Z M37.97253,32.5714286 C35.6208868,32.5714286 33.7142855,34.4890146 33.7142855,36.8571412 C33.7142855,39.2252679 37.97253,44 37.97253,44 C37.97253,44 42.2307744,39.2252808 42.2307744,36.8571412 C42.2307744,34.4890146 40.324186,32.5714286 37.97253,32.5714286 Z M37.9999998,34.8571429 C39.1044789,34.8571429 39.9999998,35.7512095 39.9999998,36.8571429 C39.9999998,37.9588326 39.1044789,38.8571429 37.9999998,38.8571429 C36.8955207,38.8571429 35.9999998,37.9630762 35.9999998,36.8571429 C35.9999998,35.7512125 36.8955207,34.8571429 37.9999998,34.8571429 Z" id="形状结合" fill="#02D281" fill-rule="nonzero"></path>
                            </g>
                        </g>
                    </g>
                </g>
            </g>
        </g>
    </g>
</svg>