<svg class="icon" fill="currentColor" style="width: 1em; height: 1em;vertical-align: middle;overflow: hidden;" viewBox="0 0 1024 1024" version="1.1" xmlns="http://www.w3.org/2000/svg" p-id="1223"><path d="M512 0l12.091077 0.157538C801.28 6.577231 1024 233.275077 1024 512l-0.157538 12.091077C1017.422769 801.28 790.724923 1024 512 1024 229.218462 1024 0 794.781538 0 512S229.218462 0 512 0zM317.006769 578.796308h-44.504615c-14.887385 0-22.291692 7.404308-22.291692 22.252307v112.403693c0 14.848 7.404308 22.252308 22.252307 22.252307h44.504616c14.887385 0 22.291692-7.404308 22.291692-22.252307v-112.403693c0-14.848-7.404308-22.252308-22.252308-22.252307z m129.969231-111.300923h-44.504615c-14.848 0-22.252308 7.404308-22.252308 22.252307v223.704616c0 14.848 7.404308 22.252308 22.252308 22.252307h44.504615c14.848 0 22.291692-7.404308 22.291692-22.252307v-223.704616c0-14.848-7.443692-22.252308-22.252307-22.252307z m130.008615-111.340308h-44.504615c-14.848 0-22.252308 7.443692-22.252308 22.291692v335.005539c0 14.848 7.404308 22.252308 22.252308 22.252307h44.504615c14.848 0 22.291692-7.404308 22.291693-22.252307V378.486154c0-14.848-7.443692-22.291692-22.291693-22.291692z m130.008616-111.300923h-44.504616c-14.848 0-22.252308 7.443692-22.252307 22.291692v446.306462c0 14.848 7.404308 22.252308 22.252307 22.252307h44.504616c14.848 0 22.291692-7.404308 22.291692-22.252307V267.145846c0-14.848-7.443692-22.291692-22.291692-22.291692z" p-id="1224"></path></svg>