<?xml version="1.0" encoding="UTF-8"?>
<svg width="24px" height="32px" viewBox="0 0 24 32" version="1.1" xmlns="http://www.w3.org/2000/svg" xmlns:xlink="http://www.w3.org/1999/xlink">
    <!-- Generator: Sketch 63.1 (92452) - https://sketch.com -->
    <title>图标库/双色32x32/温度</title>
    <desc>Created with Sketch.</desc>
    <g id="主页" stroke="none" stroke-width="1" fill="none" fill-rule="evenodd">
        <g id="灾害点抢险" transform="translate(-141.000000, -253.000000)">
            <g id="左右数据表" transform="translate(40.000000, 177.000000)">
                <g id="左侧">
                    <g id="数据模块库/天气预报3" transform="translate(4.000000, 76.000000)">
                        <g id="相对湿度%">
                            <g transform="translate(87.000000, 0.000000)">
                                <g id="图标库/双色32/温度" transform="translate(10.000000, 0.000000)">
                                    <g id="温度">
                                        <path d="M21,18.9090909 L21,4.36363636 C21,1.96363636 18.975,0 16.5,0 C14.025,0 12,1.96363636 12,4.36363636 L12,18.9090909 C10.2,20.2181818 9,22.3272727 9,24.7272727 C9,28.7272727 12.375,32 16.5,32 C20.625,32 24,28.7272727 24,24.7272727 C24,22.3272727 22.8,20.2181818 21,18.9090909 Z M16.5,30.5454545 C13.2,30.5454545 10.5,27.9272727 10.5,24.7272727 C10.5,22.5454545 11.7,20.7272727 13.5,19.7090909 L13.5,4.36363636 C13.5,2.76363637 14.85,1.45454547 16.5,1.45454547 C18.15,1.45454547 19.5,2.76363637 19.5,4.36363636 L19.5,19.7090909 C21.3,20.7272727 22.5,22.6181818 22.5,24.7272727 C22.5,27.9272727 19.8,30.5454545 16.5,30.5454545 Z" id="形状" fill="#00BAFF"></path>
                                        <path d="M18,20.5818182 L18,11.6363636 C18,10.8363636 17.325,10.1818182 16.5,10.1818182 C15.675,10.1818182 15,10.8363636 15,11.6363636 L15,20.5818182 C13.275,21.1636364 12,22.7636363 12,24.7272727 C12,27.1272727 14.025,29.0909091 16.5,29.0909091 C18.975,29.0909091 21,27.1272727 21,24.7272727 C21,22.8363636 19.725,21.2363636 18,20.5818182 Z" id="路径" fill="#02D281"></path>
                                        <path d="M9.07692308,10 C9.58672438,10 10,10.4477153 10,11 C10,11.506261 9.65273368,11.9246546 9.20217915,11.9908712 L9.07692308,12 L2.92307692,12 C2.41327562,12 2,11.5522847 2,11 C2,10.493739 2.34726632,10.0753454 2.79782085,10.0091288 L2.92307692,10 L9.07692308,10 Z" id="直线" fill="#00BAFF"></path>
                                        <path d="M9.11764706,6 C9.60495713,6 10,6.44771525 10,7 C10,7.50626102 9.66805426,7.92465461 9.23737713,7.99087118 L9.11764706,8 L0.882352941,8 C0.395042868,8 0,7.55228475 0,7 C0,6.49373898 0.331945743,6.07534539 0.762622874,6.00912882 L0.882352941,6 L9.11764706,6 Z" id="直线" fill="#00BAFF"></path>
                                        <path d="M9.11764706,14 C9.60495713,14 10,14.4477153 10,15 C10,15.506261 9.66805426,15.9246546 9.23737713,15.9908712 L9.11764706,16 L0.882352941,16 C0.395042868,16 0,15.5522847 0,15 C0,14.493739 0.331945743,14.0753454 0.762622874,14.0091288 L0.882352941,14 L9.11764706,14 Z" id="直线" fill="#00BAFF"></path>
                                    </g>
                                </g>
                            </g>
                        </g>
                    </g>
                </g>
            </g>
        </g>
    </g>
</svg>