<?xml version="1.0" encoding="UTF-8"?>
<svg width="32px" height="32px" viewBox="0 0 32 32" version="1.1" xmlns="http://www.w3.org/2000/svg" xmlns:xlink="http://www.w3.org/1999/xlink">
    <!-- Generator: Sketch 63.1 (92452) - https://sketch.com -->
    <title>图标库/双色32x32/风向</title>
    <desc>Created with Sketch.</desc>
    <g id="主页" stroke="none" stroke-width="1" fill="none" fill-rule="evenodd">
        <g id="灾害点抢险" transform="translate(-373.000000, -253.000000)">
            <g id="左右数据表" transform="translate(40.000000, 177.000000)">
                <g id="左侧">
                    <g id="数据模块库/天气预报3" transform="translate(4.000000, 76.000000)">
                        <g id="风力风向">
                            <g transform="translate(317.000000, 0.000000)">
                                <g id="图标库/双色32/风向" transform="translate(12.000000, 0.000000)">
                                    <g id="风向">
                                        <circle id="椭圆形" stroke="#00BAFF" stroke-width="2" cx="16" cy="16" r="15"></circle>
                                        <path d="M23.9158988,11.0599509 L16.6442355,25.6032775 C16.5162414,25.8692651 16.3002514,25.9992591 15.9962655,25.9992591 C15.9582673,25.9992591 15.90027,25.9912595 15.8262734,25.9752602 C15.6602811,25.937262 15.5242874,25.851266 15.4222921,25.7192721 C15.3202968,25.5892781 15.2702991,25.4372851 15.2702991,25.2692929 L15.2702991,18.7275958 L8.72660215,18.7275958 C8.56060984,18.7275958 8.41261669,18.6775982 8.27662299,18.5756029 C8.14662901,18.4736076 8.05863309,18.3396138 8.02063484,18.1716216 C7.9826366,18.0056293 7.99663596,17.8476366 8.06663271,17.6936437 C8.13662947,17.5436507 8.24262456,17.427656 8.39661743,17.3516596 L22.939944,10.0799963 C23.0379394,10.0259988 23.1479343,10 23.2699287,10 C23.4759191,10 23.6439114,10.0719967 23.7799051,10.21599 C23.8938998,10.3199852 23.9638966,10.4519791 23.9898953,10.6079718 C24.0158941,10.7679644 23.9918953,10.9159576 23.9158988,11.0599509 Z" id="路径" fill="#02D281" fill-rule="nonzero" transform="translate(16.000000, 17.999630) rotate(-45.000000) translate(-16.000000, -17.999630) "></path>
                                    </g>
                                </g>
                            </g>
                        </g>
                    </g>
                </g>
            </g>
        </g>
    </g>
</svg>