<?xml version="1.0" encoding="UTF-8"?>
<svg width="32px" height="32px" viewBox="0 0 32 32" version="1.1" xmlns="http://www.w3.org/2000/svg" xmlns:xlink="http://www.w3.org/1999/xlink">
    <!-- Generator: Sketch 63.1 (92452) - https://sketch.com -->
    <title>中雨/小到中雨</title>
    <desc>Created with Sketch.</desc>
    <g id="页面-1" stroke="none" stroke-width="1" fill="none" fill-rule="evenodd">
        <g id="Apple-TV" transform="translate(-346.000000, -3150.000000)">
            <g id="天气预报图标双色" transform="translate(10.000000, 3150.000000)">
                <g id="中雨/小到中雨" transform="translate(336.000000, 0.000000)">
                    <path d="M24.7990674,5.71497006 C23.3454635,2.35688623 19.9992479,0 16.0725663,0 C11.0532429,0 6.9802253,3.78443114 6.61926327,8.64191617 C6.39975933,8.64191617 6.11196527,8.57005988 5.81929335,8.57005988 C2.61941369,8.57005988 0,11.142515 0,14.2850299 C0,17.4275449 2.61941369,20 5.81929335,20 L24.7258994,20 C28.725749,20 31.9987966,16.7856287 31.9987966,12.857485 C32.0719646,8.92934132 28.798917,5.71497006 24.7990674,5.71497006 L24.7990674,5.71497006 Z" id="路径" fill="#00BAFF" fill-rule="nonzero"></path>
                    <path d="M17.6021558,26.0148861 C18.206227,26.2550711 18.0403879,29.8926982 17.6471321,30.8417302 C17.254293,31.7911707 16.1505511,32.2484991 15.18212,31.8635291 C14.2132722,31.4785932 13.7462136,30.3973012 14.1393999,29.4478607 C14.5322043,28.4984543 16.9977025,25.7750754 17.6021558,26.0148861 Z M7.60215579,26.0148861 C8.20622702,26.2550711 8.04038789,29.8926982 7.64713207,30.8417302 C7.25429301,31.7911707 6.15055109,32.2484991 5.18212001,31.8635291 C4.21327216,31.4785932 3.74621361,30.3973012 4.13939995,29.4478607 C4.53220426,28.4984543 6.99770254,25.7750754 7.60215579,26.0148861 Z M21.6455228,23.0001646 L21.7014696,23.0124316 C22.1546079,23.2125224 22.0303669,26.2436446 21.7355399,27.0345343 C21.4407422,27.8258069 20.6130939,28.2072011 19.8867191,27.8862201 C19.1599927,27.5654305 18.8095341,26.664049 19.1046541,25.8729997 C19.3991589,25.0817591 21.2483019,22.8123727 21.7014696,23.0124316 Z M11.6455228,23.0001646 L11.7014696,23.0124316 C12.1546079,23.2125224 12.0303669,26.2436446 11.7355399,27.0345343 C11.4407422,27.8258069 10.6130939,28.2072011 9.88671907,27.8862201 C9.15999274,27.5654305 8.80953411,26.664049 9.10465409,25.8729997 C9.39915885,25.0817591 11.2483019,22.8123727 11.7014696,23.0124316 Z" id="形状结合" fill="#02D281"></path>
                </g>
            </g>
        </g>
    </g>
</svg>