<?xml version="1.0" encoding="UTF-8"?>
<svg width="32px" height="24px" viewBox="0 0 32 24" version="1.1" xmlns="http://www.w3.org/2000/svg" xmlns:xlink="http://www.w3.org/1999/xlink">
    <!-- Generator: Sketch 63.1 (92452) - https://sketch.com -->
    <title>多云</title>
    <desc>Created with Sketch.</desc>
    <g id="页面-1" stroke="none" stroke-width="1" fill="none" fill-rule="evenodd">
        <g id="Apple-TV" transform="translate(-52.000000, -3154.000000)" fill-rule="nonzero">
            <g id="天气预报图标双色" transform="translate(10.000000, 3150.000000)">
                <g id="多云" transform="translate(42.000000, 4.000000)">
                    <path d="M5.13596693,16.3283513 C5.57326596,15.8905496 6.23105191,15.8905496 6.67202572,16.3283513 C7.10932476,16.7661531 7.10932476,17.4246953 6.67202572,17.8624971 L6.67202572,17.8624971 L4.86403307,19.6725684 C4.64354616,19.8896298 4.37161231,20 4.09600367,20 C3.82039504,20 3.54846119,19.8933088 3.32797428,19.6725684 C2.89067524,19.2347666 2.89067524,18.5762244 3.32797428,18.1384226 L3.32797428,18.1384226 Z M11.3568862,6 C12.7508982,6 14.0371257,6.54545455 15,7.46545455 C13.1820359,8.65818182 11.8419162,10.5018182 11.1952096,12.6145455 C9.64311377,12.8872727 8.30299401,13.8072727 7.34011976,15 C6.53532934,14.08 6,12.8327273 6,11.4218182 C6,8.44 8.41077844,6 11.3568862,6 Z M3.88888889,11 C4.50037286,11 5,11.4496644 5,12 C5,12.5503356 4.50037286,13 3.88888889,13 L3.88888889,13 L1.11111111,13 C0.499627144,13 0,12.5503356 0,12 C0,11.4496644 0.499627144,11 1.11111111,11 L1.11111111,11 Z M3.33255706,3.32835135 C3.77596646,2.89054955 4.44294364,2.89054955 4.88635305,3.32835135 L4.88635305,3.32835135 L6.66744294,5.13842263 C7.11085235,5.57622442 7.11085235,6.23476661 6.66744294,6.67256841 C6.44387517,6.8896298 6.16814159,7 5.88868188,7 C5.60922217,7 5.33348859,6.89330881 5.10992082,6.67256841 L5.10992082,6.67256841 L3.33255706,4.86249713 C2.88914765,4.42469533 2.88914765,3.76615314 3.33255706,3.32835135 Z M18.137931,3.33294474 C18.5756322,2.88901842 19.234023,2.88901842 19.6717241,3.33294474 C20.1094253,3.77687107 20.1094253,4.44462579 19.6717241,4.88855211 L19.6717241,4.88855211 L17.862069,6.66798788 C17.6413793,6.8880858 17.3691954,7 17.0933333,7 C16.8211494,7 16.5452874,6.89181627 16.3282759,6.7202145 C15.8905747,6.27628818 15.8905747,5.60853346 16.3282759,5.16460713 L16.3282759,5.16460713 Z M12,0 C12.5503397,0 13,0.499627144 13,1.11111111 L13,1.11111111 L13,3.88888889 C13,4.50037286 12.5503397,5 12,5 C11.4496788,5 10.9966628,4.50037286 11,3.88888889 L11,3.88888889 L11,1.11111111 C11,0.499627144 11.4496788,0 12,0 Z" id="形状结合" fill="#02D281"></path>
                    <path d="M26.3742714,12.571976 C25.2386434,9.88550898 22.6244124,8 19.5566924,8 C15.635346,8 12.453301,11.0275449 12.1712994,14.9135329 C11.999812,14.9135329 11.7749729,14.8560479 11.5463229,14.8560479 C9.04641694,14.8560479 7,16.914012 7,19.428024 C7,21.9420359 9.04641694,24 11.5463229,24 L26.3171089,24 C29.4419914,24 31.9990599,21.428503 31.9990599,18.285988 C32.0562224,15.1434731 29.4991539,12.571976 26.3742714,12.571976 L26.3742714,12.571976 Z" id="路径" fill="#00BAFF"></path>
                </g>
            </g>
        </g>
    </g>
</svg>