<?xml version="1.0" encoding="UTF-8"?>
<svg width="32px" height="32px" viewBox="0 0 32 32" version="1.1" xmlns="http://www.w3.org/2000/svg" xmlns:xlink="http://www.w3.org/1999/xlink">
    <!-- Generator: Sketch 63.1 (92452) - https://sketch.com -->
    <title>大雨/大暴雨/特大暴雨/中雨-大雨/大雨-暴雨</title>
    <desc>Created with Sketch.</desc>
    <g id="页面-1" stroke="none" stroke-width="1" fill="none" fill-rule="evenodd">
        <g id="Apple-TV" transform="translate(-388.000000, -3150.000000)">
            <g id="天气预报图标双色" transform="translate(10.000000, 3150.000000)">
                <g id="大雨/大暴雨/特大暴雨/中雨-大雨/大雨-暴雨" transform="translate(378.000000, 0.000000)">
                    <path d="M24.7990674,5.71497006 C23.3454635,2.35688623 19.9992479,0 16.0725663,0 C11.0532429,0 6.9802253,3.78443114 6.61926327,8.64191617 C6.39975933,8.64191617 6.11196527,8.57005988 5.81929335,8.57005988 C2.61941369,8.57005988 0,11.142515 0,14.2850299 C0,17.4275449 2.61941369,20 5.81929335,20 L24.7258994,20 C28.725749,20 31.9987966,16.7856287 31.9987966,12.857485 C32.0719646,8.92934132 28.798917,5.71497006 24.7990674,5.71497006 L24.7990674,5.71497006 Z" id="路径" fill="#00BAFF" fill-rule="nonzero"></path>
                    <path d="M22.6021558,26.0148861 C23.206227,26.2550711 23.0403879,29.8926982 22.6471321,30.8417302 C22.254293,31.7911707 21.1505511,32.2484991 20.18212,31.8635291 C19.2132722,31.4785932 18.7462136,30.3973012 19.1393999,29.4478607 C19.5322043,28.4984543 21.9977025,25.7750754 22.6021558,26.0148861 Z M13.6021558,26.0148861 C14.206227,26.2550711 14.0403879,29.8926982 13.6471321,30.8417302 C13.254293,31.7911707 12.1505511,32.2484991 11.18212,31.8635291 C10.2132722,31.4785932 9.74621361,30.3973012 10.1393999,29.4478607 C10.5322043,28.4984543 12.9977025,25.7750754 13.6021558,26.0148861 Z M4.60215579,26.0148861 C5.20622702,26.2550711 5.04038789,29.8926982 4.64713207,30.8417302 C4.25429301,31.7911707 3.15055109,32.2484991 2.18212001,31.8635291 C1.21327216,31.4785932 0.746213613,30.3973012 1.13939995,29.4478607 C1.53220426,28.4984543 3.99770254,25.7750754 4.60215579,26.0148861 Z M26.6455228,23.0001646 L26.7014696,23.0124316 C27.1546079,23.2125224 27.0303669,26.2436446 26.7355399,27.0345343 C26.4407422,27.8258069 25.6130939,28.2072011 24.8867191,27.8862201 C24.1599927,27.5654305 23.8095341,26.664049 24.1046541,25.8729997 C24.3991589,25.0817591 26.2483019,22.8123727 26.7014696,23.0124316 Z M17.6455228,23.0001646 L17.7014696,23.0124316 C18.1546079,23.2125224 18.0303669,26.2436446 17.7355399,27.0345343 C17.4407422,27.8258069 16.6130939,28.2072011 15.8867191,27.8862201 C15.1599927,27.5654305 14.8095341,26.664049 15.1046541,25.8729997 C15.3991589,25.0817591 17.2483019,22.8123727 17.7014696,23.0124316 Z M8.64552278,23.0001646 L8.70146959,23.0124316 C9.15460792,23.2125224 9.03036694,26.2436446 8.73553992,27.0345343 C8.4407422,27.8258069 7.61309386,28.2072011 6.88671907,27.8862201 C6.15999274,27.5654305 5.80953411,26.664049 6.10465409,25.8729997 C6.39915885,25.0817591 8.24830194,22.8123727 8.70146959,23.0124316 Z" id="形状结合" fill="#02D281"></path>
                </g>
            </g>
        </g>
    </g>
</svg>