<?xml version="1.0" encoding="UTF-8"?>
<svg width="32px" height="30px" viewBox="0 0 32 30" version="1.1" xmlns="http://www.w3.org/2000/svg" xmlns:xlink="http://www.w3.org/1999/xlink">
    <!-- Generator: Sketch 63.1 (92452) - https://sketch.com -->
    <title>小雨</title>
    <desc>Created with Sketch.</desc>
    <g id="页面-1" stroke="none" stroke-width="1" fill="none" fill-rule="evenodd">
        <g id="Apple-TV" transform="translate(-304.000000, -3151.000000)">
            <g id="天气预报图标双色" transform="translate(10.000000, 3150.000000)">
                <g id="小雨" transform="translate(294.000000, 1.000000)">
                    <path d="M24.7990674,5.71497006 C23.3454635,2.35688623 19.9992479,0 16.0725663,0 C11.0532429,0 6.9802253,3.78443114 6.61926327,8.64191617 C6.39975933,8.64191617 6.11196527,8.57005988 5.81929335,8.57005988 C2.61941369,8.57005988 0,11.142515 0,14.2850299 C0,17.4275449 2.61941369,20 5.81929335,20 L24.7258994,20 C28.725749,20 31.9987966,16.7856287 31.9987966,12.857485 C32.0719646,8.92934132 28.798917,5.71497006 24.7990674,5.71497006 L24.7990674,5.71497006 Z" id="路径" fill="#00BAFF" fill-rule="nonzero"></path>
                    <path d="M13.6021558,24.0148861 C14.206227,24.2550711 14.0403879,27.8926982 13.6471321,28.8417302 C13.254293,29.7911707 12.1505511,30.2484991 11.18212,29.8635291 C10.2132722,29.4785932 9.74621361,28.3973012 10.1393999,27.4478607 C10.5322043,26.4984543 12.9977025,23.7750754 13.6021558,24.0148861 Z M19.6455228,23.0001646 L19.7014696,23.0124316 C20.1546079,23.2125224 20.0303669,26.2436446 19.7355399,27.0345343 C19.4407422,27.8258069 18.6130939,28.2072011 17.8867191,27.8862201 C17.1599927,27.5654305 16.8095341,26.664049 17.1046541,25.8729997 C17.3991589,25.0817591 19.2483019,22.8123727 19.7014696,23.0124316 Z" id="形状结合" fill="#02D281"></path>
                </g>
            </g>
        </g>
    </g>
</svg>