<?xml version="1.0" encoding="UTF-8"?>
<svg width="32px" height="32px" viewBox="0 0 32 32" version="1.1" xmlns="http://www.w3.org/2000/svg" xmlns:xlink="http://www.w3.org/1999/xlink">
    <!-- Generator: Sketch 63.1 (92452) - https://sketch.com -->
    <title>晴</title>
    <desc>Created with Sketch.</desc>
    <g id="页面-1" stroke="none" stroke-width="1" fill="none" fill-rule="evenodd">
        <g id="Apple-TV" transform="translate(-10.000000, -3150.000000)" fill-rule="nonzero">
            <g id="天气预报图标双色" transform="translate(10.000000, 3150.000000)">
                <g id="晴">
                    <path d="M16.0682511,4.52131547 C16.8092626,4.52131547 17.4137721,3.93666261 17.4137721,3.15712546 L17.4137721,1.36419001 C17.4137721,0.604141291 16.8092626,0 16.0682511,0 C15.3272395,0 14.72273,0.584652862 14.72273,1.36419001 L14.72273,3.15712546 C14.72273,3.91717418 15.3272395,4.52131547 16.0682511,4.52131547 Z M26.0524071,7.97076736 L27.3199269,6.70401949 C27.8464351,6.17783191 27.8659354,5.32034105 27.3394272,4.79415347 C26.812919,4.2679659 25.9744059,4.2679659 25.4283973,4.8136419 L24.1608775,6.08038977 C23.6343693,6.60657734 23.614869,7.46406821 24.1413772,7.99025579 C24.6483851,8.51644336 25.5063985,8.51644336 26.0524071,7.97076736 Z M3.15904936,14.6552984 L1.36502133,14.6552984 C0.604509445,14.6552984 0,15.2594397 0,16 C0,16.7405603 0.585009141,17.3447016 1.36502133,17.3447016 L3.15904936,17.3447016 C3.91956124,17.3447016 4.52407069,16.7405603 4.52407069,16 C4.52407069,15.2594397 3.93906155,14.6552984 3.15904936,14.6552984 Z M5.94759293,24.1656516 L4.68007313,25.4323995 C4.1535649,25.9585871 4.13406459,26.816078 4.66057282,27.3422655 C5.18708105,27.8684531 6.02559415,27.8684531 6.57160268,27.3227771 L7.83912249,26.0560292 C8.36563071,25.5298417 8.38513102,24.6723508 7.85862279,24.1461632 C7.33211456,23.6199756 6.49360146,23.6199756 5.94759293,24.1656516 Z M6.04509445,7.75639464 C6.57160268,8.28258222 7.42961609,8.30207065 7.95612431,7.77588307 C8.48263254,7.24969549 8.48263254,6.41169306 7.93662401,5.86601705 L6.6691042,4.59926918 C6.14259598,4.07308161 5.28458257,4.05359318 4.75807434,4.57978076 C4.23156612,5.10596833 4.23156612,5.94397077 4.77757465,6.48964677 L6.04509445,7.75639464 L6.04509445,7.75639464 Z M16.0097502,27.4786845 C15.2687386,27.4786845 14.6642291,28.0633374 14.6642291,28.8428745 L14.6642291,30.63581 C14.6642291,31.3958587 15.2687386,32 16.0097502,32 C16.7507617,32 17.3552712,31.4153471 17.3552712,30.63581 L17.3552712,28.8428745 C17.3552712,28.1023143 16.7507617,27.4786845 16.0097502,27.4786845 Z M25.9159049,24.1461632 C25.3893967,23.6199756 24.5313833,23.6004872 24.0048751,24.1266748 C23.4783668,24.6528624 23.4783668,25.4908648 24.0243754,26.0365408 L25.2918952,27.3032887 C25.8184034,27.8294762 26.6764168,27.8489647 27.202925,27.3227771 C27.7294333,26.7965895 27.7294333,25.9585871 27.1834247,25.4129111 L25.9159049,24.1461632 Z M30.6349787,14.7917174 L28.8409506,14.7917174 C28.0804388,14.7917174 27.4759293,15.3958587 27.4759293,16.136419 C27.4759293,16.8769793 28.0609385,17.4811206 28.8409506,17.4811206 L30.6349787,17.4811206 C31.3954906,17.4811206 32,16.8769793 32,16.136419 C32,15.3958587 31.4149909,14.7917174 30.6349787,14.7917174 Z" id="形状" fill="#02D281"></path>
                    <path d="M8,16 L8,16 C8,20.4182848 11.5817154,24 16,24 C20.4182846,24 24,20.4182848 24,16 C24,16 24,16 24,16 L24,16 C24,11.5817154 20.4182846,8 16,8 C11.5817154,8 8,11.5817154 8,16 L8,16 Z" id="路径" fill="#00BAFF"></path>
                </g>
            </g>
        </g>
    </g>
</svg>