<?xml version="1.0" encoding="UTF-8"?>
<svg width="32px" height="24px" viewBox="0 0 32 24" version="1.1" xmlns="http://www.w3.org/2000/svg" xmlns:xlink="http://www.w3.org/1999/xlink">
    <!-- Generator: Sketch 63.1 (92452) - https://sketch.com -->
    <title>阴</title>
    <desc>Created with Sketch.</desc>
    <g id="页面-1" stroke="none" stroke-width="1" fill="none" fill-rule="evenodd">
        <g id="Apple-TV" transform="translate(-94.000000, -3154.000000)" fill-rule="nonzero">
            <g id="天气预报图标双色" transform="translate(10.000000, 3150.000000)">
                <g id="阴" transform="translate(84.000000, 4.000000)">
                    <path d="M19.5566924,0 C22.6244124,0 25.2386434,1.88550898 26.3742714,4.57197605 C29.4991539,4.57197605 32.0562224,7.14347305 31.9990599,10.285988 C31.9990599,10.8230116 31.924385,11.3433595 31.7849628,11.8370484 C31.0808433,9.16853666 28.7231175,7.17254298 25.8748936,7.01152561 C24.2727329,4.0283684 21.1232419,2 17.5,2 C16.1918024,2 14.945364,2.26442279 13.8112238,2.74273557 C15.1651492,1.06504607 17.2308831,0 19.5566924,0 Z" id="形状结合" fill="#02D281"></path>
                    <path d="M24.7990674,9.71497006 C23.3454635,6.35688623 19.9992479,4 16.0725663,4 C11.0532429,4 6.9802253,7.78443114 6.61926327,12.6419162 C6.39975933,12.6419162 6.11196527,12.5700599 5.81929335,12.5700599 C2.61941369,12.5700599 0,15.142515 0,18.2850299 C0,21.4275449 2.61941369,24 5.81929335,24 L24.7258994,24 C28.725749,24 31.9987966,20.7856287 31.9987966,16.857485 C32.0719646,12.9293413 28.798917,9.71497006 24.7990674,9.71497006 L24.7990674,9.71497006 Z" id="路径" fill="#00BAFF"></path>
                </g>
            </g>
        </g>
    </g>
</svg>