<?xml version="1.0" encoding="UTF-8"?>
<svg width="48px" height="47px" viewBox="0 0 48 47" version="1.1" xmlns="http://www.w3.org/2000/svg" xmlns:xlink="http://www.w3.org/1999/xlink">
    <!-- Generator: Sketch 63.1 (92452) - https://sketch.com -->
    <title>摄像头icon</title>
    <desc>Created with Sketch.</desc>
    <g id="主页" stroke="none" stroke-width="1" fill="none" fill-rule="evenodd">
        <g id="丽水市城市应急通道管控平台" transform="translate(-40.000000, -374.000000)" fill-rule="nonzero">
            <g id="左侧边栏" transform="translate(40.000000, 177.000000)">
                <g id="消防应急通道/点">
                    <g id="监控数量(个)" transform="translate(0.000000, 192.000000)">
                        <g id="摄像头icon" transform="translate(24.000000, 28.000000) scale(-1, 1) translate(-24.000000, -28.000000) translate(0.000000, 4.000000)">
                            <path d="M17.2587314,35.1134688 L11.4432613,24.4092353 C11.0649512,23.7443049 11.3017316,22.9019715 11.9721243,22.5278363 C12.6425147,22.1537009 13.4926587,22.3894393 13.8709687,23.0543718 L19,32.5553675 L40.4299831,21.0992623 L38.069185,16.5807254 C37.6751236,15.9249999 37.8915882,15.0774689 38.5526727,14.6877079 C39.2137564,14.297949 40.0691191,14.5135577 40.4631826,15.1692838 C40.483555,15.203184 40.5024544,15.2379316 40.5198288,15.273431 L43.5324568,20.9866938 C43.8941182,21.6496181 43.6535621,22.4768455 42.9917124,22.8462173 L19.1558299,35.6409891 C18.9186904,35.7732019 18.6474961,35.8333874 18.3759435,35.81407 C17.9086381,35.7813929 17.4888998,35.5181249 17.2587314,35.1134688 Z M9.59404998,31.3406896 L7.50878821,27.1111155 C7.17556479,26.4230932 7.46782263,25.598296 8.16156503,25.2688795 C8.84880759,24.9425468 9.67374643,25.2245249 10.012939,25.9017102 L11.4659212,28.8487629 L13.6357594,27.7134499 C14.3159969,27.3574369 15.1593037,27.6157559 15.5193422,28.2904221 C15.8793806,28.9650899 15.6198095,29.8006183 14.9395735,30.1566315 L11.497736,31.9578339 C11.2678345,32.0778126 11.0085767,32.1316195 10.749265,32.1131737 C10.2529297,32.0783694 9.81263971,31.7839494 9.59404998,31.3406896 Z M31.4870011,38.1737959 L31.4870009,38.1737959 C28.7578085,38.1737959 26.5453566,35.9810959 26.5453566,33.2762713 C26.5453566,30.5714467 28.7578085,28.3787489 31.4870009,28.3787489 C34.2161932,28.3787489 36.4286451,30.5714467 36.4286451,33.2762713 C36.4286451,33.2764555 36.4286451,33.2766396 36.4286451,33.2768237 L36.4286451,33.2768535 C36.4252494,35.980203 34.214677,38.1707684 31.4869729,38.1737959 L31.4870011,38.1737959 Z M31.4870011,31.1415813 L31.487001,31.1415813 C30.2971155,31.1415813 29.3325221,32.0975622 29.3325221,33.2768238 C29.3325221,34.4560853 30.2971155,35.4120662 31.487001,35.4120662 C32.6768865,35.4120662 33.6414798,34.4560853 33.6414798,33.2768238 C33.6414798,33.2768238 33.6414798,33.2768238 33.6414798,33.2768238 L33.6414798,33.2768185 C33.6402479,32.0980597 32.6763736,31.142797 31.4869954,31.1415813 L31.4870011,31.1415813 Z M31.4684275,34.2817739 C31.9917925,34.2817739 32.4160638,33.8612908 32.4160638,33.3425987 C32.4160638,32.8239066 31.9917925,32.4034235 31.4684275,32.4034235 C30.9450625,32.4034235 30.5207913,32.8239066 30.5207913,33.3425987 C30.5207913,33.8612908 30.9450625,34.2817739 31.4684275,34.2817739 Z M46.6021373,32 C47.3741545,32 48,32.6191447 48,33.3828962 L48,40.6171025 C48,41.3808539 47.3741545,42 46.6021373,42 L35.052994,42 C32.2629273,41.99695 30.0021583,39.7596418 30,36.9994475 C30,36.8805184 30.0050323,36.7555046 30.0162152,36.6166618 C30.0751189,35.8551337 30.7468893,36.2850375 31.5166587,36.3433072 C31.6388359,36.3525562 31.7592533,36.3776576 31.8748146,36.4179659 C33.0001222,36.8105613 34.2340715,35.2263485 34.6309136,34.1130928 C34.7106879,33.8893031 34.7522358,33.6539336 34.7538528,33.4166386 L34.7538528,33.3828959 C34.7538527,32.6191447 35.3796983,32 36.1517155,32 L46.6021373,32 Z M45,34 L36.0638316,34 C35.5272884,36.4732467 33.8097203,37.5914654 32,37.9517823 C32.79114,39.6494931 34.0171769,40.0220158 34.752765,39.9992718 L34.752765,39.9992718 L45,39.9992718 L45,34 Z M46.5,48 L46.5,48 C45.671574,48 45,47.2909152 45,46.4162177 C45,46.4162177 45,46.4162177 45,46.4162177 L45,27.5837818 L45,27.5837821 C45,26.7090846 45.671574,26 46.5,26 C47.328426,26 48,26.7090846 48,27.5837821 C48,27.5837821 48,27.5837821 48,27.5837821 L48,46.4162179 L48,46.4162179 C48,47.2909154 47.328426,48 46.5,48 L46.5,48 Z" id="形状" fill="#00BAFF"></path>
                            <path d="M41.2678057,3.06091603 C41.2807207,3.07820531 41.2930487,3.09549458 41.3047897,3.11336017 L45.5785798,10.0097268 C46.0264787,10.6729205 45.8419316,11.5669952 45.1663824,12.0067018 C45.1524775,12.0157523 45.1384164,12.0245694 45.1242053,12.0331492 L25.5015666,23.8768804 C24.8891824,24.2511811 24.089906,24.1285783 23.6230156,23.5887258 C22.937556,22.8726905 22.1269495,22.2830339 21.2296244,21.8476957 C19.4590902,21.0045553 18.7463281,22.0307117 17.0726567,22.9948771 C12.0563386,25.8839153 9.15632558,28.2024073 9.12756027,28.2254597 C8.86489954,28.4374919 8.5353882,28.5533951 8.19532939,28.5533951 C7.87772567,28.5537104 7.56863888,28.4525657 7.31475859,28.265222 L1.73017888,24.1538319 C1.08179694,23.6763326 0.950480363,22.7732427 1.43687771,22.1367207 C1.5474498,21.9920204 1.68478949,21.8690556 1.84171776,21.7742533 L34.8977568,1.81320658 L34.9042143,1.80974872 C37.0340567,0.538635257 39.8008687,1.08262507 41.2678057,3.06091603 Z M18.462985,17.373638 C18.1137943,16.8133743 17.3722042,16.6395915 16.806597,16.9854832 L16.806597,16.9854832 L10.6618629,20.7432382 L10.5466823,20.823102 C10.0738695,21.1931812 9.94575768,21.863733 10.2700062,22.3839779 C10.6191968,22.9442417 11.360787,23.1180245 11.9263941,22.7721327 L11.9263941,22.7721327 L18.0711283,19.0143778 L18.1863089,18.9345139 C18.6591216,18.5644348 18.7872335,17.8938829 18.462985,17.373638 Z M28.0915639,11.4126282 C27.7423732,10.8523644 27.0007831,10.6785816 26.4351759,11.0244734 L26.4351759,11.0244734 L20.2904418,14.7822283 L20.1752612,14.8620922 C19.7024484,15.2321713 19.5743366,15.9027232 19.898585,16.4229681 C20.2477757,16.9832318 20.9893659,17.1570146 21.554973,16.8111229 L21.554973,16.8111229 L27.6997072,13.0533679 L27.8148878,12.9735041 C28.2877005,12.6034249 28.4158124,11.9328731 28.0915639,11.4126282 Z M37.7201428,5.45161837 C37.3709521,4.89135462 36.629362,4.71757181 36.0637548,5.0634636 L36.0637548,5.0634636 L29.9190207,8.82121851 L29.8038401,8.90108237 C29.3310273,9.27116151 29.2029155,9.94171334 29.5271639,10.4619583 C29.8763546,11.022222 30.6179448,11.1960048 31.1835519,10.850113 L31.1835519,10.850113 L37.3282861,7.09235812 L37.4434667,7.01249426 C37.9162794,6.64241512 38.0443913,5.97186329 37.7201428,5.45161837 Z" id="形状结合" fill="#02D281" transform="translate(23.483170, 14.839102) rotate(2.000000) translate(-23.483170, -14.839102) "></path>
                        </g>
                    </g>
                </g>
            </g>
        </g>
    </g>
</svg>