<?xml version="1.0" encoding="UTF-8"?>
<svg width="42px" height="48px" viewBox="0 0 42 48" version="1.1" xmlns="http://www.w3.org/2000/svg" xmlns:xlink="http://www.w3.org/1999/xlink">
    <!-- Generator: Sketch 63.1 (92452) - https://sketch.com -->
    <title>公路icon</title>
    <desc>Created with Sketch.</desc>
    <g id="主页" stroke="none" stroke-width="1" fill="none" fill-rule="evenodd">
        <g id="丽水市城市应急通道管控平台" transform="translate(-43.000000, -297.000000)" fill-rule="nonzero">
            <g id="左侧边栏" transform="translate(40.000000, 177.000000)">
                <g id="消防应急通道/点">
                    <g id="消防通道(条)" transform="translate(3.000000, 116.000000)">
                        <g id="公路icon" transform="translate(0.000000, 4.000000)">
                            <path d="M37.7141584,3.55271368e-15 C40.0810124,3.55271368e-15 42,2.22398295 42,4.96723444 L42,4.96723444 L42,43.0327441 C42,45.7760493 40.0810124,47.9999785 37.7141584,47.9999785 L37.7141584,47.9999785 L33.8333333,47.9999785 L33.8333333,3.55271368e-15 Z M8.16666667,4.29809145e-05 L8.16666667,48 L4.28602999,48 C1.9189405,48 0,45.7760171 0,43.0327656 L0,43.0327656 L0,4.96727742 C0,2.22402593 1.9189405,4.29809145e-05 4.28602999,4.29809145e-05 L4.28602999,4.29809145e-05 L8.16666667,4.29809145e-05 Z" id="形状结合" fill="#00BAFF"></path>
                            <path d="M23.3333333,33.0898313 L23.3333333,44.5714286 L18.6666667,44.5714286 L18.6666667,33.0898313 L23.3333333,33.0898313 Z M23.3333333,17.7809269 L23.3333333,29.2625242 L18.6666667,29.2625242 L18.6666667,17.7809269 L23.3333333,17.7809269 Z M23.3333333,3.42857143 L23.3333333,14.9105392 L18.6666667,14.9105392 L18.6666667,3.42857143 L23.3333333,3.42857143 Z" id="形状结合" fill="#02D281"></path>
                        </g>
                    </g>
                </g>
            </g>
        </g>
    </g>
</svg>