<?xml version="1.0" encoding="UTF-8"?>
<svg width="48px" height="47px" viewBox="0 0 48 47" version="1.1" xmlns="http://www.w3.org/2000/svg" xmlns:xlink="http://www.w3.org/1999/xlink">
    <!-- Generator: Sketch 63.1 (92452) - https://sketch.com -->
    <title>云梯车icon</title>
    <desc>Created with Sketch.</desc>
    <g id="主页" stroke="none" stroke-width="1" fill="none" fill-rule="evenodd">
        <g id="丽水市城市应急通道管控平台" transform="translate(-40.000000, -222.000000)">
            <g id="左侧边栏" transform="translate(40.000000, 177.000000)">
                <g id="消防应急通道/点">
                    <g id="登高点(个)" transform="translate(0.000000, 40.000000)">
                        <g id="云梯车icon" transform="translate(0.000000, 4.000000)">
                            <path d="M7.99239424,42.5367272 C9.37310612,42.5367272 10.4923942,43.6679224 10.4923942,45.0633225 C10.4923942,46.4587226 9.37310612,47.5899178 7.99239424,47.5899178 C6.61168237,47.5899178 5.49239424,46.4587226 5.49239424,45.0633225 C5.49239424,43.6679224 6.61168237,42.5367272 7.99239424,42.5367272 Z M15,42.5367272 C16.3807119,42.5367272 17.5,43.6679224 17.5,45.0633225 C17.5,46.4587226 16.3807119,47.5899178 15,47.5899178 C13.6192881,47.5899178 12.5,46.4587226 12.5,45.0633225 C12.5,43.6679224 13.6192881,42.5367272 15,42.5367272 Z M38,42.5367272 C39.3807119,42.5367272 40.5,43.6679224 40.5,45.0633225 C40.5,46.4587226 39.3807119,47.5899178 38,47.5899178 C36.6192881,47.5899178 35.5,46.4587226 35.5,45.0633225 C35.5,43.6679224 36.6192881,42.5367272 38,42.5367272 Z M42.3947713,21.0311942 L46.3058743,27.1814627 L46.305,38.9640611 L48,40.4553754 L48,44.2116207 L40.9264169,44.2114179 C40.6244988,42.859518 39.4289142,41.8498873 38,41.8498873 C36.5710858,41.8498873 35.3755012,42.859518 35.0735831,44.2114179 L17.9264169,44.2114179 C17.6244988,42.859518 16.4289142,41.8498873 15,41.8498873 C13.5710858,41.8498873 12.3755012,42.859518 12.0735831,44.2114179 L10.9053609,44.2117591 C10.5721588,42.9043247 9.39770342,41.9383177 8,41.9383177 C6.60229658,41.9383177 5.42784123,42.9043247 5.09463905,44.2117591 L0,44.2116207 L0,40.4553754 L0.436418304,37.0465011 L1.317,37.0460611 L1.31764706,31.3064416 L30.2692647,31.3064416 L30.269,37.0460611 L31.269,37.0460611 L31.2692566,21.0311942 L42.3947713,21.0311942 Z M8,33 L4,33 L4,37 L8,37 L8,33 Z M22,33 L18,33 L18,37 L22,37 L22,33 Z M29,33 L25,33 L25,37 L29,37 L29,33 Z M15,33 L11,33 L11,37 L15,37 L15,33 Z M41.3490221,23.9961412 L34.1647059,23.9961412 L34.1647059,31.1448795 L43.1058824,31.1448795 L43.0954265,26.750722 L41.3490221,23.9961412 Z M37.175,15.7040611 C38.4578597,15.7040671 39.5019479,16.7041331 39.5019479,17.9377858 L39.5019479,19.1698326 L34.8483523,19.1698326 L34.8483523,17.9377858 C34.8483523,16.7555417 35.8072391,15.787812 37.0207162,15.7092203 L37.175,15.7040611 Z" id="形状结合" fill="#00BAFF" fill-rule="nonzero"></path>
                            <path d="M21.8205081,-7 C23.4773623,-7 24.8205081,-5.65685425 24.8205081,-4 L24.8205081,35.425525 C24.8205081,37.0823792 23.4773623,38.425525 21.8205081,38.425525 C20.1636538,38.425525 18.8205081,37.0823792 18.8205081,35.425525 L18.8205081,-4 C18.8205081,-5.65685425 20.1636538,-7 21.8205081,-7 Z M21.8205081,27.0691438 C21.2682233,27.0691438 20.8205081,27.516859 20.8205081,28.0691438 L20.8205081,28.0691438 L20.8205081,34.9018847 C20.8205081,35.4541695 21.2682233,35.9018847 21.8205081,35.9018847 C22.3727928,35.9018847 22.8205081,35.4541695 22.8205081,34.9018847 L22.8205081,34.9018847 L22.8205081,28.0691438 C22.8205081,27.516859 22.3727928,27.0691438 21.8205081,27.0691438 Z M21.8205081,16.5539759 C21.2682233,16.5539759 20.8205081,17.0016912 20.8205081,17.5539759 L20.8205081,17.5539759 L20.8205081,24.3867169 C20.8205081,24.9390016 21.2682233,25.3867169 21.8205081,25.3867169 C22.3727928,25.3867169 22.8205081,24.9390016 22.8205081,24.3867169 L22.8205081,24.3867169 L22.8205081,17.5539759 C22.8205081,17.0016912 22.3727928,16.5539759 21.8205081,16.5539759 Z M21.8205081,6.0388081 C21.2682233,6.0388081 20.8205081,6.48652335 20.8205081,7.0388081 L20.8205081,7.0388081 L20.8205081,13.8715491 C20.8205081,14.4238338 21.2682233,14.8715491 21.8205081,14.8715491 C22.3727928,14.8715491 22.8205081,14.4238338 22.8205081,13.8715491 L22.8205081,13.8715491 L22.8205081,7.0388081 C22.8205081,6.48652335 22.3727928,6.0388081 21.8205081,6.0388081 Z M21.8205081,-4.47635972 C21.2682233,-4.47635972 20.8205081,-4.02864447 20.8205081,-3.47635972 L20.8205081,-3.47635972 L20.8205081,3.35638125 C20.8205081,3.908666 21.2682233,4.35638125 21.8205081,4.35638125 C22.3727928,4.35638125 22.8205081,3.908666 22.8205081,3.35638125 L22.8205081,3.35638125 L22.8205081,-3.47635972 C22.8205081,-4.02864447 22.3727928,-4.47635972 21.8205081,-4.47635972 Z" id="形状结合" fill="#02D281" transform="translate(21.820508, 15.712763) rotate(-124.000000) translate(-21.820508, -15.712763) "></path>
                        </g>
                    </g>
                </g>
            </g>
        </g>
    </g>
</svg>