<?xml version="1.0" encoding="UTF-8"?>
<svg width="48px" height="48px" viewBox="0 0 48 48" version="1.1" xmlns="http://www.w3.org/2000/svg" xmlns:xlink="http://www.w3.org/1999/xlink">
    <!-- Generator: Sketch 63.1 (92452) - https://sketch.com -->
    <title>文本位置icon</title>
    <desc>Created with Sketch.</desc>
    <g id="主页" stroke="none" stroke-width="1" fill="none" fill-rule="evenodd">
        <g id="丽水市城市应急通道管控平台" transform="translate(-40.000000, -817.000000)">
            <g id="左侧边栏" transform="translate(40.000000, 177.000000)">
                <g id="区域申请次数" transform="translate(0.000000, 596.000000)">
                    <g id="莲都区" transform="translate(0.000000, 40.000000)">
                        <g id="文本位置icon" transform="translate(0.000000, 4.000000)">
                            <path d="M39.4995138,0 C42.4616425,0 44.8766015,2.34360292 44.9926422,5.278394 L44.9970074,5.49958443 L45,21.0033261 C45,21.8316906 44.3287332,22.5032127 43.5006835,22.5032127 C42.7213427,22.5032127 42.0808822,21.9083696 42.0082305,21.1477752 L42.0013671,21.0033261 L41.9983745,5.49958443 C41.9983745,4.17420118 40.9673087,3.08972785 39.6638146,3.0050906 L39.4995138,2.99977332 L5.49749365,3.01166979 C4.17261428,3.01166979 3.08855324,4.04312778 3.00394816,5.34711762 L2.9986329,5.51148089 L2.9986329,42.5004156 C2.9986329,43.8257988 4.04466082,44.9211994 5.34815492,45.0058366 L5.51245571,45.0111539 L21.0107527,45.0171474 C21.8388023,45.0171474 22.4951071,45.6777423 22.4951071,46.5061068 C22.4951071,47.285744 21.9004901,47.9264482 21.1401848,47.9991274 L5.49749365,48 C2.53536496,48 0.120405969,45.6563971 0.00436521384,42.721606 L0,42.5004156 L0,5.51148089 C0,2.54822566 2.34271195,0.132348226 5.27638732,0.0162633391 L5.49749365,0.0118964651 L39.4995138,0 Z M16.359576,28.4952585 C17.2633146,28.4953361 17.9957862,29.1666377 17.9957862,29.9946525 C17.9957862,30.7739606 17.3466721,31.4143385 16.5168626,31.4869158 L16.3592692,31.4937655 L9.13621022,31.4940466 C8.23247154,31.4939689 7.5,30.8226674 7.5,29.9946525 C7.5,29.2153444 8.14911409,28.5749665 8.9789236,28.5023892 L9.13651704,28.4955396 L16.359576,28.4952585 Z M20.8897429,19.4977698 C21.7773434,19.4977698 22.4968857,20.1691763 22.4968857,20.9973981 C22.4968857,21.776901 21.8595056,22.4174948 21.0445215,22.4901615 L20.8897429,22.4970264 L9.10714286,22.4970264 C8.21954237,22.4970264 7.5,21.8256199 7.5,20.9973981 C7.5,20.2178952 8.13738009,19.5773014 8.95236427,19.5046347 L9.10714286,19.4977698 L20.8897429,19.4977698 Z M26.9189785,10.5 C27.7921525,10.5 28.5,11.1714065 28.5,11.9996283 C28.5,12.7791312 27.8729794,13.419725 27.0712414,13.4923917 L26.9189785,13.4992566 L9.08102153,13.4992566 C8.20784745,13.4992566 7.5,12.8278501 7.5,11.9996283 C7.5,11.2201254 8.12702058,10.5795316 8.92875861,10.5068649 L9.08102153,10.5 L26.9189785,10.5 Z" id="形状结合" fill="#00BAFF"></path>
                            <path d="M45.1377225,26.9160221 C43.345013,25.0543112 40.8547018,24 38.25,24 C35.6452982,24 33.154987,25.0543112 31.3622775,26.9160221 C27.5459075,30.8570538 27.5459075,37.0569756 31.3622775,40.9980073 L38.25,48 L45.1377225,40.9980073 C48.9540925,37.0569756 48.9540925,30.8570538 45.1377225,26.9160221 Z M38.25,37.5 C36.1789322,37.5 34.5,35.8210678 34.5,33.75 C34.5,31.6789322 36.1789322,30 38.25,30 C40.3210678,30 42,31.6789322 42,33.75 C42,35.8210678 40.3210678,37.5 38.25,37.5 L38.25,37.5 Z" id="形状" fill="#02D281" fill-rule="nonzero"></path>
                        </g>
                    </g>
                </g>
            </g>
        </g>
    </g>
</svg>