<?xml version="1.0" encoding="UTF-8"?>
<svg width="32px" height="32px" viewBox="0 0 32 32" version="1.1" xmlns="http://www.w3.org/2000/svg" xmlns:xlink="http://www.w3.org/1999/xlink">
    <!-- Generator: Sketch 63.1 (92452) - https://sketch.com -->
    <title>停车场</title>
    <desc>Created with Sketch.</desc>
    <g id="页面-1" stroke="none" stroke-width="1" fill="none" fill-rule="evenodd">
        <g id="第二稿" transform="translate(-1755.000000, -254.000000)" fill-rule="nonzero">
            <g id="特殊场所分布" transform="translate(1500.000000, 175.000000)">
                <g id="编组" transform="translate(14.000000, 79.000000)">
                    <g id="停车场" transform="translate(241.000000, 0.000000)">
                        <path d="M12.1767879,1.00660221e-14 L12.4362672,0.0040880074 C17.0898836,0.146095797 20.8163911,3.96563489 20.8115914,8.65262706 L20.8115914,8.65262706 L20.8079839,8.91194816 C20.6746135,13.5651246 16.8630276,17.2984588 12.1767122,17.3032412 L12.1767122,17.3032412 L12.0479583,17.3038123 C11.8253852,17.3057262 11.7882177,17.310048 11.5008175,17.2767701 L11.5008175,17.2767701 L4.38185796,17.2767701 L4.38185796,31.7652682 L1.1783167e-13,31.7652682 L1.1783167e-13,0.0494126608 L3.90358642,0.0494126608 L3.90358642,0.031765282 L11.5344233,0.031765282 C11.7479566,0.0176473789 11.9597252,1.00660221e-14 12.1767879,1.00660221e-14 L12.1767879,1.00660221e-14 Z M11.5007853,4.45773394 L4.38182573,4.45773394 L4.38182573,12.817318 L11.5007853,12.817318 C13.583176,12.7167072 15.4890929,10.7119719 15.4890929,8.60311013 C15.4890929,6.49424146 13.583176,4.55655926 11.5007853,4.45773394 L11.5007853,4.45773394 Z" id="形状结合" fill="#00BAFF"></path>
                        <path d="M27.6763589,17.8344195 C28.0946018,17.8344195 29.056384,18.2614861 29.3828605,19.0732655 L29.3828605,19.0732655 L30.9534772,23.3527549 C30.9534772,23.3527549 31.3346606,23.6739372 31.4723101,23.9562953 C31.6134892,24.2368886 31.7652566,24.4892461 31.7652566,26.3863393 C31.7652566,28.2375494 31.3999559,28.8940319 30.9640656,29.1234478 L30.9640656,29.1234478 L30.618177,29.3210984 L30.618177,31.0399531 C30.618177,31.5976103 30.4893511,31.7634957 29.9687535,31.7634957 L29.9687535,31.7634957 L28.800497,31.7634957 C28.281664,31.7634957 27.9322459,31.7652604 27.9322459,31.2076032 L27.9322459,31.2076032 L27.9322459,29.5363965 L19.1685645,29.5363965 L19.1685645,31.2076032 C19.1685645,31.7652604 18.8191464,31.7634957 18.2985487,31.7634957 L18.2985487,31.7634957 L17.132057,31.7634957 C16.6114593,31.7634957 16.4808687,31.5976103 16.4808687,31.0399531 L16.4808687,31.0399531 L16.4808687,29.3210984 L16.1367448,29.1234478 C15.7008545,28.8940319 15.3355538,28.2375494 15.3355538,26.3863393 C15.3355538,24.4892461 15.4873213,24.2386533 15.6267355,23.9562953 C15.7661498,23.6739372 16.1473332,23.3527549 16.1473332,23.3527549 L16.1473332,23.3527549 L17.7179499,19.0732655 C18.0444264,18.2614861 19.0044439,17.8344195 19.4244515,17.8344195 L19.4244515,17.8344195 Z M18.4097065,24.9427975 C17.7161645,24.9427975 17.1532131,25.5163373 17.1532131,26.2204678 C17.1483152,26.9198727 17.7103188,27.4913457 18.4097065,27.4981396 L18.4097065,27.4981396 L18.5388629,27.490022 C19.1754924,27.4175559 19.6672733,26.8748817 19.6626703,26.2204659 L19.6626703,26.2204659 L19.6561797,26.0900818 C19.5918051,25.4468853 19.0565932,24.9427975 18.4097065,24.9427975 Z M28.7299074,24.9427975 C28.0398949,24.9427975 27.4751582,25.5163373 27.4751582,26.2204678 C27.4712461,26.9187973 28.0316193,27.4894198 28.7299074,27.498138 L28.7299074,27.498138 C29.4216847,27.498138 29.9846361,26.9228334 29.9846361,26.2204678 C29.9846361,25.5163373 29.4216847,24.9427975 28.7299074,24.9427975 Z M26.9651558,19.1879735 L20.1356202,19.1879735 C19.5320798,19.1491493 19.0150116,19.8268086 18.9355984,20.0526951 C18.7414772,20.7109423 18.305587,22.6080355 18.2402986,22.8515694 C18.1785327,23.0752989 18.3206704,23.1090032 18.3868929,23.1129345 L18.3868929,23.1129345 L28.7136866,23.1129345 C28.7795024,23.1090032 28.9208775,23.0752989 28.8604843,22.8515694 C28.795189,22.6080355 28.3592987,20.7109423 28.1651775,20.0526951 C28.0857643,19.8250439 27.5686961,19.1491493 26.9651558,19.1879735 L26.9651558,19.1879735 Z" id="形状结合" fill="#02D281"></path>
                    </g>
                </g>
            </g>
        </g>
    </g>
</svg>