<?xml version="1.0" encoding="UTF-8"?>
<svg width="48px" height="48px" viewBox="0 0 48 48" version="1.1" xmlns="http://www.w3.org/2000/svg" xmlns:xlink="http://www.w3.org/1999/xlink">
    <!-- Generator: Sketch 63.1 (92452) - https://sketch.com -->
    <title>停车场</title>
    <desc>Created with Sketch.</desc>
    <g id="页面-1" stroke="none" stroke-width="1" fill="none" fill-rule="evenodd">
        <g id="第二稿" transform="translate(-236.000000, -594.000000)" fill-rule="nonzero">
            <g id="数据模块库/左侧数据类-48x48图标+描述文字14，80%+数字28" transform="translate(236.000000, 589.000000)">
                <g id="停车场" transform="translate(0.000000, 5.000000)">
                    <path d="M18.2651819,1.42108547e-14 L18.5756578,0.00396477253 C25.5927407,0.17610768 31.2246137,5.92203611 31.2173872,12.9789406 L31.2173872,12.9789406 L31.2139971,13.2891871 C31.0548664,20.3055253 25.3209538,25.9476612 18.2650684,25.9548618 L18.2650684,25.9548618 L18.0931716,25.9555442 C17.7402379,25.9582947 17.6913077,25.966112 17.2512262,25.9151552 L17.2512262,25.9151552 L6.57278694,25.9151552 L6.57278694,47.6479023 L1.75859327e-13,47.6479023 L1.75859327e-13,0.0741189912 L5.85537963,0.0741189912 L5.85537963,0.0476479229 L17.301635,0.0476479229 C17.6219349,0.0264710683 17.9395877,1.42108547e-14 18.2651819,1.42108547e-14 L18.2651819,1.42108547e-14 Z M17.2511779,6.68660091 L6.5727386,6.68660091 L6.5727386,19.225977 L17.2511779,19.225977 C20.3747639,19.0750609 23.2336393,16.0679579 23.2336393,12.9046652 C23.2336393,9.74136219 20.3747639,6.83483889 17.2511779,6.68660091 L17.2511779,6.68660091 Z" id="形状结合" fill="#00BAFF"></path>
                    <path d="M41.5145384,26.7516293 C42.1419027,26.7516293 43.5845759,27.3922292 44.0742907,28.6098983 L44.0742907,28.6098983 L46.4302158,35.0291324 C46.4302158,35.0291324 47.0019909,35.5109058 47.2084652,35.9344429 C47.4202337,36.3553329 47.6478849,36.7338692 47.6478849,39.579509 C47.6478849,42.3563241 47.0999338,43.3410478 46.4460984,43.6851717 L46.4460984,43.6851717 L45.9272655,43.9816477 L45.9272655,46.5599297 C45.9272655,47.3964155 45.7340267,47.6452436 44.9531302,47.6452436 L44.9531302,47.6452436 L43.0661002,47.6450998 C42.3626476,47.6426515 41.8983689,47.5986856 41.8983689,46.8114049 L41.8983689,46.8114049 L41.8983689,44.3045947 L28.7528467,44.3045947 L28.7528467,46.8114049 C28.7528467,47.6478906 28.2287196,47.6452436 27.4478231,47.6452436 L25.6980854,47.6452436 C24.9171889,47.6452436 24.721303,47.3964155 24.721303,46.5599297 L24.721303,46.5599297 L24.721303,43.9816477 L24.2051172,43.6851717 C23.5512818,43.3410478 23.0033307,42.3563241 23.0033307,39.579509 C23.0033307,36.7338692 23.2309819,36.35798 23.4401033,35.9344429 C23.6492248,35.5109058 24.2209998,35.0291324 24.2209998,35.0291324 L24.2209998,35.0291324 L26.5769249,28.6098983 C27.0666397,27.3922292 28.5066658,26.7516293 29.1366772,26.7516293 L29.1366772,26.7516293 Z M27.6145597,37.4141963 C26.5742467,37.4141963 25.7298196,38.274506 25.7298196,39.3307016 C25.7224729,40.379809 26.5654782,41.2370186 27.6145597,41.2472094 L27.6145597,41.2472094 L27.7626588,41.239674 C28.7396328,41.1521333 29.5010196,40.3279038 29.4940055,39.3306989 L29.4940055,39.3306989 L29.4883317,39.1812209 C29.4131517,38.1945226 28.6002919,37.4141963 27.6145597,37.4141963 Z M43.0948612,37.4141963 C42.0598424,37.4141963 41.2127373,38.274506 41.2127373,39.3307016 C41.2068691,40.3781959 42.0474289,41.2341297 43.0948612,41.247207 L43.0948612,41.247207 C44.132527,41.247207 44.9769541,40.3842502 44.9769541,39.3307016 C44.9769541,38.274506 44.132527,37.4141963 43.0948612,37.4141963 Z M40.6060407,28.782457 L30.0451232,28.7824829 C29.2091439,28.840966 28.5155104,29.7601441 28.4033976,30.0790426 C28.1122159,31.0664134 27.4583805,33.9120533 27.3604479,34.277354 C27.241328,34.7088324 27.6278056,34.6691258 27.6278056,34.6691258 L27.6278056,34.6691258 L43.0233686,34.6691258 C43.0233686,34.6691258 43.4071991,34.7088324 43.2907264,34.277354 C43.1927835,33.9120533 42.5389481,31.0664134 42.2477663,30.0790426 C42.1286465,29.7375658 41.3530442,28.7237239 40.4477337,28.7819603 Z" id="形状结合" fill="#02D281"></path>
                </g>
            </g>
        </g>
    </g>
</svg>