<?xml version="1.0" encoding="UTF-8"?>
<svg width="32px" height="32px" viewBox="0 0 32 32" version="1.1" xmlns="http://www.w3.org/2000/svg" xmlns:xlink="http://www.w3.org/1999/xlink">
    <!-- Generator: Sketch 63.1 (92452) - https://sketch.com -->
    <title>其他</title>
    <desc>Created with Sketch.</desc>
    <g id="页面-1" stroke="none" stroke-width="1" fill="none" fill-rule="evenodd">
        <g id="UI主框架-类型1-基础模式" transform="translate(-1829.000000, -336.000000)" fill-rule="nonzero">
            <g id="特殊场所分布" transform="translate(1500.000000, 175.000000)">
                <g id="编组-2" transform="translate(14.000000, 161.000000)">
                    <g id="其他" transform="translate(315.000000, 0.000000)">
                        <path d="M13.5396385,11.5565218 C13.5396385,13.4259113 12.023977,14.9411984 10.1545876,14.9411984 L3.38505097,14.9411984 C1.51566153,14.9411984 1.12739447e-13,13.425724 1.12739447e-13,11.5565218 L1.12739447e-13,4.78680167 C1.12739447e-13,2.91741223 1.51566153,1.40193792 3.38505097,1.40193792 L10.1547711,1.40193792 C12.0241606,1.40193792 13.5398221,2.91741223 13.5398221,4.78680167 L13.5398221,11.5565218 L13.5396385,11.5565218 Z" id="路径" fill="#00BAFF"></path>
                        <path d="M13.5396385,28.6150331 C13.5396385,30.4844225 12.023977,31.9998968 10.1545876,31.9998968 L3.38505097,31.9998968 C1.51566153,31.9998968 1.12739447e-13,30.4844225 1.12739447e-13,28.6150331 L1.12739447e-13,21.8453129 C1.12739447e-13,19.9757363 1.51566153,18.4604492 3.38505097,18.4604492 L10.1547711,18.4604492 C12.0241606,18.4604492 13.5398221,19.9757326 13.5398221,21.8453129 L13.5398221,28.6150331 L13.5396385,28.6150331 Z" id="路径" fill="#00BAFF"></path>
                        <path d="M30.5983334,28.6150331 C30.5983334,30.4844225 29.0826718,31.9998968 27.2132824,31.9998968 L20.4435622,31.9998968 C18.5741728,31.9998968 17.0585113,30.4844225 17.0585113,28.6150331 L17.0585113,21.8453129 C17.0585113,19.9757363 18.5739856,18.4604492 20.4435622,18.4604492 L27.2132824,18.4604492 C29.0824846,18.4604492 30.5983334,19.9757326 30.5983334,21.8453129 L30.5983334,28.6150331 Z" id="路径" fill="#00BAFF"></path>
                        <path d="M31.0088256,5.7780753 C32.3305164,7.09995703 32.3303292,9.24319393 31.0086376,10.5650646 L26.2220154,15.3516869 C24.9003245,16.6739431 22.7567095,16.6739431 21.435026,15.3520628 L16.6480367,10.565257 C15.3259677,9.24318805 15.3263459,7.10013837 16.6480367,5.77826766 L21.435026,0.991645417 C22.7569078,-0.33042353 24.9003319,-0.33061075 26.2220154,0.991457463 L31.0088212,5.77807971 L31.0088256,5.7780753 Z" id="路径" fill="#02D281"></path>
                    </g>
                </g>
            </g>
        </g>
    </g>
</svg>