<?xml version="1.0" encoding="UTF-8"?>
<svg width="32px" height="32px" viewBox="0 0 32 32" version="1.1" xmlns="http://www.w3.org/2000/svg" xmlns:xlink="http://www.w3.org/1999/xlink">
    <!-- Generator: Sketch 63.1 (92452) - https://sketch.com -->
    <title>农家乐</title>
    <desc>Created with Sketch.</desc>
    <g id="页面-1" stroke="none" stroke-width="1" fill="none" fill-rule="evenodd">
        <g id="UI主框架-类型1-基础模式" transform="translate(-1607.000000, -254.000000)" fill-rule="nonzero">
            <g id="特殊场所分布" transform="translate(1500.000000, 175.000000)">
                <g id="编组" transform="translate(14.000000, 79.000000)">
                    <g id="农家乐" transform="translate(93.000000, 0.000000)">
                        <path d="M13.5111593,4.49277985 C13.7669919,4.73904336 13.9748559,5.018142 14.1347513,5.33007578 L14.1347513,5.34649335 C14.422563,6.3808001 14.3266257,7.39868927 14.2946467,7.71062305 C14.2946467,7.74345819 14.2626676,7.77629332 14.2306885,7.75987576 C14.214699,7.75987576 14.214699,7.75987576 14.1987094,7.74345819 C13.8309501,7.51361225 12.3759021,6.56139334 11.7363206,5.8226028 C11.5284567,5.59275686 11.448509,5.29724065 11.4005403,4.98530687 C11.4005403,4.93605417 11.3205927,4.90321903 11.2886136,4.95247173 C10.8888751,5.44499875 10.3772099,5.92110821 9.80158658,6.05244875 C8.73028756,6.29871226 7.70695715,6.18378929 7.3871664,6.13453658 C7.33919778,6.13453658 7.32320825,6.06886631 7.33919778,6.03603118 C7.59503039,5.6748447 8.6183608,4.29576904 9.3858586,3.70473661 C9.43382722,3.65548391 9.40184814,3.58981364 9.33788999,3.58981364 C8.84221432,3.58981364 8.37851773,3.49130824 8.04273744,3.26146229 C7.13133379,2.63759473 6.52373136,1.83313393 6.34784645,1.55403528 C6.31586737,1.52120015 6.34784645,1.45552988 6.39581506,1.45552988 C6.82753258,1.40627718 8.53841311,1.1928488 9.49778537,1.35702447 C9.96148196,1.47194745 10.3931995,1.86596906 10.7289798,2.29282582 C10.7609588,2.34207852 10.8409065,2.30924338 10.8409065,2.25999068 C10.8728856,1.57045285 11.0487705,0.930167723 11.5924148,0.0272015163 C11.6084043,-0.00563361848 11.6403834,-0.00563361848 11.6723625,0.0107839489 L12.7916301,0.667486644 C12.8236092,0.683904212 12.8395987,0.733156914 12.8076197,0.765992049 C12.4238708,1.37344204 12.2799649,1.88238663 12.2639754,2.39133122 C12.2639754,2.44058392 12.311944,2.47341906 12.3599126,2.45700149 C12.8236092,2.21073798 13.3512639,2.03014474 13.8149605,2.09581501 C14.9182386,2.22715555 15.8296423,2.67042987 16.117454,2.81818797 C16.1654226,2.83460554 16.1654226,2.90027581 16.117454,2.93311094 C15.7656841,3.17937445 14.422563,4.09875823 13.4951698,4.42710958 C13.4791802,4.41069201 13.4631907,4.45994471 13.5111593,4.49277985 Z M16.0854749,4.14801093 C15.7496946,4.37785687 15.3819352,4.62412038 15.0301654,4.83754876 C14.9981863,4.85396633 14.9981863,4.88680146 14.9981863,4.9196366 C15.0141759,4.9688893 15.0461549,5.03455957 15.0621445,5.10022984 C15.3019875,5.97036091 15.3819352,7.10317306 15.2380294,7.9897217 L15.0141759,9.41805006 C15.0141759,9.4508852 14.9821968,9.48372033 14.9502177,9.46730276 C14.9342282,9.46730276 14.9342282,9.46730276 14.9182386,9.4508852 L13.6870442,8.66284196 C12.8875674,8.13747981 11.7363206,7.38227171 11.0647601,6.64348117 C11.0487705,6.62706361 11.0167914,6.61064604 10.9848124,6.62706361 C10.6810112,6.82407441 10.3452309,6.95541495 10.0094506,7.05392036 C9.11403646,7.2837663 7.96278975,7.31660144 7.06737564,7.1360082 L5.61232772,6.85690955 C5.58034864,6.85690955 5.54836957,6.82407441 5.5643591,6.77482171 C5.5643591,6.75840415 5.5643591,6.75840415 5.58034864,6.74198658 L6.39581506,5.54350416 C6.68362674,5.10022984 7.06737564,4.59128525 7.48310362,4.1151758 C7.45112455,4.1151758 7.45112455,4.08234066 7.41914547,4.08234066 C7.05138611,3.81965958 6.65164767,3.5077258 6.31586737,3.16295689 C6.29987784,3.14653932 6.26789876,3.14653932 6.25190922,3.14653932 C2.57431556,4.55845012 1.04805054e-13,7.82554603 1.04805054e-13,11.6344217 C1.04805054e-13,14.4418257 1.40707931,16.9537135 3.59764597,18.6611405 C3.62962505,18.6775581 3.66160412,18.6775581 3.67759366,18.6447229 C4.39712286,17.7745919 5.26055789,16.9537135 6.20394061,16.1820878 C9.09804693,13.8836284 11.8322579,12.4224649 15.285998,11.1090595 L18.7557277,9.77923654 C18.7717172,9.77923654 19.2194243,8.53150142 19.5552046,7.97330413 C19.5711941,7.95688656 19.5711941,7.92405143 19.5552046,7.90763386 C18.8036963,6.3808001 17.6204705,5.0673947 16.1334435,4.1151758 C16.1334435,4.13159336 16.1014644,4.13159336 16.0854749,4.14801093 L16.0854749,4.14801093 Z" id="形状" fill="#02D281"></path>
                        <path d="M27.0702873,1.47194745 L27.9177327,1.52120015 L30.4600692,1.73462852 L30.987724,1.76746366 C31.0197031,1.76746366 31.0516821,1.80029879 31.0516821,1.83313393 L31.0516821,2.34207852 C31.0516821,2.93311094 30.9717344,3.77040688 30.8118391,4.67337309 C30.6679332,5.37932848 30.4920483,6.10170145 30.3001739,6.80765685 C30.3001739,6.82407441 30.3001739,6.85690955 30.3161634,6.87332712 C30.6519437,7.21809603 30.9397554,7.61211765 31.195588,8.10464467 C31.4833996,8.6956771 31.7232427,9.38521493 31.8991276,10.1568406 C32.5067301,13.6045297 30.1722576,15.3119568 30.1402785,15.3119568 L29.8044982,15.5582203 C29.7885087,15.5746378 29.7565296,15.5746378 29.7245505,15.5582203 L29.3887702,15.3119568 C29.3887702,15.3119568 29.3567911,15.2955392 29.3408016,15.2791216 C29.3088225,15.2462865 29.2608539,15.2791216 29.2448644,15.3119568 C26.97435,22.5192688 20.4186396,28.9057026 12.8076197,31.3683377 C8.81023525,32.6489079 6.4118046,32.0907106 4.18925887,28.6922742 C2.47837834,26.1475512 1.66291192,22.0759945 7.05138611,17.807427 C12.2000172,13.7358703 15.7816737,13.2597608 20.5945245,11.1254771 C20.6424931,11.1090595 20.6424931,11.0433892 20.5945245,11.0105541 L20.4825977,10.9448838 C20.4666082,10.9284663 20.4506187,10.9120487 20.4506187,10.8792136 L20.4825977,10.5344446 L20.4833523,10.519094 C20.4959843,10.3114357 20.7094261,8.04088342 24.0482646,6.39721766 C24.7837834,6.03603118 25.4713335,5.80618524 26.1748731,5.6748447 C26.5906011,5.59275686 27.0063291,5.59275686 27.4220571,5.60917443 C27.4540362,5.60917443 27.4860152,5.57633929 27.4860152,5.54350416 C27.5179943,5.05097714 27.5179943,4.57486768 27.5179943,4.1151758 C27.4860152,3.39280283 27.3740885,2.76893527 27.2621617,2.35849609 L27.0063291,1.55403528 C26.9903396,1.50478258 27.0223186,1.47194745 27.0702873,1.47194745 Z M22.6251958,20.3357324 C22.5932167,20.3685675 19.9229639,23.5043229 17.5245333,24.5057945 C17.1407844,24.6699702 16.9489099,25.1296621 17.1088053,25.5236837 C17.2367216,25.8191999 17.5085437,26.0162107 17.8123449,26.0162107 C17.9082822,26.0162107 18.0042194,25.9997931 18.1001566,25.9505404 C20.8503571,24.8013107 23.6645157,21.5013797 23.7764425,21.3536216 C24.0642542,21.0252702 24.0322751,20.5327432 23.7124843,20.2536445 C23.3926936,19.9745459 22.9130075,20.007381 22.6251958,20.3357324 Z" id="形状结合" fill="#00BAFF"></path>
                    </g>
                </g>
            </g>
        </g>
    </g>
</svg>