<?xml version="1.0" encoding="UTF-8"?>
<svg width="32px" height="32px" viewBox="0 0 32 32" version="1.1" xmlns="http://www.w3.org/2000/svg" xmlns:xlink="http://www.w3.org/1999/xlink">
    <!-- Generator: Sketch 63.1 (92452) - https://sketch.com -->
    <title>加油站</title>
    <desc>Created with Sketch.</desc>
    <g id="页面-1" stroke="none" stroke-width="1" fill="none" fill-rule="evenodd">
        <g id="UI主框架-类型1-基础模式" transform="translate(-1829.000000, -254.000000)" fill-rule="nonzero">
            <g id="特殊场所分布" transform="translate(1500.000000, 175.000000)">
                <g id="编组" transform="translate(14.000000, 79.000000)">
                    <g id="加油站" transform="translate(315.000000, 0.000000)">
                        <path d="M14.7471816,4.4059282 C14.7471816,3.6987543 15.340531,3.1251671 16.0716338,3.1251671 L28.304227,3.1251671 C29.0373562,3.1251671 29.6291858,3.6987543 29.6291858,4.4059282 L29.6291858,7.38375859 L31.5917111,7.38375859 L31.5917111,2.55947734 C31.5917111,1.14717441 30.4041077,2.91504712e-15 28.9398034,2.91504712e-15 L15.4360936,2.91504712e-15 C13.9733814,2.91504712e-15 12.7861761,1.14720967 12.7861761,2.55947734 L12.7861761,7.38375859 L14.7471454,7.38375859 L14.7471454,4.4059282 L14.7471816,4.4059282 Z M29.6292943,8.12428509 L29.6292943,11.1031027 L29.6291858,11.1031027 C29.6291858,11.8102766 29.0374285,12.3818189 28.304227,12.3818189 L16.07167,12.3818189 C15.3405672,12.3818189 14.7471454,11.8102766 14.7471454,11.1031027 L14.7471454,8.12428509 L12.7861761,8.12428509 L12.7861761,28.4978248 C12.7861761,29.9110797 13.9733452,31.0582188 15.4361298,31.0582188 L28.939731,31.0582188 C30.4040354,31.0582188 31.5917111,29.9110797 31.5917111,28.4978248 L31.5917111,8.12428509 L29.6292943,8.12428509 Z" id="形状" fill="#00BAFF"></path>
                        <path d="M9.53371833,3.02602596 C8.81987539,3.65655233 8.4568026,4.59356304 8.4568026,5.80842984 L8.4568026,12.0165268 C8.36326631,13.2343904 7.78062747,14.2489653 6.94625479,15.2232773 C6.60196163,15.6259765 6.21515197,16.0226821 5.8012403,16.4224903 C5.50945049,16.7033784 5.20532185,16.9872281 4.89261754,17.2779175 C2.59915105,19.4080771 3.73969861e-15,21.8221921 3.73969861e-15,25.9236103 C3.73969861e-15,29.2903899 1.96661413,31.4657834 5.01014399,31.4657834 C7.01384698,31.4657834 10.3751108,30.5503849 10.3751108,24.4189355 L10.3751108,15.2565242 C10.16365,15.6798484 9.87692597,16.0775764 9.58915261,16.4223492 C9.02475063,17.0990263 8.45683879,17.560639 8.45683879,17.560639 L8.45683879,24.4189355 C8.45683879,27.8652888 7.29709731,29.6133742 5.01018017,29.6133742 C2.21928877,29.6133742 1.91733118,27.0332718 1.91733118,25.923575 C1.91733118,22.6107731 4.00856388,20.6681074 6.22177369,18.6124447 C6.9797976,17.9081971 7.74650572,17.1942892 8.41254926,16.422314 C8.42781902,16.4056024 8.44261838,16.3899486 8.45687497,16.3731665 C8.63280281,16.1630028 9.00495785,15.7957363 9.37508657,15.223101 C9.87696215,14.4501739 10.3751469,13.3010251 10.3751469,11.6490488 L10.3751469,9.89690895 L12.0184186,9.89690895 L12.0184186,8.044535 L10.3751108,8.044535 L10.3751108,7.28743797 L12.0184186,7.28743797 L12.0184186,5.43516979 L10.39342,5.43516979 C10.4326437,5.0570796 10.5438741,4.65339324 10.8149665,4.40589295 C11.1490196,4.10141823 11.6258556,4.1230657 11.6299445,4.1230657 L12.0184186,4.12602724 L12.0255107,2.27760201 L11.7291255,2.2737238 C11.4514475,2.25891609 10.4005845,2.26290007 9.53371833,3.02602596 L9.53371833,3.02602596 Z" id="路径" fill="#02D281"></path>
                    </g>
                </g>
            </g>
        </g>
    </g>
</svg>