<?xml version="1.0" encoding="UTF-8"?>
<svg width="32px" height="32px" viewBox="0 0 32 32" version="1.1" xmlns="http://www.w3.org/2000/svg" xmlns:xlink="http://www.w3.org/1999/xlink">
    <!-- Generator: Sketch 63.1 (92452) - https://sketch.com -->
    <title>学校</title>
    <desc>Created with Sketch.</desc>
    <g id="页面-1" stroke="none" stroke-width="1" fill="none" fill-rule="evenodd">
        <g id="UI主框架-类型1-基础模式" transform="translate(-1607.000000, -336.000000)" fill-rule="nonzero">
            <g id="特殊场所分布" transform="translate(1500.000000, 175.000000)">
                <g id="编组-2" transform="translate(14.000000, 161.000000)">
                    <g id="学校" transform="translate(93.000000, 0.000000)">
                        <path d="M15.7392979,0.0751388069 L16.8604239,1.1942895 L7.90919701,10.1435042 L6.79004632,9.02435349 L15.7392979,0.0751388069 Z M24.7755401,8.94726956 L23.6563894,10.0664203 L14.7110985,1.11717203 L15.8282706,1.94099479e-14 L24.7755401,8.94726956 Z M29.0662829,24.9693013 L25.9026122,24.9693013 L25.9026122,21.8056306 L29.0662829,21.8056306 L29.0662829,24.9693013 Z M5.7341457,24.9693114 L2.57047494,24.9693114 L2.57047494,21.8056406 L5.7341457,21.8056406 L5.7341457,24.9693114 L5.7341457,24.9693114 Z M23.1343751,11.7214057 L15.818394,4.00996076 L8.50237941,11.7214057 L8.50237941,31.6920966 L12.654683,31.6920966 L12.654683,27.3420611 C12.654683,25.5624938 14.0387898,24.1783903 15.8183538,24.1783903 C17.5979177,24.1783903 18.9820245,25.5624971 18.9820245,27.3420611 L18.9820245,31.6920966 L23.1343751,31.6920966 L23.1343751,11.7214057 L23.1343751,11.7214057 Z M15.4229301,20.0260767 L12.2592594,20.0260767 L12.2592594,16.8624059 L15.4229301,16.8624059 L15.4229301,20.0260767 L15.4229301,20.0260767 Z M15.4229301,15.6760411 L12.2592594,15.6760411 L12.2592594,12.5123704 L15.4229301,12.5123704 L15.4229301,15.6760411 L15.4229301,15.6760411 Z M19.9707312,20.0260767 L16.8070604,20.0260767 L16.8070604,16.8624059 L19.9707312,16.8624059 L19.9707312,20.0260767 L19.9707312,20.0260767 Z M19.9707312,15.6760411 L16.8070604,15.6760411 L16.8070604,12.5123704 L19.9707312,12.5123704 L19.9707312,15.6760411 L19.9707312,15.6760411 Z" id="形状" fill="#02D281"></path>
                        <path d="M24.5184819,16.4669286 L30.8458368,20.8169977 L30.8458368,31.6921201 L24.5184819,31.6921201 L24.5184819,16.4669286 Z M7.11827261,16.4669051 L7.11827261,31.4943647 L0.790917689,31.4943647 L0.790917689,20.6192423 L7.11827261,16.4669051 Z M25.1116676,13.6987217 L31.6367545,18.0487573 L30.8458368,19.4328641 L24.3207499,14.8850999 L25.1116676,13.6987217 Z M6.52508686,13.6987217 L7.31600455,14.8850999 L0.790917689,19.4328741 L2.41822822e-13,18.0487573 L6.52508686,13.6987217 Z" id="形状结合" fill="#00BAFF"></path>
                    </g>
                </g>
            </g>
        </g>
    </g>
</svg>