<?xml version="1.0" encoding="UTF-8"?>
<svg width="32px" height="32px" viewBox="0 0 32 32" version="1.1" xmlns="http://www.w3.org/2000/svg" xmlns:xlink="http://www.w3.org/1999/xlink">
    <!-- Generator: Sketch 63.1 (92452) - https://sketch.com -->
    <title>消防</title>
    <desc>Created with Sketch.</desc>
    <g id="页面-1" stroke="none" stroke-width="1" fill="none" fill-rule="evenodd">
        <g id="UI主框架-类型1-基础模式" transform="translate(-1755.000000, -336.000000)" fill-rule="nonzero">
            <g id="特殊场所分布" transform="translate(1500.000000, 175.000000)">
                <g id="编组-2" transform="translate(14.000000, 161.000000)">
                    <g id="消防" transform="translate(241.000000, 0.000000)">
                        <path d="M18.9548936,1.10638298 L18.7097872,1.10638298 C17.3548936,1.10638298 16.2485106,2.21276596 16.1259574,3.56765957 C16.0034043,2.21276596 14.4034043,1.47404255 14.4034043,1.47404255 C13.787234,1.22893617 13.0485106,1.10638298 12.4357447,1.10638298 L8.24510638,1.10638298 C7.62893617,1.10638298 7.1387234,1.6 7.1387234,2.21276596 L7.1387234,9.35148936 C7.1387234,9.59659574 7.2612766,9.84510638 7.50638298,10.0902128 C7.62893617,10.3353191 8,10.4578723 8.24510638,10.4578723 L10.212766,10.4578723 C10.706383,10.4578723 11.1965957,10.8255319 11.1965957,11.4417021 L11.1965957,25.8740426 C11.1965957,26.1191489 11.3191489,26.3676596 11.5642553,26.612766 C11.6868085,26.8578723 12.0578723,26.8578723 12.3029787,26.8578723 L20.3029787,26.8578723 C20.6706383,26.8578723 20.9191489,26.8578723 21.0417021,26.612766 C21.2868085,26.3676596 21.4093617,26.1191489 21.4093617,25.8740426 L21.4093617,11.4451064 C21.4093617,11.2 21.5319149,10.9514894 21.6544681,10.706383 C21.8995745,10.4612766 22.1480851,10.4612766 22.5157447,10.4612766 L24.1157447,10.4612766 C24.3608511,10.4612766 24.6093617,10.3387234 24.8544681,10.093617 C25.0995745,9.84851064 25.2221277,9.6 25.2221277,9.35489362 L25.2221277,2.21276596 C25.2221277,1.84510638 25.0995745,1.59659574 24.8544681,1.35148936 C24.6093617,1.22893617 24.3608511,1.10638298 24.1157447,1.10638298 L18.9548936,1.10638298 Z M8.98382979,28.9676596 L23.2612766,28.9676596 L23.2612766,31.306383 L8.98382979,31.306383 L8.98382979,28.9676596 Z" id="消防点" fill="#00BAFF"></path>
                        <path d="M6.27744681,1.15463195e-14 L6.27744681,11.693617 L3.44510638,11.693617 L3.44510638,1.15463195e-14 L6.27744681,1.15463195e-14 Z M28.6774468,1.15463195e-14 L28.6774468,11.693617 L25.8451064,11.693617 L25.8451064,1.15463195e-14 L28.6774468,1.15463195e-14 Z M2.4612766,3.69361702 C2.58382979,3.69361702 2.70638298,4.18382979 2.70638298,4.8 L2.70638298,4.8 L2.70638298,7.01617021 C2.70638298,7.62893617 2.58382979,8.12255319 2.4612766,8.12255319 C2.3387234,8.12255319 2.21617021,7.87404255 2.21617021,7.50638298 C2.21617021,7.01276596 1.96765957,6.76765957 1.72255319,6.76765957 C1.6,6.76765957 1.47744681,6.76765957 1.47744681,6.89021277 C1.35489362,7.01276596 1.35489362,7.13531915 1.35489362,7.25787234 C1.35489362,7.50638298 0.861276596,7.38042553 0.493617021,7.01276596 C0.122553191,6.76765957 3.19744231e-14,6.27404255 3.19744231e-14,5.90638298 C3.19744231e-14,5.04510638 0.493617021,4.42893617 1.35489362,4.18382979 C1.35489362,4.67404255 1.47744681,5.16765957 1.72255319,5.16765957 L1.72255319,5.16765957 L2.216,5.167 L2.21617021,4.43234043 C2.21617021,4.09838298 2.3154383,3.76718298 2.42463319,3.70428255 Z M29.5387234,3.68680851 C29.6612766,3.68680851 29.7838298,4.05787234 29.7838298,4.42553191 C29.7838298,4.79659574 29.906383,5.04170213 30.1514894,5.04170213 C30.4,5.04170213 30.6451064,4.91914894 30.6451064,4.67404255 L30.6451064,4.67404255 L30.6451064,4.30638298 C31.3838298,4.55148936 32,5.16765957 32,6.02212766 C32,6.76085106 31.3838298,7.49957447 30.6451064,7.74468085 C30.6451064,7.13191489 30.5191489,6.63829787 30.1514894,6.63829787 C29.906383,6.63829787 29.7838298,7.0093617 29.7838298,7.37702128 C29.7838298,7.8706383 29.6612766,8.11574468 29.5387234,8.11574468 C29.4161702,8.11574468 29.293617,7.62553191 29.293617,7.13191489 L29.293617,7.13191489 L29.293617,4.79319149 C29.293617,4.18042553 29.4161702,3.68680851 29.5387234,3.68680851 Z" id="形状结合" fill="#02D281"></path>
                    </g>
                </g>
            </g>
        </g>
    </g>
</svg>