<?xml version="1.0" encoding="UTF-8"?>
<svg width="32px" height="32px" viewBox="0 0 32 32" version="1.1" xmlns="http://www.w3.org/2000/svg" xmlns:xlink="http://www.w3.org/1999/xlink">
    <!-- Generator: Sketch 63.1 (92452) - https://sketch.com -->
    <title>网吧</title>
    <desc>Created with Sketch.</desc>
    <g id="页面-1" stroke="none" stroke-width="1" fill="none" fill-rule="evenodd">
        <g id="UI主框架-类型1-基础模式" transform="translate(-1681.000000, -336.000000)" fill-rule="nonzero">
            <g id="特殊场所分布" transform="translate(1500.000000, 175.000000)">
                <g id="编组-2" transform="translate(14.000000, 161.000000)">
                    <g id="网吧" transform="translate(167.000000, 0.000000)">
                        <path d="M7.75119973,20.9670116 L11.5412682,20.9670116 L11.5412682,18.3086752 L7.75119973,18.3086752 L7.75119973,20.9670116 Z M7.75119973,6.35673817 L7.75119973,10.3407172 L11.5412682,10.3407172 L11.5412682,6.35673817 L7.75119973,6.35673817 Z M7.75119973,11.6698854 L7.75119973,15.6538644 L11.5412682,15.6538644 L11.5412682,11.6698854 L7.75119973,11.6698854 Z M7.75119973,23.6218224 L7.75119973,28.9349696 L2.69895026,28.9349696 L2.69895026,6.06058398 L15.3348624,4.03333803 L15.3348624,15.6538644 L17.86275,15.6538644 L17.86275,13.5384773 C21.5565304,14.3923559 23.9813377,14.9531223 25.1371719,15.2207767 C27.0047362,15.3920106 27.4207739,14.2718115 27.5265433,13.8275802 C27.7627615,12.8086688 27.240966,11.7756547 26.2678879,11.5253339 C21.5367292,10.3571475 18.7350166,9.66729628 17.86275,9.45578023 L17.86275,3.29647819 C19.1249309,2.86634949 18.7124304,2.23173337 18.6207637,1.61121982 C18.4832635,0.691026445 17.961468,-2.04053298e-14 17.0800567,-2.04053298e-14 C16.98839,-2.04053298e-14 16.8332616,0.00705129026 16.7380692,0.0246795159 L1.80696205,2.45384901 C0.819781409,2.61602869 -0.13566842,3.58910674 0.0159343203,4.62917205 C0.0793959326,5.05577511 0.167537061,5.44359608 0.167537061,5.73622462 L0.167537061,30.1513171 C0.167537061,30.8599718 1.52843608,31.593306 2.2018343,31.593306 L15.8034492,31.593306 L15.8034492,28.9384952 L11.5412682,28.9384952 L11.5412682,23.6218224 L7.75119973,23.6218224 Z M16.6547356,19.6529939 L16.6547356,19.6183114 C16.6547356,19.4665753 16.4297356,19.6226467 16.6547356,19.6529939 Z" id="形状" fill="#00BAFF"></path>
                        <path d="M27.9105146,28.9349696 C28.4393613,28.9349696 28.86949,29.7070859 28.8659859,30.2641378 C28.8659859,30.8211897 28.4393613,31.593306 27.9105146,31.593306 L27.9105146,31.593306 L19.6181972,31.593306 C19.0893505,31.593306 18.6627474,30.8211897 18.6627474,30.2641378 C18.6627474,29.7070859 19.0893505,28.9349696 19.6181972,28.9349696 L19.6181972,28.9349696 Z M28.8906439,16.3096344 C30.0698253,16.3096344 31.0385392,17.2777851 31.1172181,18.4972826 L31.1223773,18.657714 L31.1223773,25.8465044 C31.1223773,27.0865032 30.202796,28.1063205 29.0432008,28.1891525 L28.8906439,28.1945841 L18.786145,28.1945841 C17.6069636,28.1945841 16.6382497,27.2264334 16.5595708,26.0069358 L16.5544116,25.8465044 L16.5544116,18.657714 C16.5544116,17.4177152 17.4739929,16.3978979 18.6335881,16.3150659 L18.786145,16.3096344 L28.8906439,16.3096344 Z M28.8906439,18.3227777 L18.786145,18.3227777 C18.631898,18.3227777 18.5046443,18.4388486 18.4752409,18.5906854 L18.4688369,18.657714 L18.4688369,25.8465044 C18.4688369,26.0069213 18.5768098,26.1430442 18.7218984,26.1745685 L18.786145,26.1814407 L28.8906439,26.1814407 C29.041806,26.1814407 29.1713734,26.0653699 29.2014034,25.913533 L29.207952,25.8465044 L29.207952,18.657714 C29.207952,18.4743805 29.0669262,18.3227777 28.8906439,18.3227777 Z M28.0444891,19.6378434 C28.1925662,19.6378434 28.442887,19.4686124 28.442887,19.6061126 L28.442887,19.6061126 L28.442887,24.8981059 C28.442887,25.0356061 28.1925662,24.9509906 28.0444891,24.9509906 L28.0444891,24.9509906 L19.6049761,24.9514313 L19.6049761,24.9514313 L19.5864664,24.9545162 C19.5935177,24.9404136 19.5970434,24.9227854 19.5970434,24.8981059 L19.5970434,24.8981059 L19.5970434,19.6343177 C19.6040946,19.6378434 19.6146716,19.6378434 19.6287742,19.6378434 L19.6287742,19.6378434 Z" id="形状结合" fill="#02D281"></path>
                    </g>
                </g>
            </g>
        </g>
    </g>
</svg>