<?xml version="1.0" encoding="UTF-8"?>
<svg width="32px" height="32px" viewBox="0 0 32 32" version="1.1" xmlns="http://www.w3.org/2000/svg" xmlns:xlink="http://www.w3.org/1999/xlink">
    <!-- Generator: Sketch 63.1 (92452) - https://sketch.com -->
    <title>美术馆</title>
    <desc>Created with Sketch.</desc>
    <g id="页面-1" stroke="none" stroke-width="1" fill="none" fill-rule="evenodd">
        <g id="UI主框架-类型1-基础模式" transform="translate(-1681.000000, -254.000000)" fill-rule="nonzero">
            <g id="特殊场所分布" transform="translate(1500.000000, 175.000000)">
                <g id="编组" transform="translate(14.000000, 79.000000)">
                    <g id="美术馆" transform="translate(167.000000, 0.000000)">
                        <path d="M26.4945016,19.2689662 C25.4623019,21.6776061 23.3978681,25.1184083 19.6129099,25.1184083 C19.6129099,29.5913976 17.548198,31.311944 17.2042981,32 C17.548198,32 20.3009316,31.6561313 20.3009316,31.6561313 C25.1181364,30.6236504 28.9031009,27.5269513 27.8708606,23.053962 C27.1828108,21.6775811 26.494511,19.2689662 26.494511,19.2689662 L26.4945016,19.2689662 Z M17.2043075,24.774224 C17.2057053,24.7935764 17.206544,24.8125561 17.2078176,24.8318463 C17.2427948,25.1170689 17.527799,25.0979028 17.2043075,24.774224 Z M8.94600988,25.4625863 C9.97855333,23.741993 11.3546217,21.3334062 14.7956738,21.3334062 L14.7956738,20.6453564 C15.4837548,17.892626 15.4837548,16.8603919 17.8923073,14.451852 C19.6128693,12.73129 23.7416899,8.94634113 26.4944766,6.53773871 C26.8386265,6.19358881 27.1827764,5.84972016 27.1827764,5.16138911 C27.1827764,1.72054637 21.3331438,0 15.8279141,0 C7.22580726,0 -1.86517468e-13,7.22577601 -1.86517468e-13,16.1720359 C-1.86517468e-13,19.9570317 1.3764121,23.3978119 3.78493327,26.4947516 C4.12889567,27.1828014 4.81716421,27.5269513 5.84939516,27.8711325 C7.22580726,27.8711325 7.91382581,27.1828014 8.94599738,25.4625519 L8.94600988,25.4625863 Z M14.795705,4.47331431 C15.4837861,4.12913316 16.1721171,3.78498327 16.8601357,3.78498327 C17.8923354,3.78498327 18.9245663,4.47331431 19.2687162,5.50554526 C19.6128974,6.19356381 19.2687162,7.22576663 18.5806977,8.2582757 C17.8923666,8.94629425 16.8601357,8.94629425 15.8279672,8.6021756 C14.7957363,8.2582757 14.1074052,7.22576351 14.1074052,6.19356381 C14.1074052,5.50557651 14.4515239,4.81718296 14.795705,4.47331431 L14.795705,4.47331431 Z M6.53740746,8.6022131 C6.88165111,7.91410081 7.56995091,7.22580101 8.25796946,6.88193236 C9.29016915,6.53775121 10.3224001,6.88193236 11.0107311,7.91413206 C11.6987809,8.60224435 11.6987809,9.6344128 11.3546311,10.6668625 C11.0107311,11.6990934 9.97855958,12.0432746 8.94601926,12.0432746 C8.25800071,12.0432746 7.56997903,11.6990934 6.88165111,11.0108249 C6.19353881,10.3226813 6.53740746,9.63438155 6.53740746,8.6022131 L6.53740746,8.6022131 Z M5.50523901,18.9248351 C4.81718921,18.5806852 4.81718921,17.8926354 4.81718921,17.2043043 C4.81718921,16.1720734 5.50523901,15.1398737 6.53741059,14.7956925 C7.56995403,14.4518239 8.60215373,14.4518239 9.29017228,15.4840236 C9.63435343,16.1720421 9.97856583,17.2043043 9.63435343,18.2364759 C9.29017228,19.2689569 8.25800383,19.6128572 7.22583538,19.6128572 C6.53741059,19.6128572 5.84939204,19.6128572 5.50524214,18.9248382 L5.50523901,18.9248351 Z" fill="#00BAFF"></path>
                        <path d="M15.1395854,23.0539769 L17.2042973,24.7742264 C17.204294,24.7934871 17.2054662,24.8127302 17.2078074,24.8318483 L17.2078074,24.8318483 L17.2228641,25.121422 C17.3967896,29.7069031 14.3677601,31.9999961 11.0107304,31.9999961 C8.94599971,31.9999961 6.53741916,31.6561275 5.16134769,28.9033345 C5.50525072,29.2475157 6.19358176,29.5913843 6.53741916,29.5913843 C11.3546553,29.5913843 9.63432763,23.0539769 14.7957167,23.0539769 L14.7957167,23.0539769 L15.1395854,23.0539769 Z M31.6558407,4.81718296 C31.6558407,5.16139536 31.9999906,5.50557651 31.6558407,5.84972641 C31.6558407,5.84972641 25.8064706,16.1720953 23.7417587,19.2690069 C22.3656466,21.6776218 21.6773155,22.0215217 18.9245851,23.0540026 L18.9245851,23.0540026 L18.2365353,23.0540026 L16.5160045,21.6776218 L16.5160045,21.3334406 C17.2043043,18.2365103 17.2043043,17.5484886 19.268735,15.484058 C21.5996405,13.1531524 30.0532515,5.66625979 30.5962202,5.18565996 L30.6236285,5.16140474 C30.9677784,4.81718296 31.6558282,4.81718296 31.6558282,4.81718296 Z" id="形状结合" fill="#02D281"></path>
                    </g>
                </g>
            </g>
        </g>
    </g>
</svg>