<?xml version="1.0" encoding="UTF-8"?>
<svg width="48px" height="48px" viewBox="0 0 48 48" version="1.1" xmlns="http://www.w3.org/2000/svg" xmlns:xlink="http://www.w3.org/1999/xlink">
    <!-- Generator: Sketch 63.1 (92452) - https://sketch.com -->
    <title>车辆</title>
    <desc>Created with Sketch.</desc>
    <g id="页面-1" stroke="none" stroke-width="1" fill="none" fill-rule="evenodd">
        <g id="UI主框架-类型1-基础模式" transform="translate(-40.000000, -594.000000)">
            <g id="数据模块库/左侧数据类-48x48图标+描述文字14，80%+数字28" transform="translate(40.000000, 589.000000)">
                <g id="车辆" transform="translate(0.000000, 5.000000)">
                    <path d="M44.4131278,17.061159 C45.3836738,19.4964295 46.8113653,21.9388576 46.8113653,24.3740949 L46.8113653,36.5647295 C46.8113653,38.1644399 45.4680705,39 43.2104929,39 C40.9529153,39 39.6096206,38.0144671 39.6096206,36.5647295 L39.6096206,34.129459 L8.40437965,34.129459 L8.40437965,36.5647295 C8.40437965,38.0144671 7.06108489,39 4.80350728,39 C2.54592967,39 1.20263492,38.1572948 1.20263492,36.5647295 L1.20263492,24.3740949 C1.20263492,21.9388244 2.6303264,19.4963963 3.60087237,17.061159 C4.57141834,14.6258885 0,14.9258342 0,13.4046827 C0,11.8835313 0.302417232,10.9694122 2.39823745,10.9694122 L5.99910982,10.9694122 C5.99910982,10.9694122 7.70108452,5.99888095 8.39734727,3.65647627 C9.09361002,1.31404668 11.9982196,0 14.3964571,0 L33.6034784,0 C36.0017158,0 38.9063418,1.31404668 39.6025882,3.65647627 C40.2988509,5.99890586 42.0008256,10.9694122 42.0008256,10.9694122 L45.601698,10.9694122 C47.704551,10.9694122 47.9999678,11.8835313 47.9999678,13.4046827 C48.0140014,14.9258342 43.4355536,14.6258885 44.4131278,17.061159 L44.4131278,17.061159 Z M18.0043782,25.5953256 C18.0043782,25.9166954 18.1309712,26.230926 18.3560262,26.4594537 C18.5810807,26.6879835 18.8834996,26.8165317 19.2070135,26.8165317 L28.8069875,26.8165317 C29.1234703,26.8165317 29.4329224,26.6879839 29.6579749,26.4594537 C29.8830294,26.2309239 30.0096228,25.9238352 30.0096228,25.5953256 L30.0096228,24.3741198 C30.0096228,24.05275 29.8830298,23.7385194 29.6579749,23.5099917 C29.4329203,23.281462 29.1305015,23.1529137 28.8069875,23.1529137 L19.2070135,23.1529137 C18.8905307,23.1529137 18.5810786,23.2814615 18.3560262,23.5099917 C18.1309716,23.7385215 18.0043782,24.0456102 18.0043782,24.3741198 L18.0043782,25.5953256 Z M5.99912617,25.5953256 C5.99912617,27.6163865 7.60967177,29.2518018 9.59999854,29.2518018 C11.5903253,29.2518018 13.2008709,27.6163865 13.2008709,25.5953256 C13.2008709,23.5742646 11.5903253,21.9388493 9.59999854,21.9388493 C7.61670415,21.9388493 5.99912617,23.5742646 5.99912617,25.5953256 L5.99912617,25.5953256 Z M39.6096042,10.9694122 C39.6096042,9.74820645 37.2113668,4.87766541 37.2113668,4.87766541 L10.8026171,4.87766541 C10.8026171,4.87766541 8.40437965,9.75536403 8.40437965,10.9694122 L8.40437965,12.1906179 C8.40437965,13.5403736 9.48042357,14.6258885 10.8026171,14.6258885 L37.2113668,14.6258885 C38.5405968,14.6258885 39.6096042,13.5332285 39.6096042,12.1906179 L39.6096042,10.9694122 Z M38.4069693,21.9388576 C36.4166425,21.9388576 34.8060969,23.5742729 34.8060969,25.5953339 C34.8060969,27.6163949 36.4166425,29.2518102 38.4069693,29.2518102 C40.3972961,29.2518102 42.0078417,27.6163949 42.0078417,25.5953339 C42.0078417,23.5742729 40.3972961,21.9388576 38.4069693,21.9388576 Z" id="形状" fill="#02D281" fill-rule="nonzero"></path>
                    <rect id="矩形" fill="#00BAFF" x="0" y="44" width="48" height="4" rx="1"></rect>
                </g>
            </g>
        </g>
    </g>
</svg>