<?xml version="1.0" encoding="UTF-8"?>
<svg width="32px" height="32px" viewBox="0 0 32 32" version="1.1" xmlns="http://www.w3.org/2000/svg" xmlns:xlink="http://www.w3.org/1999/xlink">
    <!-- Generator: Sketch 63.1 (92452) - https://sketch.com -->
    <title>酒店</title>
    <desc>Created with Sketch.</desc>
    <g id="页面-1" stroke="none" stroke-width="1" fill="none" fill-rule="evenodd">
        <g id="UI主框架-类型1-基础模式" transform="translate(-1526.000000, -254.000000)" fill-rule="nonzero">
            <g id="特殊场所分布" transform="translate(1500.000000, 175.000000)">
                <g id="编组" transform="translate(14.000000, 79.000000)">
                    <g id="酒店" transform="translate(12.000000, 0.000000)">
                        <path d="M10.0003058,19.9686629 L10.0003058,23.9234102 L13.955053,23.9234102 L13.955053,19.9686629 L10.0003058,19.9686629 Z M2.0261053,19.9686629 L2.0261053,23.9234102 L5.98044814,23.9234102 L5.98044814,19.9686629 L2.0261053,19.9686629 Z M10.0003058,11.9924404 L10.0003058,15.9488053 L13.955053,15.9488053 L13.955053,11.9940581 L10.0003058,11.9924404 Z M2.0261053,11.9924404 L2.0261053,15.9488053 L5.98044814,15.9488053 L5.98044814,11.9940581 L2.0261053,11.9924404 Z M10.0003058,4.01985762 L10.0003058,7.97420046 L13.955053,7.97420046 L13.955053,4.01985762 L10.0003058,4.01985762 Z M2.0261053,4.01985762 L2.0261053,7.97420046 L5.98044814,7.97420046 L5.98044814,4.01985762 L2.0261053,4.01985762 Z M15.9811583,31.9299636 L4.1629445e-13,31.9299636 L0.0311397421,4.34684968e-14 L15.9811583,0.0311397421 L15.9811583,31.9299636 Z" id="形状" fill="#00BAFF"></path>
                        <path d="M17.9749106,13.955053 L31.9299636,13.987406 L31.9299636,31.9299636 L27.910106,31.9299636 L27.910106,23.9557632 L21.9620108,23.9557632 L21.9620108,31.9299636 L17.9421532,31.9299636 L17.9749106,13.955053 Z M17.9749106,9.96754836 L31.9299636,10.0003058 L31.9299636,11.9924404 L17.9421532,11.9613007 L17.9749106,9.96754836 Z" id="形状结合" fill="#02D281"></path>
                    </g>
                </g>
            </g>
        </g>
    </g>
</svg>