<?xml version="1.0" encoding="UTF-8"?>
<svg width="11px" height="11px" viewBox="0 0 11 11" version="1.1" xmlns="http://www.w3.org/2000/svg" xmlns:xlink="http://www.w3.org/1999/xlink">
    <!-- Generator: Sketch 53.2 (72643) - https://sketchapp.com -->
    <title>dagou</title>
    <desc>Created with Sketch.</desc>
    <g id="页面-1" stroke="none" stroke-width="1" fill="none" fill-rule="evenodd">
        <g id="画板" transform="translate(-37.000000, -894.000000)" fill="#2389FD" fill-rule="nonzero">
            <g id="dagou" transform="translate(37.000000, 894.000000)">
                <path d="M5.49995322,0 C2.46004298,0 0,2.4600639 0,5.5 C0,8.5399361 2.47761471,11 5.49995322,11 C8.53986347,11 10.9999064,8.5399361 10.9999064,5.5 C11.0174782,2.4600639 8.55743521,0 5.49995322,0 C5.51752496,0 5.51752496,0 5.49995322,0 Z M5.49995322,10.2092652 C2.89933636,10.2092652 0.790728099,8.10063898 0.790728099,5.51757188 C0.790728099,2.93450479 2.9169081,0.808306709 5.49995322,0.808306709 C8.10057008,0.808306709 10.2091783,2.91693291 10.2091783,5.5 C10.2091783,8.10063898 8.10057008,10.1916933 5.49995322,10.2092652 C5.51752496,10.2092652 5.51752496,10.2092652 5.49995322,10.2092652 Z" id="形状"></path>
                <polygon id="路径" points="2.44444444 5.6784266 4.7826087 7.94444444 9.16666667 3.662206 8.5638587 3.05555556 4.7826087 6.80251419 3.04725242 5.10746148"></polygon>
            </g>
        </g>
    </g>
</svg>