<?xml version="1.0" encoding="UTF-8"?>
<svg width="8px" height="12px" viewBox="0 0 8 12" version="1.1" xmlns="http://www.w3.org/2000/svg" xmlns:xlink="http://www.w3.org/1999/xlink">
    <!-- Generator: Sketch 53.2 (72643) - https://sketchapp.com -->
    <title>dingweiweizhi</title>
    <desc>Created with Sketch.</desc>
    <g id="页面-1" stroke="none" stroke-width="1" fill="none" fill-rule="evenodd">
        <g id="画板" transform="translate(-37.000000, -815.000000)" fill="#2389FD" fill-rule="nonzero">
            <g id="dingweiweizhi" transform="translate(37.000000, 815.000000)">
                <path d="M3.81817919,0 C1.70973763,0 0,1.85384498 0,4.14230601 C0,5.28538718 0.427976158,6.32076255 1.11843141,7.07076989 L3.81817919,10 L6.51864931,7.07076989 C7.2360607,6.29303079 7.63803888,5.24009977 7.63635839,4.14307223 C7.63635839,1.85461121 5.92734309,0.000766225789 3.81817919,0.000766225789 L3.81817919,0 Z M4.05681908,6 C3.6126706,5.99883907 3.18715624,5.8138884 2.8738858,5.48583568 C2.56061536,5.15778296 2.38525078,4.71350104 2.38637088,4.25072844 L2.38637088,4.24927156 C2.385065,3.78656613 2.56027383,3.34228226 2.87343326,3.01420848 C3.1865927,2.6861347 3.61203543,2.50116072 4.05611995,2.5 L4.05681908,2.5 C4.50096755,2.50116093 4.92648192,2.6861116 5.23975236,3.01416432 C5.5530228,3.34221704 5.72838738,3.78649896 5.72726727,4.24927156 L5.72726727,4.25072844 C5.72960067,5.21343363 4.98287566,5.99605133 4.05891646,5.99927156 L4.05681908,5.99927156 L4.05681908,6 Z M2.38636364,11.25 C2.38636364,11.6642136 3.13425161,12 4.05681818,12 C4.97938475,12 5.72727273,11.6642136 5.72727273,11.25 C5.72727273,10.8357864 4.97938475,10.5 4.05681818,10.5 C3.13425161,10.5 2.38636364,10.8357864 2.38636364,11.25 Z" id="形状"></path>
            </g>
        </g>
    </g>
</svg>