<?xml version="1.0" encoding="UTF-8"?>
<svg width="39px" height="44px" viewBox="0 0 39 44" version="1.1" xmlns="http://www.w3.org/2000/svg" xmlns:xlink="http://www.w3.org/1999/xlink">
    <!-- Generator: Sketch 53.2 (72643) - https://sketchapp.com -->
    <title>jingcha</title>
    <desc>Created with Sketch.</desc>
    <g id="页面-1" stroke="none" stroke-width="1" fill="none" fill-rule="evenodd">
        <g id="画板" transform="translate(-37.000000, -962.000000)" fill="#FFFFFF" fill-rule="nonzero">
            <g id="jingcha" transform="translate(37.000000, 962.000000)">
                <path d="M18.4459459,7.04 L19.5,6.512 L20.5540541,7.04 L20.3783784,5.808 L21.0810811,4.928 L20.027027,4.752 L19.5,3.696 L18.972973,4.752 L17.9189189,4.928 L18.6216216,5.808 L18.4459459,7.04 Z M9.13513514,10.912 L9.13513514,11.968 C9.13513514,13.728 13.8783784,15.136 19.5,15.136 C25.2972973,15.136 29.8648649,13.728 29.8648649,11.968 L29.8648649,11.088 C27.5810811,10.384 23.5405405,9.856 18.972973,9.856 C15.1081081,9.856 11.4189189,10.208 9.13513514,10.912 Z M7.2027027,7.04 C7.90540541,8.448 9.13513514,10.384 9.13513514,10.384 L9.13513514,10.56 C11.5945946,10.032 15.1081081,9.68 19.1486486,9.68 C23.7162162,9.68 27.5810811,10.208 30.0405405,10.912 L30.0405405,10.208 C30.0405405,10.208 31.2702703,8.272 31.972973,6.864 C32.3243243,6.16 32.5,5.28 32.6756757,4.752 C32.6756757,4.224 32.3243243,3.872 31.7972973,3.52 C30.0405405,2.816 26,1.056 24.4189189,0.352 C24.0675676,0.176 23.3648649,0 22.8378378,0 L19.5,0 L16.1621622,0 C15.6351351,0 14.9324324,0.176 14.5810811,0.352 C13,1.056 8.95945946,2.816 7.2027027,3.52 C6.67567568,3.872 6.32432432,4.224 6.32432432,4.752 C6.5,5.456 6.85135135,6.16 7.2027027,7.04 Z M17.2162162,2.464 C17.2162162,2.464 17.7432432,2.64 18.2702703,2.64 C18.7972973,2.64 19.5,2.112 19.5,2.112 C19.5,2.112 20.2027027,2.64 20.7297297,2.64 C21.2567568,2.64 21.7837838,2.464 21.7837838,2.464 L22.6621622,3.696 C22.6621622,3.696 22.1351351,4.048 22.1351351,4.576 C22.1351351,5.456 22.4864865,5.28 22.4864865,6.512 C22.4864865,8.096 19.3243243,8.976 19.3243243,8.976 C19.3243243,8.976 16.1621622,8.272 16.1621622,6.512 C16.3378378,5.28 16.8648649,5.456 16.8648649,4.576 C16.8648649,4.224 16.3378378,3.696 16.3378378,3.696 L17.2162162,2.464 L17.2162162,2.464 Z M26,30.624 C24.9459459,30.096 24.0675676,29.568 24.0675676,29.216 L24.0675676,26.752 C24.0675676,26.752 29.5135135,22.352 29.5135135,14.96 L29.5135135,13.904 C28.2837838,15.312 24.2432432,16.192 19.5,16.192 C14.7567568,16.192 10.8918919,15.136 9.48648649,13.904 L9.48648649,14.96 C9.48648649,22.352 14.9324324,26.752 14.9324324,26.752 L14.9324324,29.216 C14.9324324,29.744 13.8783784,30.272 13,30.624 C1.93243243,32.56 0,38.544 0,39.6 C0.527027027,43.648 16.5135135,44 19.1486486,44 C18.6216216,42.592 17.7432432,39.776 17.7432432,35.904 C17.7432432,34.496 19.5,34.496 19.5,34.496 C19.5,34.496 21.2567568,34.496 21.2567568,35.904 C21.2567568,39.776 20.3783784,42.592 19.8513514,44 C22.3108108,44 38.6486486,43.648 39,39.6 C39,38.544 37.0675676,32.56 26,30.624 Z M19.3243243,34.496 C18.2702703,34.496 17.3918919,33.616 17.3918919,32.736 C17.3918919,31.68 18.2702703,30.976 19.3243243,30.976 C20.3783784,30.976 21.2567568,31.856 21.2567568,32.736 C21.2567568,33.616 20.3783784,34.496 19.3243243,34.496 L19.3243243,34.496 Z" id="形状"></path>
            </g>
        </g>
    </g>
</svg>