<?xml version="1.0" encoding="UTF-8"?>
<svg width="44px" height="44px" viewBox="0 0 44 44" version="1.1" xmlns="http://www.w3.org/2000/svg" xmlns:xlink="http://www.w3.org/1999/xlink">
    <!-- Generator: Sketch 53.2 (72643) - https://sketchapp.com -->
    <title>yuangong</title>
    <desc>Created with Sketch.</desc>
    <g id="页面-1" stroke="none" stroke-width="1" fill="none" fill-rule="evenodd">
        <g id="画板" transform="translate(-227.000000, -962.000000)" fill="#FFFFFF" fill-rule="nonzero">
            <g id="yuangong" transform="translate(227.000000, 962.000000)">
                <path d="M43.9972676,42.2402577 C44.0218869,42.6887761 43.8794614,43.1305043 43.5975148,43.4800781 C43.2934225,43.8093839 42.8663775,43.9976655 42.41827,44 L1.6043653,44 C1.15625775,43.9976655 0.729212711,43.809384 0.425120437,43.4800781 C0.12052268,43.1422734 -0.0313259713,42.6937276 0.00539725944,42.2402577 C0.724935008,33.1215151 8.55992557,31.7016987 11.9177541,31.101769 C12.1576144,31.061808 12.3974746,31.0218041 12.6373348,30.9617767 C13.8058234,30.8129906 14.8686326,30.2094776 15.5954106,29.2820423 C15.9268113,28.7660054 16.0213986,28.1326567 15.8552414,27.5422375 C15.2517638,25.6848633 14.1279286,24.0399123 12.6173214,22.8029131 C11.508657,21.852192 10.6101348,20.6807954 9.97903063,19.3633934 C9.11957082,17.1236902 9.15955471,15.9038503 10.0989393,14.9840182 C10.3979151,14.7031013 10.520442,14.2816815 10.4187243,13.8841471 C9.31944717,9.08479528 9.99900106,5.92525998 12.6173214,3.94547473 C13.0132175,3.65936205 13.1755229,3.14786445 13.0170742,2.68567387 C12.88211,2.27090101 12.9107024,1.82020166 13.096999,1.42583009 C13.2925419,1.04575839 13.6301596,0.758298208 14.0364265,0.625966767 C15.6478753,0.169771668 17.3191625,-0.039242153 18.993266,0.0060565833 C21.1518793,0.0060565833 28.5271198,0.366005835 32.1048811,4.90535368 C33.9735232,7.50246356 34.5207456,10.8244378 33.5839405,13.8841471 C33.4977763,14.2751681 33.6185654,14.6830477 33.9037255,14.9639948 C34.8631235,15.8838698 34.883094,17.1037097 34.0436476,19.34337 C33.4153567,20.6567883 32.5161877,21.8221995 31.4053138,22.7629092 C29.8971906,24.0022036 28.7738952,25.6463793 28.1673939,27.5022766 C27.9996861,28.0991191 28.0941937,28.7391859 28.4272246,29.2620188 C29.1540052,30.18948 30.2168327,30.79301 31.3853434,30.9417963 C31.5852197,30.9817572 31.825037,31.0417845 32.1048811,31.0817885 C35.4427392,31.7016987 43.2577593,33.1215151 43.9972676,42.2402577 L43.9972676,42.2402577 Z" id="路径"></path>
            </g>
        </g>
    </g>
</svg>