<svg id="组_1553" data-name="组 1553" xmlns="http://www.w3.org/2000/svg" xmlns:xlink="http://www.w3.org/1999/xlink" width="147.215" height="147.215" viewBox="0 0 147.215 147.215">
  <defs>
    <style>
      .cls-1 {
        fill: #03fbee;
        opacity: 0.1;
      }

      .cls-2, .cls-6 {
        fill: none;
      }

      .cls-2 {
        stroke: #707070;
        stroke-miterlimit: 10;
        stroke-width: 1.053px;
      }

      .cls-3 {
        fill: url(#linear-gradient);
      }

      .cls-4 {
        fill: #fff;
      }

      .cls-5 {
        stroke: none;
      }
    </style>
    <linearGradient id="linear-gradient" x1="0.111" y1="0.815" x2="0.889" y2="0.185" gradientUnits="objectBoundingBox">
      <stop offset="0" stop-color="#10f7f8"/>
      <stop offset="0.003" stop-color="#10f7f8" stop-opacity="0.984"/>
      <stop offset="0.044" stop-color="#10f7f8" stop-opacity="0.8"/>
      <stop offset="0.088" stop-color="#10f7f8" stop-opacity="0.631"/>
      <stop offset="0.137" stop-color="#10f7f8" stop-opacity="0.478"/>
      <stop offset="0.19" stop-color="#10f7f8" stop-opacity="0.349"/>
      <stop offset="0.249" stop-color="#10f7f8" stop-opacity="0.239"/>
      <stop offset="0.316" stop-color="#10f7f8" stop-opacity="0.149"/>
      <stop offset="0.394" stop-color="#10f7f8" stop-opacity="0.082"/>
      <stop offset="0.49" stop-color="#10f7f8" stop-opacity="0.035"/>
      <stop offset="0.625" stop-color="#10f7f8" stop-opacity="0.008"/>
      <stop offset="1" stop-color="#2ae8e9" stop-opacity="0.525"/>
    </linearGradient>
  </defs>
  <circle id="椭圆_551" data-name="椭圆 551" class="cls-1" cx="73.607" cy="73.607" r="73.607" transform="translate(0 0)"/>
  <g id="椭圆_552" data-name="椭圆 552" class="cls-2" transform="translate(0 0)">
    <circle class="cls-5" cx="73.607" cy="73.607" r="73.607"/>
    <circle class="cls-6" cx="73.607" cy="73.607" r="73.081"/>
  </g>
  <g id="组_1552" data-name="组 1552">
    <path id="路径_1356" data-name="路径 1356" class="cls-3" d="M2706.873,1409.544a72.555,72.555,0,1,1-72.555,72.555,72.637,72.637,0,0,1,72.555-72.555m0-1.053a73.608,73.608,0,1,0,73.607,73.608,73.608,73.608,0,0,0-73.607-73.608Z" transform="translate(-2633.265 -1408.491)"/>
  </g>
  <g id="组_1618" data-name="组 1618" transform="translate(33.156 30.261)">
    <path id="路径_1421" data-name="路径 1421" class="cls-4" d="M3558.022,462.9V442.894l15.9-9.18a3.23,3.23,0,1,0-3.233-5.592l-17.519,10.117a3.238,3.238,0,0,0-1.617,2.8V462.9a3.233,3.233,0,0,0,6.465,0Zm0,0" transform="translate(-3515.984 -398.625)"/>
    <path id="路径_1422" data-name="路径 1422" class="cls-4" d="M3579.27,409.011l-29.4-16.971a9.4,9.4,0,0,0-9.406,0l-17.2,9.94a3.23,3.23,0,0,0,3.232,5.592l17.2-9.94a2.986,2.986,0,0,1,2.942,0l29.382,16.97a2.946,2.946,0,0,1,1.471,2.538v33.924a2.927,2.927,0,0,1-1.471,2.538l-29.382,16.97a2.986,2.986,0,0,1-2.942,0l-29.383-16.97a2.954,2.954,0,0,1-1.471-2.554v-32.7l6.319,3.6c3.524,2,7.047,4.008,11.136,6.383a3.23,3.23,0,1,0,3.232-5.592c-4.106-2.376-7.645-4.38-11.168-6.4-3.523-2-7.046-4.008-11.136-6.383a3.232,3.232,0,0,0-4.848,2.8V451.1a9.428,9.428,0,0,0,4.7,8.146l29.383,16.97a9.4,9.4,0,0,0,9.406,0l29.383-16.97a9.461,9.461,0,0,0,4.7-8.146v-33.94a9.411,9.411,0,0,0-4.688-8.146Zm0,0" transform="translate(-3506.379 -390.78)"/>
    <path id="路径_1423" data-name="路径 1423" class="cls-4" d="M3549.368,436.936l.072,43.189L3510,460.094l3.15-44.094Z" transform="translate(-3507.149 -396.142)"/>
  </g>
</svg>
