<?xml version="1.0" encoding="UTF-8"?>
<svg width="46px" height="46px" viewBox="0 0 46 46" version="1.1" xmlns="http://www.w3.org/2000/svg" xmlns:xlink="http://www.w3.org/1999/xlink">
    <!-- Generator: Sketch 63.1 (92452) - https://sketch.com -->
    <title>面积</title>
    <desc>Created with Sketch.</desc>
    <g id="第二版" stroke="none" stroke-width="1" fill="none" fill-rule="evenodd">
        <g id="平台首页" transform="translate(-1502.000000, -249.000000)">
            <g id="右侧" transform="translate(1500.000000, 177.000000)">
                <g id="整治进度·面积">
                    <g id="图标-2" transform="translate(2.000000, 65.000000)">
                        <g id="1">
                            <g id="面积" transform="translate(0.000000, 7.000000)">
                                <path d="M33.4544596,5.22727273 L33.4545455,10.5454545 C33.4545455,11.650024 34.349976,12.5454545 35.4545455,12.5454545 L35.4545455,12.5454545 L39.7264596,12.5452727 L39.7264596,33.4542727 L35.4545455,33.4545455 C34.4001837,33.4545455 33.5363803,34.2704232 33.4600312,35.3052831 L33.4545455,35.4545455 L33.4544596,40.7722727 L12.5444596,40.7722727 L12.5454545,35.4545455 C12.5454545,34.4001837 11.7295768,33.5363803 10.6947169,33.4600312 L10.5454545,33.4545455 L5.2264596,33.4542727 L5.2264596,12.5452727 L10.5454545,12.5454545 C11.5998163,12.5454545 12.4636197,11.7295768 12.5399688,10.6947169 L12.5454545,10.5454545 L12.5444596,5.22727273 L33.4544596,5.22727273 Z M10.8967701,25.538961 L9.40909091,27.0266402 L20.0188143,37.6363636 L21.5064935,36.1486844 L10.8967701,25.538961 Z M12.7084584,19.2857143 L11.2207792,20.7733935 L25.8891927,35.441807 L27.3768719,33.9541278 L12.7084584,19.2857143 Z M13.8772896,12.3896104 L12.3896104,13.8772896 L31.8081085,33.2957877 L33.2957877,31.8081085 L13.8772896,12.3896104 Z M20.7733935,11.2207792 L19.2857143,12.7084584 L33.9541278,27.3768719 L35.441807,25.8891927 L20.7733935,11.2207792 Z M27.0266402,9.40909091 L25.538961,10.8967701 L36.1486844,21.5064935 L37.6363636,20.0188143 L27.0266402,9.40909091 Z" id="形状结合" fill="#F7B500"></path>
                                <path d="M44,35.5454545 C45.1045695,35.5454545 46,36.440885 46,37.5454545 L46,44 C46,45.1045695 45.1045695,46 44,46 L37.5454545,46 C36.440885,46 35.5454545,45.1045695 35.5454545,44 L35.5454545,37.5454545 C35.5454545,36.440885 36.440885,35.5454545 37.5454545,35.5454545 L44,35.5454545 Z M8.45454545,35.5454545 C9.55911495,35.5454545 10.4545455,36.440885 10.4545455,37.5454545 L10.4545455,44 C10.4545455,45.1045695 9.55911495,46 8.45454545,46 L2,46 C0.8954305,46 5.7935996e-16,45.1045695 0,44 L0,37.5454545 C-1.3527075e-16,36.440885 0.8954305,35.5454545 2,35.5454545 L8.45454545,35.5454545 Z M44,0 C45.1045695,-1.18396092e-15 46,0.8954305 46,2 L46,8.45454545 C46,9.55911495 45.1045695,10.4545455 44,10.4545455 L37.5454545,10.4545455 C36.440885,10.4545455 35.5454545,9.55911495 35.5454545,8.45454545 L35.5454545,2 C35.5454545,0.8954305 36.440885,6.46995335e-16 37.5454545,0 L44,0 Z M8.45454545,0 C9.55911495,-1.18396092e-15 10.4545455,0.8954305 10.4545455,2 L10.4545455,8.45454545 C10.4545455,9.55911495 9.55911495,10.4545455 8.45454545,10.4545455 L2,10.4545455 C0.8954305,10.4545455 5.7935996e-16,9.55911495 0,8.45454545 L0,2 C-1.3527075e-16,0.8954305 0.8954305,6.46995335e-16 2,0 L8.45454545,0 Z" id="形状结合" fill="#FA6400"></path>
                            </g>
                        </g>
                    </g>
                </g>
            </g>
        </g>
    </g>
</svg>