<?xml version="1.0" encoding="UTF-8"?>
<svg width="48px" height="24px" viewBox="0 0 48 24" version="1.1" xmlns="http://www.w3.org/2000/svg" xmlns:xlink="http://www.w3.org/1999/xlink">
    <title>卡车</title>
    <g id="正式稿" stroke="none" stroke-width="1" fill="none" fill-rule="evenodd">
        <g id="1首页" transform="translate(-839.000000, -700.000000)" fill="#F7B500" fill-rule="nonzero">
            <path d="M887,715.645835 L886.125283,720 L884.047835,720 L884.047835,719.77381 C884.047835,718.020834 883.33713,716.437504 882.243734,715.249999 C881.150337,714.119045 879.564915,713.383928 877.870154,713.383928 C876.175392,713.383928 874.644643,714.119045 873.496574,715.249999 C872.34851,716.380953 871.692472,718.020834 871.692472,719.77381 L871.692472,720 L866.608187,720 L866.608187,701.357163 L866.11616,701.357163 L866.11616,720 L855.291575,720 L855.291575,719.77381 C855.291575,718.020834 854.58087,716.437504 853.487474,715.30655 C852.394077,714.175596 850.863328,713.440478 849.168567,713.440478 C847.473805,713.440478 845.943056,714.119051 844.849659,715.30655 C843.756263,716.437504 843.045558,718.020834 843.045558,719.77381 L843.045558,720 L842.66287,720 L841.405466,717.172621 L841.405466,714.28869 L840.640089,714.28869 L840.640089,712.252979 L839,712.252979 L839,707.050602 L863.437351,707.050602 C863.492021,704.95834 863.60136,701.922628 863.820039,700 L874.808665,700 C877.268804,702.205358 878.799553,705.749996 879.78361,708.407711 C881.478372,709.029733 883.118461,709.59521 884.813223,710.217232 C885.414588,711.17854 885.797279,712.139848 886.015959,713.101162 L883.118461,713.101162 L883.993178,715.645806 L887,715.645835 Z M868,711 L868,712 L870,712 L870,711 L868,711 Z M868,710 L873.170466,710 L874.931826,708.717557 L878,708.717557 C877.318182,706.633589 876.068189,703.763362 874.363645,702 L868,702 L868,710 Z M846,708 L846,711 L847,711 L847,708 L846,708 Z M841,708 L841,711 L842,711 L842,708 L841,708 Z M851,708 L851,711 L852,711 L852,708 L851,708 Z M856,708 L856,711 L857,711 L857,708 L856,708 Z M861,708 L861,711 L862,711 L862,708 L861,708 Z M877.5,715 C876.282353,715 875.117645,715.529412 874.323529,716.323529 C873.529413,717.117645 873,718.282353 873,719.5 C873,720.717647 873.529412,721.882355 874.323529,722.676471 C875.117645,723.470587 876.282353,724 877.5,724 C878.717647,724 879.882355,723.470588 880.676471,722.676471 C881.470587,721.882355 882,720.717647 882,719.5 C882,718.282353 881.470588,717.117645 880.676471,716.323529 C879.829411,715.529413 878.717647,715 877.5,715 Z M849.5,715 C848.282353,715 847.117645,715.529412 846.323529,716.323529 C845.529413,717.117645 845,718.282353 845,719.5 C845,720.717647 845.47647,721.882355 846.323529,722.676471 C847.117645,723.470587 848.282353,724 849.5,724 C850.717647,724 851.882355,723.470588 852.676471,722.676471 C853.470587,721.882355 854,720.717647 854,719.5 C854,718.282353 853.52353,717.117645 852.676471,716.323529 C851.882355,715.529413 850.717647,715 849.5,715 Z" id="卡车"></path>
        </g>
    </g>
</svg>