<?xml version="1.0" encoding="UTF-8"?>
<svg width="430px" height="27px" viewBox="0 0 430 27" version="1.1" xmlns="http://www.w3.org/2000/svg" xmlns:xlink="http://www.w3.org/1999/xlink">
    <title>装饰</title>
    <g id="页面-1" stroke="none" stroke-width="1" fill="none" fill-rule="evenodd" opacity="0.6">
        <g id="1莲都区公安-主页" transform="translate(-1450.000000, -161.000000)" fill="#FFFFFF">
            <g id="右侧数据" transform="translate(1450.000000, 158.000000)">
                <g id="装饰" transform="translate(0.000000, 3.000000)">
                    <rect id="尾线" x="330" y="0" width="100" height="1"></rect>
                    <path d="M332.05591,-2.84217094e-14 L305,27 L303,27 L330.05591,-2.84217094e-14 L332.05591,-2.84217094e-14 Z M326.05591,-2.84217094e-14 L299,27 L297,27 L324.05591,-2.84217094e-14 L326.05591,-2.84217094e-14 Z M320.05591,-2.84217094e-14 L293,27 L291,27 L318.05591,-2.84217094e-14 L320.05591,-2.84217094e-14 Z M314.05591,-2.84217094e-14 L287,27 L285,27 L312.05591,-2.84217094e-14 L314.05591,-2.84217094e-14 Z M308.05591,-2.84217094e-14 L281,27 L279,27 L306.05591,-2.84217094e-14 L308.05591,-2.84217094e-14 Z M302.05591,-2.84217094e-14 L275,27 L273,27 L300.05591,-2.84217094e-14 L302.05591,-2.84217094e-14 Z M296.05591,-2.84217094e-14 L269,27 L267,27 L294.05591,-2.84217094e-14 L296.05591,-2.84217094e-14 Z M290.05591,-2.84217094e-14 L263,27 L261,27 L288.05591,-2.84217094e-14 L290.05591,-2.84217094e-14 Z" id="斜线"></path>
                    <rect id="起始线" x="0" y="26" width="305" height="1"></rect>
                </g>
            </g>
        </g>
    </g>
</svg>