<svg xmlns="http://www.w3.org/2000/svg" width="25" height="25" viewBox="0 0 25 25">
  <g id="组_1516" data-name="组 1516" transform="translate(-76.136 -401.532)">
    <circle id="椭圆_54" data-name="椭圆 54" cx="12" cy="12" r="12" transform="translate(76.636 402.032)" fill="none" stroke="#02c9ba" stroke-miterlimit="10" stroke-width="1"/>
    <path id="路径_177" data-name="路径 177" d="M88.587,402a12.059,12.059,0,1,0,12.059,12.059A12.1,12.1,0,0,0,88.587,402Zm7.688,8.743-9.045,9.044a1.609,1.609,0,0,1-.9.3,2.138,2.138,0,0,1-.9-.3L80,414.36a1.279,1.279,0,0,1,1.809-1.809l4.522,4.522,8.14-8.14a1.376,1.376,0,0,1,1.809,0,1.128,1.128,0,0,1,0,1.809Zm0,0" fill="#02c9ba"/>
  </g>
</svg>
