<?xml version="1.0" encoding="UTF-8"?>
<svg width="60px" height="60px" viewBox="0 0 60 60" version="1.1" xmlns="http://www.w3.org/2000/svg" xmlns:xlink="http://www.w3.org/1999/xlink">
    <title>指北针</title>
    <g id="页面-1" stroke="none" stroke-width="1" fill="none" fill-rule="evenodd">
        <g id="0莲都区公安-默认主页" transform="translate(-43.000000, -968.000000)">
            <g id="指北针" transform="translate(43.000000, 968.000000)">
                <circle id="椭圆形" stroke="#2F2F2F" stroke-width="10" opacity="0.8" cx="30" cy="30" r="25"></circle>
                <path d="M32.7460719,53.1338622 C32.9120583,52.962286 33.1883221,52.9544908 33.3634033,53.1171543 C33.5384844,53.2798179 33.5464388,53.5505513 33.3804525,53.7221275 L33.3804525,53.7221275 L30.34155,56.8706534 C30.208531,57.0088048 30.0038942,57.0344253 29.8379078,56.956437 C29.8288131,56.9530936 29.8208587,56.9452892 29.8117639,56.9408375 C29.7821989,56.9241296 29.7503626,56.9118735 29.7242187,56.8862529 C29.7196666,56.8806836 29.7162643,56.8762319 29.7117122,56.8717709 L29.7117122,56.8717709 L29.6912513,56.857289 L26.6227933,53.737727 C26.5409217,53.6552869 26.5,53.5483254 26.5,53.441373 C26.5,53.3299598 26.5454738,53.217429 26.63415,53.1338714 C26.8080908,52.9700903 27.0843454,52.9745512 27.2514814,53.1450099 L27.2514814,53.1450099 L30.018672,55.9592961 Z M6.88284566,26.6365967 C7.04550919,26.8116779 7.03771402,27.0879417 6.86613779,27.2539281 L4.04070389,29.981328 L6.85499005,32.7485186 C7.02544876,32.9156546 7.02990969,33.1919092 6.86612863,33.36585 C6.78257098,33.4545262 6.67004021,33.5 6.55862695,33.5 C6.45167462,33.5 6.34471314,33.4590783 6.26227301,33.3772067 L3.14271104,30.3087487 L3.12822906,30.2882878 L3.12822906,30.2882878 C3.12376813,30.2837357 3.11931636,30.2803334 3.11374707,30.2757813 C3.08812651,30.2496374 3.07587041,30.2178011 3.05916255,30.1882454 C3.05471078,30.1791413 3.04690645,30.1711869 3.04356304,30.1620922 C2.96557468,29.9961058 2.99119524,29.791469 3.12934658,29.65845 L6.27787251,26.6195475 C6.44944874,26.4535612 6.72018212,26.4615156 6.88284566,26.6365967 Z M53.1171543,26.6365967 C53.2798179,26.4615156 53.5505513,26.4535612 53.7221275,26.6195475 L53.7221275,26.6195475 L56.8706534,29.65845 C57.0088048,29.791469 57.0344253,29.9961058 56.956437,30.1620922 C56.9530936,30.1711869 56.9452892,30.1791413 56.9408375,30.1882361 C56.9241296,30.2178011 56.9118735,30.2496374 56.8862529,30.2757813 C56.8806836,30.2803334 56.8762319,30.2837357 56.8717709,30.2882878 L56.8717709,30.2882878 L56.857289,30.3087487 L53.737727,33.3772067 C53.6552869,33.4590783 53.5483254,33.5 53.441373,33.5 C53.3299598,33.5 53.217429,33.4545262 53.1338714,33.36585 C52.9700903,33.1919092 52.9745512,32.9156546 53.1450099,32.7485186 L53.1450099,32.7485186 L55.9592961,29.981328 L53.1338622,27.2539281 C52.962286,27.0879417 52.9544908,26.8116779 53.1171543,26.6365967 Z M30.34155,3.12934658 L33.3804525,6.27787251 C33.5464388,6.44944874 33.5384844,6.72018212 33.3634033,6.88284566 C33.1883221,7.04550919 32.9120583,7.03771402 32.7460719,6.86613779 L30.018672,4.04070389 L27.2514814,6.85499005 C27.0843454,7.02544876 26.8080908,7.02990969 26.63415,6.86612863 C26.5454738,6.78257098 26.5,6.67004021 26.5,6.55862695 C26.5,6.45167462 26.5409217,6.34471314 26.6227933,6.26227301 L29.6912513,3.14271104 L29.7117122,3.12822906 L29.7117122,3.12822906 C29.7162643,3.12376813 29.7196666,3.11931636 29.7242187,3.11374707 C29.7503626,3.08812651 29.7821989,3.07587041 29.8117546,3.05916255 C29.8208587,3.05471078 29.8288131,3.04690645 29.8379078,3.04356304 C30.0038942,2.96557468 30.208531,2.99119524 30.34155,3.12934658 Z" id="外十字" fill="#FFFFFF" fill-rule="nonzero" opacity="0.6"></path>
                <path d="M31,46 L31,50 L29,50 L29,46 L31,46 Z M14,29 L14,31 L10,31 L10,29 L14,29 Z M50,29 L50,31 L46,31 L46,29 L50,29 Z M31,10 L31,14 L29,14 L29,10 L31,10 Z" id="内十字" fill="#FFFFFF" opacity="0.2"></path>
                <g id="编组-2" transform="translate(25.000000, 12.000000)">
                    <polygon id="三角形" fill="#E02020" points="5 0 10 18 0 18"></polygon>
                    <polygon id="三角形" fill="#EEEEEE" transform="translate(5.000000, 28.000000) scale(1, -1) translate(-5.000000, -28.000000) " points="5 19 10 37 0 37"></polygon>
                </g>
            </g>
        </g>
    </g>
</svg>