<svg xmlns="http://www.w3.org/2000/svg" xmlns:xlink="http://www.w3.org/1999/xlink" width="432.674" height="694.622" viewBox="0 0 432.674 694.622">
  <defs>
    <style>
      .cls-1, .cls-2, .cls-3, .cls-4 {
        fill: #25d7e7;
      }

      .cls-2 {
        opacity: 0.8;
      }

      .cls-3, .cls-7 {
        opacity: 0.6;
      }

      .cls-4 {
        opacity: 0.4;
      }

      .cls-5, .cls-7 {
        fill: none;
        stroke-miterlimit: 10;
      }

      .cls-5 {
        stroke: #707070;
      }

      .cls-6 {
        fill: url(#linear-gradient);
      }

      .cls-8, .cls-9 {
        stroke: none;
      }

      .cls-9 {
        fill: #16c8f6;
      }
    </style>
    <linearGradient id="linear-gradient" y1="0.5" x2="1" y2="0.5" gradientUnits="objectBoundingBox">
      <stop offset="0" stop-opacity="0.502"/>
      <stop offset="1" stop-opacity="0.522"/>
    </linearGradient>
  </defs>
  <g id="组_138" data-name="组 138" transform="translate(-33.405 -323.591)">
    <g id="组_134" data-name="组 134">
      <path id="路径_163" data-name="路径 163" class="cls-1" d="M152.419,323.591h4.964l5.251,5.125h-4.99Z"/>
      <path id="路径_164" data-name="路径 164" class="cls-2" d="M163.512,325.266h4.964l3.536,3.45h-4.99Z"/>
      <path id="路径_165" data-name="路径 165" class="cls-3" d="M173.3,326.33h3.659l2.059,2.386h-3.654Z"/>
      <path id="路径_166" data-name="路径 166" class="cls-4" d="M180.9,326.33h3.659l2.059,2.386h-3.654Z"/>
    </g>
    <g id="组_137" data-name="组 137">
      <path id="路径_167" data-name="路径 167" class="cls-5" d="M165.439,1011.04l5.554-4.836H454.5l6.143-6.4V342.194l-5.554-5.424H155.146l-8.364-6.622H44.465l-5.62,5.62v664.555l5.7,5.7H159.884Z"/>
      <path id="路径_168" data-name="路径 168" class="cls-6" d="M165.439,1011.04l5.554-4.836H454.5l6.143-6.4V342.194l-5.554-5.424H155.146l-8.364-6.622H44.465l-5.62,5.62v664.555l5.7,5.7H159.884Z"/>
      <g id="路径_169" data-name="路径 169" class="cls-7">
        <path class="cls-8" d="M165.46,1015.54l5.721-4.981H456.707l7.372-7.641V339.388l-6.766-6.632H155.338l-8.615-6.82H42.239L35.4,332.769v670.687l6.912,6.912H159.739Z"/>
        <path class="cls-9" d="M 165.4597778320312 1015.539733886719 L 171.1806793212891 1010.559143066406 L 456.7066955566406 1010.559143066406 L 464.078857421875 1002.917785644531 L 464.078857421875 339.3876647949219 L 457.3124084472656 332.755859375 L 155.3377685546875 332.755859375 L 146.7226867675781 325.9355773925781 L 42.23859405517578 325.9355773925781 L 35.40486526489258 332.7693176269531 L 35.40486526489258 1003.456237792969 L 42.317138671875 1010.368469238281 L 159.7388610839844 1010.368469238281 L 165.4597778320312 1015.539733886719 M 165.4348602294922 1018.213195800781 L 164.1185913085938 1017.023498535156 L 158.9688262939453 1012.368469238281 L 42.317138671875 1012.368469238281 L 41.48868560791016 1012.368469238281 L 40.90295791625977 1011.782653808594 L 33.99068450927734 1004.870422363281 L 33.40486526489258 1004.28466796875 L 33.40486526489258 1003.456237792969 L 33.40486526489258 332.7693176269531 L 33.40486526489258 331.9408569335938 L 33.99068450927734 331.3551330566406 L 40.82441329956055 324.5213928222656 L 41.41014099121094 323.9355773925781 L 42.23859405517578 323.9355773925781 L 146.7226867675781 323.9355773925781 L 147.4185028076172 323.9355773925781 L 147.9640502929688 324.3674926757812 L 156.0335693359375 330.755859375 L 457.3124084472656 330.755859375 L 458.1290588378906 330.755859375 L 458.7123107910156 331.3274841308594 L 465.4787902832031 337.9593200683594 L 466.078857421875 338.5474853515625 L 466.078857421875 339.3876647949219 L 466.078857421875 1002.917785644531 L 466.078857421875 1003.725280761719 L 465.5182189941406 1004.306396484375 L 458.1460571289062 1011.94775390625 L 457.5562438964844 1012.559143066406 L 456.7066955566406 1012.559143066406 L 171.9293518066406 1012.559143066406 L 166.7730560302734 1017.048217773438 L 165.4348602294922 1018.213195800781 Z"/>
      </g>
      <g id="组_135" data-name="组 135">
        <path id="路径_170" data-name="路径 170" class="cls-1" d="M42.915,999.283h3.872l4.556,5.2-3.984.055Z"/>
        <path id="路径_171" data-name="路径 171" class="cls-2" d="M54.134,1000.671h3.872l3.525,3.827-3.994.041Z"/>
        <path id="路径_172" data-name="路径 172" class="cls-3" d="M63.112,1000.671h3.872l3.525,3.827-3.994.041Z"/>
      </g>
      <g id="组_136" data-name="组 136">
        <path id="路径_173" data-name="路径 173" class="cls-1" d="M456.44,999.283h-3.872l-4.556,5.2,3.983.055Z"/>
        <path id="路径_174" data-name="路径 174" class="cls-2" d="M445.222,1000.671H441.35l-3.525,3.827,3.995.041Z"/>
        <path id="路径_175" data-name="路径 175" class="cls-3" d="M436.244,1000.671h-3.872l-3.525,3.827,3.994.041Z"/>
      </g>
    </g>
  </g>
</svg>
