<svg xmlns="http://www.w3.org/2000/svg" width="159.752" height="77.302" viewBox="0 0 159.752 77.302">
  <defs>
    <style>
      .cls-1 {
        fill: none;
        stroke: #ffd60b;
        stroke-miterlimit: 10;
      }

      .cls-2 {
        opacity: 0.3;
      }

      .cls-3 {
        fill: #ff7a0d;
      }
    </style>
  </defs>
  <g id="组_992" data-name="组 992" transform="translate(-261.863 -561.642)">
    <path id="路径_930" data-name="路径 930" class="cls-1" d="M262.363,638.443V579.487s6.312-1.362,6.13-6.175-5.812-4.949-5.812-4.949v-6.221H420.933v50.919s-6.357,1.5-5.676,7.446c0,0,1.726,4.677,5.858,4.859v12.441H393.144s-1.09-5.721-6.675-5.721-6.447,6.266-6.447,6.266S262.5,638.307,262.363,638.443Z"/>
    <g id="组_991" data-name="组 991" class="cls-2">
      <path id="路径_931" data-name="路径 931" class="cls-3" d="M262.363,638.443V579.487s6.312-1.362,6.13-6.175-5.812-4.949-5.812-4.949v-6.221H420.933v50.919s-6.357,1.5-5.676,7.446c0,0,1.726,4.677,5.858,4.859v12.441H393.144s-1.09-5.721-6.675-5.721-6.447,6.266-6.447,6.266S262.5,638.307,262.363,638.443Z"/>
    </g>
  </g>
</svg>
