<?xml version="1.0" encoding="UTF-8"?>
<svg width="64px" height="64px" viewBox="0 0 64 64" version="1.1" xmlns="http://www.w3.org/2000/svg" xmlns:xlink="http://www.w3.org/1999/xlink">
    <title>网络通信icon</title>
    <g id="页面-1" stroke="none" stroke-width="1" fill="none" fill-rule="evenodd">
        <g id="丽水市应急融合指挥管理平台" transform="translate(-1500.000000, -338.000000)">
            <g id="路·网·电保障" transform="translate(1500.000000, 175.000000)">
                <g id="网络通信icon" transform="translate(0.000000, 163.000000)">
                    <rect id="矩形" fill-opacity="0.2" fill="#121212" x="0" y="0" width="64" height="64"></rect>
                    <path d="M64,0 L64,0.317 L0.316,64 L0,64 L0,62.431 L62.431,0 L64,0 Z M64,2.203 L64,4.088 L4.088,64 L2.202,64 L64,2.203 Z M64,5.973 L64,7.859 L7.859,64 L5.974,64 L64,5.973 Z M64,9.745 L64,11.63 L11.63,64 L9.744,64 L64,9.745 Z M64,13.515 L64,15.401 L15.402,64 L13.516,64 L64,13.515 Z M64,17.287 L64,19.173 L19.172,64 L17.287,64 L64,17.287 Z M64,21.058 L64,22.943 L22.944,64 L21.058,64 L64,21.058 Z M64,24.829 L64,26.715 L26.714,64 L24.83,64 L64,24.829 Z M64,28.601 L64,30.486 L30.486,64 L28.6,64 L64,28.601 Z M64,32.371 L64,34.257 L34.258,64 L32.372,64 L64,32.371 Z M64,36.143 L64,38.029 L38.028,64 L36.142,64 L64,36.143 Z M64,39.914 L64,41.799 L41.799,64 L39.914,64 L64,39.914 Z M64,43.684 L64,45.57 L45.569,64 L43.684,64 L64,43.684 Z M64,47.455 L64,49.34 L49.341,64 L47.455,64 L64,47.455 Z M64,51.226 L64,53.112 L53.112,64 L51.227,64 L64,51.226 Z M64,54.998 L64,56.883 L56.883,64 L54.997,64 L64,54.998 Z M64,58.768 L64,60.654 L60.655,64 L58.769,64 L64,58.768 Z M64,62.54 L64,64 L62.539,64 L64,62.54 Z M60.545,0 L0,60.546 L0,58.66 L58.66,0 L60.545,0 Z M56.775,0 L0,56.774 L0,54.888 L54.889,0 L56.775,0 Z M53.003,0 L0,53.004 L0,51.118 L51.117,0 L53.003,0 Z M49.232,0 L0,49.232 L0,47.346 L47.347,0 L49.232,0 Z M45.461,0 L0,45.461 L0,43.576 L43.575,0 L45.461,0 Z M41.689,0 L0,41.69 L0,39.804 L39.804,0 L41.689,0 Z M37.919,0 L0,37.918 L0,36.033 L36.033,0 L37.919,0 Z M34.147,0 L0,34.148 L0,32.262 L32.262,0 L34.147,0 Z M30.377,0 L0,30.376 L0,28.49 L28.491,0 L30.377,0 Z M26.605,0 L0,26.605 L0,24.72 L24.719,0 L26.605,0 Z M22.834,0 L0,22.834 L0,20.948 L20.949,0 L22.834,0 Z M19.063,0 L0,19.062 L0,17.178 L17.177,0 L19.063,0 Z M15.291,0 L0,15.292 L0,13.406 L13.406,0 L15.291,0 Z M11.521,0 L0,11.52 L0,9.634 L9.635,0 L11.521,0 Z M7.749,0 L0,7.75 L0,5.864 L5.863,0 L7.749,0 Z M3.978,0 L0,3.978 L0,2.092 L2.093,0 L3.978,0 Z" id="形状结合" fill-opacity="0.25" fill="#32C5FF"></path>
                    <path d="M32,50.9885219 C30.7586667,50.9885219 29.5173333,51.0143476 28.3013333,50.9885219 C26.7053333,50.9626963 25.92,49.9813216 26.2746667,48.4059571 C27.44,43.266653 28.6306667,38.1273489 29.8466667,32.9880448 C29.9986667,32.3424036 29.9986667,31.9291932 29.4413333,31.4126803 C27.896,30.0180952 27.9213333,27.5904843 29.3906667,26.0925967 C30.8346667,24.6205347 33.1146667,24.6205347 34.584,26.066771 C36.0533333,27.538833 36.104,29.966444 34.5586667,31.3868546 C34.0013333,31.9033676 34.0013333,32.316578 34.1533333,32.9622192 C35.3693333,38.0756976 36.5346667,43.189176 37.7253333,48.3026545 C38.1053333,49.955496 37.3453333,50.9626963 35.648,50.9885219 L32,50.9885219 Z M51,28.8559411 C50.6706667,36.1645996 47.5293333,41.794591 41.2973333,45.5909614 C40.0813333,46.3140795 39.0173333,45.7717409 38.84,44.4029815 C38.7386667,43.5507351 39.22,43.0858735 39.8786667,42.6726631 C43.5773333,40.4516573 46.136,37.2751025 47.1746667,33.0396961 C48.8466667,26.2992018 46.9973333,20.6175591 41.7786667,16.0980706 C40.8666667,15.3233012 40.7146667,14.6518343 41.2466667,13.7995879 C41.804,12.9215159 42.6653333,12.7407363 43.5013333,13.3863775 C47.732,16.7695375 50.164,21.1598978 50.8226667,26.6091096 C50.924,27.3580534 50.9493333,28.0811716 51,28.8559411 L51,28.8559411 Z M13,29.010895 C13.152,22.4770059 15.584,17.3893531 20.3213333,13.4896801 C21.3853333,12.6116081 22.6013333,13.0506441 22.9306667,14.3419265 C23.1333333,15.1425216 22.728,15.633209 22.1453333,16.1238963 C19.2066667,18.5773329 17.3066667,21.7022364 16.5213333,25.4986067 C15.204,31.9808445 17.9906667,38.7471645 23.488,42.2852783 C23.8173333,42.4918835 24.1466667,42.6726631 24.476,42.9050939 C25.236,43.4216069 25.4386667,44.3513302 24.932,45.177751 C24.476,45.9783461 23.7666667,46.1849513 22.9053333,45.6684383 C17.56,42.5693605 14.3426667,37.9465694 13.304,31.7742394 C13.1013333,30.7670391 13.076,29.7340131 13,29.010895 L13,29.010895 Z M42.6906667,28.933418 C42.64,25.4469554 41.3986667,22.683611 38.9666667,20.4884309 C38.2066667,19.816964 38.0546667,19.1196715 38.5106667,18.3449021 C39.0933333,17.3118761 40.0306667,17.1827479 40.9933333,17.983343 C46.516,22.6319597 47.504,31.2060751 43.1466667,37.1201486 C42.3106667,38.2564772 41.196,39.2378518 40.132,40.1934008 C39.296,40.9423446 38.536,40.839042 37.9786667,40.1159239 C37.32,39.2636775 37.396,38.2823028 38.2573333,37.6108359 C40.5626667,35.8288662 42.032,33.5303835 42.5386667,30.6120852 C42.6146667,29.9922696 42.64,29.372454 42.6906667,28.933418 Z M18.1173333,29.2433258 C18.2186667,24.4139295 19.8146667,20.8758156 22.9306667,18.0608199 C23.8173333,17.2602248 24.552,17.2602248 25.236,18.0091686 C25.9706667,18.8355894 25.8946667,19.6878358 25.0333333,20.4884309 C19.7893333,25.3694785 20.068,33.0913474 25.6666667,37.533359 C26.2746667,38.0240463 26.5786667,38.5663849 26.4266667,39.3411544 C26.1986667,40.5807855 25.084,41.0714729 24.0706667,40.3483547 C21.2333333,38.3339541 19.384,35.5964354 18.548,32.1874497 C18.2946667,31.0252955 18.2186667,29.8373157 18.1173333,29.2433258 Z M23.26,28.7268128 C23.26,26.4025044 24.0453333,24.4139295 25.5653333,22.7094367 C26.3506667,21.8313646 27.1866667,21.728062 27.9213333,22.3995289 C28.6813333,23.0968214 28.6813333,24.0007191 27.896,24.9046168 C26.072,27.0481457 25.8946667,29.7081875 27.4653333,32.0841471 C27.8706667,32.6781371 28.0226667,33.272127 27.7186667,33.9694195 C27.1613333,35.2607019 25.996,35.4414815 25.16,34.3309786 C23.8933333,32.6781371 23.26,30.8186904 23.26,28.7268128 Z M40.74,28.7009872 C40.6893333,30.6895621 40.1573333,32.4198806 39.068,33.9694195 C38.308,35.0540967 37.6493333,35.2865276 36.9146667,34.7441889 C36.0533333,34.1243734 35.876,33.0396961 36.5093333,32.0841471 C37.548,30.5346082 37.852,28.8301154 37.2946667,27.0739713 C37.0413333,26.2733762 36.5346667,25.550258 36.028,24.8529655 C35.3693333,23.9490678 35.3186667,23.0968214 36.0533333,22.3995289 C36.7626667,21.7538877 37.5986667,21.805539 38.3586667,22.6319597 C39.9546667,24.3622782 40.6893333,26.4541557 40.74,28.7009872 Z" id="形状" fill="#23FFFF" fill-rule="nonzero"></path>
                </g>
            </g>
        </g>
    </g>
</svg>