<?xml version="1.0" encoding="UTF-8"?>
<svg width="64px" height="64px" viewBox="0 0 64 64" version="1.1" xmlns="http://www.w3.org/2000/svg" xmlns:xlink="http://www.w3.org/1999/xlink">
    <title>道路icon</title>
    <g id="页面-1" stroke="none" stroke-width="1" fill="none" fill-rule="evenodd">
        <g id="丽水市应急融合指挥管理平台" transform="translate(-1500.000000, -250.000000)">
            <g id="路·网·电保障" transform="translate(1500.000000, 175.000000)">
                <g id="道路icon" transform="translate(0.000000, 75.000000)">
                    <rect id="矩形" fill-opacity="0.2" fill="#121212" x="0" y="0" width="64" height="64"></rect>
                    <path d="M64,0 L64,0.317 L0.316,64 L0,64 L0,62.431 L62.431,0 L64,0 Z M64,2.203 L64,4.088 L4.088,64 L2.202,64 L64,2.203 Z M64,5.973 L64,7.859 L7.859,64 L5.974,64 L64,5.973 Z M64,9.745 L64,11.63 L11.63,64 L9.744,64 L64,9.745 Z M64,13.515 L64,15.401 L15.402,64 L13.516,64 L64,13.515 Z M64,17.287 L64,19.173 L19.172,64 L17.287,64 L64,17.287 Z M64,21.058 L64,22.943 L22.944,64 L21.058,64 L64,21.058 Z M64,24.829 L64,26.715 L26.714,64 L24.83,64 L64,24.829 Z M64,28.601 L64,30.486 L30.486,64 L28.6,64 L64,28.601 Z M64,32.371 L64,34.257 L34.258,64 L32.372,64 L64,32.371 Z M64,36.143 L64,38.029 L38.028,64 L36.142,64 L64,36.143 Z M64,39.914 L64,41.799 L41.799,64 L39.914,64 L64,39.914 Z M64,43.684 L64,45.57 L45.569,64 L43.684,64 L64,43.684 Z M64,47.455 L64,49.34 L49.341,64 L47.455,64 L64,47.455 Z M64,51.226 L64,53.112 L53.112,64 L51.227,64 L64,51.226 Z M64,54.998 L64,56.883 L56.883,64 L54.997,64 L64,54.998 Z M64,58.768 L64,60.654 L60.655,64 L58.769,64 L64,58.768 Z M64,62.54 L64,64 L62.539,64 L64,62.54 Z M60.545,0 L0,60.546 L0,58.66 L58.66,0 L60.545,0 Z M56.775,0 L0,56.774 L0,54.888 L54.889,0 L56.775,0 Z M53.003,0 L0,53.004 L0,51.118 L51.117,0 L53.003,0 Z M49.232,0 L0,49.232 L0,47.346 L47.347,0 L49.232,0 Z M45.461,0 L0,45.461 L0,43.576 L43.575,0 L45.461,0 Z M41.689,0 L0,41.69 L0,39.804 L39.804,0 L41.689,0 Z M37.919,0 L0,37.918 L0,36.033 L36.033,0 L37.919,0 Z M34.147,0 L0,34.148 L0,32.262 L32.262,0 L34.147,0 Z M30.377,0 L0,30.376 L0,28.49 L28.491,0 L30.377,0 Z M26.605,0 L0,26.605 L0,24.72 L24.719,0 L26.605,0 Z M22.834,0 L0,22.834 L0,20.948 L20.949,0 L22.834,0 Z M19.063,0 L0,19.062 L0,17.178 L17.177,0 L19.063,0 Z M15.291,0 L0,15.292 L0,13.406 L13.406,0 L15.291,0 Z M11.521,0 L0,11.52 L0,9.634 L9.635,0 L11.521,0 Z M7.749,0 L0,7.75 L0,5.864 L5.863,0 L7.749,0 Z M3.978,0 L0,3.978 L0,2.092 L2.093,0 L3.978,0 Z" id="形状结合" fill-opacity="0.25" fill="#32C5FF"></path>
                    <path d="M20.8055556,12.0000358 L20.8055556,52 L17.5716917,52 C15.66076,52 14.1003095,50.2607034 14.0046475,48.0736434 L14,47.860638 L14,16.1393979 C14,13.9247938 15.5007339,12.1162908 17.3878943,12.0054221 L17.5716917,12.0000358 L20.8055556,12.0000358 Z M45.4284653,12 C47.3392068,12 48.8996883,13.7392966 48.9953524,15.9263566 L49,16.139362 L49,47.8606201 C49,50.0752675 47.4992292,51.8837298 45.6122449,51.9945959 L45.4284653,51.9999821 L42.1944444,51.9999821 L42.1944444,12 L45.4284653,12 Z M33.1666667,39.3644467 L33.1666667,48.6666667 L29.8333333,48.6666667 L29.8333333,39.3644467 L33.1666667,39.3644467 Z M33.1666667,26.9613991 L33.1666667,36.2636191 L29.8333333,36.2636191 L29.8333333,26.9613991 L33.1666667,26.9613991 Z M33.1666667,15.3333333 L33.1666667,24.6358535 L29.8333333,24.6358535 L29.8333333,15.3333333 L33.1666667,15.3333333 Z" fill="#23FFFF" fill-rule="nonzero"></path>
                </g>
            </g>
        </g>
    </g>
</svg>